<svg width="130" height="130" viewBox="0 0 130 130" fill="none" xmlns="http://www.w3.org/2000/svg">
<circle cx="64.8" cy="64.8" r="64.8" fill="#C2C1C3"/>
<path d="M93.3319 30.4535C104.936 33.5311 111.849 45.433 108.772 57.0377C106.719 64.7787 100.739 70.4309 93.5405 72.4239C98.8052 77.7221 101.199 85.5949 99.1457 93.3357C96.068 104.94 84.1653 111.853 72.5606 108.775C64.8196 106.722 59.1673 100.743 57.1744 93.5441C51.8763 98.8063 44.0063 101.199 36.2673 99.1466C24.6625 96.069 17.7493 84.1661 20.8269 72.5612C22.8791 64.8225 28.856 59.1709 36.0516 57.1763C30.7901 51.8782 28.3989 44.0082 30.451 36.2697C33.5286 24.6649 45.4315 17.7517 57.0364 20.8293C64.7758 22.8818 70.4266 28.8602 72.4205 36.0568C77.7187 30.7927 85.5915 28.4008 93.3319 30.4535ZM66.8015 57.2494C64.1494 59.8845 60.8533 61.7996 57.2505 62.7981C59.8853 65.4508 61.7997 68.7483 62.7975 72.3516C65.4504 69.7167 68.7478 67.8014 72.3513 66.8037C69.7155 64.1508 67.7997 60.8534 66.8015 57.2494Z" fill="#F0EFF1"/>
</svg>
