<svg width="375" height="48" viewBox="0 0 375 48" fill="none" xmlns="http://www.w3.org/2000/svg">
<path d="M55.0166 25.7231C55.6585 25.7231 56.2673 25.8421 56.8428 26.0801C57.4183 26.3125 57.9274 26.6777 58.3701 27.1758C58.8184 27.6683 59.1698 28.3019 59.4243 29.0767C59.6789 29.8459 59.8062 30.7728 59.8062 31.8574V31.874C59.8062 33.2188 59.6125 34.3698 59.2251 35.3271C58.8377 36.2845 58.2816 37.0205 57.5566 37.5352C56.8372 38.0443 55.9767 38.2988 54.9751 38.2988C54.2391 38.2988 53.575 38.166 52.9829 37.9004C52.3963 37.6292 51.9093 37.2585 51.522 36.7881C51.1401 36.3122 50.8828 35.7699 50.75 35.1611L50.7334 35.0698H52.8335L52.8667 35.1528C52.9718 35.4295 53.1213 35.673 53.3149 35.8833C53.5142 36.0936 53.7521 36.2568 54.0288 36.373C54.311 36.4837 54.6265 36.5391 54.9751 36.5391C55.606 36.5391 56.1206 36.3537 56.519 35.9829C56.923 35.6066 57.2246 35.1058 57.4238 34.4805C57.6286 33.8496 57.7448 33.1523 57.7725 32.3887C57.778 32.3057 57.7808 32.2254 57.7808 32.1479C57.7808 32.0649 57.7808 31.9847 57.7808 31.9072L57.4072 29.9067C57.4072 29.453 57.3021 29.0407 57.0918 28.6699C56.8815 28.2992 56.5965 28.0059 56.2368 27.79C55.8826 27.5742 55.4814 27.4663 55.0332 27.4663C54.6016 27.4663 54.2059 27.5715 53.8462 27.7817C53.4865 27.992 53.1987 28.2798 52.9829 28.645C52.7671 29.0047 52.6592 29.4087 52.6592 29.8569V29.8735C52.6592 30.3384 52.7616 30.7507 52.9663 31.1104C53.1711 31.4645 53.4505 31.744 53.8047 31.9487C54.1589 32.1535 54.5628 32.2559 55.0166 32.2559C55.4704 32.2559 55.8771 32.1562 56.2368 31.957C56.5965 31.7578 56.8815 31.4811 57.0918 31.127C57.3021 30.7728 57.4072 30.3716 57.4072 29.9233V29.9067H57.9053V32.1147H57.6147C57.4709 32.4302 57.2578 32.7235 56.9756 32.9946C56.6934 33.2658 56.3447 33.4844 55.9297 33.6504C55.5202 33.8164 55.0387 33.8994 54.4854 33.8994C53.7217 33.8994 53.0465 33.7279 52.46 33.3848C51.8734 33.0417 51.4113 32.5713 51.0737 31.9736C50.7417 31.376 50.5757 30.7008 50.5757 29.9482V29.9316C50.5757 29.1182 50.7638 28.396 51.1401 27.7651C51.522 27.1287 52.0477 26.6307 52.7173 26.271C53.3924 25.9058 54.1589 25.7231 55.0166 25.7231ZM63.5747 36.3896C63.1984 36.3896 62.883 36.2651 62.6284 36.0161C62.3794 35.7616 62.2549 35.4517 62.2549 35.0864C62.2549 34.7157 62.3794 34.4058 62.6284 34.1567C62.883 33.9022 63.1984 33.7749 63.5747 33.7749C63.9565 33.7749 64.272 33.9022 64.521 34.1567C64.77 34.4058 64.8945 34.7157 64.8945 35.0864C64.8945 35.4517 64.77 35.7616 64.521 36.0161C64.272 36.2651 63.9565 36.3896 63.5747 36.3896ZM63.5747 30.2305C63.1984 30.2305 62.883 30.106 62.6284 29.8569C62.3794 29.6024 62.2549 29.2925 62.2549 28.9272C62.2549 28.5565 62.3794 28.2466 62.6284 27.9976C62.883 27.743 63.1984 27.6157 63.5747 27.6157C63.9565 27.6157 64.272 27.743 64.521 27.9976C64.77 28.2466 64.8945 28.5565 64.8945 28.9272C64.8945 29.2925 64.77 29.6024 64.521 29.8569C64.272 30.106 63.9565 30.2305 63.5747 30.2305ZM73.1538 38V35.7007H67.2935V33.9492C67.6089 33.4124 67.9243 32.8729 68.2397 32.3306C68.5607 31.7882 68.8844 31.2487 69.2109 30.7119C69.543 30.1696 69.8722 29.6356 70.1987 29.1099C70.5308 28.5786 70.86 28.0557 71.1865 27.541C71.5186 27.0208 71.8506 26.5145 72.1826 26.022H75.1958V33.9326H76.8145V35.7007H75.1958V38H73.1538ZM69.2856 33.9824H73.187V27.7319H73.0625C72.819 28.1082 72.5672 28.4956 72.3071 28.894C72.0526 29.2925 71.7952 29.6992 71.5352 30.1143C71.2751 30.5293 71.0177 30.9471 70.7632 31.3677C70.5086 31.7827 70.2568 32.2005 70.0078 32.6211C69.7588 33.0361 69.5181 33.4484 69.2856 33.8579V33.9824ZM81.77 38V28.1304H81.6206L78.6406 30.2305V28.2217L81.77 26.022H83.9033V38H81.77Z" fill="black"/>
<path fill-rule="evenodd" clip-rule="evenodd" d="M287.615 27.0329C287.615 26.3999 287.137 25.8867 286.548 25.8867H285.482C284.893 25.8867 284.415 26.3999 284.415 27.0329V36.9669C284.415 37.5999 284.893 38.1131 285.482 38.1131H286.548C287.137 38.1131 287.615 37.5999 287.615 36.9669V27.0329ZM280.181 28.332H281.248C281.837 28.332 282.314 28.8575 282.314 29.5057V36.9394C282.314 37.5876 281.837 38.1131 281.248 38.1131H280.181C279.592 38.1131 279.114 37.5876 279.114 36.9394V29.5057C279.114 28.8575 279.592 28.332 280.181 28.332ZM275.849 30.981H274.782C274.193 30.981 273.716 31.5132 273.716 32.1697V36.9244C273.716 37.5809 274.193 38.1131 274.782 38.1131H275.849C276.438 38.1131 276.916 37.5809 276.916 36.9244V32.1697C276.916 31.5132 276.438 30.981 275.849 30.981ZM270.548 33.4263H269.482C268.893 33.4263 268.415 33.9509 268.415 34.598V36.9414C268.415 37.5885 268.893 38.1131 269.482 38.1131H270.548C271.137 38.1131 271.615 37.5885 271.615 36.9414V34.598C271.615 33.9509 271.137 33.4263 270.548 33.4263Z" fill="black"/>
<path fill-rule="evenodd" clip-rule="evenodd" d="M303.187 28.3022C305.674 28.3023 308.066 29.2244 309.868 30.8779C310.004 31.0055 310.221 31.0039 310.355 30.8743L311.652 29.6108C311.72 29.545 311.757 29.456 311.757 29.3633C311.756 29.2706 311.718 29.182 311.649 29.117C306.918 24.7423 299.454 24.7423 294.723 29.117C294.655 29.1819 294.616 29.2705 294.615 29.3632C294.615 29.4559 294.652 29.545 294.72 29.6108L296.018 30.8743C296.151 31.0041 296.369 31.0057 296.504 30.8779C298.307 29.2243 300.699 28.3022 303.187 28.3022ZM303.183 32.5225C304.541 32.5224 305.849 33.0342 306.856 33.9583C306.992 34.0894 307.206 34.0866 307.339 33.9519L308.626 32.6326C308.694 32.5634 308.731 32.4695 308.73 32.3719C308.729 32.2744 308.69 32.1813 308.621 32.1135C305.557 29.2227 300.812 29.2227 297.748 32.1135C297.679 32.1813 297.64 32.2744 297.639 32.372C297.638 32.4696 297.676 32.5635 297.743 32.6326L299.03 33.9519C299.163 34.0866 299.377 34.0894 299.513 33.9583C300.519 33.0348 301.827 32.5231 303.183 32.5225ZM305.708 35.316C305.71 35.4214 305.672 35.523 305.605 35.5968L303.429 38.0515C303.365 38.1236 303.278 38.1642 303.187 38.1642C303.096 38.1642 303.009 38.1236 302.945 38.0515L300.768 35.5968C300.701 35.5229 300.664 35.4213 300.666 35.316C300.668 35.2106 300.709 35.1108 300.779 35.0402C302.169 33.7263 304.205 33.7263 305.595 35.0402C305.665 35.1109 305.706 35.2107 305.708 35.316Z" fill="black"/>
<rect opacity="0.35" x="319.257" y="26" width="24" height="12" rx="3.8" stroke="black"/>
<path opacity="0.4" d="M344.757 30.2812V34.3567C345.562 34.0116 346.085 33.2086 346.085 32.319C346.085 31.4294 345.562 30.6264 344.757 30.2812" fill="black"/>
<rect x="320.757" y="27.5" width="21" height="9" rx="2.5" fill="black"/>
</svg>
