<svg width="126" height="13" viewBox="0 0 126 13" fill="none" xmlns="http://www.w3.org/2000/svg">
<path fill-rule="evenodd" clip-rule="evenodd" d="M38.115 1.53295C38.115 0.899902 37.6375 0.386719 37.0484 0.386719H35.9817C35.3926 0.386719 34.915 0.899902 34.915 1.53295V11.4669C34.915 12.0999 35.3926 12.6131 35.9817 12.6131H37.0484C37.6375 12.6131 38.115 12.0999 38.115 11.4669V1.53295ZM30.6809 2.832H31.7476C32.3367 2.832 32.8143 3.3575 32.8143 4.00574V11.4394C32.8143 12.0876 32.3367 12.6131 31.7476 12.6131H30.6809C30.0918 12.6131 29.6143 12.0876 29.6143 11.4394V4.00574C29.6143 3.3575 30.0918 2.832 30.6809 2.832ZM26.3492 5.48105H25.2825C24.6934 5.48105 24.2158 6.01324 24.2158 6.66973V11.4244C24.2158 12.0809 24.6934 12.6131 25.2825 12.6131H26.3492C26.9383 12.6131 27.4158 12.0809 27.4158 11.4244V6.66973C27.4158 6.01324 26.9383 5.48105 26.3492 5.48105ZM21.0484 7.92634H19.9817C19.3926 7.92634 18.915 8.45093 18.915 9.09804V11.4414C18.915 12.0885 19.3926 12.6131 19.9817 12.6131H21.0484C21.6375 12.6131 22.115 12.0885 22.115 11.4414V9.09804C22.115 8.45093 21.6375 7.92634 21.0484 7.92634Z" fill="black"/>
<path fill-rule="evenodd" clip-rule="evenodd" d="M53.6865 2.80222C56.1736 2.80232 58.5657 3.72441 60.3682 5.37789C60.5039 5.50554 60.7209 5.50393 60.8545 5.37428L62.152 4.11081C62.2197 4.04505 62.2575 3.95597 62.2569 3.86329C62.2563 3.77061 62.2175 3.68197 62.149 3.61697C57.418 -0.757741 49.9543 -0.757741 45.2233 3.61697C45.1548 3.68192 45.1159 3.77054 45.1152 3.86322C45.1146 3.9559 45.1523 4.045 45.2199 4.11081L46.5178 5.37428C46.6514 5.50413 46.8685 5.50574 47.0042 5.37789C48.8069 3.7243 51.1992 2.80221 53.6865 2.80222ZM53.6832 7.0225C55.0405 7.02241 56.3494 7.53415 57.3555 8.45828C57.4916 8.58943 57.7059 8.58659 57.8386 8.45187L59.1259 7.13256C59.1937 7.06336 59.2313 6.96948 59.2303 6.87193C59.2293 6.77438 59.1898 6.6813 59.1207 6.61351C56.0568 3.72266 51.3121 3.72266 48.2483 6.61351C48.1791 6.6813 48.1396 6.77443 48.1387 6.87201C48.1378 6.96959 48.1755 7.06346 48.2435 7.13256L49.5304 8.45187C49.663 8.58659 49.8774 8.58943 50.0135 8.45828C51.0189 7.53476 52.3268 7.02307 53.6832 7.0225ZM56.2076 9.81605C56.2095 9.9214 56.1725 10.023 56.1052 10.0968L53.9285 12.5515C53.8647 12.6236 53.7777 12.6642 53.6869 12.6642C53.5962 12.6642 53.5092 12.6236 53.4454 12.5515L51.2683 10.0968C51.2011 10.0229 51.1641 9.92131 51.1661 9.81596C51.1681 9.71061 51.2089 9.61085 51.2789 9.54023C52.669 8.22634 54.7049 8.22634 56.095 9.54023C56.1649 9.6109 56.2057 9.7107 56.2076 9.81605Z" fill="black"/>
<rect opacity="0.35" x="69.7568" y="0.5" width="24" height="12" rx="3.8" stroke="black"/>
<path opacity="0.4" d="M95.2568 4.78125V8.85672C96.0616 8.51155 96.5849 7.70859 96.5849 6.81899C96.5849 5.92938 96.0616 5.12642 95.2568 4.78125Z" fill="black"/>
<rect x="71.2568" y="2" width="21" height="9" rx="2.5" fill="black"/>
</svg>
