<svg width="18" height="18" viewBox="0 0 18 18" fill="none" xmlns="http://www.w3.org/2000/svg">
<path d="M4.5 4.5V13.35C4.5 14.19 4.5 14.61 4.6635 14.931C4.80731 15.2132 5.03677 15.4427 5.319 15.5865C5.63925 15.75 6.05925 15.75 6.89775 15.75H11.1023C11.9408 15.75 12.36 15.75 12.6802 15.5865C12.963 15.4425 13.1925 15.213 13.3365 14.931C13.5 14.61 13.5 14.1907 13.5 13.3522V4.5M4.5 4.5H6M4.5 4.5H3M13.5 4.5H12M13.5 4.5H15M6 4.5H12M6 4.5C6 3.801 6 3.4515 6.114 3.17625C6.1893 2.9942 6.29972 2.82877 6.43896 2.68941C6.5782 2.55004 6.74352 2.43947 6.9255 2.364C7.2015 2.25 7.551 2.25 8.25 2.25H9.75C10.449 2.25 10.7985 2.25 11.0738 2.364C11.2559 2.43938 11.4213 2.54992 11.5607 2.68929C11.7001 2.82866 11.8106 2.99414 11.886 3.17625C12 3.4515 12 3.801 12 4.5" stroke="#352F36" stroke-width="1.5" stroke-linecap="round" stroke-linejoin="round"/>
</svg>
