<svg width="190" height="220" viewBox="0 0 190 220" fill="none" xmlns="http://www.w3.org/2000/svg">
<g filter="url(#filter0_d_2209_6280)">
<path d="M108.726 24.4614C111.477 12.2179 126.347 8.38144 134.679 17.7651L172.015 59.812C179.887 68.678 175.972 82.8587 164.86 85.7261L129.562 94.8345H159.685C168.884 94.8345 176.343 102.292 176.343 111.492V119.039C176.343 128.238 168.884 135.696 159.685 135.696C168.884 135.696 176.343 143.154 176.343 152.354V159.9C176.343 169.1 168.884 176.557 159.685 176.557H111.277C106.518 176.557 102.226 174.561 99.1904 171.361V190.812C99.1904 200.012 91.7327 207.469 82.5332 207.469H34.125C24.9253 207.469 17.4678 200.012 17.4678 190.812V142.404C17.468 133.204 24.9254 125.747 34.125 125.747H52.6934C48.9296 122.754 46.2625 118.602 45.083 113.987C39.6336 119.186 31.648 121.437 23.8857 119.21C12.246 115.871 5.51648 103.728 8.85547 92.0884C11.0822 84.3262 17.2245 78.7482 24.5215 76.8833C19.3226 71.4338 17.0721 63.4474 19.2988 55.6851C22.638 44.0457 34.7804 37.3169 46.4199 40.6558C54.1822 42.8825 59.7601 49.0248 61.625 56.3218C67.0745 51.1228 75.0608 48.8714 82.8232 51.0981C91.5986 53.6156 97.5805 61.1372 98.5635 69.6743L108.726 24.4614ZM95.9922 82.7368C93.0353 88.1272 87.9758 91.9458 82.1865 93.4253C87.3856 98.8748 89.6369 106.861 87.4102 114.624C86.0997 119.191 83.4333 123.003 79.9736 125.747H82.5322C91.2451 125.747 98.3946 132.436 99.127 140.959C102.166 137.72 106.485 135.696 111.277 135.696C102.078 135.696 94.6193 128.238 94.6191 119.039V111.492C94.6193 105.066 98.2581 99.4908 103.587 96.7124C99.0152 93.8432 95.9125 88.6012 95.9922 82.7368ZM55.5264 77.5835C52.7988 80.1857 49.4356 82.0486 45.7832 82.9819C48.3854 85.7095 50.2493 89.0727 51.1826 92.7251C53.9101 90.123 57.2726 88.259 60.9248 87.3257C58.3228 84.5983 56.4597 81.2356 55.5264 77.5835Z" fill="#352F36"/>
</g>
<defs>
<filter id="filter0_d_2209_6280" x="2.80735" y="7.33787" width="178.728" height="205.324" filterUnits="userSpaceOnUse" color-interpolation-filters="sRGB">
<feFlood flood-opacity="0" result="BackgroundImageFix"/>
<feColorMatrix in="SourceAlpha" type="matrix" values="0 0 0 0 0 0 0 0 0 0 0 0 0 0 0 0 0 0 127 0" result="hardAlpha"/>
<feOffset/>
<feGaussianBlur stdDeviation="2.59632"/>
<feComposite in2="hardAlpha" operator="out"/>
<feColorMatrix type="matrix" values="0 0 0 0 0 0 0 0 0 0 0 0 0 0 0 0 0 0 0.25 0"/>
<feBlend mode="normal" in2="BackgroundImageFix" result="effect1_dropShadow_2209_6280"/>
<feBlend mode="normal" in="SourceGraphic" in2="effect1_dropShadow_2209_6280" result="shape"/>
</filter>
</defs>
</svg>
