<svg width="48" height="48" viewBox="0 0 48 48" fill="none" xmlns="http://www.w3.org/2000/svg">
<rect width="48" height="48" rx="12" fill="#B8EB00"/>
<path d="M34.9182 11.629C39.2162 12.7689 41.7768 17.1776 40.637 21.4757C39.8764 24.3432 37.6599 26.4348 34.9931 27.1724C36.944 29.1347 37.8317 32.0503 37.0712 34.918C35.9314 39.2159 31.5234 41.7766 27.2255 40.6371C24.3576 39.8765 22.2644 37.6599 21.5269 34.9926C19.5646 36.943 16.6505 37.8316 13.7832 37.0713C9.48507 35.9314 6.92453 31.5227 8.06435 27.2246C8.82477 24.3576 11.0402 22.2654 13.7064 21.5274C11.7562 19.5651 10.8686 16.6501 11.629 13.783C12.7688 9.48489 17.1775 6.92434 21.4756 8.06416C24.3429 8.82463 26.4348 11.0406 27.1726 13.7072C29.1349 11.7563 32.0505 10.8685 34.9182 11.629ZM25.0927 21.5503C24.1094 22.5279 22.8877 23.238 21.5514 23.6078C22.5287 24.591 23.2383 25.8128 23.608 27.1488C24.5913 26.1715 25.8137 25.4621 27.1499 25.0925C26.1723 24.109 25.4623 22.8868 25.0927 21.5503Z" fill="#2E3B00"/>
</svg>
