<svg width="48" height="48" viewBox="0 0 48 48" fill="none" xmlns="http://www.w3.org/2000/svg">
<rect width="48" height="48" rx="12" fill="#C2C1C3"/>
<path d="M37.1782 29.0627C39.4758 29.0628 41.3382 30.9254 41.3384 33.2229C41.3384 35.5206 39.4759 37.384 37.1782 37.384H28.8569C26.5594 37.3838 24.6968 35.5205 24.6968 33.2229C24.697 30.9254 26.5595 29.0629 28.8569 29.0627C26.5593 29.0626 24.6968 27.2002 24.6968 24.9026C24.6968 22.6049 26.5593 20.7425 28.8569 20.7424H37.1782C39.4758 20.7426 41.3384 22.605 41.3384 24.9026C41.3384 27.2002 39.4758 29.0626 37.1782 29.0627Z" fill="#FAFAFA"/>
<rect x="8.98535" y="27.0369" width="16.6416" height="16.6416" rx="4.6946" fill="#FAFAFA"/>
<path d="M22.2936 11.8376C24.6638 12.5175 26.0341 14.9902 25.3542 17.3605C24.9004 18.9421 23.6483 20.0765 22.1612 20.4555C23.2214 21.5652 23.6813 23.1917 23.2277 24.7734C22.5478 27.1437 20.0751 28.514 17.7048 27.834C16.1231 27.3802 14.9878 26.1281 14.6089 24.6407C13.4991 25.7005 11.8733 26.1612 10.2919 25.7076C7.92185 25.0275 6.55145 22.5548 7.23125 20.1847C7.68486 18.6034 8.93691 17.4678 10.4236 17.0885C9.36433 15.9787 8.90417 14.3528 9.35773 12.7717C10.0378 10.4017 12.5105 9.03139 14.8806 9.71112C16.4617 10.1647 17.5964 11.4167 17.9759 12.9032C19.0855 11.8434 20.7121 11.3841 22.2936 11.8376ZM16.7353 17.2278C16.1792 17.759 15.4943 18.1391 14.7492 18.3293C15.2802 18.8854 15.6593 19.5711 15.8494 20.3161C16.4056 19.7851 17.0914 19.405 17.8365 19.2149C17.3055 18.6587 16.9253 17.9731 16.7353 17.2278Z" fill="#FAFAFA"/>
<path d="M27.569 6.41217C28.1293 3.91892 31.1574 3.13759 32.8541 5.04845L40.4569 13.6107C42.06 15.4162 41.2627 18.3039 39 18.8877L28.8866 21.4974C26.6239 22.0812 24.529 19.9397 25.0583 17.5841L27.569 6.41217Z" fill="#FAFAFA"/>
</svg>
