<svg xmlns="http://www.w3.org/2000/svg" width="48" height="48" viewBox="0 0 48 48" fill="none">
<rect x="0.16" y="0.16" width="47.68" height="47.68" rx="11.84" fill="url(#paint0_linear_4759_29517)"/>
<rect x="0.16" y="0.16" width="47.68" height="47.68" rx="11.84" stroke="#E8E8E8" stroke-width="0.32"/>
<g filter="url(#filter0_d_4759_29517)">
<path d="M26.8906 9.0625C27.3712 6.92429 29.9677 6.25393 31.4229 7.89258L37.9434 15.2363C39.3177 16.7846 38.6344 19.2608 36.6943 19.7617L30.5293 21.3525H35.79C37.3966 21.3527 38.6992 22.6551 38.6992 24.2617V25.5791C38.6992 27.1857 37.3966 28.4882 35.79 28.4883C37.3966 28.4884 38.6992 29.7909 38.6992 31.3975V32.7148C38.6992 34.3214 37.3966 35.6239 35.79 35.624H27.3359C26.5039 35.624 25.7558 35.2728 25.2256 34.7129V38.1133C25.2256 39.7198 23.9229 41.0223 22.3164 41.0225H13.8623C12.2557 41.0225 10.9531 39.7199 10.9531 38.1133V29.6592C10.9532 28.0526 12.2557 26.75 13.8623 26.75H17.1035C16.4469 26.2274 15.9812 25.5028 15.7754 24.6973C14.8237 25.6052 13.4289 25.9992 12.0732 25.6104C10.0406 25.0271 8.86612 22.9057 9.44922 20.873C9.83819 19.5177 10.9104 18.5434 12.1846 18.2178C11.2767 17.2661 10.8836 15.8712 11.2725 14.5156C11.8557 12.4831 13.9762 11.3077 16.0088 11.8906C17.3644 12.2795 18.3383 13.3527 18.6641 14.627C19.6157 13.7191 21.0107 13.3261 22.3662 13.7148C23.8991 14.1546 24.9439 15.4686 25.1152 16.96L26.8906 9.0625ZM24.667 19.2354C24.1509 20.1788 23.2674 20.8477 22.2549 21.1064C23.1628 22.0581 23.5567 23.453 23.168 24.8086C22.9391 25.6063 22.4723 26.2709 21.8682 26.75H22.3164C23.8393 26.7502 25.0879 27.9208 25.2139 29.4111C25.7447 28.8442 26.498 28.4883 27.3359 28.4883C25.7293 28.4883 24.4268 27.1857 24.4268 25.5791V24.2617C24.4268 23.1392 25.0631 22.1658 25.9941 21.6807C25.1941 21.1791 24.6516 20.2616 24.667 19.2354ZM17.5996 18.3398C17.1233 18.7943 16.5353 19.1202 15.8975 19.2832C16.3519 19.7595 16.6778 20.3466 16.8408 20.9844C17.3171 20.5301 17.9043 20.205 18.542 20.042C18.0875 19.5657 17.7626 18.9777 17.5996 18.3398Z" fill="#352F36"/>
</g>
<defs>
<filter id="filter0_d_4759_29517" x="8.39296" y="6.07167" width="31.2131" height="35.8586" filterUnits="userSpaceOnUse" color-interpolation-filters="sRGB">
<feFlood flood-opacity="0" result="BackgroundImageFix"/>
<feColorMatrix in="SourceAlpha" type="matrix" values="0 0 0 0 0 0 0 0 0 0 0 0 0 0 0 0 0 0 127 0" result="hardAlpha"/>
<feOffset/>
<feGaussianBlur stdDeviation="0.453424"/>
<feComposite in2="hardAlpha" operator="out"/>
<feColorMatrix type="matrix" values="0 0 0 0 0 0 0 0 0 0 0 0 0 0 0 0 0 0 0.25 0"/>
<feBlend mode="normal" in2="BackgroundImageFix" result="effect1_dropShadow_4759_29517"/>
<feBlend mode="normal" in="SourceGraphic" in2="effect1_dropShadow_4759_29517" result="shape"/>
</filter>
<linearGradient id="paint0_linear_4759_29517" x1="13.7355" y1="-5.40591e-07" x2="34.2645" y2="48" gradientUnits="userSpaceOnUse">
<stop stop-color="#FAFAFA"/>
<stop offset="1" stop-color="#EFEFEF"/>
</linearGradient>
</defs>
</svg>