<svg width="48" height="48" viewBox="0 0 48 48" fill="none" xmlns="http://www.w3.org/2000/svg">
<rect width="48" height="48" rx="12" fill="#35CDFF"/>
<path d="M31.5869 24.1572C35.3248 24.3466 38.2969 27.4377 38.2969 31.2227C38.2969 35.1296 35.1296 38.2969 31.2227 38.2969H17.0742C13.1675 38.2966 10 35.1295 10 31.2227C10 27.4377 12.973 24.3465 16.7109 24.1572L17.0742 24.1484C13.1674 24.1482 10 20.981 10 17.0742C10 13.1674 13.1674 10.0002 17.0742 10H31.2227C35.1296 10 38.2969 13.1673 38.2969 17.0742C38.2969 20.9812 35.1296 24.1484 31.2227 24.1484L31.5869 24.1572Z" fill="#103E4D"/>
</svg>
