<svg width="48" height="48" viewBox="0 0 48 48" fill="none" xmlns="http://www.w3.org/2000/svg">
<g clip-path="url(#clip0_3770_478)">
<rect width="48" height="48" rx="12" fill="url(#paint0_linear_3770_478)"/>
<path d="M31.8151 -8.80078C26.8365 -8.80078 22.8005 -4.74078 22.8005 0.267503C22.8005 3.60748 24.5956 6.52555 27.268 8.09913C24.5955 9.67269 22.8004 12.5909 22.8004 15.9309C22.8004 20.9392 26.8364 24.9992 31.815 24.9992C35.1353 24.9992 38.0362 23.1934 39.6005 20.505C41.1647 23.1934 44.0655 24.9991 47.3858 24.9991C52.3644 24.9991 56.4004 20.9391 56.4004 15.9308C56.4004 12.5909 54.6053 9.67279 51.9328 8.09922C54.6053 6.52564 56.4004 3.60748 56.4004 0.267503C56.4004 -4.74075 52.3644 -8.80076 47.3858 -8.80078C44.0656 -8.80078 41.1648 -6.99506 39.6005 -4.30672C38.0362 -6.9951 35.1353 -8.80078 31.8151 -8.80078ZM39.6005 4.84163C40.3834 6.18723 41.5011 7.31163 42.8388 8.09922C41.5012 8.88681 40.3833 10.0111 39.6004 11.3567C38.8175 10.0112 37.6998 8.8868 36.3622 8.09922C37.6998 7.31163 38.8176 6.18722 39.6005 4.84163Z" fill="url(#paint1_linear_3770_478)"/>
<path d="M16.4147 6.80078C11.4361 6.80078 7.4001 10.8608 7.40009 15.8691C7.40009 19.209 9.19516 22.1271 11.8677 23.7007C9.1951 25.2743 7.4 28.1925 7.4 31.5325C7.40002 36.5408 11.436 40.6008 16.4146 40.6008C19.7349 40.6008 22.6358 38.795 24.2001 36.1065C25.7644 38.7949 28.6652 40.6007 31.9854 40.6007C36.964 40.6007 41 36.5407 41 31.5324C41 28.1924 39.2049 25.2743 36.5324 23.7008C39.2049 22.1272 41 19.209 41 15.8691C41 10.8608 36.964 6.8008 31.9854 6.80078C28.6652 6.80078 25.7644 8.60651 24.2001 11.2948C22.6358 8.60646 19.7349 6.80078 16.4147 6.80078ZM24.2001 20.4432C24.983 21.7888 26.1008 22.9132 27.4384 23.7008C26.1008 24.4884 24.9829 25.6127 24.2 26.9583C23.4171 25.6127 22.2994 24.4884 20.9618 23.7008C22.2994 22.9132 23.4172 21.7888 24.2001 20.4432Z" fill="url(#paint2_linear_3770_478)"/>
<path d="M1.01433 22.5996C-3.96432 22.5996 -8.00029 26.6596 -8.0003 31.6679C-8.0003 35.0079 -6.20523 37.9259 -3.53274 39.4995C-6.20529 41.0731 -8.00039 43.9913 -8.00039 47.3313C-8.00037 52.3396 -3.96438 56.3996 1.01424 56.3996C4.3345 56.3996 7.23545 54.5938 8.7997 51.9054C10.364 54.5938 13.2648 56.3995 16.585 56.3995C21.5636 56.3995 25.5996 52.3395 25.5996 47.3312C25.5996 43.9913 23.8045 41.0732 21.132 39.4996C23.8045 37.926 25.5996 35.0079 25.5996 31.6679C25.5996 26.6596 21.5636 22.5996 16.585 22.5996C13.2648 22.5996 10.364 24.4053 8.7997 27.0937C7.23543 24.4053 4.33453 22.5996 1.01433 22.5996ZM8.7997 36.242C9.58265 37.5876 10.7004 38.712 12.038 39.4996C10.7004 40.2872 9.58255 41.4115 8.79961 42.7571C8.01669 41.4116 6.89897 40.2872 5.56139 39.4996C6.89902 38.712 8.01677 37.5876 8.7997 36.242Z" fill="url(#paint3_linear_3770_478)"/>
</g>
<defs>
<linearGradient id="paint0_linear_3770_478" x1="0.941176" y1="0.704" x2="25.5988" y2="56.8822" gradientUnits="userSpaceOnUse">
<stop offset="0.3125" stop-color="#DA8804"/>
<stop offset="1" stop-color="#EAC486"/>
</linearGradient>
<linearGradient id="paint1_linear_3770_478" x1="39.6004" y1="-8.80078" x2="39.6004" y2="24.9992" gradientUnits="userSpaceOnUse">
<stop stop-color="white" stop-opacity="0.5"/>
<stop offset="1" stop-color="white" stop-opacity="0.8"/>
</linearGradient>
<linearGradient id="paint2_linear_3770_478" x1="24.2" y1="6.80078" x2="24.2" y2="40.6008" gradientUnits="userSpaceOnUse">
<stop stop-color="white" stop-opacity="0.5"/>
<stop offset="1" stop-color="white" stop-opacity="0.8"/>
</linearGradient>
<linearGradient id="paint3_linear_3770_478" x1="8.79961" y1="22.5996" x2="8.79961" y2="56.3996" gradientUnits="userSpaceOnUse">
<stop stop-color="white" stop-opacity="0.5"/>
<stop offset="1" stop-color="white" stop-opacity="0.8"/>
</linearGradient>
<clipPath id="clip0_3770_478">
<rect width="48" height="48" rx="12" fill="white"/>
</clipPath>
</defs>
</svg>
