<svg width="48" height="48" viewBox="0 0 48 48" fill="none" xmlns="http://www.w3.org/2000/svg">
<rect width="48" height="48" rx="12" fill="url(#paint0_linear_3701_22766)"/>
<path d="M31.9006 6.94922C36.9537 6.94922 41.0501 11.0456 41.0501 16.0988C41.0501 19.4687 39.2282 22.4129 36.5157 24.0006C39.2282 25.5883 41.0502 28.5326 41.0502 31.9026C41.0502 36.9557 36.9538 41.0521 31.9006 41.0522C28.5307 41.0522 25.5863 39.2302 23.9986 36.5176C22.411 39.2301 19.4667 41.0521 16.0968 41.0521C11.0437 41.0521 6.94727 36.9557 6.94727 31.9025C6.94728 28.5326 8.7692 25.5884 11.4817 24.0007C8.7692 22.413 6.94727 19.4687 6.94727 16.0988C6.94729 11.0456 11.0437 6.94924 16.0968 6.94922C19.4667 6.94922 22.4109 8.77113 23.9986 11.4836C25.5863 8.77108 28.5307 6.94922 31.9006 6.94922ZM23.9986 20.7139C23.204 22.0716 22.0695 23.206 20.7119 24.0007C22.0695 24.7953 23.2041 25.9297 23.9987 27.2874C24.7934 25.9298 25.9278 24.7953 27.2854 24.0007C25.9278 23.206 24.7933 22.0716 23.9986 20.7139Z" fill="url(#paint1_radial_3701_22766)" fill-opacity="0.46"/>
<path d="M28.5149 14.2559C31.4024 14.2559 33.7432 16.5967 33.7432 19.4842C33.7432 21.4098 32.7021 23.0923 31.1521 23.9995C32.7021 24.9067 33.7433 26.5892 33.7433 28.5149C33.7432 31.4024 31.4024 33.7432 28.5149 33.7433C26.5892 33.7433 24.9067 32.7021 23.9995 31.1521C23.0923 32.7021 21.4098 33.7432 19.4842 33.7432C16.5967 33.7432 14.2559 31.4024 14.2559 28.5149C14.2559 26.5892 15.297 24.9068 16.847 23.9996C15.297 23.0923 14.2559 21.4098 14.2559 19.4842C14.2559 16.5967 16.5967 14.2559 19.4842 14.2559C21.4098 14.2559 23.0922 15.2969 23.9995 16.8469C24.9068 15.2969 26.5892 14.2559 28.5149 14.2559ZM23.9995 22.1214C23.5454 22.8972 22.8972 23.5455 22.1213 23.9996C22.8971 24.4536 23.5455 25.1019 23.9996 25.8777C24.4536 25.1019 25.1019 24.4536 25.8777 23.9996C25.1019 23.5455 24.4536 22.8972 23.9995 22.1214Z" fill="url(#paint2_radial_3701_22766)" fill-opacity="0.46"/>
<defs>
<linearGradient id="paint0_linear_3701_22766" x1="24" y1="0" x2="24" y2="48" gradientUnits="userSpaceOnUse">
<stop stop-color="#63166E"/>
<stop offset="1" stop-color="#BF2AD4"/>
</linearGradient>
<radialGradient id="paint1_radial_3701_22766" cx="0" cy="0" r="1" gradientUnits="userSpaceOnUse" gradientTransform="translate(24.0143 24.8654) rotate(47.9546) scale(18.6375)">
<stop stop-color="white"/>
<stop offset="1" stop-color="white" stop-opacity="0.25"/>
</radialGradient>
<radialGradient id="paint2_radial_3701_22766" cx="0" cy="0" r="1" gradientUnits="userSpaceOnUse" gradientTransform="translate(24.0085 24.4937) rotate(47.9546) scale(10.65)">
<stop stop-color="white"/>
<stop offset="1" stop-color="white" stop-opacity="0.25"/>
</radialGradient>
</defs>
</svg>
