<svg width="48" height="48" viewBox="0 0 48 48" fill="none" xmlns="http://www.w3.org/2000/svg">
<g clip-path="url(#clip0_3758_1379)">
<rect width="48" height="48" rx="12" fill="url(#paint0_linear_3758_1379)"/>
<path d="M13.1466 8.42526C15.7619 6.73553 19.0618 8.64073 18.9062 11.7506L18.2087 25.6853C18.0616 28.6235 14.9035 30.4541 12.4376 29.0304L1.41605 22.6671C-1.04983 21.2434 -1.04357 17.5932 1.42749 15.9967L13.1466 8.42526Z" fill="url(#paint1_linear_3758_1379)"/>
<path d="M21.1485 13.0464C23.7639 11.3566 27.0638 13.2618 26.9081 16.3717L26.2106 30.3064C26.0635 33.2446 22.9055 35.0752 20.4396 33.6515L9.41801 27.2882C6.95212 25.8645 6.95838 22.2143 9.42944 20.6178L21.1485 13.0464Z" fill="url(#paint2_linear_3758_1379)"/>
<path d="M21.092 31.6264C20.9363 34.7362 24.2363 36.6414 26.8516 34.9517L38.5707 27.3803C41.0417 25.7838 41.048 22.1335 38.5821 20.7098L27.5606 14.3465C25.0947 12.9229 21.9366 14.7534 21.7895 17.6917L21.092 31.6264Z" fill="url(#paint3_linear_3758_1379)"/>
<path d="M29.094 36.2475C28.9383 39.3573 32.2382 41.2625 34.8536 39.5728L46.5726 32.0014C49.0437 30.4049 49.05 26.7546 46.5841 25.3309L35.5625 18.9676C33.0966 17.544 29.9385 19.3745 29.7915 22.3127L29.094 36.2475Z" fill="url(#paint4_linear_3758_1379)"/>
</g>
<defs>
<linearGradient id="paint0_linear_3758_1379" x1="4.51526" y1="1.69682e-07" x2="25.1225" y2="54.8933" gradientUnits="userSpaceOnUse">
<stop stop-color="#4D0836"/>
<stop offset="1" stop-color="#560038"/>
</linearGradient>
<linearGradient id="paint1_linear_3758_1379" x1="17.0655" y1="8.28808" x2="6.92683" y2="25.8487" gradientUnits="userSpaceOnUse">
<stop stop-color="#FAFAFA" stop-opacity="0.5"/>
<stop offset="1" stop-color="#FAFAFA" stop-opacity="0.05"/>
</linearGradient>
<linearGradient id="paint2_linear_3758_1379" x1="25.0674" y1="12.9092" x2="14.9288" y2="30.4698" gradientUnits="userSpaceOnUse">
<stop stop-color="#FAFAFA" stop-opacity="0.5"/>
<stop offset="1" stop-color="#FAFAFA" stop-opacity="0.05"/>
</linearGradient>
<linearGradient id="paint3_linear_3758_1379" x1="22.9327" y1="35.0889" x2="33.0713" y2="17.5282" gradientUnits="userSpaceOnUse">
<stop stop-color="#FAFAFA" stop-opacity="0.5"/>
<stop offset="1" stop-color="#FAFAFA" stop-opacity="0.05"/>
</linearGradient>
<linearGradient id="paint4_linear_3758_1379" x1="30.9346" y1="39.71" x2="41.0733" y2="22.1493" gradientUnits="userSpaceOnUse">
<stop stop-color="#FAFAFA" stop-opacity="0.5"/>
<stop offset="1" stop-color="#FAFAFA" stop-opacity="0.05"/>
</linearGradient>
<clipPath id="clip0_3758_1379">
<rect width="48" height="48" rx="12" fill="white"/>
</clipPath>
</defs>
</svg>
