<svg width="48" height="48" viewBox="0 0 48 48" fill="none" xmlns="http://www.w3.org/2000/svg">
<g clip-path="url(#clip0_3701_22784)">
<rect width="48" height="48" rx="12" fill="#444444"/>
<path d="M28.1602 2.99512C28.8509 -0.0782112 32.5843 -1.04102 34.6758 1.31445L44.0469 11.8691C46.023 14.0947 45.0402 17.6543 42.251 18.374L33.3906 20.6602H40.9521C43.2612 20.6604 45.1328 22.5326 45.1328 24.8418V26.7354C45.1328 29.0445 43.2612 30.9168 40.9521 30.917C43.2612 30.9172 45.1328 32.7895 45.1328 35.0986V36.9932C45.1326 39.3021 43.2611 41.1736 40.9521 41.1738H28.8008C27.6053 41.1738 26.5277 40.6715 25.7656 39.8672V44.7529C25.7654 47.0619 23.8939 48.9334 21.585 48.9336H9.43359C7.12444 48.9336 5.25218 47.062 5.25195 44.7529V32.6016C5.25195 30.2923 7.1243 28.4199 9.43359 28.4199H14.0947C13.1496 27.6686 12.4797 26.6266 12.1836 25.4678C10.8157 26.7728 8.81082 27.3382 6.8623 26.7793C3.94054 25.9411 2.2517 22.8925 3.08984 19.9707C3.64892 18.0225 5.19089 16.6224 7.02246 16.1543C5.71741 14.7864 5.15198 12.7815 5.71094 10.833C6.54919 7.91152 9.59697 6.22265 12.5186 7.06055C14.467 7.61949 15.8678 9.16146 16.3359 10.9932C17.7037 9.68827 19.7079 9.12294 21.6562 9.68164C23.861 10.3141 25.3627 12.2053 25.6074 14.3506L28.1602 2.99512ZM24.9648 17.6143C24.2233 18.9717 22.9532 19.9345 21.4971 20.3066C22.8021 21.6746 23.3675 23.6794 22.8086 25.6279C22.4795 26.7751 21.8085 27.7312 20.9395 28.4199H21.585C23.7724 28.4201 25.5659 30.1002 25.749 32.2402C26.512 31.4261 27.597 30.917 28.8008 30.917C26.4915 30.917 24.6191 29.0446 24.6191 26.7354V24.8418C24.6191 23.2286 25.5331 21.8292 26.8711 21.1318C25.7209 20.4102 24.9415 19.0902 24.9648 17.6143ZM14.8047 16.3301C14.1201 16.9832 13.2761 17.4512 12.3594 17.6855C13.0125 18.3702 13.4806 19.2142 13.7148 20.1309C14.3994 19.4778 15.2435 19.0096 16.1602 18.7754C15.507 18.0907 15.039 17.2469 14.8047 16.3301Z" fill="url(#paint0_radial_3701_22784)"/>
</g>
<defs>
<radialGradient id="paint0_radial_3701_22784" cx="0" cy="0" r="1" gradientTransform="matrix(15.4666 19.8591 -17.15 17.9097 24.0232 25.7072)" gradientUnits="userSpaceOnUse">
<stop stop-color="white"/>
<stop offset="1" stop-color="white" stop-opacity="0.25"/>
</radialGradient>
<clipPath id="clip0_3701_22784">
<rect width="48" height="48" rx="12" fill="white"/>
</clipPath>
</defs>
</svg>
