<svg width="48" height="48" viewBox="0 0 48 48" fill="none" xmlns="http://www.w3.org/2000/svg">
<g clip-path="url(#clip0_3701_22745)">
<rect width="48" height="48" rx="12" fill="url(#paint0_linear_3701_22745)"/>
<path d="M31.9246 27.0643C34.9598 27.9277 36.7204 31.0882 35.857 34.1234L35.1487 36.6131C34.2853 39.6483 31.1249 41.4089 28.0897 40.5455L12.1188 36.0023C9.08361 35.1389 7.323 31.9784 8.18642 28.9432L8.89466 26.4535C9.75808 23.4183 12.9186 21.6577 15.9538 22.5211C12.9186 21.6577 11.158 18.4972 12.0214 15.462L12.7296 12.9723C13.593 9.93712 16.7535 8.17651 19.7887 9.03993L35.7596 13.5831C38.7948 14.4465 40.5553 17.607 39.6919 20.6422L38.9837 23.1319C38.1202 26.1671 34.9598 27.9277 31.9246 27.0643Z" fill="url(#paint1_linear_3701_22745)"/>
<path d="M32.0457 54.467C35.0809 53.6036 36.8415 50.4431 35.9781 47.4079L35.2698 44.9182C34.4064 41.883 31.246 40.1224 28.2108 40.9858L12.2399 45.5289C9.20471 46.3924 7.4441 49.5529 8.30751 52.5881L9.01575 55.0778C9.87917 58.113 13.0397 59.8736 16.0749 59.0102C13.0397 59.8736 11.2791 63.034 12.1425 66.0692L12.8507 68.5589C13.7141 71.5941 16.8746 73.3547 19.9098 72.4913L35.8807 67.9481C38.9159 67.0847 40.6764 63.9242 39.813 60.889L39.1048 58.3993C38.2413 55.3641 35.0809 53.6036 32.0457 54.467Z" fill="url(#paint2_linear_3701_22745)"/>
<path d="M29.4119 26.3501C31.4921 26.9419 32.6986 29.1079 32.1069 31.188L31.6215 32.8943C31.0298 34.9745 28.8638 36.1811 26.7836 35.5894L15.8381 32.4757C13.7579 31.884 12.5513 29.718 13.143 27.6378L13.6284 25.9315C14.2202 23.8513 16.3862 22.6447 18.4664 23.2365C16.3862 22.6447 15.1796 20.4787 15.7713 18.3986L16.2567 16.6923C16.8484 14.6121 19.0145 13.4055 21.0946 13.9972L32.0402 17.1109C34.1203 17.7026 35.3269 19.8686 34.7352 21.9488L34.2498 23.6551C33.658 25.7352 31.4921 26.9418 29.4119 26.3501Z" fill="url(#paint3_linear_3701_22745)"/>
</g>
<defs>
<linearGradient id="paint0_linear_3701_22745" x1="7.16111" y1="1.26176e-07" x2="24.4579" y2="53.3145" gradientUnits="userSpaceOnUse">
<stop stop-color="#12294A"/>
<stop offset="0.189011" stop-color="#152F55"/>
<stop offset="1" stop-color="#2E66B4"/>
</linearGradient>
<linearGradient id="paint1_linear_3701_22745" x1="31.5099" y1="12.3742" x2="15.6806" y2="36.7647" gradientUnits="userSpaceOnUse">
<stop stop-color="#1A191E"/>
<stop offset="1" stop-color="#382927" stop-opacity="0.25"/>
</linearGradient>
<linearGradient id="paint2_linear_3701_22745" x1="24.4635" y1="42.0517" x2="23.5171" y2="51.8883" gradientUnits="userSpaceOnUse">
<stop stop-color="#1A191E" stop-opacity="0.4"/>
<stop offset="1" stop-color="#382927" stop-opacity="0"/>
</linearGradient>
<linearGradient id="paint3_linear_3701_22745" x1="29.1276" y1="16.2824" x2="18.2791" y2="32.9983" gradientUnits="userSpaceOnUse">
<stop stop-color="#21477D"/>
<stop offset="1" stop-color="#275596"/>
</linearGradient>
<clipPath id="clip0_3701_22745">
<rect width="48" height="48" rx="12" fill="white"/>
</clipPath>
</defs>
</svg>
