<svg width="48" height="48" viewBox="0 0 48 48" fill="none" xmlns="http://www.w3.org/2000/svg">
<g clip-path="url(#clip0_3701_22777)">
<rect width="48" height="48" rx="12" fill="url(#paint0_linear_3701_22777)"/>
<path d="M36.2196 7.76758C39.2538 7.76758 41.7134 10.2273 41.7134 13.2614C41.7134 15.2849 40.6195 17.0528 38.9907 18.0061C40.6195 18.9594 41.7135 20.7274 41.7135 22.7509C41.7135 25.785 39.2538 28.2447 36.2196 28.2448C34.1961 28.2448 32.4282 27.1507 31.4749 25.522C30.5215 27.1507 28.7537 28.2447 26.7302 28.2447C23.696 28.2447 21.2363 25.785 21.2363 22.7508C21.2363 20.7274 22.3303 18.9595 23.959 18.0062C22.3303 17.0528 21.2363 15.2849 21.2363 13.2614C21.2363 10.2273 23.696 7.76759 26.7302 7.76758C28.7536 7.76758 30.5215 8.86155 31.4749 10.4902C32.4282 8.86152 34.1961 7.76758 36.2196 7.76758ZM31.4749 16.0326C30.9977 16.8478 30.3165 17.529 29.5013 18.0062C30.3165 18.4833 30.9978 19.1645 31.4749 19.9797C31.9521 19.1645 32.6332 18.4833 33.4484 18.0062C32.6332 17.529 31.952 16.8478 31.4749 16.0326Z" fill="url(#paint1_linear_3701_22777)" fill-opacity="0.33"/>
<path d="M22.4383 16.4297C25.4725 16.4297 27.9322 18.8894 27.9322 21.9236C27.9322 23.947 26.8382 25.7149 25.2095 26.6682C26.8382 27.6215 27.9323 29.3895 27.9323 31.413C27.9322 34.4472 25.4725 36.9068 22.4384 36.9069C20.4149 36.9069 18.6469 35.8129 17.6936 34.1841C16.7403 35.8128 14.9724 36.9068 12.9489 36.9068C9.91476 36.9068 7.45508 34.4471 7.45508 31.4129C7.45508 29.3895 8.54906 27.6216 10.1778 26.6683C8.54906 25.7149 7.45508 23.947 7.45508 21.9236C7.45509 18.8894 9.91478 16.4297 12.9489 16.4297C14.9724 16.4297 16.7403 17.5237 17.6936 19.1523C18.6469 17.5236 20.4149 16.4297 22.4383 16.4297ZM17.6936 24.6947C17.2165 25.5099 16.5353 26.1911 15.7201 26.6683C16.5353 27.1454 17.2165 27.8266 17.6937 28.6418C18.1708 27.8266 18.852 27.1454 19.6672 26.6683C18.852 26.1911 18.1708 25.5099 17.6936 24.6947Z" fill="url(#paint2_linear_3701_22777)" fill-opacity="0.33"/>
<path d="M58.4657 12.9473C61.4999 12.9473 63.9595 15.407 63.9595 18.4411C63.9595 20.4646 62.8656 22.2325 61.2368 23.1858C62.8656 24.1391 63.9596 25.9071 63.9596 27.9306C63.9596 30.9647 61.4999 33.4244 58.4657 33.4244C56.4422 33.4244 54.6743 32.3304 53.721 30.7017C52.7676 32.3304 50.9998 33.4244 48.9763 33.4244C45.9421 33.4244 43.4824 30.9647 43.4824 27.9305C43.4824 25.907 44.5764 24.1392 46.2051 23.1859C44.5764 22.2325 43.4824 20.4646 43.4824 18.4411C43.4824 15.407 45.9421 12.9473 48.9763 12.9473C50.9997 12.9473 52.7676 14.0412 53.721 15.6699C54.6743 14.0412 56.4422 12.9473 58.4657 12.9473ZM53.721 21.2123C53.2438 22.0275 52.5626 22.7087 51.7474 23.1859C52.5626 23.663 53.2439 24.3441 53.721 25.1594C54.1981 24.3442 54.8793 23.663 55.6945 23.1859C54.8793 22.7087 54.1981 22.0275 53.721 21.2123Z" fill="url(#paint3_linear_3701_22777)" fill-opacity="0.33"/>
<path d="M41.4676 23.1875C44.5018 23.1875 46.9615 25.6472 46.9615 28.6814C46.9615 30.7048 45.8675 32.4727 44.2388 33.426C45.8675 34.3793 46.9615 36.1473 46.9615 38.1708C46.9615 41.205 44.5018 43.6647 41.4677 43.6647C39.4442 43.6647 37.6762 42.5707 36.7229 40.9419C35.7696 42.5706 34.0017 43.6646 31.9782 43.6646C28.9441 43.6646 26.4844 41.2049 26.4844 38.1707C26.4844 36.1473 27.5784 34.3794 29.2071 33.4261C27.5784 32.4728 26.4844 30.7048 26.4844 28.6814C26.4844 25.6472 28.9441 23.1875 31.9782 23.1875C34.0017 23.1875 35.7696 24.2815 36.7229 25.9102C37.6762 24.2814 39.4442 23.1875 41.4676 23.1875ZM36.7229 31.4525C36.2457 32.2677 35.5646 32.9489 34.7494 33.4261C35.5646 33.9032 36.2458 34.5844 36.723 35.3996C37.2001 34.5844 37.8813 33.9032 38.6965 33.4261C37.8813 32.9489 37.2001 32.2677 36.7229 31.4525Z" fill="url(#paint4_linear_3701_22777)" fill-opacity="0.33"/>
<path d="M26.0887 31.1406C29.1229 31.1406 31.5826 33.6003 31.5826 36.6345C31.5826 38.658 30.4886 40.4258 28.8599 41.3792C30.4886 42.3325 31.5826 44.1004 31.5826 46.1239C31.5826 49.1581 29.1229 51.6178 26.0888 51.6178C24.0653 51.6178 22.2973 50.5238 21.344 48.895C20.3907 50.5238 18.6228 51.6177 16.5993 51.6177C13.5652 51.6177 11.1055 49.1581 11.1055 46.1239C11.1055 44.1004 12.1995 42.3325 13.8282 41.3792C12.1995 40.4259 11.1055 38.658 11.1055 36.6345C11.1055 33.6003 13.5652 31.1406 16.5993 31.1406C18.6228 31.1406 20.3907 32.2346 21.344 33.8633C22.2973 32.2346 24.0653 31.1406 26.0887 31.1406ZM21.344 39.4057C20.8668 40.2209 20.1857 40.9021 19.3704 41.3792C20.1857 41.8564 20.8669 42.5375 21.3441 43.3527C21.8212 42.5375 22.5024 41.8564 23.3176 41.3792C22.5024 40.9021 21.8211 40.2209 21.344 39.4057Z" fill="url(#paint5_linear_3701_22777)" fill-opacity="0.33"/>
<path d="M1.96176 33.4258C4.99595 33.4258 7.45563 35.8855 7.45563 38.9197C7.45563 40.9431 6.36165 42.711 4.73292 43.6643C6.36168 44.6176 7.45569 46.3856 7.45569 48.4091C7.45568 51.4433 4.99599 53.9029 1.96182 53.903C-0.0616808 53.903 -1.82964 52.8089 -2.78295 51.1802C-3.73627 52.8089 -5.50414 53.9029 -7.52761 53.9029C-10.5618 53.9029 -13.0215 51.4432 -13.0215 48.409C-13.0215 46.3856 -11.9275 44.6177 -10.2988 43.6644C-11.9275 42.711 -13.0215 40.9431 -13.0215 38.9197C-13.0215 35.8855 -10.5618 33.4258 -7.52761 33.4258C-5.50417 33.4258 -3.73629 34.5197 -2.78295 36.1484C-1.82963 34.5197 -0.0617008 33.4258 1.96176 33.4258ZM-2.78295 41.6908C-3.26011 42.506 -3.94129 43.1872 -4.75651 43.6644C-3.9413 44.1415 -3.26005 44.8227 -2.7829 45.6379C-2.30576 44.8227 -1.62457 44.1415 -0.809398 43.6644C-1.6246 43.1872 -2.3058 42.506 -2.78295 41.6908Z" fill="url(#paint6_linear_3701_22777)" fill-opacity="0.33"/>
</g>
<defs>
<linearGradient id="paint0_linear_3701_22777" x1="42.2655" y1="48" x2="23.2094" y2="-6.14967" gradientUnits="userSpaceOnUse">
<stop stop-color="#981644"/>
<stop offset="1" stop-color="#320716"/>
</linearGradient>
<linearGradient id="paint1_linear_3701_22777" x1="31.4749" y1="7.76758" x2="31.4749" y2="28.2448" gradientUnits="userSpaceOnUse">
<stop stop-color="#FAFAFA"/>
<stop offset="1" stop-color="#949494"/>
</linearGradient>
<linearGradient id="paint2_linear_3701_22777" x1="17.6937" y1="16.4297" x2="17.6937" y2="36.9069" gradientUnits="userSpaceOnUse">
<stop stop-color="#FAFAFA"/>
<stop offset="1" stop-color="#949494"/>
</linearGradient>
<linearGradient id="paint3_linear_3701_22777" x1="53.721" y1="12.9473" x2="53.721" y2="33.4244" gradientUnits="userSpaceOnUse">
<stop stop-color="#FAFAFA"/>
<stop offset="1" stop-color="#949494"/>
</linearGradient>
<linearGradient id="paint4_linear_3701_22777" x1="36.723" y1="23.1875" x2="36.723" y2="43.6647" gradientUnits="userSpaceOnUse">
<stop stop-color="#FAFAFA"/>
<stop offset="1" stop-color="#949494"/>
</linearGradient>
<linearGradient id="paint5_linear_3701_22777" x1="21.3441" y1="31.1406" x2="21.3441" y2="51.6178" gradientUnits="userSpaceOnUse">
<stop stop-color="#FAFAFA"/>
<stop offset="1" stop-color="#949494"/>
</linearGradient>
<linearGradient id="paint6_linear_3701_22777" x1="-2.7829" y1="33.4258" x2="-2.7829" y2="53.903" gradientUnits="userSpaceOnUse">
<stop stop-color="#FAFAFA"/>
<stop offset="1" stop-color="#949494"/>
</linearGradient>
<clipPath id="clip0_3701_22777">
<rect width="48" height="48" rx="12" fill="white"/>
</clipPath>
</defs>
</svg>
