<svg width="48" height="48" viewBox="0 0 48 48" fill="none" xmlns="http://www.w3.org/2000/svg">
<g clip-path="url(#clip0_3758_1360)">
<rect width="48" height="48" rx="12" fill="url(#paint0_linear_3758_1360)"/>
<rect width="48" height="48" rx="12" fill="black" fill-opacity="0.1"/>
<path d="M17.0145 19.3631C12.8708 23.0213 14.5421 29.5758 19.9315 30.8032L44.0809 36.303C49.173 37.4627 53.818 32.9446 52.5692 28.0468L46.9872 6.15507C45.7383 1.25717 39.497 -0.485091 35.5819 2.97127L17.0145 19.3631Z" fill="url(#paint1_linear_3758_1360)" fill-opacity="0.5"/>
<path d="M27.2924 16.737C32.6818 17.9644 34.3531 24.5189 30.2094 28.1771L11.642 44.569C7.72688 48.0253 1.48562 46.2831 0.236736 41.3852L-5.34526 19.4935C-6.59414 14.5956 -1.94915 10.0775 3.14296 11.2372L27.2924 16.737Z" fill="url(#paint2_linear_3758_1360)" fill-opacity="0.5"/>
</g>
<defs>
<linearGradient id="paint0_linear_3758_1360" x1="4.51526" y1="1.69682e-07" x2="25.1225" y2="54.8933" gradientUnits="userSpaceOnUse">
<stop stop-color="#BF1486"/>
<stop offset="1" stop-color="#A71575"/>
</linearGradient>
<linearGradient id="paint1_linear_3758_1360" x1="14.8981" y1="25.9947" x2="49.7782" y2="17.1009" gradientUnits="userSpaceOnUse">
<stop stop-color="#2C021E"/>
<stop offset="1" stop-color="#2C021E" stop-opacity="0.1"/>
</linearGradient>
<linearGradient id="paint2_linear_3758_1360" x1="32.3258" y1="21.5455" x2="-2.55426" y2="30.4393" gradientUnits="userSpaceOnUse">
<stop stop-color="#2C021E"/>
<stop offset="1" stop-color="#2C021E" stop-opacity="0.1"/>
</linearGradient>
<clipPath id="clip0_3758_1360">
<rect width="48" height="48" rx="12" fill="white"/>
</clipPath>
</defs>
</svg>
