<svg width="48" height="48" viewBox="0 0 48 48" fill="none" xmlns="http://www.w3.org/2000/svg">
<g clip-path="url(#clip0_3726_23150)">
<rect width="48" height="48" rx="12" fill="url(#paint0_linear_3726_23150)"/>
<path d="M39.6931 27.9705C41.7937 23.8718 47.4298 23.8718 49.5303 27.9705L58.9426 46.3364C60.9272 50.209 58.2356 54.8895 54.024 54.8895H35.1995C30.9879 54.8895 28.2963 50.209 30.2809 46.3364L39.6931 27.9705Z" fill="url(#paint1_linear_3726_23150)" fill-opacity="0.58"/>
<path d="M-1.32249 27.9705C0.778054 23.8718 6.41418 23.8718 8.51472 27.9705L17.9269 46.3364C19.9116 50.209 17.22 54.8895 13.0083 54.8895H-5.8161C-10.0278 54.8895 -12.7193 50.209 -10.7347 46.3364L-1.32249 27.9705Z" fill="url(#paint2_linear_3726_23150)" fill-opacity="0.58"/>
<path d="M17.6082 17.0932C20.3371 11.7684 27.6592 11.7684 30.3881 17.0932L42.6159 40.953C45.1942 45.9841 41.6974 52.0647 36.2259 52.0647H11.7704C6.29887 52.0647 2.80212 45.9841 5.38045 40.953L17.6082 17.0932Z" fill="url(#paint3_linear_3726_23150)" fill-opacity="0.58"/>
</g>
<defs>
<linearGradient id="paint0_linear_3726_23150" x1="44.6289" y1="48" x2="13.6553" y2="-17.3204" gradientUnits="userSpaceOnUse">
<stop stop-color="#413128"/>
<stop offset="1" stop-color="#A77E67"/>
</linearGradient>
<linearGradient id="paint1_linear_3726_23150" x1="44.6117" y1="24.8965" x2="44.1067" y2="52.8834" gradientUnits="userSpaceOnUse">
<stop stop-color="#B4836A"/>
<stop offset="0.555555" stop-color="#D0AD99" stop-opacity="0.237685"/>
<stop offset="0.790193" stop-color="#D6B6A3" stop-opacity="0.0805478"/>
<stop offset="1" stop-color="#D9BAA8" stop-opacity="0"/>
</linearGradient>
<linearGradient id="paint2_linear_3726_23150" x1="3.59612" y1="24.8965" x2="3.09105" y2="52.8834" gradientUnits="userSpaceOnUse">
<stop stop-color="#B4836A"/>
<stop offset="0.555555" stop-color="#D0AD99" stop-opacity="0.237685"/>
<stop offset="0.790193" stop-color="#D6B6A3" stop-opacity="0.0805478"/>
<stop offset="1" stop-color="#D9BAA8" stop-opacity="0"/>
</linearGradient>
<linearGradient id="paint3_linear_3726_23150" x1="23.9982" y1="13.0996" x2="23.9982" y2="52.0647" gradientUnits="userSpaceOnUse">
<stop stop-color="#B4836A"/>
<stop offset="1" stop-color="#D9BAA8" stop-opacity="0"/>
</linearGradient>
<clipPath id="clip0_3726_23150">
<rect width="48" height="48" rx="12" fill="white"/>
</clipPath>
</defs>
</svg>
