<svg width="48" height="48" viewBox="0 0 48 48" fill="none" xmlns="http://www.w3.org/2000/svg">
<rect width="48" height="48" rx="12" fill="url(#paint0_linear_3758_1376)"/>
<rect width="48" height="48" rx="12" fill="black" fill-opacity="0.1"/>
<path fill-rule="evenodd" clip-rule="evenodd" d="M24.0022 5.69531C27.6127 5.69531 30.5395 8.62217 30.5395 12.2326C30.5395 15.8431 27.6127 18.7699 24.0022 18.7699C20.3917 18.7699 17.4649 15.8431 17.4649 12.2326C17.4649 8.62217 20.3917 5.69531 24.0022 5.69531ZM13.0809 39.2681C10.16 37.146 9.51245 33.0578 11.6346 30.1368C13.7568 27.2159 17.845 26.5684 20.7659 28.6906C23.6869 30.8127 24.3344 34.901 22.2123 37.8219C20.09 40.7429 16.0018 41.3903 13.0809 39.2681ZM36.391 30.1368C38.5132 33.0578 37.8657 37.146 34.9448 39.2681C32.0238 41.3903 27.9356 40.7429 25.8135 37.8219C23.6913 34.901 24.3387 30.8127 27.2597 28.6906C30.1806 26.5684 34.2689 27.2159 36.391 30.1368ZM6.32172 18.5091C7.43742 15.0754 11.1255 13.1962 14.5592 14.3119C17.993 15.4276 19.8721 19.1157 18.7564 22.5494C17.6407 25.9831 13.9527 27.8623 10.5189 26.7466C7.08518 25.6309 5.20603 21.9429 6.32172 18.5091ZM33.4408 14.3119C36.8746 13.1962 40.5626 15.0754 41.6783 18.5091C42.794 21.9429 40.9148 25.6309 37.4811 26.7466C34.0473 27.8623 30.3593 25.9831 29.2436 22.5494C28.1279 19.1157 30.0071 15.4276 33.4408 14.3119Z" fill="url(#paint1_linear_3758_1376)"/>
<defs>
<linearGradient id="paint0_linear_3758_1376" x1="4.51526" y1="1.69682e-07" x2="25.1225" y2="54.8933" gradientUnits="userSpaceOnUse">
<stop stop-color="#8AB000"/>
<stop offset="1" stop-color="#DBF275"/>
</linearGradient>
<linearGradient id="paint1_linear_3758_1376" x1="28.9879" y1="5.69531" x2="18.655" y2="40.4109" gradientUnits="userSpaceOnUse">
<stop stop-color="#282422"/>
<stop offset="1" stop-color="#2D2726" stop-opacity="0.25"/>
</linearGradient>
</defs>
</svg>
