<svg width="48" height="48" viewBox="0 0 48 48" fill="none" xmlns="http://www.w3.org/2000/svg">
<g clip-path="url(#clip0_3726_23106)">
<rect width="48" height="48" rx="12" fill="url(#paint0_linear_3726_23106)"/>
<path d="M17.5641 -1.13832C21.1185 -4.69277 26.8814 -4.69277 30.4359 -1.13833L49.1389 17.5647C52.6934 21.1191 52.6934 26.882 49.1389 30.4365L30.4359 49.1395C26.8814 52.694 21.1186 52.694 17.5641 49.1395L-1.13892 30.4365C-4.69337 26.882 -4.69337 21.1192 -1.13893 17.5647L17.5641 -1.13832Z" fill="#FAFAFA" fill-opacity="0.06"/>
<path d="M17.1627 6.08732C20.938 2.31198 27.059 2.31198 30.8344 6.08732C33.3521 8.60505 34.1906 12.166 33.3502 15.3787C36.563 14.5383 40.124 15.3769 42.6418 17.8946C46.4171 21.67 46.4171 27.791 42.6418 31.5663C40.124 34.0841 36.563 34.9227 33.3502 34.0822C34.1906 37.295 33.3521 40.8559 30.8344 43.3736C27.059 47.149 20.938 47.149 17.1627 43.3736C14.645 40.8559 13.8065 37.295 14.6468 34.0822C11.4341 34.9226 7.87311 34.084 5.35537 31.5663C1.58007 27.791 1.58007 21.67 5.35537 17.8946C7.87307 15.3769 11.434 14.5384 14.6467 15.3787C13.8063 12.166 14.645 8.60504 17.1627 6.08732ZM21.5429 22.2749C21.9635 23.883 21.9635 25.5781 21.5429 27.1862C23.1509 26.7655 24.8461 26.7654 26.4542 27.186C26.0335 25.578 26.0335 23.8829 26.4542 22.2749C24.8461 22.6955 23.1509 22.6955 21.5429 22.2749Z" fill="url(#paint1_linear_3726_23106)"/>
</g>
<defs>
<linearGradient id="paint0_linear_3726_23106" x1="45.5109" y1="66.7046" x2="24.0306" y2="-6.19531" gradientUnits="userSpaceOnUse">
<stop stop-color="#6773B7"/>
<stop offset="0.804003" stop-color="#21A87A"/>
</linearGradient>
<linearGradient id="paint1_linear_3726_23106" x1="11.2591" y1="11.9909" x2="36.7381" y2="37.47" gradientUnits="userSpaceOnUse">
<stop stop-color="#4F9EA2"/>
<stop offset="1" stop-color="#63E1B7"/>
</linearGradient>
<clipPath id="clip0_3726_23106">
<rect width="48" height="48" rx="12" fill="white"/>
</clipPath>
</defs>
</svg>
