<svg width="48" height="48" viewBox="0 0 48 48" fill="none" xmlns="http://www.w3.org/2000/svg">
<g clip-path="url(#clip0_3758_1380)">
<rect width="48" height="48" rx="12" fill="url(#paint0_linear_3758_1380)"/>
<path d="M22.8901 19.4294C21.759 22.9386 24.9494 26.129 28.4585 24.9979L44.1826 19.9296C47.4981 18.8609 48.624 14.6878 46.2399 12.3038L35.5842 1.64806C33.2001 -0.735989 29.0271 0.389846 27.9584 3.70539L22.8901 19.4294Z" fill="url(#paint1_linear_3758_1380)"/>
<path d="M19.4236 22.8901C22.9327 21.759 26.1231 24.9494 24.992 28.4585L19.9237 44.1826C18.855 47.4981 14.682 48.624 12.2979 46.2399L1.6422 35.5842C-0.741849 33.2001 0.383986 29.0271 3.69953 27.9584L19.4236 22.8901Z" fill="url(#paint2_linear_3758_1380)"/>
<path d="M28.5608 22.9057C25.0516 21.7746 21.8613 24.965 22.9924 28.4742L28.0607 44.1982C29.1293 47.5138 33.3024 48.6396 35.6864 46.2555L46.3422 35.5998C48.7262 33.2158 47.6004 29.0427 44.2848 27.974L28.5608 22.9057Z" fill="url(#paint3_linear_3758_1380)"/>
<path d="M25.0962 19.4372C26.2273 22.9464 23.0369 26.1368 19.5278 25.0057L3.80374 19.9374C0.48819 18.8687 -0.63764 14.6957 1.7464 12.3116L12.4022 1.65587C14.7862 -0.728177 18.9592 0.397658 20.0279 3.71321L25.0962 19.4372Z" fill="url(#paint4_linear_3758_1380)"/>
</g>
<defs>
<linearGradient id="paint0_linear_3758_1380" x1="48" y1="-1.32294e-06" x2="21.2593" y2="57.8303" gradientUnits="userSpaceOnUse">
<stop stop-color="#FF1BB3"/>
<stop offset="1" stop-color="#D80089"/>
</linearGradient>
<linearGradient id="paint1_linear_3758_1380" x1="23.9342" y1="23.9538" x2="40.9121" y2="6.97593" gradientUnits="userSpaceOnUse">
<stop stop-color="#FAFAFA" stop-opacity="0.5"/>
<stop offset="1" stop-color="#FAFAFA" stop-opacity="0.05"/>
</linearGradient>
<linearGradient id="paint2_linear_3758_1380" x1="23.9479" y1="23.9342" x2="6.97007" y2="40.9121" gradientUnits="userSpaceOnUse">
<stop stop-color="#FAFAFA" stop-opacity="0.5"/>
<stop offset="1" stop-color="#FAFAFA" stop-opacity="0.05"/>
</linearGradient>
<linearGradient id="paint3_linear_3758_1380" x1="24.0365" y1="23.9499" x2="41.0143" y2="40.9277" gradientUnits="userSpaceOnUse">
<stop stop-color="#FAFAFA" stop-opacity="0.5"/>
<stop offset="1" stop-color="#FAFAFA" stop-opacity="0.05"/>
</linearGradient>
<linearGradient id="paint4_linear_3758_1380" x1="24.0521" y1="23.9616" x2="7.07428" y2="6.98374" gradientUnits="userSpaceOnUse">
<stop stop-color="#FAFAFA" stop-opacity="0.5"/>
<stop offset="1" stop-color="#FAFAFA" stop-opacity="0.05"/>
</linearGradient>
<clipPath id="clip0_3758_1380">
<rect width="48" height="48" rx="12" fill="white"/>
</clipPath>
</defs>
</svg>
