<svg width="48" height="48" viewBox="0 0 48 48" fill="none" xmlns="http://www.w3.org/2000/svg">
<g clip-path="url(#clip0_3701_22770)">
<rect width="48" height="48" rx="12" fill="url(#paint0_linear_3701_22770)"/>
<path d="M33.7856 13.0133C35.8606 8.96432 41.4283 8.96432 43.5033 13.0133L52.8013 31.1561C54.7618 34.9817 52.1029 39.6053 47.9424 39.6053H29.3466C25.186 39.6053 22.5271 34.9817 24.4877 31.1561L33.7856 13.0133Z" fill="url(#paint1_linear_3701_22770)"/>
<path d="M32.7482 24.791C36.8375 24.791 40.1525 28.106 40.1525 32.1953C40.1525 34.9224 38.6781 37.305 36.483 38.5899C38.6781 39.8747 40.1526 42.2574 40.1526 44.9846C40.1525 49.0738 36.8375 52.3889 32.7483 52.3889C30.0211 52.3889 27.6384 50.9144 26.3535 48.7193C25.0687 50.9144 22.6861 52.3888 19.959 52.3888C15.8697 52.3888 12.5547 49.0738 12.5547 44.9845C12.5547 42.2574 14.0291 39.8748 16.2242 38.5899C14.0291 37.3051 12.5547 34.9224 12.5547 32.1953C12.5547 28.106 15.8697 24.791 19.959 24.791C22.6861 24.791 25.0687 26.2654 26.3535 28.4604C27.6384 26.2654 30.0211 24.791 32.7482 24.791ZM26.3535 35.9301C25.7105 37.0288 24.7924 37.9469 23.6937 38.5899C24.7924 39.233 25.7105 40.151 26.3536 41.2497C26.9967 40.1511 27.9147 39.233 29.0134 38.5899C27.9147 37.9469 26.9966 37.0288 26.3535 35.9301Z" fill="url(#paint2_linear_3701_22770)"/>
<path d="M32.748 24.791C36.8373 24.791 40.1523 28.106 40.1523 32.1953C40.1523 34.9223 38.6783 37.305 36.4834 38.5898C36.973 38.8764 37.4264 39.218 37.8359 39.6055H29.3467C28.8335 39.6055 28.3434 39.5338 27.8818 39.4033C28.2315 39.0982 28.6108 38.8257 29.0137 38.5898C27.915 37.9468 26.9966 37.0284 26.3535 35.9297C26.0101 36.5164 25.5874 37.0512 25.1016 37.5205C23.7633 35.8237 23.3588 33.3585 24.4873 31.1562L26.085 28.0371C26.1788 28.175 26.269 28.3156 26.3535 28.46C27.6384 26.2651 30.0211 24.7911 32.748 24.791Z" fill="url(#paint3_linear_3701_22770)"/>
</g>
<defs>
<linearGradient id="paint0_linear_3701_22770" x1="-1.09171e-06" y1="47.2539" x2="26.9821" y2="-9.28438" gradientUnits="userSpaceOnUse">
<stop stop-color="#D74E05"/>
<stop offset="1" stop-color="#712903"/>
</linearGradient>
<linearGradient id="paint1_linear_3701_22770" x1="30.9956" y1="9.97656" x2="46.2933" y2="39.6053" gradientUnits="userSpaceOnUse">
<stop stop-color="#B37005"/>
<stop offset="1" stop-color="#8C0F04"/>
</linearGradient>
<linearGradient id="paint2_linear_3701_22770" x1="13.8299" y1="52.3889" x2="38.8774" y2="24.791" gradientUnits="userSpaceOnUse">
<stop stop-color="#A63D04"/>
<stop offset="1" stop-color="white" stop-opacity="0"/>
</linearGradient>
<linearGradient id="paint3_linear_3701_22770" x1="13.885" y1="44.622" x2="38.9328" y2="17.025" gradientUnits="userSpaceOnUse">
<stop stop-color="#A63D04"/>
<stop offset="1" stop-color="#C67143"/>
</linearGradient>
<clipPath id="clip0_3701_22770">
<rect width="48" height="48" rx="12" fill="white"/>
</clipPath>
</defs>
</svg>
