<svg width="48" height="48" viewBox="0 0 48 48" fill="none" xmlns="http://www.w3.org/2000/svg">
<g clip-path="url(#clip0_3770_835)">
<rect width="48" height="48" rx="12" fill="url(#paint0_linear_3770_835)"/>
<path d="M10.5987 43.7705C8.72228 41.8942 8.72228 38.8519 10.5987 36.9756L20.4719 27.1023C22.3483 25.2259 25.3905 25.2259 27.2669 27.1023L37.1402 36.9756C39.0166 38.8519 39.0166 41.8942 37.1402 43.7705L27.2669 53.6438C25.3905 55.5202 22.3483 55.5202 20.4719 53.6438L10.5987 43.7705Z" fill="url(#paint1_linear_3770_835)"/>
<path d="M10.5987 27.1846C8.72228 25.3082 8.72228 22.266 10.5987 20.3896L20.4719 10.5163C22.3483 8.63995 25.3905 8.63995 27.2669 10.5163L37.1402 20.3896C39.0166 22.266 39.0166 25.3082 37.1402 27.1846L27.2669 37.0579C25.3905 38.9343 22.3483 38.9343 20.4719 37.0579L10.5987 27.1846Z" fill="url(#paint2_linear_3770_835)"/>
<path d="M10.5987 10.4659C8.72228 8.58947 8.72228 5.54725 10.5987 3.67087L20.4719 -6.20241C22.3483 -8.0788 25.3905 -8.0788 27.2669 -6.20242L37.1402 3.67087C39.0166 5.54725 39.0166 8.58947 37.1402 10.4658L27.2669 20.3391C25.3905 22.2155 22.3483 22.2155 20.4719 20.3391L10.5987 10.4659Z" fill="url(#paint3_linear_3770_835)"/>
</g>
<defs>
<linearGradient id="paint0_linear_3770_835" x1="24" y1="0" x2="24" y2="48" gradientUnits="userSpaceOnUse">
<stop stop-color="#FF6017"/>
<stop offset="1" stop-color="#A63400"/>
</linearGradient>
<linearGradient id="paint1_linear_3770_835" x1="23.9412" y1="25.3213" x2="23.9412" y2="53.4912" gradientUnits="userSpaceOnUse">
<stop stop-color="white" stop-opacity="0.6"/>
<stop offset="0.548077" stop-color="white" stop-opacity="0.9"/>
</linearGradient>
<linearGradient id="paint2_linear_3770_835" x1="23.9412" y1="8.93992" x2="23.9412" y2="38.9099" gradientUnits="userSpaceOnUse">
<stop offset="0.216346" stop-color="white" stop-opacity="0.4"/>
<stop offset="0.759615" stop-color="white" stop-opacity="0.8"/>
</linearGradient>
<linearGradient id="paint3_linear_3770_835" x1="23.9412" y1="-7.79992" x2="23.9412" y2="21.6301" gradientUnits="userSpaceOnUse">
<stop stop-color="#FF6017" stop-opacity="0.9"/>
<stop offset="0.721154" stop-color="white" stop-opacity="0.6"/>
</linearGradient>
<clipPath id="clip0_3770_835">
<rect width="48" height="48" rx="12" fill="white"/>
</clipPath>
</defs>
</svg>
