<svg width="48" height="48" viewBox="0 0 48 48" fill="none" xmlns="http://www.w3.org/2000/svg">
<g clip-path="url(#clip0_3701_22763)">
<rect width="48" height="48" rx="12" fill="url(#paint0_linear_3701_22763)"/>
<path d="M18.9049 8.92475C21.0809 4.67873 26.9195 4.67873 29.0956 8.92476L38.846 27.9506C40.9019 31.9623 38.1136 36.811 33.7506 36.811L14.2498 36.811C9.8868 36.811 7.09849 31.9623 9.15445 27.9505L18.9049 8.92475Z" fill="url(#paint1_linear_3701_22763)" fill-opacity="0.64"/>
<path d="M27.5948 44.4501C28.9608 44.4501 30.0682 45.5575 30.0682 46.9235L30.0682 48.044C30.0682 49.41 28.9608 50.5174 27.5948 50.5174L20.407 50.5174C19.041 50.5174 17.9336 49.41 17.9336 48.044L17.9336 46.9235C17.9336 45.5575 19.041 44.4501 20.407 44.4501C19.041 44.4501 17.9336 43.3427 17.9336 41.9767L17.9336 40.8562C17.9336 39.4902 19.041 38.3828 20.407 38.3828L27.5948 38.3828C28.9608 38.3828 30.0682 39.4902 30.0682 40.8562L30.0682 41.9767C30.0682 43.3427 28.9608 44.4501 27.5948 44.4501Z" fill="url(#paint2_linear_3701_22763)" fill-opacity="0.64"/>
</g>
<defs>
<linearGradient id="paint0_linear_3701_22763" x1="44.9099" y1="48" x2="14.7262" y2="-28.2682" gradientUnits="userSpaceOnUse">
<stop stop-color="#009632"/>
<stop offset="1" stop-color="#477F90"/>
</linearGradient>
<linearGradient id="paint1_linear_3701_22763" x1="24.0002" y1="5.74024" x2="24.0002" y2="36.811" gradientUnits="userSpaceOnUse">
<stop stop-color="#14904C"/>
<stop offset="1" stop-color="white"/>
</linearGradient>
<linearGradient id="paint2_linear_3701_22763" x1="24.0009" y1="38.3828" x2="24.0009" y2="50.5174" gradientUnits="userSpaceOnUse">
<stop stop-color="white"/>
<stop offset="1" stop-color="#9FFFCE" stop-opacity="0.14"/>
</linearGradient>
<clipPath id="clip0_3701_22763">
<rect width="48" height="48" rx="12" fill="white"/>
</clipPath>
</defs>
</svg>
