<svg width="48" height="48" viewBox="0 0 48 48" fill="none" xmlns="http://www.w3.org/2000/svg">
<g clip-path="url(#clip0_3770_515)">
<rect width="48" height="48" rx="12" fill="url(#paint0_linear_3770_515)"/>
<path d="M6.52116 15.4594C9.27302 17.0482 10.2158 20.567 8.62705 23.3189L7.32381 25.5761C5.73503 28.328 2.21625 29.2709 -0.535614 27.6821L-15.0156 19.3221C-17.7674 17.7333 -18.7103 14.2145 -17.1215 11.4626L-15.8183 9.20534C-14.2295 6.45349 -10.7106 5.51062 -7.95878 7.09941C-10.7106 5.51062 -11.6535 1.99184 -10.0648 -0.760015L-8.76153 -3.01729C-7.17275 -5.76915 -3.65391 -6.71201 -0.902041 -5.12322L13.5779 3.23678C16.3298 4.82557 17.2726 8.34437 15.6838 11.0962L14.3806 13.3535C12.7918 16.1053 9.27302 17.0482 6.52116 15.4594Z" fill="url(#paint1_linear_3770_515)"/>
<path d="M30.9645 29.5727C33.7164 31.1615 34.6592 34.6803 33.0704 37.4321L31.7672 39.6894C30.1784 42.4413 26.6596 43.3842 23.9077 41.7954L9.4278 33.4354C6.67594 31.8466 5.73306 28.3278 7.32185 25.5759L8.62509 23.3186C10.2139 20.5668 13.7327 19.6239 16.4846 21.2127C13.7327 19.6239 12.7898 16.1051 14.3786 13.3533L15.6818 11.096C17.2706 8.34414 20.7895 7.40127 23.5413 8.99006L38.0213 17.3501C40.7731 18.9388 41.7159 22.4577 40.1272 25.2095L38.8239 27.4668C37.2351 30.2186 33.7164 31.1615 30.9645 29.5727Z" fill="url(#paint2_linear_3770_515)"/>
<path d="M55.4118 43.686C58.1636 45.2748 59.1065 48.7936 57.5177 51.5454L56.2144 53.8027C54.6257 56.5545 51.1069 57.4974 48.355 55.9087L33.8751 47.5487C31.1232 45.9599 30.1803 42.441 31.7691 39.6892L33.0724 37.4319C34.6611 34.68 38.18 33.7372 40.9318 35.326C38.18 33.7372 37.2371 30.2184 38.8259 27.4665L40.1291 25.2093C41.7179 22.4574 45.2367 21.5146 47.9886 23.1033L62.4685 31.4633C65.2204 33.0521 66.1632 36.5709 64.5744 39.3228L63.2712 41.5801C61.6824 44.3319 58.1636 45.2747 55.4118 43.686Z" fill="url(#paint3_linear_3770_515)"/>
</g>
<defs>
<linearGradient id="paint0_linear_3770_515" x1="3.48235" y1="-4.9041e-07" x2="26.1896" y2="55.9034" gradientUnits="userSpaceOnUse">
<stop stop-color="#FF6017"/>
<stop offset="1" stop-color="#C33F03"/>
</linearGradient>
<linearGradient id="paint1_linear_3770_515" x1="6.3379" y1="-0.943242" x2="-7.77562" y2="23.5021" gradientUnits="userSpaceOnUse">
<stop stop-color="#EDB49B" stop-opacity="0.2"/>
<stop offset="1" stop-color="#FAFAFA" stop-opacity="0.6"/>
</linearGradient>
<linearGradient id="paint2_linear_3770_515" x1="30.7813" y1="13.17" x2="16.6677" y2="37.6154" gradientUnits="userSpaceOnUse">
<stop stop-color="#EDB49B" stop-opacity="0.2"/>
<stop offset="1" stop-color="#FAFAFA" stop-opacity="0.6"/>
</linearGradient>
<linearGradient id="paint3_linear_3770_515" x1="55.2285" y1="27.2833" x2="41.115" y2="51.7286" gradientUnits="userSpaceOnUse">
<stop stop-color="#EDB49B" stop-opacity="0.2"/>
<stop offset="1" stop-color="#FAFAFA" stop-opacity="0.6"/>
</linearGradient>
<clipPath id="clip0_3770_515">
<rect width="48" height="48" rx="12" fill="white"/>
</clipPath>
</defs>
</svg>
