<svg width="48" height="48" viewBox="0 0 48 48" fill="none" xmlns="http://www.w3.org/2000/svg">
<g clip-path="url(#clip0_3770_829)">
<rect width="48" height="48" rx="12" fill="url(#paint0_linear_3770_829)"/>
<path d="M18.9781 19.0595C21.7744 19.0595 24.0412 20.8007 24.0412 22.9486V24.7104C24.0412 26.8583 21.7744 28.5995 18.9781 28.5995H4.26434C1.46805 28.5995 -0.798828 26.8583 -0.798828 24.7104V22.9486C-0.798827 20.8007 1.46805 19.0595 4.26434 19.0595C1.46806 19.0595 -0.798818 17.3183 -0.798828 15.1705V13.4086C-0.798828 11.2608 1.46805 9.51953 4.26434 9.51953H18.9781C21.7744 9.51954 24.0412 11.2608 24.0412 13.4086V15.1705C24.0412 17.3183 21.7744 19.0595 18.9781 19.0595Z" fill="url(#paint1_linear_3770_829)"/>
<path d="M43.8179 28.7802C46.6142 28.7802 48.881 30.5214 48.881 32.6693V34.4311C48.881 36.579 46.6142 38.3202 43.8179 38.3202H29.1042C26.3079 38.3202 24.041 36.579 24.041 34.4311V32.6693C24.041 30.5214 26.3079 28.7802 29.1042 28.7802C26.3079 28.7802 24.041 27.039 24.041 24.8912V23.1293C24.041 20.9815 26.3079 19.2402 29.1042 19.2402H43.8179C46.6142 19.2402 48.881 20.9815 48.881 23.1293V24.8912C48.881 27.039 46.6142 28.7802 43.8179 28.7802Z" fill="url(#paint2_linear_3770_829)"/>
<path d="M33.491 -0.536663C33.491 -3.33295 35.2158 -5.59977 37.3434 -5.59977L39.0886 -5.59977C41.2162 -5.59977 42.941 -3.33295 42.941 -0.536664L42.941 14.1771C42.941 16.9734 41.2162 19.2402 39.0886 19.2402L37.3434 19.2402C35.2158 19.2402 33.491 16.9734 33.491 14.1771C33.491 16.9734 31.7662 19.2402 29.6386 19.2402L27.8934 19.2402C25.7658 19.2402 24.041 16.9734 24.041 14.1771L24.041 -0.536663C24.041 -3.33295 25.7658 -5.59977 27.8934 -5.59977L29.6386 -5.59977C31.7662 -5.59975 33.491 -3.33295 33.491 -0.536663Z" fill="url(#paint3_linear_3770_829)"/>
<path d="M14.5009 33.6645C14.5009 30.8682 16.2421 28.6014 18.39 28.6014L20.1518 28.6014C22.2997 28.6014 24.0409 30.8682 24.0409 33.6645L24.0409 48.3782C24.0409 51.1745 22.2997 53.4414 20.1518 53.4414L18.39 53.4414C16.2421 53.4414 14.5009 51.1745 14.5009 48.3782C14.5009 51.1745 12.7597 53.4414 10.6119 53.4414L8.85003 53.4414C6.70216 53.4414 4.96094 51.1745 4.96094 48.3782L4.96094 33.6645C4.96094 30.8682 6.70216 28.6014 8.85003 28.6014L10.6119 28.6014C12.7597 28.6014 14.5009 30.8682 14.5009 33.6645Z" fill="url(#paint4_linear_3770_829)"/>
</g>
<defs>
<linearGradient id="paint0_linear_3770_829" x1="6.77647" y1="1.89938e-07" x2="27.4268" y2="56.2939" gradientUnits="userSpaceOnUse">
<stop stop-color="#FF6017"/>
<stop offset="1" stop-color="#EE9065"/>
</linearGradient>
<linearGradient id="paint1_linear_3770_829" x1="11.6212" y1="9.51953" x2="11.6212" y2="28.5995" gradientUnits="userSpaceOnUse">
<stop stop-color="white" stop-opacity="0.8"/>
<stop offset="1" stop-color="#FAFAFA" stop-opacity="0"/>
</linearGradient>
<linearGradient id="paint2_linear_3770_829" x1="36.461" y1="19.2402" x2="36.461" y2="38.3202" gradientUnits="userSpaceOnUse">
<stop stop-color="white" stop-opacity="0.8"/>
<stop offset="1" stop-color="#FAFAFA" stop-opacity="0"/>
</linearGradient>
<linearGradient id="paint3_linear_3770_829" x1="24.041" y1="6.82023" x2="42.941" y2="6.82023" gradientUnits="userSpaceOnUse">
<stop stop-color="white" stop-opacity="0.8"/>
<stop offset="1" stop-color="#FAFAFA" stop-opacity="0"/>
</linearGradient>
<linearGradient id="paint4_linear_3770_829" x1="4.96094" y1="41.0214" x2="24.0409" y2="41.0214" gradientUnits="userSpaceOnUse">
<stop stop-color="white" stop-opacity="0.8"/>
<stop offset="1" stop-color="#FAFAFA" stop-opacity="0"/>
</linearGradient>
<clipPath id="clip0_3770_829">
<rect width="48" height="48" rx="12" fill="white"/>
</clipPath>
</defs>
</svg>
