<svg width="48" height="48" viewBox="0 0 48 48" fill="none" xmlns="http://www.w3.org/2000/svg">
<rect width="48" height="48" rx="12" fill="url(#paint0_linear_3758_1377)"/>
<rect width="48" height="48" rx="12" fill="black" fill-opacity="0.1"/>
<path d="M23.9692 9.38042C24.6692 6.26529 28.4525 5.28907 30.5725 7.67655L40.0715 18.3745C42.0745 20.6302 41.0784 24.2382 38.2513 24.9677L25.6153 28.2282C22.7882 28.9577 20.1708 26.2821 20.8323 23.3389L23.9692 9.38042Z" fill="url(#paint1_linear_3758_1377)"/>
<path d="M18.6313 15.8531C19.3314 12.7379 23.1146 11.7617 25.2346 14.1492L34.7336 24.8471C36.7366 27.1029 35.7406 30.7109 32.9135 31.4404L20.2775 34.7009C17.4504 35.4304 14.8329 32.7548 15.4944 29.8115L18.6313 15.8531Z" fill="url(#paint2_linear_3758_1377)"/>
<path d="M13.2973 22.3218C13.9974 19.2067 17.7806 18.2305 19.9006 20.618L29.3997 31.3159C31.4026 33.5716 30.4066 37.1796 27.5795 37.9091L14.9435 41.1696C12.1164 41.8991 9.49893 39.2235 10.1604 36.2803L13.2973 22.3218Z" fill="url(#paint3_linear_3758_1377)"/>
<defs>
<linearGradient id="paint0_linear_3758_1377" x1="4.51526" y1="1.69682e-07" x2="25.1225" y2="54.8933" gradientUnits="userSpaceOnUse">
<stop stop-color="#4D0836"/>
<stop offset="1" stop-color="#330524"/>
</linearGradient>
<linearGradient id="paint1_linear_3758_1377" x1="26.7384" y1="6.46501" x2="31.9333" y2="26.598" gradientUnits="userSpaceOnUse">
<stop stop-color="#FAFAFA" stop-opacity="0.5"/>
<stop offset="1" stop-color="#FAFAFA" stop-opacity="0.05"/>
</linearGradient>
<linearGradient id="paint2_linear_3758_1377" x1="21.4005" y1="12.9377" x2="26.5955" y2="33.0706" gradientUnits="userSpaceOnUse">
<stop stop-color="#FAFAFA" stop-opacity="0.6"/>
<stop offset="1" stop-color="#FAFAFA" stop-opacity="0.1"/>
</linearGradient>
<linearGradient id="paint3_linear_3758_1377" x1="16.0665" y1="19.4064" x2="21.2615" y2="39.5394" gradientUnits="userSpaceOnUse">
<stop stop-color="#FAFAFA" stop-opacity="0.75"/>
<stop offset="1" stop-color="#FAFAFA" stop-opacity="0.25"/>
</linearGradient>
</defs>
</svg>
