<svg width="48" height="48" viewBox="0 0 48 48" fill="none" xmlns="http://www.w3.org/2000/svg">
<g clip-path="url(#clip0_3770_808)">
<rect width="48" height="48" rx="12" fill="url(#paint0_linear_3770_808)"/>
<path d="M36.4845 25.2598C38.2715 25.2598 39.7201 26.7084 39.7201 28.4954C39.7201 29.6871 39.0758 30.7283 38.1166 31.2897C39.0758 31.8512 39.7202 32.8924 39.7202 34.0842C39.7201 35.8711 38.2715 37.3198 36.4845 37.3198C35.2928 37.3198 34.2516 36.6755 33.6901 35.7162C33.1287 36.6754 32.0875 37.3197 30.8958 37.3197C29.1088 37.3197 27.6602 35.8711 27.6602 34.0841C27.6602 32.8924 28.3045 31.8512 29.2637 31.2898C28.3045 30.7283 27.6602 29.6871 27.6602 28.4954C27.6602 26.7084 29.1088 25.2598 30.8958 25.2598C32.0875 25.2598 33.1287 25.9041 33.6901 26.8633C34.2516 25.904 35.2928 25.2598 36.4845 25.2598ZM33.6901 30.1274C33.4091 30.6076 33.0079 31.0087 32.5278 31.2898C33.0079 31.5708 33.4091 31.9719 33.6902 32.4521C33.9712 31.972 34.3723 31.5708 34.8524 31.2898C34.3723 31.0087 33.9711 30.6076 33.6901 30.1274Z" fill="url(#paint1_linear_3770_808)"/>
<path d="M12.3654 25.2598C14.1524 25.2598 15.601 26.7084 15.601 28.4954C15.601 29.6871 14.9567 30.7283 13.9974 31.2897C14.9567 31.8512 15.601 32.8924 15.601 34.0842C15.601 35.8711 14.1524 37.3198 12.3654 37.3198C11.1737 37.3198 10.1324 36.6755 9.57098 35.7162C9.00953 36.6754 7.96834 37.3197 6.77662 37.3197C4.98964 37.3197 3.54102 35.8711 3.54102 34.0841C3.54102 32.8924 4.18532 31.8512 5.14455 31.2898C4.18532 30.7283 3.54102 29.6871 3.54102 28.4954C3.54102 26.7084 4.98965 25.2598 6.77662 25.2598C7.96833 25.2598 9.00952 25.9041 9.57098 26.8633C10.1324 25.904 11.1737 25.2598 12.3654 25.2598ZM9.57098 30.1274C9.28996 30.6076 8.88878 31.0087 8.40866 31.2898C8.88878 31.5708 9.29 31.9719 9.57102 32.4521C9.85203 31.972 10.2532 31.5708 10.7333 31.2898C10.2532 31.0087 9.852 30.6076 9.57098 30.1274Z" fill="url(#paint2_linear_3770_808)"/>
<path d="M24.424 31.3789C26.2109 31.3789 27.6596 32.8275 27.6596 34.6145C27.6596 35.8062 27.0153 36.8474 26.056 37.4089C27.0153 37.9703 27.6596 39.0116 27.6596 40.2033C27.6596 41.9903 26.211 43.4389 24.424 43.4389C23.2323 43.4389 22.191 42.7946 21.6296 41.8353C21.0681 42.7946 20.0269 43.4389 18.8352 43.4389C17.0482 43.4389 15.5996 41.9902 15.5996 40.2033C15.5996 39.0115 16.2439 37.9704 17.2031 37.4089C16.2439 36.8474 15.5996 35.8062 15.5996 34.6145C15.5996 32.8275 17.0482 31.3789 18.8352 31.3789C20.0269 31.3789 21.0681 32.0232 21.6296 32.9824C22.191 32.0232 23.2323 31.3789 24.424 31.3789ZM21.6296 36.2466C21.3486 36.7267 20.9474 37.1279 20.4673 37.4089C20.9474 37.6899 21.3486 38.0911 21.6296 38.5712C21.9106 38.0911 22.3118 37.6899 22.7919 37.4089C22.3118 37.1279 21.9106 36.7267 21.6296 36.2466Z" fill="url(#paint3_linear_3770_808)"/>
<path d="M42.424 13.1992C44.2109 13.1992 45.6596 14.6478 45.6596 16.4348C45.6596 17.6265 45.0153 18.6677 44.056 19.2292C45.0153 19.7906 45.6596 20.8319 45.6596 22.0236C45.6596 23.8106 44.211 25.2592 42.424 25.2592C41.2323 25.2592 40.191 24.6149 39.6296 23.6556C39.0681 24.6149 38.0269 25.2592 36.8352 25.2592C35.0482 25.2592 33.5996 23.8106 33.5996 22.0236C33.5996 20.8319 34.2439 19.7907 35.2031 19.2292C34.2439 18.6678 33.5996 17.6265 33.5996 16.4348C33.5996 14.6479 35.0482 13.1992 36.8352 13.1992C38.0269 13.1992 39.0681 13.8435 39.6296 14.8027C40.191 13.8435 41.2323 13.1992 42.424 13.1992ZM39.6296 18.0669C39.3486 18.547 38.9474 18.9482 38.4673 19.2292C38.9474 19.5102 39.3486 19.9114 39.6296 20.3915C39.9106 19.9114 40.3118 19.5102 40.7919 19.2292C40.3118 18.9482 39.9106 18.547 39.6296 18.0669Z" fill="url(#paint4_linear_3770_808)"/>
<path d="M6.42397 37.3203C8.21095 37.3203 9.65958 38.7689 9.65958 40.5559C9.65958 41.7476 9.01528 42.7888 8.05604 43.3503C9.0153 43.9117 9.65961 44.953 9.65961 46.1447C9.6596 47.9317 8.21097 49.3803 6.424 49.3803C5.23227 49.3803 4.19103 48.736 3.62958 47.7767C3.06812 48.736 2.02694 49.3803 0.835216 49.3803C-0.951763 49.3803 -2.40039 47.9317 -2.40039 46.1447C-2.40039 44.953 -1.75609 43.9118 -0.796855 43.3503C-1.75609 42.7889 -2.40039 41.7476 -2.40039 40.5559C-2.40038 38.769 -0.951753 37.3203 0.835216 37.3203C2.02692 37.3203 3.06811 37.9646 3.62958 38.9238C4.19104 37.9646 5.23225 37.3203 6.42397 37.3203ZM3.62958 42.188C3.34856 42.6681 2.94738 43.0693 2.46725 43.3503C2.94737 43.6313 3.34859 44.0325 3.62961 44.5126C3.91062 44.0325 4.3118 43.6313 4.7919 43.3503C4.31179 43.0693 3.91059 42.6681 3.62958 42.188Z" fill="url(#paint5_linear_3770_808)"/>
<path d="M30.3654 7.25977C32.1524 7.25977 33.601 8.70839 33.601 10.4954C33.601 11.6871 32.9567 12.7283 31.9974 13.2897C32.9567 13.8512 33.601 14.8924 33.601 16.0842C33.601 17.8711 32.1524 19.3198 30.3654 19.3198C29.1737 19.3198 28.1324 18.6755 27.571 17.7162C27.0095 18.6754 25.9683 19.3197 24.7766 19.3197C22.9896 19.3197 21.541 17.8711 21.541 16.0841C21.541 14.8924 22.1853 13.8512 23.1446 13.2898C22.1853 12.7283 21.541 11.6871 21.541 10.4954C21.541 8.7084 22.9897 7.25977 24.7766 7.25977C25.9683 7.25977 27.0095 7.90406 27.571 8.86327C28.1324 7.90404 29.1737 7.25977 30.3654 7.25977ZM27.571 12.1274C27.29 12.6076 26.8888 13.0087 26.4087 13.2898C26.8888 13.5708 27.29 13.9719 27.571 14.4521C27.852 13.972 28.2532 13.5708 28.7333 13.2898C28.2532 13.0087 27.852 12.6076 27.571 12.1274Z" fill="url(#paint6_linear_3770_808)"/>
<path d="M36.4845 -4.80078C38.2715 -4.80078 39.7201 -3.35215 39.7201 -1.56517C39.7201 -0.373455 39.0758 0.667727 38.1166 1.22919C39.0758 1.79064 39.7202 2.83188 39.7202 4.02361C39.7201 5.81058 38.2715 7.25921 36.4845 7.25922C35.2928 7.25922 34.2516 6.6149 33.6901 5.65565C33.1287 6.61489 32.0875 7.25918 30.8958 7.25919C29.1088 7.25919 27.6602 5.81056 27.6602 4.02358C27.6602 2.83186 28.3045 1.79068 29.2637 1.22922C28.3045 0.667759 27.6602 -0.373455 27.6602 -1.56517C27.6602 -3.35214 29.1088 -4.80077 30.8958 -4.80078C32.0875 -4.80078 33.1287 -4.15649 33.6901 -3.19728C34.2516 -4.15651 35.2928 -4.80078 36.4845 -4.80078ZM33.6901 0.066896C33.4091 0.547013 33.0079 0.948203 32.5278 1.22922C33.0079 1.51023 33.4091 1.9114 33.6902 2.39151C33.9712 1.91141 34.3723 1.51023 34.8524 1.22922C34.3723 0.948202 33.9711 0.547009 33.6901 0.066896Z" fill="url(#paint7_linear_3770_808)"/>
</g>
<defs>
<linearGradient id="paint0_linear_3770_808" x1="24" y1="0" x2="24" y2="48" gradientUnits="userSpaceOnUse">
<stop stop-color="#FF6017"/>
<stop offset="1" stop-color="#FF9361"/>
</linearGradient>
<linearGradient id="paint1_linear_3770_808" x1="33.6902" y1="25.2598" x2="33.6902" y2="37.3198" gradientUnits="userSpaceOnUse">
<stop offset="0.254808" stop-color="white" stop-opacity="0.8"/>
<stop offset="1" stop-color="#FFA881"/>
</linearGradient>
<linearGradient id="paint2_linear_3770_808" x1="9.57102" y1="25.2598" x2="9.57102" y2="37.3198" gradientUnits="userSpaceOnUse">
<stop offset="0.254808" stop-color="white" stop-opacity="0.8"/>
<stop offset="1" stop-color="#FFA881"/>
</linearGradient>
<linearGradient id="paint3_linear_3770_808" x1="21.6296" y1="31.3789" x2="21.6296" y2="43.4389" gradientUnits="userSpaceOnUse">
<stop offset="0.254808" stop-color="white" stop-opacity="0.8"/>
<stop offset="1" stop-color="#FFA881"/>
</linearGradient>
<linearGradient id="paint4_linear_3770_808" x1="39.6296" y1="13.1992" x2="39.6296" y2="25.2592" gradientUnits="userSpaceOnUse">
<stop offset="0.254808" stop-color="white" stop-opacity="0.8"/>
<stop offset="1" stop-color="#FFA881"/>
</linearGradient>
<linearGradient id="paint5_linear_3770_808" x1="3.62961" y1="37.3203" x2="3.62961" y2="49.3803" gradientUnits="userSpaceOnUse">
<stop offset="0.254808" stop-color="white" stop-opacity="0.8"/>
<stop offset="1" stop-color="#FFA881"/>
</linearGradient>
<linearGradient id="paint6_linear_3770_808" x1="27.571" y1="7.25977" x2="27.571" y2="19.3198" gradientUnits="userSpaceOnUse">
<stop offset="0.254808" stop-color="white" stop-opacity="0.8"/>
<stop offset="1" stop-color="#FFA881"/>
</linearGradient>
<linearGradient id="paint7_linear_3770_808" x1="33.6902" y1="-4.80078" x2="33.6902" y2="7.25922" gradientUnits="userSpaceOnUse">
<stop offset="0.254808" stop-color="white" stop-opacity="0.8"/>
<stop offset="1" stop-color="#FFA881"/>
</linearGradient>
<clipPath id="clip0_3770_808">
<rect width="48" height="48" rx="12" fill="white"/>
</clipPath>
</defs>
</svg>
