<svg width="60" height="60" viewBox="0 0 60 60" fill="none" xmlns="http://www.w3.org/2000/svg">
<g clip-path="url(#clip0_3770_520)">
<rect width="60" height="60" rx="15" fill="url(#paint0_linear_3770_520)"/>
<path d="M45.6066 31.5742C47.8403 31.5742 49.6511 33.385 49.6511 35.6187C49.6511 37.1084 48.8458 38.4099 47.6467 39.1117C48.8458 39.8135 49.6512 41.115 49.6512 42.6047C49.6512 44.8384 47.8404 46.6492 45.6067 46.6492C44.117 46.6492 42.8154 45.8438 42.1136 44.6448C41.4118 45.8438 40.1103 46.6492 38.6207 46.6492C36.387 46.6492 34.5762 44.8384 34.5762 42.6047C34.5762 41.115 35.3815 39.8135 36.5806 39.1117C35.3815 38.4099 34.5762 37.1084 34.5762 35.6187C34.5762 33.385 36.387 31.5742 38.6207 31.5742C40.1103 31.5742 41.4118 32.3796 42.1136 33.5786C42.8155 32.3796 44.117 31.5742 45.6066 31.5742ZM42.1136 37.6588C41.7624 38.259 41.2609 38.7604 40.6607 39.1117C41.2609 39.463 41.7624 39.9644 42.1137 40.5646C42.4649 39.9645 42.9664 39.463 43.5665 39.1117C42.9664 38.7604 42.4649 38.259 42.1136 37.6588Z" fill="url(#paint1_linear_3770_520)"/>
<path d="M15.4562 31.5742C17.69 31.5742 19.5007 33.385 19.5007 35.6187C19.5007 37.1084 18.6954 38.4099 17.4963 39.1117C18.6954 39.8135 19.5008 41.115 19.5008 42.6047C19.5008 44.8384 17.69 46.6492 15.4563 46.6492C13.9666 46.6492 12.6651 45.8438 11.9632 44.6448C11.2614 45.8438 9.95994 46.6492 8.47029 46.6492C6.23657 46.6492 4.42578 44.8384 4.42578 42.6047C4.42579 41.115 5.23116 39.8135 6.4302 39.1117C5.23116 38.4099 4.42578 37.1084 4.42578 35.6187C4.42579 33.385 6.23658 31.5742 8.47029 31.5742C9.95992 31.5742 11.2614 32.3796 11.9632 33.5786C12.6651 32.3796 13.9666 31.5742 15.4562 31.5742ZM11.9632 37.6588C11.612 38.259 11.1105 38.7604 10.5103 39.1117C11.1105 39.463 11.612 39.9644 11.9633 40.5646C12.3145 39.9645 12.816 39.463 13.4161 39.1117C12.816 38.7604 12.3145 38.259 11.9632 37.6588Z" fill="url(#paint2_linear_3770_520)"/>
<path d="M30.5304 39.2246C32.7642 39.2246 34.575 41.0354 34.575 43.2691C34.575 44.7588 33.7696 46.0602 32.5705 46.7621C33.7696 47.4639 34.575 48.7654 34.575 50.2551C34.575 52.4888 32.7642 54.2996 30.5305 54.2996C29.0408 54.2996 27.7393 53.4942 27.0375 52.2951C26.3356 53.4942 25.0342 54.2996 23.5445 54.2996C21.3108 54.2996 19.5 52.4888 19.5 50.2551C19.5 48.7654 20.3054 47.4639 21.5044 46.7621C20.3054 46.0603 19.5 44.7588 19.5 43.2691C19.5 41.0354 21.3108 39.2246 23.5445 39.2246C25.0341 39.2246 26.3356 40.03 27.0375 41.229C27.7393 40.03 29.0408 39.2246 30.5304 39.2246ZM27.0375 45.3092C26.6862 45.9094 26.1847 46.4108 25.5846 46.7621C26.1847 47.1134 26.6862 47.6148 27.0375 48.215C27.3888 47.6149 27.8902 47.1134 28.4904 46.7621C27.8902 46.4108 27.3887 45.9093 27.0375 45.3092Z" fill="url(#paint3_linear_3770_520)"/>
<path d="M53.0304 16.5C55.2642 16.5 57.075 18.3108 57.075 20.5445C57.075 22.0342 56.2696 23.3356 55.0705 24.0375C56.2696 24.7393 57.075 26.0408 57.075 27.5305C57.075 29.7642 55.2642 31.575 53.0305 31.575C51.5408 31.575 50.2393 30.7696 49.5375 29.5705C48.8356 30.7696 47.5342 31.575 46.0445 31.575C43.8108 31.575 42 29.7642 42 27.5304C42 26.0408 42.8054 24.7393 44.0044 24.0375C42.8054 23.3357 42 22.0342 42 20.5445C42 18.3108 43.8108 16.5 46.0445 16.5C47.5341 16.5 48.8356 17.3054 49.5375 18.5044C50.2393 17.3053 51.5408 16.5 53.0304 16.5ZM49.5375 22.5846C49.1862 23.1847 48.6847 23.6862 48.0846 24.0375C48.6847 24.3888 49.1862 24.8902 49.5375 25.4904C49.8888 24.8902 50.3902 24.3888 50.9904 24.0375C50.3902 23.6862 49.8887 23.1847 49.5375 22.5846Z" fill="url(#paint4_linear_3770_520)"/>
<path d="M8.03045 46.6504C10.2642 46.6504 12.075 48.4612 12.075 50.6949C12.075 52.1845 11.2696 53.486 10.0705 54.1878C11.2696 54.8897 12.075 56.1912 12.075 57.6809C12.075 59.9146 10.2642 61.7254 8.03049 61.7254C6.54082 61.7254 5.23928 60.92 4.53746 59.7209C3.83564 60.92 2.53416 61.7253 1.04451 61.7253C-1.18922 61.7253 -3 59.9146 -3 57.6808C-3 56.1912 -2.19463 54.8897 -0.99558 54.1879C-2.19462 53.4861 -3 52.1845 -3 50.6949C-2.99999 48.4612 -1.1892 46.6504 1.04451 46.6504C2.53414 46.6504 3.83563 47.4558 4.53746 48.6548C5.23929 47.4557 6.54081 46.6504 8.03045 46.6504ZM4.53746 52.735C4.18618 53.3351 3.68471 53.8366 3.08456 54.1879C3.6847 54.5392 4.18623 55.0406 4.5375 55.6408C4.88876 55.0406 5.39024 54.5392 5.99036 54.1879C5.39022 53.8366 4.88873 53.3351 4.53746 52.735Z" fill="url(#paint5_linear_3770_520)"/>
<path d="M37.9562 9.07422C40.19 9.07422 42.0007 10.885 42.0007 13.1187C42.0007 14.6084 41.1954 15.9099 39.9963 16.6117C41.1954 17.3135 42.0008 18.615 42.0008 20.1047C42.0008 22.3384 40.19 24.1492 37.9563 24.1492C36.4666 24.1492 35.1651 23.3438 34.4632 22.1448C33.7614 23.3438 32.4599 24.1492 30.9703 24.1492C28.7366 24.1492 26.9258 22.3384 26.9258 20.1047C26.9258 18.615 27.7312 17.3135 28.9302 16.6117C27.7312 15.9099 26.9258 14.6084 26.9258 13.1187C26.9258 10.885 28.7366 9.07423 30.9703 9.07422C32.4599 9.07422 33.7614 9.87958 34.4632 11.0786C35.1651 9.87956 36.4666 9.07422 37.9562 9.07422ZM34.4632 15.1588C34.112 15.759 33.6105 16.2604 33.0103 16.6117C33.6105 16.963 34.112 17.4644 34.4633 18.0646C34.8145 17.4645 35.316 16.963 35.9161 16.6117C35.316 16.2604 34.8145 15.759 34.4632 15.1588Z" fill="url(#paint6_linear_3770_520)"/>
<path d="M45.6066 -6C47.8403 -6 49.6511 -4.18921 49.6511 -1.95549C49.6511 -0.465842 48.8458 0.835635 47.6467 1.53746C48.8458 2.23928 49.6512 3.54082 49.6512 5.03049C49.6512 7.2642 47.8404 9.07499 45.6067 9.075C44.117 9.075 42.8154 8.26961 42.1136 7.07054C41.4118 8.26959 40.1103 9.07496 38.6207 9.07496C36.387 9.07496 34.5762 7.26417 34.5762 5.03045C34.5762 3.5408 35.3815 2.23932 36.5806 1.5375C35.3815 0.835675 34.5762 -0.465842 34.5762 -1.95549C34.5762 -4.1892 36.387 -5.99999 38.6207 -6C40.1103 -6 41.4118 -5.19464 42.1136 -3.99562C42.8155 -5.19466 44.117 -6 45.6066 -6ZM42.1136 0.0845962C41.7624 0.684743 41.2609 1.18623 40.6607 1.5375C41.2609 1.88877 41.7624 2.39022 42.1137 2.99036C42.4649 2.39024 42.9664 1.88876 43.5665 1.5375C42.9664 1.18623 42.4649 0.684738 42.1136 0.0845962Z" fill="url(#paint7_linear_3770_520)"/>
</g>
<defs>
<linearGradient id="paint0_linear_3770_520" x1="30" y1="0" x2="30" y2="60" gradientUnits="userSpaceOnUse">
<stop stop-color="#FF6017"/>
<stop offset="1" stop-color="#FF9361"/>
</linearGradient>
<linearGradient id="paint1_linear_3770_520" x1="42.1137" y1="31.5742" x2="42.1137" y2="46.6492" gradientUnits="userSpaceOnUse">
<stop offset="0.254808" stop-color="white" stop-opacity="0.8"/>
<stop offset="1" stop-color="#FFA881"/>
</linearGradient>
<linearGradient id="paint2_linear_3770_520" x1="11.9633" y1="31.5742" x2="11.9633" y2="46.6492" gradientUnits="userSpaceOnUse">
<stop offset="0.254808" stop-color="white" stop-opacity="0.8"/>
<stop offset="1" stop-color="#FFA881"/>
</linearGradient>
<linearGradient id="paint3_linear_3770_520" x1="27.0375" y1="39.2246" x2="27.0375" y2="54.2996" gradientUnits="userSpaceOnUse">
<stop offset="0.254808" stop-color="white" stop-opacity="0.8"/>
<stop offset="1" stop-color="#FFA881"/>
</linearGradient>
<linearGradient id="paint4_linear_3770_520" x1="49.5375" y1="16.5" x2="49.5375" y2="31.575" gradientUnits="userSpaceOnUse">
<stop offset="0.254808" stop-color="white" stop-opacity="0.8"/>
<stop offset="1" stop-color="#FFA881"/>
</linearGradient>
<linearGradient id="paint5_linear_3770_520" x1="4.5375" y1="46.6504" x2="4.5375" y2="61.7254" gradientUnits="userSpaceOnUse">
<stop offset="0.254808" stop-color="white" stop-opacity="0.8"/>
<stop offset="1" stop-color="#FFA881"/>
</linearGradient>
<linearGradient id="paint6_linear_3770_520" x1="34.4633" y1="9.07422" x2="34.4633" y2="24.1492" gradientUnits="userSpaceOnUse">
<stop offset="0.254808" stop-color="white" stop-opacity="0.8"/>
<stop offset="1" stop-color="#FFA881"/>
</linearGradient>
<linearGradient id="paint7_linear_3770_520" x1="42.1137" y1="-6" x2="42.1137" y2="9.075" gradientUnits="userSpaceOnUse">
<stop offset="0.254808" stop-color="white" stop-opacity="0.8"/>
<stop offset="1" stop-color="#FFA881"/>
</linearGradient>
<clipPath id="clip0_3770_520">
<rect width="60" height="60" rx="15" fill="white"/>
</clipPath>
</defs>
</svg>
