<svg width="60" height="60" viewBox="0 0 60 60" fill="none" xmlns="http://www.w3.org/2000/svg">
<g clip-path="url(#clip0_3726_23215)">
<rect width="60" height="60" rx="15" fill="url(#paint0_linear_3726_23215)"/>
<path d="M45.274 9.70898C49.0667 9.70898 52.1413 12.7836 52.1413 16.5763C52.1413 19.1057 50.7738 21.3155 48.7379 22.5071C50.7739 23.6988 52.1414 25.9087 52.1414 28.4381C52.1414 32.2308 49.0668 35.3054 45.274 35.3055C42.7447 35.3055 40.5347 33.9379 39.3431 31.902C38.1514 33.9379 35.9416 35.3054 33.4123 35.3054C29.6195 35.3054 26.5449 32.2308 26.5449 28.438C26.5449 25.9087 27.9124 23.6989 29.9483 22.5072C27.9124 21.3156 26.5449 19.1057 26.5449 16.5763C26.5449 12.7836 29.6195 9.709 33.4123 9.70898C35.9416 9.70898 38.1514 11.0764 39.3431 13.1123C40.5347 11.0764 42.7447 9.70899 45.274 9.70898ZM39.3431 20.0403C38.7466 21.0593 37.8952 21.9108 36.8761 22.5072C37.8952 23.1037 38.7467 23.9551 39.3432 24.9741C39.9396 23.9551 40.7911 23.1036 41.81 22.5072C40.791 21.9108 39.9395 21.0593 39.3431 20.0403Z" fill="url(#paint1_linear_3726_23215)" fill-opacity="0.33"/>
<path d="M28.0474 20.5371C31.8401 20.5371 34.9148 23.6117 34.9148 27.4044C34.9148 29.9338 33.5473 32.1436 31.5114 33.3353C33.5473 34.5269 34.9148 36.7369 34.9148 39.2662C34.9148 43.0589 31.8402 46.1336 28.0475 46.1336C25.5181 46.1336 23.3082 44.7661 22.1165 42.7301C20.9249 44.766 18.715 46.1335 16.1857 46.1335C12.393 46.1335 9.31836 43.0589 9.31836 39.2662C9.31837 36.7368 10.6858 34.527 12.7217 33.3353C10.6858 32.1437 9.31836 29.9338 9.31836 27.4044C9.31837 23.6117 12.393 20.5371 16.1857 20.5371C18.715 20.5371 20.9249 21.9046 22.1165 23.9404C23.3082 21.9045 25.5181 20.5371 28.0474 20.5371ZM22.1165 30.8684C21.5201 31.8874 20.6686 32.7389 19.6496 33.3353C20.6686 33.9318 21.5202 34.7832 22.1166 35.8022C22.713 34.7832 23.5645 33.9318 24.5835 33.3353C23.5645 32.7389 22.713 31.8874 22.1165 30.8684Z" fill="url(#paint2_linear_3726_23215)" fill-opacity="0.33"/>
<path d="M73.0826 16.1836C76.8753 16.1836 79.9499 19.2582 79.9499 23.0509C79.9499 25.5803 78.5824 27.7901 76.5465 28.9818C78.5825 30.1734 79.95 32.3833 79.95 34.9127C79.95 38.7054 76.8754 41.78 73.0826 41.7801C70.5533 41.7801 68.3433 40.4126 67.1517 38.3766C65.96 40.4125 63.7502 41.78 61.2209 41.78C57.4281 41.78 54.3535 38.7054 54.3535 34.9127C54.3535 32.3833 55.721 30.1735 57.7569 28.9818C55.721 27.7902 54.3535 25.5803 54.3535 23.0509C54.3535 19.2582 57.4281 16.1836 61.2209 16.1836C63.7502 16.1836 65.96 17.5511 67.1517 19.5869C68.3433 17.551 70.5532 16.1836 73.0826 16.1836ZM67.1517 26.5149C66.5552 27.5339 65.7038 28.3854 64.6847 28.9818C65.7037 29.5783 66.5553 30.4297 67.1517 31.4487C67.7482 30.4297 68.5997 29.5783 69.6186 28.9818C68.5996 28.3854 67.7481 27.5339 67.1517 26.5149Z" fill="url(#paint3_linear_3726_23215)" fill-opacity="0.33"/>
<path d="M51.8345 28.9844C55.6273 28.9844 58.7019 32.059 58.7019 35.8517C58.7019 38.3811 57.3344 40.5909 55.2985 41.7825C57.3344 42.9742 58.7019 45.1841 58.7019 47.7135C58.7019 51.5062 55.6273 54.5808 51.8346 54.5808C49.3052 54.5808 47.0953 53.2133 45.9036 51.1774C44.712 53.2133 42.5021 54.5808 39.9728 54.5808C36.1801 54.5808 33.1055 51.5062 33.1055 47.7134C33.1055 45.1841 34.4729 42.9743 36.5089 41.7826C34.473 40.591 33.1055 38.3811 33.1055 35.8517C33.1055 32.059 36.1801 28.9844 39.9728 28.9844C42.5021 28.9844 44.712 30.3518 45.9036 32.3877C47.0953 30.3518 49.3052 28.9844 51.8345 28.9844ZM45.9036 39.3157C45.3072 40.3347 44.4557 41.1862 43.4367 41.7826C44.4557 42.379 45.3073 43.2305 45.9037 44.2495C46.5001 43.2305 47.3516 42.379 48.3706 41.7826C47.3516 41.1862 46.5001 40.3347 45.9036 39.3157Z" fill="url(#paint4_linear_3726_23215)" fill-opacity="0.33"/>
<path d="M32.6119 38.9258C36.4046 38.9258 39.4792 42.0004 39.4792 45.7931C39.4792 48.3225 38.1117 50.5323 36.0758 51.7239C38.1118 52.9156 39.4793 55.1255 39.4793 57.6549C39.4793 61.4476 36.4047 64.5222 32.6119 64.5222C30.0826 64.5222 27.8726 63.1547 26.681 61.1188C25.4893 63.1547 23.2795 64.5222 20.7502 64.5222C16.9574 64.5222 13.8828 61.4476 13.8828 57.6548C13.8828 55.1255 15.2503 52.9157 17.2862 51.724C15.2503 50.5324 13.8828 48.3225 13.8828 45.7931C13.8828 42.0004 16.9574 38.9258 20.7502 38.9258C23.2795 38.9258 25.4893 40.2932 26.681 42.3291C27.8726 40.2932 30.0825 38.9258 32.6119 38.9258ZM26.681 49.2571C26.0845 50.2761 25.2331 51.1276 24.214 51.724C25.233 52.3204 26.0846 53.1719 26.681 54.1909C27.2775 53.1719 28.129 52.3204 29.1479 51.724C28.1289 51.1276 27.2774 50.2761 26.681 49.2571Z" fill="url(#paint5_linear_3726_23215)" fill-opacity="0.33"/>
<path d="M2.45172 41.7812C6.24445 41.7812 9.31905 44.8559 9.31905 48.6486C9.31905 51.1779 7.95157 53.3878 5.91566 54.5794C7.95161 55.7711 9.31912 57.981 9.31912 60.5104C9.31911 64.3031 6.2445 67.3777 2.45178 67.3777C-0.077589 67.3777 -2.28753 66.0102 -3.47918 63.9743C-4.67083 66.0102 -6.88066 67.3776 -9.41001 67.3776C-13.2027 67.3776 -16.2773 64.303 -16.2773 60.5103C-16.2773 57.981 -14.9099 55.7711 -12.874 54.5795C-14.9099 53.3878 -16.2773 51.1779 -16.2773 48.6486C-16.2773 44.8559 -13.2027 41.7813 -9.41001 41.7813C-6.8807 41.7813 -4.67085 43.1487 -3.47918 45.1846C-2.28752 43.1487 -0.0776138 41.7813 2.45172 41.7812ZM-3.47918 52.1125C-4.07563 53.1316 -4.9271 53.983 -5.94612 54.5795C-4.92711 55.1759 -4.07555 56.0274 -3.47911 57.0464C-2.88268 56.0274 -2.03121 55.1759 -1.01223 54.5795C-2.03124 53.983 -2.88274 53.1315 -3.47918 52.1125Z" fill="url(#paint6_linear_3726_23215)" fill-opacity="0.33"/>
</g>
<defs>
<linearGradient id="paint0_linear_3726_23215" x1="52.8318" y1="60" x2="29.0118" y2="-7.68709" gradientUnits="userSpaceOnUse">
<stop stop-color="#981644"/>
<stop offset="1" stop-color="#320716"/>
</linearGradient>
<linearGradient id="paint1_linear_3726_23215" x1="39.3432" y1="9.70898" x2="39.3432" y2="35.3055" gradientUnits="userSpaceOnUse">
<stop stop-color="#FAFAFA"/>
<stop offset="1" stop-color="#949494"/>
</linearGradient>
<linearGradient id="paint2_linear_3726_23215" x1="22.1166" y1="20.5371" x2="22.1166" y2="46.1336" gradientUnits="userSpaceOnUse">
<stop stop-color="#FAFAFA"/>
<stop offset="1" stop-color="#949494"/>
</linearGradient>
<linearGradient id="paint3_linear_3726_23215" x1="67.1517" y1="16.1836" x2="67.1517" y2="41.7801" gradientUnits="userSpaceOnUse">
<stop stop-color="#FAFAFA"/>
<stop offset="1" stop-color="#949494"/>
</linearGradient>
<linearGradient id="paint4_linear_3726_23215" x1="45.9037" y1="28.9844" x2="45.9037" y2="54.5808" gradientUnits="userSpaceOnUse">
<stop stop-color="#FAFAFA"/>
<stop offset="1" stop-color="#949494"/>
</linearGradient>
<linearGradient id="paint5_linear_3726_23215" x1="26.681" y1="38.9258" x2="26.681" y2="64.5222" gradientUnits="userSpaceOnUse">
<stop stop-color="#FAFAFA"/>
<stop offset="1" stop-color="#949494"/>
</linearGradient>
<linearGradient id="paint6_linear_3726_23215" x1="-3.47911" y1="41.7812" x2="-3.47911" y2="67.3777" gradientUnits="userSpaceOnUse">
<stop stop-color="#FAFAFA"/>
<stop offset="1" stop-color="#949494"/>
</linearGradient>
<clipPath id="clip0_3726_23215">
<rect width="60" height="60" rx="15" fill="white"/>
</clipPath>
</defs>
</svg>
