<svg width="60" height="60" viewBox="0 0 60 60" fill="none" xmlns="http://www.w3.org/2000/svg">
<g clip-path="url(#clip0_3753_487)">
<rect width="60" height="60" rx="15" fill="url(#paint0_linear_3753_487)"/>
<path d="M39.7684 -11C33.5451 -11 28.5001 -5.925 28.5001 0.335355C28.5001 4.51033 30.7439 8.15792 34.0846 10.1249C30.7439 12.0918 28.5 15.7396 28.5 19.9146C28.5 26.175 33.545 31.25 39.7683 31.25C43.9186 31.25 47.5448 28.9928 49.5001 25.6322C51.4554 28.9927 55.0814 31.2499 59.2317 31.2499C65.455 31.2499 70.5 26.1749 70.5 19.9145C70.5 15.7396 68.2562 12.092 64.9155 10.125C68.2562 8.15803 70.5 4.51033 70.5 0.335355C70.5 -5.92496 65.455 -11 59.2317 -11C55.0815 -11 51.4555 -8.74285 49.5001 -5.38242C47.5448 -8.7429 43.9186 -11 39.7684 -11ZM49.5001 6.05301C50.4788 7.73502 51.8759 9.14051 53.548 10.125C51.876 11.1095 50.4787 12.5149 49.5 14.1969C48.5214 12.5149 47.1242 11.1095 45.4522 10.125C47.1243 9.14051 48.5215 7.735 49.5001 6.05301Z" fill="url(#paint1_linear_3753_487)"/>
<path d="M20.5184 8.5C14.2951 8.5 9.25012 13.575 9.25011 19.8354C9.25011 24.0103 11.4939 27.6579 14.8346 29.6249C11.4939 31.5918 9.25 35.2396 9.25 39.4146C9.25003 45.675 14.295 50.75 20.5183 50.75C24.6686 50.75 28.2948 48.4928 30.2501 45.1322C32.2054 48.4927 35.8314 50.7499 39.9817 50.7499C46.205 50.7499 51.25 45.6749 51.25 39.4145C51.25 35.2396 49.0062 31.592 45.6655 29.625C49.0062 27.658 51.25 24.0103 51.25 19.8354C51.25 13.575 46.205 8.50002 39.9817 8.5C35.8315 8.5 32.2055 10.7572 30.2501 14.1176C28.2948 10.7571 24.6686 8.5 20.5184 8.5ZM30.2501 25.553C31.2288 27.235 32.6259 28.6405 34.298 29.625C32.626 30.6095 31.2287 32.0149 30.25 33.6969C29.2714 32.0149 27.8742 30.6095 26.2022 29.625C27.8743 28.6405 29.2715 27.235 30.2501 25.553Z" fill="url(#paint2_linear_3753_487)"/>
<path d="M1.2684 28.25C-4.95491 28.25 -9.99988 33.325 -9.99989 39.5854C-9.99989 43.7603 -7.75605 47.4079 -4.41543 49.3749C-7.75612 51.3418 -10 54.9896 -10 59.1646C-9.99997 65.425 -4.95499 70.5 1.26828 70.5C5.41861 70.5 9.0448 68.2428 11.0001 64.8822C12.9554 68.2427 16.5814 70.4999 20.7317 70.4999C26.955 70.4999 32 65.4249 32 59.1645C32 54.9896 29.7562 51.342 26.4155 49.375C29.7562 47.408 32 43.7603 32 39.5854C32 33.325 26.955 28.25 20.7317 28.25C16.5815 28.25 12.9555 30.5072 11.0001 33.8676C9.04478 30.5071 5.41865 28.25 1.2684 28.25ZM11.0001 45.303C11.9788 46.985 13.3759 48.3905 15.048 49.375C13.376 50.3595 11.9787 51.7649 11 53.4469C10.0214 51.7649 8.6242 50.3595 6.95222 49.375C8.62426 48.3905 10.0215 46.985 11.0001 45.303Z" fill="url(#paint3_linear_3753_487)"/>
</g>
<defs>
<linearGradient id="paint0_linear_3753_487" x1="1.17647" y1="0.88" x2="31.9984" y2="71.1027" gradientUnits="userSpaceOnUse">
<stop offset="0.3125" stop-color="#DA8804"/>
<stop offset="1" stop-color="#EAC486"/>
</linearGradient>
<linearGradient id="paint1_linear_3753_487" x1="49.5" y1="-11" x2="49.5" y2="31.25" gradientUnits="userSpaceOnUse">
<stop stop-color="white" stop-opacity="0.5"/>
<stop offset="1" stop-color="white" stop-opacity="0.8"/>
</linearGradient>
<linearGradient id="paint2_linear_3753_487" x1="30.25" y1="8.5" x2="30.25" y2="50.75" gradientUnits="userSpaceOnUse">
<stop stop-color="white" stop-opacity="0.5"/>
<stop offset="1" stop-color="white" stop-opacity="0.8"/>
</linearGradient>
<linearGradient id="paint3_linear_3753_487" x1="11" y1="28.25" x2="11" y2="70.5" gradientUnits="userSpaceOnUse">
<stop stop-color="white" stop-opacity="0.5"/>
<stop offset="1" stop-color="white" stop-opacity="0.8"/>
</linearGradient>
<clipPath id="clip0_3753_487">
<rect width="60" height="60" rx="15" fill="white"/>
</clipPath>
</defs>
</svg>
