<svg width="60" height="60" viewBox="0 0 60 60" fill="none" xmlns="http://www.w3.org/2000/svg">
<g clip-path="url(#clip0_3726_23208)">
<rect width="60" height="60" rx="15" fill="url(#paint0_linear_3726_23208)"/>
<path d="M42.2315 16.2666C44.8253 11.2054 51.7849 11.2054 54.3787 16.2666L66.0011 38.9452C68.4518 43.7271 65.1281 49.5067 59.9275 49.5067H36.6827C31.4821 49.5067 28.1584 43.7271 30.6091 38.9452L42.2315 16.2666Z" fill="url(#paint1_linear_3726_23208)"/>
<path d="M40.9352 30.9883C46.0468 30.9883 50.1906 35.132 50.1906 40.2437C50.1906 43.6525 48.3476 46.6308 45.6037 48.2369C48.3476 49.8429 50.1907 52.8213 50.1907 56.2302C50.1907 61.3418 46.0469 65.4856 40.9353 65.4856C37.5264 65.4856 34.548 63.6426 32.9419 60.8986C31.3359 63.6425 28.3576 65.4855 24.9487 65.4855C19.8371 65.4855 15.6934 61.3418 15.6934 56.2301C15.6934 52.8213 17.5364 49.843 20.2802 48.2369C17.5364 46.6309 15.6934 43.6525 15.6934 40.2437C15.6934 35.1321 19.8372 30.9883 24.9487 30.9883C28.3576 30.9883 31.3359 32.8313 32.9419 35.5751C34.548 32.8312 37.5264 30.9883 40.9352 30.9883ZM32.9419 44.9122C32.1381 46.2855 30.9905 47.4331 29.6171 48.2369C30.9905 49.0408 32.1382 50.1883 32.942 51.5616C33.7459 50.1883 34.8934 49.0408 36.2667 48.2369C34.8934 47.4331 33.7458 46.2855 32.9419 44.9122Z" fill="url(#paint2_linear_3726_23208)"/>
<path d="M40.9355 30.9902C46.047 30.9904 50.1904 35.1346 50.1904 40.2461C50.1903 43.6548 48.3472 46.6333 45.6035 48.2393C46.2159 48.5977 46.7837 49.0241 47.2959 49.5088H36.6846C36.0428 49.5088 35.4298 49.4201 34.8525 49.2568C35.2897 48.8753 35.7629 48.5341 36.2666 48.2393C34.8933 47.4354 33.7462 46.2873 32.9424 44.9141C32.5132 45.6473 31.9842 46.3148 31.377 46.9014C29.705 44.7803 29.2009 41.6995 30.6113 38.9473L32.6084 35.0498C32.7252 35.2216 32.8371 35.3974 32.9424 35.5771C34.5484 32.8334 37.5267 30.9902 40.9355 30.9902Z" fill="url(#paint3_linear_3726_23208)"/>
</g>
<defs>
<linearGradient id="paint0_linear_3726_23208" x1="-1.36464e-06" y1="59.0674" x2="33.7276" y2="-11.6055" gradientUnits="userSpaceOnUse">
<stop stop-color="#D74E05"/>
<stop offset="1" stop-color="#712903"/>
</linearGradient>
<linearGradient id="paint1_linear_3726_23208" x1="38.744" y1="12.4707" x2="57.8662" y2="49.5067" gradientUnits="userSpaceOnUse">
<stop stop-color="#B37005"/>
<stop offset="1" stop-color="#8C0F04"/>
</linearGradient>
<linearGradient id="paint2_linear_3726_23208" x1="17.2873" y1="65.4856" x2="48.5967" y2="30.9883" gradientUnits="userSpaceOnUse">
<stop stop-color="#A63D04"/>
<stop offset="1" stop-color="white" stop-opacity="0"/>
</linearGradient>
<linearGradient id="paint3_linear_3726_23208" x1="17.3579" y1="55.7783" x2="48.6667" y2="21.2826" gradientUnits="userSpaceOnUse">
<stop stop-color="#A63D04"/>
<stop offset="1" stop-color="#C67143"/>
</linearGradient>
<clipPath id="clip0_3726_23208">
<rect width="60" height="60" rx="15" fill="white"/>
</clipPath>
</defs>
</svg>
