<svg width="60" height="60" viewBox="0 0 60 60" fill="none" xmlns="http://www.w3.org/2000/svg">
<g clip-path="url(#clip0_3726_23182)">
<rect width="60" height="60" rx="15" fill="url(#paint0_linear_3726_23182)"/>
<path d="M39.9068 33.8303C43.7008 34.9096 45.9014 38.8602 44.8222 42.6542L43.9369 45.7663C42.8576 49.5603 38.9071 51.7611 35.1131 50.6819L15.1495 45.0029C11.3555 43.9236 9.15473 39.973 10.234 36.179L11.1193 33.0668C12.1986 29.2728 16.1492 27.0721 19.9432 28.1513C16.1492 27.0721 13.9484 23.1215 15.0277 19.3275L15.913 16.2154C16.9923 12.4214 20.9429 10.2206 24.7369 11.2999L44.7005 16.9789C48.4945 18.0582 50.6951 22.0088 49.6159 25.8028L48.7306 28.9149C47.6513 32.7089 43.7008 34.9096 39.9068 33.8303Z" fill="url(#paint1_linear_3726_23182)"/>
<path d="M40.0572 68.0857C43.8512 67.0064 46.0518 63.0558 44.9726 59.2618L44.0873 56.1497C43.008 52.3557 39.0575 50.1549 35.2635 51.2342L15.2999 56.9131C11.5059 57.9924 9.30512 61.943 10.3844 65.737L11.2697 68.8492C12.349 72.6432 16.2996 74.8439 20.0936 73.7647C16.2996 74.8439 14.0988 78.7945 15.1781 82.5885L16.0634 85.7006C17.1426 89.4946 21.0933 91.6954 24.8873 90.6161L44.8508 84.9371C48.6448 83.8578 50.8455 79.9072 49.7663 76.1132L48.881 73.0011C47.8017 69.2071 43.8512 67.0064 40.0572 68.0857Z" fill="url(#paint2_linear_3726_23182)"/>
<path d="M36.7649 32.9367C39.3651 33.6763 40.8733 36.3839 40.1336 38.9841L39.5269 41.1169C38.7872 43.7171 36.0797 45.2254 33.4795 44.4858L19.7976 40.5937C17.1974 39.854 15.6891 37.1465 16.4288 34.5463L17.0355 32.4134C17.7752 29.8132 20.4827 28.3049 23.0829 29.0446C20.4827 28.3049 18.9745 25.5974 19.7141 22.9972L20.3209 20.8644C21.0605 18.2642 23.7681 16.7559 26.3683 17.4956L40.0502 21.3876C42.6504 22.1273 44.1586 24.8348 43.4189 27.435L42.8122 29.5679C42.0725 32.1681 39.3651 33.6763 36.7649 32.9367Z" fill="url(#paint3_linear_3726_23182)"/>
</g>
<defs>
<linearGradient id="paint0_linear_3726_23182" x1="8.95139" y1="1.5772e-07" x2="30.5724" y2="66.6431" gradientUnits="userSpaceOnUse">
<stop stop-color="#12294A"/>
<stop offset="0.189011" stop-color="#152F55"/>
<stop offset="1" stop-color="#2E66B4"/>
</linearGradient>
<linearGradient id="paint1_linear_3726_23182" x1="39.3883" y1="15.4678" x2="19.6017" y2="45.9559" gradientUnits="userSpaceOnUse">
<stop stop-color="#1A191E"/>
<stop offset="1" stop-color="#382927" stop-opacity="0.25"/>
</linearGradient>
<linearGradient id="paint2_linear_3726_23182" x1="30.5794" y1="52.5666" x2="29.3963" y2="64.8623" gradientUnits="userSpaceOnUse">
<stop stop-color="#1A191E" stop-opacity="0.4"/>
<stop offset="1" stop-color="#382927" stop-opacity="0"/>
</linearGradient>
<linearGradient id="paint3_linear_3726_23182" x1="36.4095" y1="20.352" x2="22.8489" y2="41.2469" gradientUnits="userSpaceOnUse">
<stop stop-color="#21477D"/>
<stop offset="1" stop-color="#275596"/>
</linearGradient>
<clipPath id="clip0_3726_23182">
<rect width="60" height="60" rx="15" fill="white"/>
</clipPath>
</defs>
</svg>
