<svg width="60" height="60" viewBox="0 0 60 60" fill="none" xmlns="http://www.w3.org/2000/svg">
<g clip-path="url(#clip0_3770_505)">
<rect width="60" height="60" rx="15" fill="url(#paint0_linear_3770_505)"/>
<path d="M8.14999 19.3243C11.5898 21.3103 12.7683 25.7088 10.7824 29.1486L9.1533 31.9702C7.16732 35.41 2.76885 36.5886 -0.670982 34.6026L-18.7709 24.1526C-22.2107 22.1666 -23.3893 17.7681 -21.4034 14.3283L-19.7743 11.5067C-17.7883 8.06686 -13.3898 6.88827 -9.94994 8.87426C-13.3898 6.88828 -14.5684 2.4898 -12.5824 -0.950018L-10.9534 -3.77161C-8.9674 -7.21143 -4.56885 -8.39002 -1.12902 -6.40403L16.9709 4.04597C20.4107 6.03196 21.5893 10.4305 19.6033 13.8703L17.9742 16.6919C15.9882 20.1317 11.5898 21.3102 8.14999 19.3243Z" fill="url(#paint1_linear_3770_505)"/>
<path d="M38.7047 36.9668C42.1445 38.9528 43.323 43.3513 41.337 46.7912L39.708 49.6127C37.722 53.0526 33.3235 54.2312 29.8837 52.2452L11.7838 41.7952C8.34395 39.8092 7.16535 35.4107 9.15133 31.9708L10.7804 29.1493C12.7664 25.7094 17.1649 24.5309 20.6047 26.5168C17.1649 24.5309 15.9863 20.1324 17.9723 16.6926L19.6013 13.871C21.5873 10.4311 25.9858 9.25256 29.4257 11.2385L47.5256 21.6885C50.9654 23.6745 52.1439 28.073 50.158 31.5129L48.5289 34.3345C46.5429 37.7743 42.1445 38.9528 38.7047 36.9668Z" fill="url(#paint2_linear_3770_505)"/>
<path d="M69.2613 54.6075C72.7011 56.5935 73.8797 60.992 71.8937 64.4318L70.2646 67.2534C68.2787 70.6932 63.8802 71.8718 60.4403 69.8858L42.3404 59.4358C38.9006 57.4498 37.722 53.0513 39.708 49.6115L41.337 46.7899C43.323 43.3501 47.7216 42.1715 51.1614 44.1575C47.7216 42.1715 46.5429 37.773 48.5289 34.3332L50.1579 31.5116C52.1439 28.0718 56.5425 26.8932 59.9823 28.8792L78.0822 39.3292C81.5221 41.3152 82.7006 45.7137 80.7146 49.1535L79.0856 51.9751C77.0996 55.4149 72.7011 56.5934 69.2613 54.6075Z" fill="url(#paint3_linear_3770_505)"/>
</g>
<defs>
<linearGradient id="paint0_linear_3770_505" x1="4.35294" y1="-6.13013e-07" x2="32.737" y2="69.8792" gradientUnits="userSpaceOnUse">
<stop stop-color="#FF6017"/>
<stop offset="1" stop-color="#C33F03"/>
</linearGradient>
<linearGradient id="paint1_linear_3770_505" x1="7.92091" y1="-1.17905" x2="-9.72099" y2="29.3776" gradientUnits="userSpaceOnUse">
<stop stop-color="#EDB49B" stop-opacity="0.2"/>
<stop offset="1" stop-color="#FAFAFA" stop-opacity="0.6"/>
</linearGradient>
<linearGradient id="paint2_linear_3770_505" x1="38.4756" y1="16.4635" x2="20.8337" y2="47.0202" gradientUnits="userSpaceOnUse">
<stop stop-color="#EDB49B" stop-opacity="0.2"/>
<stop offset="1" stop-color="#FAFAFA" stop-opacity="0.6"/>
</linearGradient>
<linearGradient id="paint3_linear_3770_505" x1="69.0322" y1="34.1042" x2="51.3903" y2="64.6608" gradientUnits="userSpaceOnUse">
<stop stop-color="#EDB49B" stop-opacity="0.2"/>
<stop offset="1" stop-color="#FAFAFA" stop-opacity="0.6"/>
</linearGradient>
<clipPath id="clip0_3770_505">
<rect width="60" height="60" rx="15" fill="white"/>
</clipPath>
</defs>
</svg>
