<svg width="60" height="60" viewBox="0 0 60 60" fill="none" xmlns="http://www.w3.org/2000/svg">
<g clip-path="url(#clip0_3726_23186)">
<rect width="60" height="60" rx="15" fill="url(#paint0_linear_3726_23186)"/>
<path d="M-1.96172 37.9641C-4.93952 34.9863 -4.93953 30.1583 -1.96172 27.1805L13.7071 11.5116C16.6849 8.53382 21.5129 8.53382 24.4907 11.5116L40.1596 27.1805C43.1374 30.1583 43.1374 34.9863 40.1596 37.9641L24.4907 53.6329C21.5129 56.6107 16.6849 56.6107 13.7071 53.6329L-1.96172 37.9641Z" fill="url(#paint1_linear_3726_23186)"/>
<path d="M60.6922 27.1805C63.67 30.1583 63.67 34.9863 60.6922 37.9641L45.0233 53.6329C42.0455 56.6107 37.2176 56.6107 34.2398 53.6329L18.5709 37.9641C15.5931 34.9863 15.5931 30.1583 18.5709 27.1805L34.2397 11.5116C37.2176 8.53382 42.0455 8.53382 45.0233 11.5116L60.6922 27.1805Z" fill="url(#paint2_linear_3726_23186)"/>
<path d="M39.8076 26.8076C42.9924 29.9924 42.9924 35.156 39.8076 38.3408L29.3008 48.8477L18.7939 38.3408C15.6092 35.156 15.6092 29.9924 18.7939 26.8076L29.3008 16.3008L39.8076 26.8076Z" fill="url(#paint3_linear_3726_23186)"/>
</g>
<defs>
<linearGradient id="paint0_linear_3726_23186" x1="30" y1="-3.60536e-07" x2="55.4067" y2="119.757" gradientUnits="userSpaceOnUse">
<stop stop-color="#E6A800"/>
<stop offset="1" stop-color="#803700"/>
</linearGradient>
<linearGradient id="paint1_linear_3726_23186" x1="20.0017" y1="7.02258" x2="18.1962" y2="58.1219" gradientUnits="userSpaceOnUse">
<stop stop-color="#FFE7A5"/>
<stop offset="1" stop-color="#C28101"/>
</linearGradient>
<linearGradient id="paint2_linear_3726_23186" x1="38.7288" y1="58.122" x2="40.5343" y2="7.02258" gradientUnits="userSpaceOnUse">
<stop stop-color="#FFE7A5"/>
<stop offset="1" stop-color="#C28101"/>
</linearGradient>
<linearGradient id="paint3_linear_3726_23186" x1="42.1969" y1="32.4154" x2="16.4063" y2="32.7321" gradientUnits="userSpaceOnUse">
<stop stop-color="#F9DD95"/>
<stop offset="1" stop-color="#E6BD62"/>
</linearGradient>
<clipPath id="clip0_3726_23186">
<rect width="60" height="60" rx="15" fill="white"/>
</clipPath>
</defs>
</svg>
