<svg width="60" height="60" viewBox="0 0 60 60" fill="none" xmlns="http://www.w3.org/2000/svg">
<rect width="60" height="60" rx="15" fill="url(#paint0_linear_3758_1441)"/>
<rect width="60" height="60" rx="15" fill="black" fill-opacity="0.1"/>
<path d="M29.9615 11.7216C30.8366 7.8277 35.5657 6.60744 38.2156 9.59179L50.0894 22.9642C52.5931 25.7839 51.3481 30.2939 47.8142 31.2058L32.0192 35.2814C28.4853 36.1933 25.2135 32.8487 26.0403 29.1697L29.9615 11.7216Z" fill="url(#paint1_linear_3758_1441)"/>
<path d="M23.2896 19.8154C24.1647 15.9215 28.8938 14.7012 31.5437 17.6855L43.4176 31.0579C45.9213 33.8776 44.6762 38.3876 41.1423 39.2995L25.3473 43.3751C21.8134 44.287 18.5416 40.9425 19.3684 37.2634L23.2896 19.8154Z" fill="url(#paint2_linear_3758_1441)"/>
<path d="M16.6216 27.9013C17.4967 24.0074 22.2258 22.7871 24.8757 25.7715L36.7496 39.1439C39.2533 41.9636 38.0082 46.4736 34.4743 47.3854L18.6793 51.4611C15.1455 52.3729 11.8737 49.0284 12.7005 45.3494L16.6216 27.9013Z" fill="url(#paint3_linear_3758_1441)"/>
<defs>
<linearGradient id="paint0_linear_3758_1441" x1="5.64407" y1="2.12103e-07" x2="31.4032" y2="68.6166" gradientUnits="userSpaceOnUse">
<stop stop-color="#4D0836"/>
<stop offset="1" stop-color="#330524"/>
</linearGradient>
<linearGradient id="paint1_linear_3758_1441" x1="33.423" y1="8.07735" x2="39.9167" y2="33.2436" gradientUnits="userSpaceOnUse">
<stop stop-color="#FAFAFA" stop-opacity="0.5"/>
<stop offset="1" stop-color="#FAFAFA" stop-opacity="0.05"/>
</linearGradient>
<linearGradient id="paint2_linear_3758_1441" x1="26.7511" y1="16.1711" x2="33.2448" y2="41.3373" gradientUnits="userSpaceOnUse">
<stop stop-color="#FAFAFA" stop-opacity="0.6"/>
<stop offset="1" stop-color="#FAFAFA" stop-opacity="0.1"/>
</linearGradient>
<linearGradient id="paint3_linear_3758_1441" x1="20.0831" y1="24.257" x2="26.5768" y2="49.4233" gradientUnits="userSpaceOnUse">
<stop stop-color="#FAFAFA" stop-opacity="0.75"/>
<stop offset="1" stop-color="#FAFAFA" stop-opacity="0.25"/>
</linearGradient>
</defs>
</svg>
