<svg width="60" height="60" viewBox="0 0 60 60" fill="none" xmlns="http://www.w3.org/2000/svg">
<g clip-path="url(#clip0_3770_780)">
<rect width="60" height="60" rx="15" fill="url(#paint0_linear_3770_780)"/>
<path d="M13.2469 54.7117C10.9014 52.3662 10.9014 48.5635 13.2469 46.218L25.5885 33.8764C27.9339 31.5309 31.7367 31.5309 34.0822 33.8764L46.4238 46.218C48.7693 48.5635 48.7693 52.3662 46.4238 54.7117L34.0822 67.0533C31.7367 69.3988 27.9339 69.3988 25.5885 67.0533L13.2469 54.7117Z" fill="url(#paint1_linear_3770_780)"/>
<path d="M13.2469 33.9812C10.9014 31.6358 10.9014 27.833 13.2469 25.4875L25.5885 13.1459C27.9339 10.8004 31.7367 10.8004 34.0822 13.1459L46.4238 25.4875C48.7693 27.833 48.7693 31.6358 46.4238 33.9812L34.0822 46.3228C31.7367 48.6683 27.9339 48.6683 25.5885 46.3228L13.2469 33.9812Z" fill="url(#paint2_linear_3770_780)"/>
<path d="M13.2469 13.0808C10.9014 10.7354 10.9014 6.9326 13.2469 4.58712L25.5885 -7.75448C27.9339 -10.1 31.7367 -10.1 34.0822 -7.75448L46.4238 4.58712C48.7693 6.93259 48.7693 10.7354 46.4238 13.0808L34.0822 25.4224C31.7367 27.7679 27.9339 27.7679 25.5885 25.4224L13.2469 13.0808Z" fill="url(#paint3_linear_3770_780)"/>
</g>
<defs>
<linearGradient id="paint0_linear_3770_780" x1="30" y1="0" x2="30" y2="60" gradientUnits="userSpaceOnUse">
<stop stop-color="#FF6017"/>
<stop offset="1" stop-color="#A63400"/>
</linearGradient>
<linearGradient id="paint1_linear_3770_780" x1="29.925" y1="31.6501" x2="29.925" y2="66.8626" gradientUnits="userSpaceOnUse">
<stop stop-color="white" stop-opacity="0.6"/>
<stop offset="0.548077" stop-color="white" stop-opacity="0.9"/>
</linearGradient>
<linearGradient id="paint2_linear_3770_780" x1="29.925" y1="11.1754" x2="29.925" y2="48.6379" gradientUnits="userSpaceOnUse">
<stop offset="0.216346" stop-color="white" stop-opacity="0.4"/>
<stop offset="0.759615" stop-color="white" stop-opacity="0.8"/>
</linearGradient>
<linearGradient id="paint3_linear_3770_780" x1="29.925" y1="-9.75137" x2="29.925" y2="27.0361" gradientUnits="userSpaceOnUse">
<stop stop-color="#FF6017" stop-opacity="0.9"/>
<stop offset="0.721154" stop-color="white" stop-opacity="0.6"/>
</linearGradient>
<clipPath id="clip0_3770_780">
<rect width="60" height="60" rx="15" fill="white"/>
</clipPath>
</defs>
</svg>
