<svg width="60" height="60" viewBox="0 0 60 60" fill="none" xmlns="http://www.w3.org/2000/svg">
<g clip-path="url(#clip0_3770_779)">
<rect width="60" height="60" rx="15" fill="url(#paint0_linear_3770_779)"/>
<path d="M23.7211 23.8254C27.2165 23.8254 30.05 26.0019 30.05 28.6867V30.889C30.05 33.5739 27.2165 35.7504 23.7211 35.7504H5.32896C1.8336 35.7504 -1 33.5739 -1 30.889V28.6867C-0.999998 26.0019 1.8336 23.8254 5.32896 23.8254C1.8336 23.8254 -0.999988 21.6489 -1 18.9641V16.7618C-1 14.0769 1.8336 11.9004 5.32896 11.9004H23.7211C27.2165 11.9004 30.05 14.0769 30.05 16.7618V18.9641C30.05 21.6489 27.2165 23.8254 23.7211 23.8254Z" fill="url(#paint1_linear_3770_779)"/>
<path d="M54.7719 35.9738C58.2673 35.9738 61.1008 38.1503 61.1008 40.8352V43.0375C61.1008 45.7223 58.2673 47.8988 54.7719 47.8988H36.3797C32.8844 47.8988 30.0508 45.7223 30.0508 43.0375V40.8352C30.0508 38.1503 32.8844 35.9738 36.3797 35.9738C32.8844 35.9738 30.0508 33.7973 30.0508 31.1125V28.9102C30.0508 26.2254 32.8844 24.0488 36.3797 24.0488H54.7719C58.2673 24.0488 61.1008 26.2254 61.1008 28.9102V31.1125C61.1008 33.7973 58.2673 35.9738 54.7719 35.9738Z" fill="url(#paint2_linear_3770_779)"/>
<path d="M41.8632 -0.672291C41.8633 -4.16765 44.0192 -7.00117 46.6788 -7.00117L48.8603 -7.00117C51.5198 -7.00117 53.6758 -4.16766 53.6758 -0.672292L53.6758 17.7199C53.6758 21.2152 51.5198 24.0488 48.8603 24.0488L46.6788 24.0488C44.0192 24.0488 41.8633 21.2152 41.8633 17.7199C41.8633 21.2152 39.7073 24.0488 37.0478 24.0488L34.8663 24.0488C32.2068 24.0488 30.0508 21.2152 30.0508 17.7199L30.0508 -0.672291C30.0508 -4.16765 32.2068 -7.00117 34.8663 -7.00117L37.0478 -7.00117C39.7073 -7.00116 41.8632 -4.16765 41.8632 -0.672291Z" fill="url(#paint3_linear_3770_779)"/>
<path d="M18.1242 42.0797C18.1242 38.5843 20.3007 35.7508 22.9856 35.7508L25.1879 35.7508C27.8727 35.7508 30.0492 38.5843 30.0492 42.0797L30.0492 60.4718C30.0492 63.9672 27.8727 66.8008 25.1879 66.8008L22.9856 66.8008C20.3007 66.8008 18.1242 63.9672 18.1242 60.4718C18.1242 63.9672 15.9477 66.8008 13.2629 66.8008L11.0606 66.8008C8.37574 66.8008 6.19922 63.9672 6.19922 60.4718L6.19922 42.0797C6.19922 38.5843 8.37575 35.7508 11.0606 35.7508L13.2629 35.7508C15.9477 35.7508 18.1242 38.5843 18.1242 42.0797Z" fill="url(#paint4_linear_3770_779)"/>
</g>
<defs>
<linearGradient id="paint0_linear_3770_779" x1="8.47059" y1="2.37423e-07" x2="34.2835" y2="70.3673" gradientUnits="userSpaceOnUse">
<stop stop-color="#FF6017"/>
<stop offset="1" stop-color="#EE9065"/>
</linearGradient>
<linearGradient id="paint1_linear_3770_779" x1="14.525" y1="11.9004" x2="14.525" y2="35.7504" gradientUnits="userSpaceOnUse">
<stop stop-color="white" stop-opacity="0.8"/>
<stop offset="1" stop-color="#FAFAFA" stop-opacity="0"/>
</linearGradient>
<linearGradient id="paint2_linear_3770_779" x1="45.5758" y1="24.0488" x2="45.5758" y2="47.8988" gradientUnits="userSpaceOnUse">
<stop stop-color="white" stop-opacity="0.8"/>
<stop offset="1" stop-color="#FAFAFA" stop-opacity="0"/>
</linearGradient>
<linearGradient id="paint3_linear_3770_779" x1="30.0508" y1="8.52383" x2="53.6758" y2="8.52383" gradientUnits="userSpaceOnUse">
<stop stop-color="white" stop-opacity="0.8"/>
<stop offset="1" stop-color="#FAFAFA" stop-opacity="0"/>
</linearGradient>
<linearGradient id="paint4_linear_3770_779" x1="6.19922" y1="51.2758" x2="30.0492" y2="51.2758" gradientUnits="userSpaceOnUse">
<stop stop-color="white" stop-opacity="0.8"/>
<stop offset="1" stop-color="#FAFAFA" stop-opacity="0"/>
</linearGradient>
<clipPath id="clip0_3770_779">
<rect width="60" height="60" rx="15" fill="white"/>
</clipPath>
</defs>
</svg>
