<svg width="60" height="60" viewBox="0 0 60 60" fill="none" xmlns="http://www.w3.org/2000/svg">
<g clip-path="url(#clip0_3726_23193)">
<rect width="60" height="60" rx="15" fill="url(#paint0_linear_3726_23193)"/>
<path d="M21.9551 -1.42388C26.3982 -5.86694 33.6018 -5.86694 38.0449 -1.42389L61.4237 21.9549C65.8667 26.398 65.8667 33.6016 61.4237 38.0446L38.0449 61.4234C33.6018 65.8665 26.3982 65.8665 21.9551 61.4234L-1.42365 38.0446C-5.86671 33.6016 -5.86671 26.398 -1.42365 21.9549L21.9551 -1.42388Z" fill="#FAFAFA" fill-opacity="0.06"/>
<path d="M21.4524 7.61012C26.1715 2.89095 33.8228 2.89096 38.542 7.61012C41.6892 10.7573 42.7373 15.2084 41.6868 19.2244C45.7028 18.1738 50.1541 19.222 53.3013 22.3693C58.0204 27.0884 58.0204 34.7397 53.3013 39.4589C50.1541 42.6061 45.7028 43.6543 41.6868 42.6038C42.7373 46.6197 41.6892 51.0708 38.542 54.218C33.8228 58.9372 26.1715 58.9372 21.4524 54.218C18.3052 51.0708 17.2571 46.6197 18.3076 42.6038C14.2916 43.6542 9.84041 42.606 6.69324 39.4589C1.97411 34.7397 1.97411 27.0884 6.69324 22.3693C9.84037 19.2221 14.2915 18.174 18.3074 19.2244C17.257 15.2084 18.3052 10.7573 21.4524 7.61012ZM26.9276 27.8446C27.4534 29.8547 27.4535 31.9736 26.9276 33.9837C28.9377 33.4579 31.0567 33.4577 33.0667 33.9835C32.541 31.9735 32.541 29.8546 33.0667 27.8446C31.0567 28.3704 28.9377 28.3704 26.9276 27.8446Z" fill="url(#paint1_linear_3726_23193)"/>
</g>
<defs>
<linearGradient id="paint0_linear_3726_23193" x1="56.8886" y1="83.3807" x2="30.0383" y2="-7.74414" gradientUnits="userSpaceOnUse">
<stop stop-color="#6773B7"/>
<stop offset="0.804003" stop-color="#21A87A"/>
</linearGradient>
<linearGradient id="paint1_linear_3726_23193" x1="14.0729" y1="14.9896" x2="45.9217" y2="46.8385" gradientUnits="userSpaceOnUse">
<stop stop-color="#4F9EA2"/>
<stop offset="1" stop-color="#63E1B7"/>
</linearGradient>
<clipPath id="clip0_3726_23193">
<rect width="60" height="60" rx="15" fill="white"/>
</clipPath>
</defs>
</svg>
