<svg width="60" height="60" viewBox="0 0 60 60" fill="none" xmlns="http://www.w3.org/2000/svg">
<g clip-path="url(#clip0_3770_778)">
<rect width="60" height="60" rx="15" fill="url(#paint0_linear_3770_778)"/>
<path d="M64.3693 51.3347C64.6157 57.7488 57.7952 61.556 52.4649 57.9797L28.5807 41.9548C23.5445 38.5758 23.6176 31.0534 28.7143 28.2085L51.4945 15.4925C56.5911 12.6475 63.0324 16.5336 63.2653 22.5938L64.3693 51.3347Z" fill="url(#paint1_linear_3770_778)"/>
<path d="M32.6425 46.046C30.7523 50.384 25.0043 50.7281 22.6101 46.6467L11.8817 28.3582C9.6195 24.502 12.0767 19.5304 16.3719 19.2732L35.5699 18.1238C39.8651 17.8666 42.8979 22.5095 41.112 26.6081L32.6425 46.046Z" fill="url(#paint2_linear_3770_778)"/>
<path d="M13.7999 34.3087C11.4254 37.0366 7.15644 35.9669 6.34887 32.4416L2.73025 16.6456C1.96724 13.3148 4.90061 10.2554 8.09067 11.0547L22.349 14.6276C25.539 15.427 26.6831 19.5081 24.4396 22.0855L13.7999 34.3087Z" fill="url(#paint3_linear_3770_778)"/>
<path d="M1.02782 20.7681C-1.04512 22.3974 -3.95625 21.0484 -4.05322 18.4136L-4.48771 6.6073C-4.57932 4.11785 -2.06086 2.32741 0.114506 3.33547L9.83755 7.84108C12.0129 8.84913 12.2749 11.928 10.3164 13.4674L1.02782 20.7681Z" fill="url(#paint4_linear_3770_778)"/>
</g>
<defs>
<linearGradient id="paint0_linear_3770_778" x1="45.4118" y1="-2.77843e-07" x2="30.338" y2="63.6992" gradientUnits="userSpaceOnUse">
<stop stop-color="#FD590D"/>
<stop offset="1" stop-color="#962F00"/>
</linearGradient>
<linearGradient id="paint1_linear_3770_778" x1="60.5084" y1="58.4036" x2="40.1044" y2="21.8505" gradientUnits="userSpaceOnUse">
<stop stop-color="#FFD5C2"/>
<stop offset="1" stop-color="#FF8D58" stop-opacity="0.7"/>
</linearGradient>
<linearGradient id="paint2_linear_3770_778" x1="27.8153" y1="49.5036" x2="25.9709" y2="18.6985" gradientUnits="userSpaceOnUse">
<stop stop-color="#FFD5C2"/>
<stop offset="1" stop-color="#FF8D58" stop-opacity="0.7"/>
</linearGradient>
<linearGradient id="paint3_linear_3770_778" x1="9.48681" y1="35.7201" x2="15.2198" y2="12.8412" gradientUnits="userSpaceOnUse">
<stop stop-color="#FFD5C2"/>
<stop offset="1" stop-color="#FF8D58" stop-opacity="0.7"/>
</linearGradient>
<linearGradient id="paint4_linear_3770_778" x1="-2.25369" y1="21.1899" x2="4.97603" y2="5.58827" gradientUnits="userSpaceOnUse">
<stop stop-color="#FFD5C2"/>
<stop offset="1" stop-color="#FF8D58" stop-opacity="0.7"/>
</linearGradient>
<clipPath id="clip0_3770_778">
<rect width="60" height="60" rx="15" fill="white"/>
</clipPath>
</defs>
</svg>
