<svg width="60" height="60" viewBox="0 0 60 60" fill="none" xmlns="http://www.w3.org/2000/svg">
<g clip-path="url(#clip0_3726_23222)">
<rect width="60" height="60" rx="15" fill="#444444"/>
<path d="M35.2002 3.74414C36.0636 -0.0975945 40.7293 -1.30171 43.3438 1.64258L55.0586 14.8359C57.5287 17.6178 56.3008 22.067 52.8145 22.9668L41.7412 25.8242H51.1895C54.0759 25.8244 56.4159 28.1643 56.416 31.0508V33.4189C56.4159 36.3054 54.0759 38.6454 51.1895 38.6455C54.0759 38.6457 56.416 40.9856 56.416 43.8721V46.2402C56.4159 49.1266 54.0758 51.4666 51.1895 51.4668H36C34.5058 51.4668 33.1596 50.8382 32.207 49.833V55.9414C32.2069 58.8278 29.8669 61.1678 26.9805 61.168H11.791C8.90455 61.1679 6.56461 58.8279 6.56445 55.9414V40.752C6.56452 37.8654 8.9045 35.5255 11.791 35.5254H17.6191C16.437 34.5862 15.5988 33.2832 15.2285 31.834C13.5186 33.4652 11.0127 34.1713 8.57715 33.4727C4.92516 32.4248 2.81368 28.615 3.86133 24.9629C4.56004 22.5273 6.48769 20.7775 8.77734 20.1924C7.14613 18.4826 6.43921 15.9765 7.1377 13.541C8.18539 9.8888 11.9962 7.77753 15.6484 8.8252C18.0838 9.52397 19.8338 11.4508 20.4189 13.7402C22.1288 12.1089 24.6347 11.4029 27.0703 12.1016C29.8274 12.8924 31.705 15.2574 32.0098 17.9404L35.2002 3.74414ZM31.2061 22.0215C30.2789 23.7164 28.6899 24.9169 26.8711 25.3818C28.5025 27.0917 29.2085 29.5985 28.5098 32.0342C28.0981 33.4689 27.259 34.6644 26.1719 35.5254H26.9805C29.7145 35.5255 31.9562 37.6251 32.1855 40.2998C33.1392 39.2819 34.4951 38.6456 36 38.6455C33.1135 38.6454 30.7736 36.3054 30.7734 33.4189V31.0508C30.7735 29.0341 31.916 27.2846 33.5889 26.4131C32.1525 25.5116 31.1784 23.8645 31.2061 22.0215ZM18.5059 20.4111C17.65 21.2276 16.5943 21.8126 15.4482 22.1055C16.2647 22.9613 16.8497 24.0171 17.1426 25.1631C17.9983 24.3467 19.0533 23.7616 20.1992 23.4688C19.3828 22.6129 18.7987 21.5571 18.5059 20.4111Z" fill="url(#paint0_radial_3726_23222)"/>
</g>
<defs>
<radialGradient id="paint0_radial_3726_23222" cx="0" cy="0" r="1" gradientTransform="matrix(19.3333 24.824 -21.4376 22.3873 30.029 32.1342)" gradientUnits="userSpaceOnUse">
<stop stop-color="white"/>
<stop offset="1" stop-color="white" stop-opacity="0.25"/>
</radialGradient>
<clipPath id="clip0_3726_23222">
<rect width="60" height="60" rx="15" fill="white"/>
</clipPath>
</defs>
</svg>
