<svg width="60" height="60" viewBox="0 0 60 60" fill="none" xmlns="http://www.w3.org/2000/svg">
<rect width="60" height="60" rx="15" fill="url(#paint0_linear_3758_1430)"/>
<rect width="60" height="60" rx="15" fill="black" fill-opacity="0.1"/>
<path fill-rule="evenodd" clip-rule="evenodd" d="M30.0028 7.11719C34.5159 7.11719 38.1744 10.7758 38.1744 15.2888C38.1744 19.8019 34.5159 23.4604 30.0028 23.4604C25.4897 23.4604 21.8311 19.8019 21.8311 15.2888C21.8311 10.7758 25.4897 7.11719 30.0028 7.11719ZM16.3511 49.0832C12.7 46.4306 11.8906 41.3203 14.5433 37.6691C17.196 34.0179 22.3063 33.2086 25.9574 35.8613C29.6086 38.5139 30.4179 43.6243 27.7653 47.2755C25.1126 50.9266 20.0022 51.736 16.3511 49.0832ZM45.4887 37.6691C48.1415 41.3203 47.3321 46.4306 43.681 49.0832C40.0298 51.736 34.9194 50.9266 32.2668 47.2755C29.6141 43.6243 30.4234 38.5139 34.0746 35.8613C37.7258 33.2086 42.8361 34.0179 45.4887 37.6691ZM7.90216 23.1344C9.29677 18.8423 13.9068 16.4933 18.199 17.8879C22.4912 19.2826 24.8402 23.8927 23.4455 28.1848C22.0509 32.4769 17.4408 34.8259 13.1487 33.4313C8.85648 32.0366 6.50754 27.4267 7.90216 23.1344ZM41.801 17.8879C46.0933 16.4933 50.7032 18.8423 52.0978 23.1344C53.4925 27.4267 51.1435 32.0366 46.8514 33.4313C42.5591 34.8259 37.9491 32.4769 36.5545 28.1848C35.1599 23.8927 37.5089 19.2826 41.801 17.8879Z" fill="url(#paint1_linear_3758_1430)"/>
<defs>
<linearGradient id="paint0_linear_3758_1430" x1="5.64407" y1="2.12103e-07" x2="31.4032" y2="68.6166" gradientUnits="userSpaceOnUse">
<stop stop-color="#8AB000"/>
<stop offset="1" stop-color="#DBF275"/>
</linearGradient>
<linearGradient id="paint1_linear_3758_1430" x1="36.2349" y1="7.11719" x2="23.3188" y2="50.5117" gradientUnits="userSpaceOnUse">
<stop stop-color="#282422"/>
<stop offset="1" stop-color="#2D2726" stop-opacity="0.25"/>
</linearGradient>
</defs>
</svg>
