<svg width="60" height="60" viewBox="0 0 60 60" fill="none" xmlns="http://www.w3.org/2000/svg">
<rect width="60" height="60" rx="15" fill="url(#paint0_linear_3726_23204)"/>
<path d="M39.8752 8.6875C46.1917 8.6875 51.3121 13.808 51.3122 20.1244C51.3122 24.3368 49.0347 28.0171 45.6441 30.0017C49.0348 31.9863 51.3123 35.6668 51.3123 39.8792C51.3122 46.1957 46.1917 51.3162 39.8753 51.3162C35.6629 51.3162 31.9824 49.0387 29.9978 45.648C28.0132 49.0387 24.3329 51.3161 20.1205 51.3161C13.8041 51.3161 8.68359 46.1956 8.68359 39.8791C8.68361 35.6667 10.961 31.9864 14.3516 30.0018C10.961 28.0172 8.68359 24.3368 8.68359 20.1244C8.68362 13.808 13.8041 8.68752 20.1205 8.6875C24.3329 8.6875 28.0132 10.9649 29.9978 14.3554C31.9824 10.9648 35.6628 8.6875 39.8752 8.6875ZM29.9978 25.8934C29.0045 27.5904 27.5864 29.0085 25.8893 30.0018C27.5864 30.9951 29.0046 32.4131 29.9979 34.1102C30.9912 32.4132 32.4093 30.9951 34.1063 30.0018C32.4092 29.0085 30.9911 27.5904 29.9978 25.8934Z" fill="url(#paint1_radial_3726_23204)" fill-opacity="0.46"/>
<path d="M35.6441 17.8203C39.2535 17.8203 42.1795 20.7463 42.1795 24.3557C42.1795 26.7628 40.8781 28.8658 38.9406 29.9999C40.8781 31.1339 42.1796 33.237 42.1796 35.6442C42.1795 39.2535 39.2535 42.1795 35.6442 42.1796C33.237 42.1796 31.1339 40.8781 29.9999 38.9406C28.8658 40.8781 26.7628 42.1795 24.3557 42.1795C20.7463 42.1795 17.8203 39.2535 17.8203 35.6441C17.8203 33.237 19.1217 31.134 21.0592 29.9999C19.1217 28.8659 17.8203 26.7628 17.8203 24.3557C17.8203 20.7463 20.7463 17.8203 24.3557 17.8203C26.7628 17.8203 28.8658 19.1217 29.9999 21.0591C31.1339 19.1216 33.237 17.8203 35.6441 17.8203ZM29.9999 27.6522C29.4323 28.622 28.6219 29.4323 27.6522 29.9999C28.6219 30.5675 29.4323 31.3778 29.9999 32.3476C30.5675 31.3779 31.3779 30.5675 32.3476 29.9999C31.3778 29.4323 30.5675 28.622 29.9999 27.6522Z" fill="url(#paint2_radial_3726_23204)" fill-opacity="0.46"/>
<defs>
<linearGradient id="paint0_linear_3726_23204" x1="30" y1="0" x2="30" y2="60" gradientUnits="userSpaceOnUse">
<stop stop-color="#63166E"/>
<stop offset="1" stop-color="#BF2AD4"/>
</linearGradient>
<radialGradient id="paint1_radial_3726_23204" cx="0" cy="0" r="1" gradientUnits="userSpaceOnUse" gradientTransform="translate(30.0174 31.0827) rotate(47.9546) scale(23.2969)">
<stop stop-color="white"/>
<stop offset="1" stop-color="white" stop-opacity="0.25"/>
</radialGradient>
<radialGradient id="paint2_radial_3726_23204" cx="0" cy="0" r="1" gradientUnits="userSpaceOnUse" gradientTransform="translate(30.0111 30.6176) rotate(47.9546) scale(13.3125)">
<stop stop-color="white"/>
<stop offset="1" stop-color="white" stop-opacity="0.25"/>
</radialGradient>
</defs>
</svg>
