<svg width="48" height="48" viewBox="0 0 48 48" fill="none" xmlns="http://www.w3.org/2000/svg">
<circle cx="24" cy="24" r="24" fill="#B8EB00"/>
<path d="M34.5681 11.2772C38.8661 12.4171 41.4267 16.8258 40.2869 21.1239C39.5263 23.9914 37.3098 26.083 34.643 26.8206C36.5939 28.7829 37.4816 31.6985 36.7211 34.5662C35.5813 38.8641 31.1733 41.4248 26.8754 40.2853C24.0075 39.5247 21.9143 37.3081 21.1768 34.6408C19.2145 36.5912 16.3004 37.4798 13.4331 36.7195C9.13497 35.5796 6.57443 31.1709 7.71425 26.8728C8.47468 24.0058 10.6901 21.9136 13.3563 21.1756C11.4061 19.2133 10.5185 16.2983 11.2789 13.4312C12.4187 9.13308 16.8274 6.57253 21.1255 7.71235C23.9928 8.47283 26.0847 10.6888 26.8225 13.3553C28.7848 11.4044 31.7004 10.5167 34.5681 11.2772ZM24.7426 21.1985C23.7593 22.1761 22.5376 22.8862 21.2013 23.256C22.1786 24.2391 22.8882 25.461 23.2579 26.797C24.2412 25.8197 25.4636 25.1103 26.7998 24.7407C25.8222 23.7572 25.1122 22.535 24.7426 21.1985Z" fill="#2E3B00"/>
</svg>
