<svg width="48" height="48" viewBox="0 0 48 48" fill="none" xmlns="http://www.w3.org/2000/svg">
<circle cx="24" cy="24" r="24" fill="#35CDFF"/>
<path d="M31.4385 24.0088C35.1763 24.1982 38.1484 27.2893 38.1484 31.0742C38.1484 34.9812 34.9812 38.1484 31.0742 38.1484H16.9258C13.019 38.1482 9.85158 34.981 9.85156 31.0742C9.85156 27.2892 12.8245 24.1981 16.5625 24.0088L16.9258 24C13.019 23.9998 9.85158 20.8326 9.85156 16.9258C9.85156 13.0189 13.019 9.85178 16.9258 9.85156H31.0742C34.9812 9.85156 38.1484 13.0188 38.1484 16.9258C38.1484 20.8327 34.9812 24 31.0742 24L31.4385 24.0088Z" fill="#103E4D"/>
</svg>
