<svg width="24" height="24" viewBox="0 0 24 24" fill="none" xmlns="http://www.w3.org/2000/svg">
<path d="M8.54987 13.5L8.74323 13.5117C9.12686 13.553 9.49057 13.704 9.7901 13.9473L9.93365 14.0762C10.2942 14.442 10.4963 14.9354 10.4952 15.4492V19.3203C10.4873 19.8323 10.2788 20.3209 9.9151 20.6816C9.54995 21.0437 9.05727 21.2479 8.54303 21.25H4.68268C4.42929 21.251 4.17773 21.202 3.94342 21.1055C3.70919 21.009 3.49658 20.8666 3.31744 20.6875C3.1383 20.5084 2.99598 20.2958 2.89948 20.0615C2.80298 19.8272 2.75392 19.5757 2.75494 19.3223V15.4521C2.757 14.9378 2.96111 14.4443 3.3233 14.0791C3.6401 13.7598 4.05583 13.5608 4.49908 13.5117L4.69147 13.5H8.54987ZM8.55475 2.75C8.80853 2.75027 9.0599 2.80047 9.29401 2.89844C9.52823 2.99648 9.74063 3.14058 9.91901 3.32129L9.92487 3.32715C10.1049 3.50357 10.2479 3.71403 10.3458 3.94629C10.4191 4.12054 10.4664 4.30478 10.4854 4.49219L10.4952 4.68066V8.55957C10.4952 8.81501 10.4447 9.0688 10.3467 9.30469C10.2488 9.54046 10.1048 9.7544 9.92389 9.93457C9.74295 10.1148 9.52826 10.2575 9.29205 10.3545C9.05576 10.4515 8.80237 10.501 8.54694 10.5H4.6817C4.4287 10.5015 4.17778 10.4522 3.9444 10.3545C3.71105 10.2568 3.49976 10.1129 3.3233 9.93164L3.31744 9.9248L3.18951 9.78516C3.06921 9.63937 2.97089 9.47615 2.8985 9.30078C2.80203 9.06704 2.7533 8.81634 2.75494 8.56348V4.69043C2.75494 4.17735 2.95836 3.68487 3.32037 3.32129C3.6373 3.00306 4.05325 2.80538 4.49615 2.75977L4.68658 2.75H8.55475ZM13.4747 15.459C13.474 15.2056 13.5244 14.9544 13.6221 14.7207C13.72 14.4868 13.8639 14.2741 14.045 14.0967L14.0508 14.0908C14.2292 13.9102 14.4417 13.767 14.6758 13.6689C14.8515 13.5954 15.0369 13.5482 15.2256 13.5293L15.4151 13.5195H19.2813L19.4727 13.5312C19.9164 13.5785 20.3332 13.7756 20.6514 14.0938C21.015 14.4574 21.2205 14.9497 21.2247 15.4639L21.2344 16.6572L21.2452 16.6465V19.3096C21.2401 19.8211 21.0349 20.3103 20.6739 20.6729C20.3119 21.0363 19.8216 21.2438 19.3087 21.25H15.4297C14.9104 21.2552 14.4099 21.0577 14.0333 20.7002C13.8556 20.5214 13.7139 20.3094 13.6182 20.0762C13.5217 19.8408 13.4729 19.5884 13.4747 19.334V15.459ZM13.4952 4.68848C13.4946 4.43505 13.5448 4.18397 13.6426 3.9502C13.7405 3.71653 13.8836 3.50451 14.0645 3.32715H14.0655L14.0704 3.32129C14.2488 3.14056 14.4621 2.99649 14.6964 2.89844C14.872 2.82497 15.0574 2.77866 15.2462 2.75977L15.4356 2.75H19.3008L19.4922 2.76074C19.9361 2.8079 20.3527 3.00592 20.671 3.32422C20.989 3.64233 21.1871 4.05846 21.2344 4.50195L21.2452 4.69434V8.55957C21.2401 9.07111 21.0349 9.56026 20.6739 9.92285C20.3119 10.2863 19.8216 10.4938 19.3087 10.5H15.4385C14.9219 10.4968 14.426 10.2938 14.0557 9.93359C13.8776 9.7535 13.7369 9.54004 13.6407 9.30566C13.5438 9.06964 13.4942 8.81664 13.4952 8.56152V4.68848Z" fill="#352F36" stroke="#352F36"/>
</svg>
