<svg width="24" height="24" viewBox="0 0 24 24" fill="none" xmlns="http://www.w3.org/2000/svg">
<path d="M8 3.99993C8.00065 3.56341 8.09655 3.1323 8.28101 2.73667C8.46547 2.34104 8.73405 1.99044 9.06799 1.70932C9.40194 1.4282 9.79321 1.22335 10.2145 1.10906C10.6358 0.994761 11.0769 0.97378 11.5072 1.04758C11.9374 1.12137 12.3463 1.28817 12.7055 1.53632C13.0646 1.78448 13.3652 2.10801 13.5864 2.48435C13.8076 2.86068 13.944 3.28075 13.986 3.71523C14.0281 4.14971 13.9749 4.58815 13.83 4.99993H18C18.2652 4.99993 18.5196 5.10528 18.7071 5.29282C18.8946 5.48035 19 5.73471 19 5.99993V10.1699C19.4524 10.0105 19.9364 9.96192 20.4115 10.0282C20.8866 10.0945 21.3388 10.2737 21.7303 10.5509C22.1218 10.828 22.4412 11.195 22.6616 11.621C22.8819 12.0471 22.997 12.5198 22.997 12.9994C22.997 13.4791 22.8819 13.9518 22.6616 14.3778C22.4412 14.8039 22.1218 15.1708 21.7303 15.448C21.3388 15.7251 20.8866 15.9044 20.4115 15.9706C19.9364 16.0369 19.4524 15.9883 19 15.8289V19.9999C19 20.2651 18.8946 20.5195 18.7071 20.707C18.5196 20.8946 18.2652 20.9999 18 20.9999H4C3.73478 20.9999 3.48043 20.8946 3.29289 20.707C3.10536 20.5195 3 20.2651 3 19.9999V5.99993C3 5.73471 3.10536 5.48035 3.29289 5.29282C3.48043 5.10528 3.73478 4.99993 4 4.99993H8.17C8.06 4.68693 8 4.34993 8 3.99993Z" fill="#352F36"/>
</svg>
