<svg width="32" height="30" viewBox="0 0 32 30" fill="none" xmlns="http://www.w3.org/2000/svg">
<path fill-rule="evenodd" clip-rule="evenodd" d="M12.1762 14.6331C12.1762 14.3367 12.4152 14.0962 12.7096 14.0962C13.0037 14.0962 13.2429 14.3367 13.2429 14.6331V19.5778C13.2429 19.8741 13.0037 20.1146 12.7096 20.1146C12.4152 20.1146 12.1762 19.8741 12.1762 19.5778V14.6331ZM25.3374 14.6331C25.3374 14.3367 25.5763 14.0962 25.8707 14.0962C26.1648 14.0962 26.404 14.3367 26.404 14.6331V19.5778C26.404 19.8741 26.1648 20.1146 25.8707 20.1146C25.5763 20.1146 25.3374 19.8741 25.3374 19.5778V14.6331ZM8.88599 14.6331C8.88599 14.3367 9.12492 14.0962 9.41932 14.0962C9.71345 14.0962 9.95265 14.3367 9.95265 14.6331V19.5778C9.95265 19.8741 9.71345 20.1146 9.41932 20.1146C9.12492 20.1146 8.88599 19.8741 8.88599 19.5778V14.6331ZM22.0471 14.6331C22.0471 14.3367 22.2861 14.0962 22.5805 14.0962C22.8746 14.0962 23.1138 14.3367 23.1138 14.6331V19.5778C23.1138 19.8741 22.8746 20.1146 22.5805 20.1146C22.2861 20.1146 22.0471 19.8741 22.0471 19.5778V14.6331ZM5.59574 14.6331C5.59574 14.3367 5.83467 14.0962 6.12907 14.0962C6.4232 14.0962 6.6624 14.3367 6.6624 14.6331V19.5778C6.6624 19.8741 6.4232 20.1146 6.12907 20.1146C5.83467 20.1146 5.59574 19.8741 5.59574 19.5778V14.6331ZM18.7569 14.6331C18.7569 14.3367 18.9958 14.0962 19.2902 14.0962C19.5843 14.0962 19.8235 14.3367 19.8235 14.6331V19.5778C19.8235 19.8741 19.5843 20.1146 19.2902 20.1146C18.9958 20.1146 18.7569 19.8741 18.7569 19.5778V14.6331ZM15.4665 14.6331C15.4665 14.3367 15.7054 14.0962 15.9998 14.0962C16.294 14.0962 16.5332 14.3367 16.5332 14.6331V19.5778C16.5332 19.8741 16.294 20.1146 15.9998 20.1146C15.7054 20.1146 15.4665 19.8741 15.4665 19.5778V14.6331ZM5.59574 20.785C5.59574 20.489 5.83467 20.2482 6.12907 20.2482C6.4232 20.2482 6.6624 20.489 6.6624 20.785V23.036C6.6624 23.3326 6.42347 23.5728 6.12907 23.5728H1.28296C0.988833 23.5728 0.749634 23.3323 0.749634 23.036C0.749634 22.7399 0.988833 22.4991 1.28296 22.4991H5.59574V20.785ZM8.88599 20.785C8.88599 20.489 9.12492 20.2482 9.41932 20.2482C9.71345 20.2482 9.95265 20.489 9.95265 20.785V23.5334C9.95265 23.6756 9.89625 23.8121 9.79626 23.9128L5.4652 28.2728C5.25721 28.4821 4.91907 28.4821 4.71107 28.2728C4.50294 28.063 4.50294 27.723 4.71107 27.5134L8.88599 23.3107V20.785ZM12.1762 20.785C12.1762 20.489 12.4152 20.2482 12.7096 20.2482C13.0037 20.2482 13.2429 20.489 13.2429 20.785V25.6358C13.2429 25.7782 13.1865 25.9146 13.0865 26.0153L10.2968 28.8237C10.0884 29.0331 9.75066 29.0331 9.5424 28.8237C9.33427 28.6143 9.33427 28.274 9.5424 28.0646L12.1762 25.4133V20.785ZM25.3374 20.785C25.3374 20.489 25.5763 20.2482 25.8707 20.2482C26.1648 20.2482 26.404 20.489 26.404 20.785V22.4991H30.7166C31.011 22.4991 31.2499 22.7399 31.2499 23.036C31.2499 23.3323 31.011 23.5728 30.7166 23.5728H25.8707C25.5759 23.5728 25.3374 23.3326 25.3374 23.036V20.785ZM22.0471 20.785C22.0471 20.489 22.2861 20.2482 22.5805 20.2482C22.8746 20.2482 23.1138 20.489 23.1138 20.785V23.3108L27.2887 27.5135C27.4968 27.7233 27.4968 28.0632 27.2887 28.2729C27.0803 28.4823 26.7426 28.4823 26.5343 28.2729L22.2033 23.9129C22.1033 23.8123 22.0471 23.6758 22.0471 23.5335V20.785ZM18.7569 20.785C18.7569 20.489 18.9958 20.2482 19.2902 20.2482C19.5843 20.2482 19.8235 20.489 19.8235 20.785V25.4132L22.4571 28.0645C22.6651 28.2738 22.6651 28.6142 22.4571 28.8236C22.2491 29.0329 21.911 29.0329 21.703 28.8236L18.913 26.0151C18.813 25.9145 18.7569 25.778 18.7569 25.6357V20.785ZM15.4665 20.785C15.4665 20.489 15.7054 20.2482 15.9998 20.2482C16.294 20.2482 16.5332 20.489 16.5332 20.785V28.7084C16.5332 29.0045 16.294 29.2453 15.9998 29.2453C15.7054 29.2453 15.4665 29.0045 15.4665 28.7084V20.785Z" fill="#B1B1B5"/>
<path fill-rule="evenodd" clip-rule="evenodd" d="M28.6852 18.7148C28.886 18.7148 29.049 18.879 29.049 19.0811V20.4188C29.049 20.621 28.886 20.7848 28.6852 20.7848H3.31502C3.11422 20.7848 2.95142 20.621 2.95142 20.4188V19.0811C2.95142 18.879 3.11422 18.7148 3.31502 18.7148H28.6852Z" fill="#9FACBA"/>
<path fill-rule="evenodd" clip-rule="evenodd" d="M28.7288 18.7178C28.909 18.7392 29.049 18.894 29.049 19.0812V20.419C29.049 20.6211 28.886 20.7849 28.6852 20.7849H3.31501C3.14581 20.7849 3.00368 20.6686 2.96301 20.5112C2.97715 20.5128 2.99195 20.5137 3.00662 20.5137H28.3768C28.5776 20.5137 28.7403 20.3498 28.7403 20.1477V18.81C28.7405 18.7782 28.7365 18.7472 28.7288 18.7178Z" fill="#8D9CA8"/>
<path fill-rule="evenodd" clip-rule="evenodd" d="M1.28319 21.7441C1.99145 21.7441 2.56652 22.323 2.56652 23.0357C2.56652 23.7488 1.99145 24.3275 1.28319 24.3275C0.575059 24.3275 0.00012207 23.7486 0.00012207 23.0357C0.00012207 22.3229 0.575192 21.7441 1.28319 21.7441ZM5.08823 26.601C5.7965 26.601 6.37156 27.1798 6.37156 27.8928C6.37156 28.6059 5.7965 29.1846 5.08823 29.1846C4.38024 29.1846 3.80518 28.6059 3.80518 27.8928C3.80518 27.1798 4.38024 26.601 5.08823 26.601ZM9.91982 27.1522C10.6282 27.1522 11.2031 27.7311 11.2031 28.4437C11.2031 29.1568 10.6281 29.7356 9.91982 29.7356C9.21155 29.7356 8.63649 29.1567 8.63649 28.4437C8.63649 27.7309 9.21155 27.1522 9.91982 27.1522ZM30.7166 21.7441C31.425 21.7441 32 22.323 32 23.0357C32 23.7488 31.4249 24.3275 30.7166 24.3275C30.0086 24.3275 29.4336 23.7486 29.4336 23.0357C29.4337 22.3229 30.0086 21.7441 30.7166 21.7441ZM26.9117 26.601C27.6201 26.601 28.1948 27.1798 28.1948 27.8928C28.1948 28.6059 27.6201 29.1846 26.9117 29.1846C26.2033 29.1846 25.6284 28.6059 25.6284 27.8928C25.6284 27.1798 26.2033 26.601 26.9117 26.601ZM22.5807 27.4163C23.2888 27.4163 23.8637 27.9952 23.8637 28.7081C23.8637 29.4208 23.2887 29.9997 22.5807 29.9997C21.8723 29.9997 21.2974 29.4208 21.2974 28.7081C21.2974 27.9952 21.8723 27.4163 22.5807 27.4163ZM16 27.4163C16.708 27.4163 17.2831 27.9952 17.2831 28.7081C17.2831 29.4208 16.708 29.9997 16 29.9997C15.2916 29.9997 14.7167 29.4208 14.7167 28.7081C14.7167 27.9952 15.2918 27.4163 16 27.4163Z" fill="#8AC9FE"/>
<path fill-rule="evenodd" clip-rule="evenodd" d="M1.14014 21.7519C1.18707 21.7468 1.2348 21.7441 1.2832 21.7441C1.99147 21.7441 2.56653 22.323 2.56653 23.0357C2.56653 23.7488 1.99147 24.3275 1.2832 24.3275C1.2348 24.3275 1.18707 24.3247 1.14014 24.3197C1.78093 24.2479 2.28014 23.7 2.28014 23.0357C2.28014 22.3716 1.78093 21.8239 1.14014 21.7519ZM4.94505 26.6091C4.99198 26.6038 5.03972 26.6011 5.08812 26.6011C5.79638 26.6011 6.37144 27.18 6.37144 27.8929C6.37144 28.606 5.79638 29.1847 5.08812 29.1847C5.03972 29.1847 4.99198 29.1819 4.94505 29.1767C5.58585 29.1049 6.08505 28.557 6.08505 27.8929C6.08505 27.2287 5.58585 26.681 4.94505 26.6091ZM9.77677 27.16C9.8237 27.1547 9.87143 27.1522 9.91983 27.1522C10.6282 27.1522 11.2032 27.7311 11.2032 28.4437C11.2032 29.1568 10.6281 29.7356 9.91983 29.7356C9.87143 29.7356 9.8237 29.7327 9.77677 29.7275C10.4176 29.656 10.9168 29.1081 10.9168 28.4437C10.9166 27.7796 10.4176 27.2318 9.77677 27.16ZM30.5736 21.7519C30.6205 21.7468 30.6683 21.7441 30.7167 21.7441C31.4251 21.7441 32 22.323 32 23.0357C32 23.7488 31.4249 24.3275 30.7167 24.3275C30.6684 24.3275 30.6205 24.3247 30.5736 24.3197C31.2144 24.2479 31.7136 23.7 31.7136 23.0357C31.7136 22.3716 31.2144 21.8239 30.5736 21.7519ZM26.7683 26.6091C26.8155 26.6038 26.8632 26.6011 26.9116 26.6011C27.62 26.6011 28.1947 27.18 28.1947 27.8929C28.1947 28.606 27.62 29.1847 26.9116 29.1847C26.8633 29.1847 26.8155 29.1819 26.7683 29.1767C27.4094 29.1049 27.9085 28.557 27.9085 27.8929C27.9085 27.2287 27.4094 26.681 26.7683 26.6091ZM22.4372 27.4245C22.4844 27.4193 22.5323 27.4164 22.5806 27.4164C23.2887 27.4164 23.8636 27.9953 23.8636 28.7083C23.8636 29.4209 23.2886 29.9998 22.5806 29.9998C22.5323 29.9998 22.4844 29.997 22.4372 29.992C23.0783 29.9201 23.5772 29.3724 23.5772 28.7083C23.5772 28.0438 23.0783 27.496 22.4372 27.4245ZM15.8567 27.4245C15.9037 27.4193 15.9514 27.4164 16.0001 27.4164C16.7081 27.4164 17.2831 27.9953 17.2831 28.7083C17.2831 29.4209 16.7081 29.9998 16.0001 29.9998C15.9514 29.9998 15.9037 29.997 15.8567 29.992C16.4978 29.9201 16.9967 29.3724 16.9967 28.7083C16.9967 28.0438 16.4978 27.496 15.8567 27.4245Z" fill="#60B7FF"/>
<path fill-rule="evenodd" clip-rule="evenodd" d="M22.2252 2.90358C23.8683 2.9472 25.1916 4.31512 25.1916 5.96877C25.1916 6.21909 25.16 6.46309 25.1049 6.69555C26.3924 6.99915 27.3724 8.13419 27.4519 9.50171C28.6816 9.89563 29.5719 11.0545 29.5719 12.4232C29.5719 14.1107 28.2013 15.4886 26.5268 15.4886H19.046C17.3635 15.4886 16.0009 14.1166 16.0009 12.4232V3.80686C16.0009 2.0061 17.4603 0.537109 19.2491 0.537109H19.2591C20.697 0.536975 21.9096 1.55163 22.2252 2.90358Z" fill="#FE646F"/>
<path fill-rule="evenodd" clip-rule="evenodd" d="M2.42798 12.4233C2.42798 11.0543 3.31971 9.89563 4.55023 9.50184C4.6277 8.13419 5.6077 6.99928 6.89716 6.69568C6.83996 6.46336 6.81049 6.21922 6.81049 5.96891C6.81049 4.31525 8.13183 2.94746 9.77663 2.90371C10.0922 1.55176 11.3053 0.537109 12.741 0.537109H12.7526C14.5415 0.537109 16.001 2.00622 16.001 3.80684V12.4232C16.001 14.1165 14.6363 15.4886 12.9559 15.4886H5.47516C3.79877 15.4888 2.42798 14.1108 2.42798 12.4233Z" fill="#FE646F"/>
<path fill-rule="evenodd" clip-rule="evenodd" d="M21.5829 12.27C21.3806 12.4851 21.0426 12.4943 20.829 12.2907C20.6151 12.0868 20.6059 11.7469 20.8085 11.5316C21.3893 10.9145 21.6484 10.0172 21.4123 9.13612L21.4121 9.13478C21.1534 8.1589 20.3595 7.46971 19.4341 7.30101C19.1446 7.24812 18.9518 6.96883 19.0043 6.67718C19.0569 6.38553 19.3346 6.19186 19.6241 6.2446C20.943 6.48485 22.0738 7.46676 22.4427 8.85709C22.7784 10.1123 22.4105 11.3907 21.5829 12.27ZM11.2896 11.5316C11.4921 11.7469 11.4829 12.087 11.2693 12.2907C11.0554 12.4942 10.7176 12.4851 10.5152 12.27C9.68797 11.3907 9.31998 10.1123 9.65572 8.85709C10.0246 7.46689 11.1554 6.48485 12.4741 6.2446C12.7638 6.19172 13.0416 6.38553 13.0938 6.67718C13.1464 6.96883 12.9538 7.24812 12.6641 7.30101C11.7385 7.46958 10.9446 8.1589 10.6861 9.13478L10.6858 9.13612C10.4498 10.0172 10.709 10.9145 11.2896 11.5316ZM4.68268 10.0229C3.68268 10.3564 2.96107 11.3046 2.96107 12.423C2.96107 13.815 4.09187 14.9517 5.47493 14.9517H12.9557C14.3416 14.9517 15.4674 13.8201 15.4674 12.423C15.4674 11.4553 14.9274 10.6134 14.1336 10.1892C13.8736 10.0505 13.7744 9.72505 13.9125 9.46333C14.0505 9.20161 14.3736 9.10203 14.6336 9.24081C14.941 9.40522 15.2216 9.61326 15.4674 9.85713V3.80687C15.4674 2.30205 14.2477 1.07398 12.7525 1.07398H12.7409C11.7678 1.07398 10.9192 1.63876 10.5028 2.45868C11.2717 2.63879 11.9469 3.06989 12.4394 3.66043C12.6286 3.88752 12.5989 4.22642 12.3736 4.41673C12.148 4.60718 11.8113 4.57752 11.6222 4.35043C11.1758 3.81491 10.5161 3.46435 9.77639 3.44086C8.42613 3.48421 7.34359 4.60933 7.34359 5.96879C7.34359 6.17454 7.36746 6.37533 7.41466 6.56631C7.4488 6.7059 7.42639 6.85327 7.35185 6.97568C7.27745 7.09808 7.15719 7.18572 7.01826 7.21833C6.18573 7.41442 5.50934 8.03034 5.22441 8.82945C5.30721 8.82381 5.39079 8.82072 5.47493 8.82072C6.37879 8.82072 7.20625 9.15908 7.83665 9.71661C8.05772 9.91229 8.07971 10.2519 7.88531 10.4744C7.69118 10.6969 7.35398 10.7191 7.13252 10.5234C6.69025 10.1319 6.10947 9.89457 5.47507 9.89457C5.21921 9.89457 4.97227 9.93323 4.73974 10.0045C4.72107 10.0116 4.70214 10.0178 4.68268 10.0229ZM26.7762 8.82945C26.49 8.03034 25.8142 7.41428 24.9831 7.21805C24.8448 7.18557 24.7254 7.09888 24.6508 6.97728C24.5762 6.85595 24.5528 6.70939 24.5859 6.57048C24.6318 6.37815 24.6582 6.17588 24.6582 5.96879C24.6582 4.60933 23.574 3.48407 22.2251 3.44086C21.4843 3.46435 20.8246 3.81437 20.3801 4.34989C20.1911 4.57725 19.8547 4.60746 19.629 4.41727C19.4029 4.22736 19.3729 3.88846 19.5618 3.66123C20.0526 3.06988 20.7282 2.63838 21.4987 2.45827C21.0821 1.63875 20.2331 1.07385 19.259 1.07385H19.249C17.7539 1.07385 16.5341 2.30191 16.5341 3.80672V9.857C16.78 9.61313 17.0607 9.40509 17.3679 9.24068C17.6279 9.10204 17.9513 9.20148 18.089 9.4632C18.227 9.72492 18.1282 10.0504 17.8679 10.189C17.0741 10.6132 16.5341 11.4551 16.5341 12.4229C16.5341 13.8198 17.6582 14.9515 19.0459 14.9515H26.5267C27.9078 14.9515 29.0384 13.8148 29.0384 12.4229C29.0384 11.3042 28.3176 10.3557 27.3176 10.0221C27.299 10.0174 27.281 10.0115 27.263 10.0048C27.0302 9.93296 26.783 9.8943 26.5268 9.8943C25.8907 9.8943 25.3096 10.1317 24.8671 10.5231C24.646 10.7188 24.3088 10.6968 24.1143 10.4741C23.9202 10.2516 23.9418 9.91201 24.163 9.71633C24.7935 9.15907 25.6207 8.82046 26.5268 8.82046C26.6107 8.82072 26.6938 8.82381 26.7762 8.82945ZM30.1051 12.423C30.1051 14.4061 28.4946 16.0254 26.5267 16.0254H19.0459C17.759 16.0254 16.631 15.342 16.0003 14.3161C15.3696 15.3421 14.2412 16.0254 12.9557 16.0254H5.47493C3.50494 16.0254 1.89441 14.4061 1.89441 12.423C1.89441 10.9405 2.78441 9.66802 4.05547 9.11492C4.256 7.83988 5.12827 6.78159 6.29387 6.32325C6.28253 6.20661 6.27692 6.08838 6.27692 5.96866C6.27692 4.15931 7.62306 2.64094 9.36892 2.39909C9.86305 1.005 11.1917 0 12.7409 0V0.000262138C12.744 0.000262138 12.747 0 12.7501 0C12.7509 0 12.7517 0 12.7526 0C14.1301 0 15.3398 0.74825 16.001 1.86143C16.6623 0.74825 17.8721 0 19.2493 0V0.000262138C19.2518 0.000262138 19.2546 0 19.257 0C19.2578 0 19.2583 0 19.2593 0C20.8103 0 22.139 1.005 22.6329 2.39909C24.377 2.64121 25.7251 4.15931 25.7251 5.96866C25.7251 6.08838 25.719 6.20661 25.7074 6.32325C26.8715 6.78159 27.744 7.83988 27.946 9.11492C29.2164 9.66775 30.1051 10.9405 30.1051 12.423Z" fill="#FD4755"/>
</svg>
