<svg width="28" height="28" viewBox="0 0 28 28" fill="none" xmlns="http://www.w3.org/2000/svg">
<path d="M26.25 0H1.75C1.26875 0 0.875 0.393747 0.875 0.874993V13.5618C0.875 14.0436 1.26875 14.4368 1.75 14.4368H26.25C26.7318 14.4368 27.125 14.0436 27.125 13.5618V0.874993C27.125 0.393747 26.7318 0 26.25 0Z" fill="#7A8E9B"/>
<path d="M24.7188 2.1875H3.28125V12.2493H24.7188V2.1875Z" fill="#E2E2E2"/>
<path d="M27.125 16.1875H0.875C0.392 16.1875 0 16.5789 0 17.0625V27.1249C0 27.6079 0.392 27.9999 0.875 27.9999H27.125C27.6086 27.9999 28 27.6079 28 27.1249V17.0625C28 16.5789 27.6086 16.1875 27.125 16.1875Z" fill="#C6C6C6"/>
<path d="M3.17267 18.5928H2.18799V19.6865H3.17267V18.5928Z" fill="#525C6B"/>
<path d="M13.2646 18.5928H11.3723V19.6865H13.2646V18.5928Z" fill="#525C6B"/>
<path d="M16.6288 18.5928H14.7365V19.6865H16.6288V18.5928Z" fill="#525C6B"/>
<path d="M9.90038 18.5928H8.00806V19.6865H9.90038V18.5928Z" fill="#525C6B"/>
<path d="M19.9926 18.5928H18.0997V19.6865H19.9926V18.5928Z" fill="#525C6B"/>
<path d="M6.53625 18.5928H4.64392V19.6865H6.53625V18.5928Z" fill="#525C6B"/>
<path d="M23.3567 18.5928H21.4644V19.6865H23.3567V18.5928Z" fill="#525C6B"/>
<path d="M25.8136 18.5928H24.829V19.6865H25.8136V18.5928Z" fill="#525C6B"/>
<path d="M3.17267 21.5459H2.18799V22.6396H3.17267V21.5459Z" fill="#525C6B"/>
<path d="M13.2646 21.5459H11.3723V22.6396H13.2646V21.5459Z" fill="#525C6B"/>
<path d="M9.90038 21.5459H8.00806V22.6396H9.90038V21.5459Z" fill="#525C6B"/>
<path d="M6.53625 21.5459H4.64392V22.6396H6.53625V21.5459Z" fill="#525C6B"/>
<path d="M23.3567 21.5459H21.4644V22.6396H23.3567V21.5459Z" fill="#525C6B"/>
<path d="M19.9926 21.5459H18.0997V22.6396H19.9926V21.5459Z" fill="#525C6B"/>
<path d="M16.6288 21.5459H14.7365V22.6396H16.6288V21.5459Z" fill="#525C6B"/>
<path d="M25.8136 21.5459H24.829V22.6396H25.8136V21.5459Z" fill="#525C6B"/>
<path d="M3.17267 24.499H2.18799V25.5928H3.17267V24.499Z" fill="#525C6B"/>
<path d="M6.53625 24.499H4.64392V25.5928H6.53625V24.499Z" fill="#525C6B"/>
<path d="M23.3567 24.499H21.4644V25.5928H23.3567V24.499Z" fill="#525C6B"/>
<path d="M25.8136 24.499H24.829V25.5928H25.8136V24.499Z" fill="#525C6B"/>
<path d="M19.9926 24.499H8.00806V25.5928H19.9926V24.499Z" fill="#525C6B"/>
<path d="M8.85262 10.889L5.12744 7.21816L8.85262 3.54785L9.62027 4.32659L6.68611 7.21816L9.62027 10.1103L8.85262 10.889Z" fill="#2BA0BF"/>
<path d="M19.1481 10.889L18.381 10.1103L21.3151 7.21816L18.381 4.32659L19.1481 3.54785L22.8738 7.21816L19.1481 10.889Z" fill="#2BA0BF"/>
<path d="M15.5726 3.6391L11.4917 10.2012L12.4205 10.7788L16.5014 4.2167L15.5726 3.6391Z" fill="#2BA0BF"/>
<path d="M6.78125 14.4365H3.28125V16.1871H6.78125V14.4365Z" fill="#525C6B"/>
<path d="M24.7188 14.4365H21.2188V16.1871H24.7188V14.4365Z" fill="#525C6B"/>
</svg>
