<svg width="30" height="30" viewBox="0 0 30 30" fill="none" xmlns="http://www.w3.org/2000/svg">
<path d="M0 4.6875V26.644C0 28.4978 1.50252 30.0003 3.35629 30.0003H10.7814V4.6875H0Z" fill="#FDDC85"/>
<path d="M26.6441 4.6875H10.7814V30.0003H26.6441V4.6875Z" fill="#E2E2E2"/>
<path d="M30.0004 26.644C30.0004 28.4978 28.4979 30.0003 26.6441 30.0003H3.35632C5.21009 30.0003 6.71261 28.4978 6.71261 26.644H30.0004Z" fill="#C6C6C6"/>
<path d="M26.6441 0H0V4.68755H26.6441V0Z" fill="#7A8E9B"/>
<path d="M7.64657 9.73291H7.14281C6.69593 10.1848 6.07655 10.4648 5.39092 10.4648C4.70529 10.4648 4.08591 10.1848 3.63903 9.73291H3.13464C2.84839 10.0835 2.67651 10.531 2.67651 11.0198V13.5486H5.39029H8.10408V11.0198C8.1047 10.531 7.93282 10.0835 7.64657 9.73291Z" fill="#E49A61"/>
<path d="M5.39092 9.47775C6.20843 9.47775 6.87156 8.81461 6.87156 7.9971C6.87156 7.1796 6.20843 6.51709 5.39092 6.51709C4.57341 6.51709 3.91028 7.1796 3.91028 7.9971C3.91028 8.81524 4.57341 9.47775 5.39092 9.47775Z" fill="#E49A61"/>
<path d="M10.7814 20.9082H0V24.6582H10.7814V20.9082Z" fill="#F87670"/>
<path d="M10.7814 15.2827H0V19.0328H10.7814V15.2827Z" fill="#FFBD66"/>
<path d="M1.30982 22.4506C1.22044 22.5394 1.17419 22.6619 1.17419 22.7831C1.17419 22.905 1.22107 23.0269 1.30982 23.1157C1.3992 23.205 1.51607 23.2519 1.63795 23.2519C1.76483 23.2519 1.8867 23.2007 1.97108 23.1157C2.06046 23.0263 2.1117 22.905 2.1117 22.7831C2.1117 22.6619 2.06046 22.5388 1.97108 22.4506C1.79733 22.2775 1.48795 22.2775 1.30982 22.4506Z" fill="#525C6B"/>
<path d="M3.51746 23.252C3.77635 23.252 3.98622 23.0421 3.98622 22.7832C3.98622 22.5243 3.77635 22.3145 3.51746 22.3145C3.25857 22.3145 3.04871 22.5243 3.04871 22.7832C3.04871 23.0421 3.25857 23.252 3.51746 23.252Z" fill="#525C6B"/>
<path d="M7.26758 22.3145C7.00508 22.3145 6.79382 22.5251 6.79382 22.7832C6.79382 23.0407 7.00445 23.252 7.26758 23.252C7.52508 23.252 7.73133 23.0407 7.73133 22.7832C7.73196 22.5251 7.52508 22.3145 7.26758 22.3145Z" fill="#525C6B"/>
<path d="M5.38819 22.3145C5.13007 22.3145 4.92444 22.5251 4.92444 22.7832C4.92444 23.0407 5.13069 23.252 5.38819 23.252C5.6507 23.252 5.85695 23.0407 5.85695 22.7832C5.85695 22.5251 5.65007 22.3145 5.38819 22.3145Z" fill="#525C6B"/>
<path d="M8.81018 22.4506C8.72081 22.5394 8.66956 22.6619 8.66956 22.7831C8.66956 22.905 8.72143 23.0269 8.81018 23.1157C8.89456 23.2007 9.01643 23.2519 9.14331 23.2519C9.26519 23.2519 9.38706 23.2007 9.47144 23.1157C9.56082 23.0263 9.61207 22.905 9.61207 22.7831C9.61207 22.6619 9.56082 22.5388 9.47144 22.4506C9.29769 22.2775 8.98331 22.2775 8.81018 22.4506Z" fill="#525C6B"/>
<path d="M9.6114 16.689H5.86011V17.6265H9.6114V16.689Z" fill="#525C6B"/>
<path d="M3.98361 16.689H1.17358V17.6265H3.98361V16.689Z" fill="#525C6B"/>
<path d="M18.7126 17.4746H13.6512V23.9603H18.7126V17.4746Z" fill="white"/>
<path d="M19.1814 24.4289H13.1826V17.0063H19.1814V24.4289ZM14.1201 23.4914H18.2439V17.9439H14.1201V23.4914Z" fill="#C6C6C6"/>
<path d="M13.322 7.16113V15.13H24.1034V7.16113H13.322ZM17.9058 11.1456L14.2589 13.75V8.54052L17.9058 11.1456ZM15.2533 8.09864H22.1715L18.7121 10.5693L15.2533 8.09864ZM18.7127 11.7212L22.1721 14.1925H15.2533L18.7127 11.7212ZM19.519 11.1456L23.1653 8.54052V13.75L19.519 11.1456Z" fill="#C6C6C6"/>
<path d="M24.6916 1.9283C24.471 1.71205 24.0822 1.71205 23.8616 1.9283C23.7541 2.0408 23.6879 2.19081 23.6879 2.34519C23.6879 2.49956 23.7535 2.64956 23.8616 2.75768C23.9741 2.86581 24.1241 2.93082 24.2741 2.93082C24.4291 2.93082 24.5791 2.86519 24.6916 2.75768C24.7991 2.64956 24.8648 2.49581 24.8648 2.34519C24.8648 2.19081 24.7991 2.0408 24.6916 1.9283Z" fill="#E2E2E2"/>
<path d="M21.2274 1.75977C20.9042 1.75977 20.6411 2.02227 20.6411 2.34602C20.6411 2.66978 20.9036 2.93228 21.2274 2.93228C21.5511 2.93228 21.818 2.66978 21.818 2.34602C21.818 2.02227 21.5505 1.75977 21.2274 1.75977Z" fill="#E2E2E2"/>
<path d="M17.768 1.92881C17.6605 2.04131 17.5942 2.19132 17.5942 2.34569C17.5942 2.50007 17.6599 2.65007 17.768 2.75819C17.8805 2.86632 18.0305 2.93132 18.1805 2.93132C18.3355 2.93132 18.4855 2.86569 18.598 2.75819C18.7055 2.65007 18.7711 2.49632 18.7711 2.34569C18.7711 2.19132 18.7055 2.04131 18.598 1.92881C18.3774 1.71318 17.9886 1.71318 17.768 1.92881Z" fill="#E2E2E2"/>
</svg>
