<svg width="30" height="30" viewBox="0 0 30 30" fill="none" xmlns="http://www.w3.org/2000/svg">
<path d="M5.15112 5.91548H11.0679V0H27.1865V29.9993H5.15112V5.91548Z" fill="#E2E2E2"/>
<path d="M11.0679 5.91548H5.15112L11.0679 0V5.91548Z" fill="#C6C6C6"/>
<path d="M30.0002 4.74609H15.3931V14.0059H30.0002V4.74609Z" fill="#C6C6C6"/>
<path d="M13.5526 16.1444H12.3805V14.4751C12.3805 14.2163 12.1704 14.0063 11.9116 14.0063H0.468839C0.209415 14.0063 0 14.2163 0 14.4751V26.7185C0 28.531 1.46903 29.9997 3.28187 29.9997H9.09859C10.8414 29.9997 12.2636 28.6404 12.3705 26.9254H13.5526C16.0087 26.9254 18.0065 24.928 18.0065 22.4724V20.5974C18.0065 18.1425 16.0087 16.1444 13.5526 16.1444ZM16.6 22.4724C16.6 24.1524 15.2329 25.5192 13.5526 25.5192H12.3805V17.5506H13.5526C15.2329 17.5506 16.6 18.9169 16.6 20.5974V22.4724Z" fill="#59C5EF"/>
<path d="M3.61145 17.5503V23.3695L9.43191 17.5503H3.61145ZM4.54913 18.4878H7.16838L4.54913 21.1058V18.4878Z" fill="#E2E2E2"/>
<path d="M7.83055 21.7689H6.5387V22.7064H8.76803V20.4771H7.83055V21.7689Z" fill="#E2E2E2"/>
<path d="M20.1182 23.0728V28.892L25.938 23.0728H20.1182ZM21.0558 24.0102H23.6745L21.0558 26.6283V24.0102Z" fill="#59C5EF"/>
<path d="M24.3374 27.2914H23.0449V28.2288H25.2749V25.9995H24.3374V27.2914Z" fill="#59C5EF"/>
<path d="M17.7738 6.79883V12.6181L23.5937 6.79883H17.7738ZM18.7115 7.73631H21.3301L18.7115 10.3544V7.73631Z" fill="#2BA0BF"/>
<path d="M21.9936 11.0171H20.7012V11.9546H22.9311V9.72461H21.9936V11.0171Z" fill="#2BA0BF"/>
</svg>
