<svg width="26" height="35" viewBox="0 0 26 35" fill="none" xmlns="http://www.w3.org/2000/svg">
<path d="M17.6256 16.3076L14.8378 20.8648L9.73218 19.5239L15.8139 35.0001L18.6023 30.4429L23.7072 31.7823L17.6256 16.3076Z" fill="#2BA0BF"/>
<path d="M11.1628 20.8648L8.37511 16.3076L2.29272 31.7823L7.39909 30.4429L10.1861 35.0001L16.2685 19.5239L11.1628 20.8648Z" fill="#59C5EF"/>
<path d="M13.8568 0.928187L14.4777 0.341962C15.1071 -0.250836 16.1218 -0.0459398 16.4799 0.748103L16.8336 1.53192C17.1093 2.14149 17.7996 2.4317 18.4168 2.1991L19.211 1.90015C20.0159 1.59682 20.8759 2.18234 20.9088 3.05513L20.9411 3.91697C20.9661 4.58778 21.4939 5.12518 22.1527 5.1507L22.9991 5.1835C23.8562 5.21704 24.4312 6.09274 24.1333 6.91158L23.8397 7.72021C23.6106 8.34946 23.8963 9.05163 24.4957 9.33235L25.2655 9.69257C26.0446 10.0571 26.2465 11.0911 25.6636 11.732L25.0886 12.3642C24.641 12.8563 24.641 13.6168 25.0886 14.1097L25.6636 14.7419C26.2465 15.3821 26.0453 16.4153 25.2655 16.7806L24.4957 17.1408C23.897 17.4208 23.6113 18.1237 23.8397 18.7522L24.1333 19.5609C24.4312 20.3797 23.8562 21.2561 22.9991 21.2897L22.1527 21.3225C21.4939 21.3473 20.9661 21.8854 20.9411 22.5562L20.9088 23.418C20.8766 24.2901 20.0159 24.8756 19.211 24.5723L18.4168 24.2733C17.7989 24.0407 17.1086 24.3309 16.8336 24.9412L16.4799 25.7244C16.1218 26.5184 15.1071 26.7233 14.4777 26.1305L13.8568 25.5442C13.3735 25.0878 12.6266 25.0878 12.1425 25.5442L11.5217 26.1305C10.893 26.7233 9.87758 26.5184 9.51954 25.7244L9.1658 24.9412C8.89083 24.3309 8.20052 24.0407 7.58255 24.2733L6.7884 24.5723C5.98353 24.8756 5.1228 24.2901 5.09057 23.418L5.05906 22.5562C5.034 21.8854 4.50554 21.3473 3.84674 21.3225L3.00105 21.2897C2.1439 21.2561 1.56817 20.3797 1.86606 19.5609L2.16036 18.7522C2.38879 18.1237 2.10308 17.4208 1.50372 17.1408L0.734643 16.7806C-0.0444541 16.4153 -0.247105 15.3821 0.336502 14.7419L0.912243 14.1097C1.36051 13.6168 1.36051 12.8563 0.912243 12.3642L0.336502 11.732C-0.246389 11.0911 -0.0444541 10.0571 0.734643 9.69257L1.50372 9.33235C2.10236 9.05163 2.38879 8.34946 2.16036 7.72021L1.86606 6.91158C1.56817 6.09274 2.1439 5.21704 3.00105 5.1835L3.84674 5.1507C4.50554 5.12518 5.034 4.58705 5.05906 3.91697L5.09057 3.05513C5.1228 2.18234 5.98353 1.59682 6.7884 1.90015L7.58255 2.1991C8.20052 2.4317 8.89083 2.14149 9.1658 1.53192L9.51954 0.748103C9.87758 -0.0459398 10.893 -0.250836 11.5217 0.341962L12.1425 0.928187C12.6266 1.38463 13.3735 1.38463 13.8568 0.928187Z" fill="#FFBD66"/>
<path d="M12.9996 20.8932C17.1521 20.8932 20.5184 17.4654 20.5184 13.2371C20.5184 9.00879 17.1521 5.58105 12.9996 5.58105C8.84702 5.58105 5.48071 9.00879 5.48071 13.2371C5.48071 17.4654 8.84702 20.8932 12.9996 20.8932Z" fill="#FDDC85"/>
<path d="M13 21.7134C8.4099 21.7134 4.67554 17.9109 4.67554 13.2371C4.67554 8.56325 8.4099 4.76074 13 4.76074C17.5901 4.76074 21.3244 8.56325 21.3244 13.2371C21.3244 17.9109 17.5901 21.7134 13 21.7134ZM13 6.40133C9.29856 6.40133 6.28672 9.46812 6.28672 13.2371C6.28672 17.0068 9.29856 20.0729 13 20.0729C16.7014 20.0729 19.7133 17.0068 19.7133 13.2371C19.7133 9.46812 16.7021 6.40133 13 6.40133Z" fill="#F87670"/>
</svg>
