<svg width="30" height="30" viewBox="0 0 30 30" fill="none" xmlns="http://www.w3.org/2000/svg">
<path d="M29.9996 22.5292H0.000244141V1.40674C0.000244141 0.629862 0.642528 0.000488281 1.43391 0.000488281H29.9996V22.5292Z" fill="#E2E2E2"/>
<path d="M18.5157 26.207H11.4844V29.4245H18.5157V26.207Z" fill="#525C6B"/>
<path d="M22.0304 28.8501H7.96899V30.0001H22.0304V28.8501Z" fill="#7A8E9B"/>
<path d="M0.000244141 22.5288V24.8276C0.000244141 25.5894 0.629789 26.2069 1.40716 26.2069H28.594C29.3707 26.2069 30.0002 25.5894 30.0002 24.8276V22.5288H0.000244141Z" fill="#7A8E9B"/>
<path d="M15.7032 24.3677C15.7032 24.7484 15.3885 25.0577 15.0005 25.0577C14.6124 25.0577 14.297 24.749 14.297 24.3677C14.297 23.9871 14.6124 23.6777 15.0005 23.6777C15.3885 23.6784 15.7032 23.9871 15.7032 24.3677Z" fill="#525C6B"/>
<path d="M4.68748 7.53955H0.000366211V10.482H4.68748V7.53955Z" fill="#79CCB8"/>
<path d="M4.68748 11.4023H0.000366211V14.3448H4.68748V11.4023Z" fill="#79CCB8"/>
<path d="M4.68748 15.2642H0.000366211V18.2067H4.68748V15.2642Z" fill="#79CCB8"/>
<path d="M4.68736 3.67822H0.000244141V6.62072H4.68736V3.67822Z" fill="#79CCB8"/>
<path d="M17.9878 0H12.8311V2.75875H17.9878V0Z" fill="#E49A61"/>
<path d="M11.8943 0H6.73755V2.75875H11.8943V0Z" fill="#E49A61"/>
<path d="M0.000244141 1.37924V2.75923H5.79991V0.000488281H1.40716C0.62979 0.000488281 0.000244141 0.617363 0.000244141 1.37924Z" fill="#E49A61"/>
<path d="M24.0824 0H18.9257V2.75875H24.0824V0Z" fill="#E49A61"/>
<path d="M17.5356 11.7132C13.9208 9.53005 9.81608 10.1201 8.90491 10.2882V19.31H22.7771C21.8169 15.7907 20.0563 13.2363 17.5356 11.7132Z" fill="#FFBD66"/>
<path d="M8.90527 6.43604V8.88665C10.3377 8.65415 14.4896 8.25353 18.2732 10.5392C21.1966 12.3054 23.1974 15.2579 24.2284 19.3098H25.7812V6.43604H8.90527Z" fill="#FFBD66"/>
<path d="M18.2733 10.539C14.4897 8.25401 10.3378 8.654 8.9054 8.8865V10.2878C9.81657 10.1196 13.9213 9.52963 17.5361 11.7128C20.0561 13.2359 21.8167 15.7902 22.7782 19.309H24.2291C23.1969 15.2577 21.1961 12.3053 18.2733 10.539Z" fill="#DB5743"/>
<path d="M8.22192 12.4629C8.22192 12.4629 8.25379 12.4554 8.31433 12.4429C8.38187 12.4285 8.47555 12.4092 8.58769 12.3904C8.8158 12.3498 9.1382 12.3017 9.52434 12.2654C9.90983 12.2267 10.361 12.201 10.8427 12.2017C11.3244 12.2017 11.8367 12.2298 12.3433 12.2948C12.5962 12.3323 12.8485 12.3598 13.0938 12.4179C13.3392 12.4667 13.5794 12.5173 13.8069 12.5892C14.0356 12.6517 14.2548 12.7173 14.4555 12.7998C14.6575 12.8779 14.8506 12.9423 15.0169 13.0304C15.1851 13.1123 15.3387 13.1873 15.475 13.2529C15.6044 13.3317 15.7165 13.4004 15.8089 13.4567C15.9924 13.5698 16.0969 13.6342 16.0969 13.6342C16.0969 13.6342 15.9822 13.5892 15.7815 13.5098C15.6815 13.4704 15.561 13.4229 15.4221 13.3685C15.2788 13.3285 15.1175 13.2823 14.941 13.2323C14.7684 13.1754 14.5708 13.1467 14.3669 13.1073C14.1643 13.0629 13.9464 13.0373 13.7208 13.0167C13.4972 12.9867 13.264 12.9792 13.0276 12.9742C12.7925 12.9598 12.5516 12.9767 12.3133 12.9823C11.8354 13.0054 11.3614 13.0623 10.923 13.1398C10.4846 13.2173 10.0806 13.3117 9.74034 13.4079C9.40008 13.5023 9.12226 13.5954 8.93429 13.6642C8.83743 13.6985 8.76926 13.726 8.72657 13.7442C8.67623 13.7642 8.64949 13.7754 8.64949 13.7754L8.64249 13.7785C8.28248 13.9248 7.86892 13.7573 7.71918 13.4035C7.56944 13.051 7.74021 12.6454 8.10086 12.4985C8.14036 12.4842 8.18305 12.4717 8.22192 12.4629Z" fill="#F87670"/>
<path d="M21.9176 9.72806C21.8437 9.32681 21.6895 8.88494 21.4372 8.39807C20.9396 8.15057 20.4884 7.99869 20.0793 7.92682C17.9652 7.55369 16.9731 9.30181 16.5066 10.9599C16.1218 12.3281 16.0969 13.6356 16.0969 13.6356C16.0969 13.6356 18.7649 13.5868 20.5044 12.5587C21.4837 11.9812 22.168 11.0924 21.9176 9.72806Z" fill="#F87670"/>
<path d="M21.118 6.49756C20.4878 7.25193 20.1081 7.76005 20.1081 7.76005C19.6207 8.23943 21.5998 10.1807 22.0878 9.70193C22.0878 9.70193 22.6058 9.33005 23.3749 8.7113C22.6339 8.67818 21.1524 7.22443 21.118 6.49756Z" fill="#525C6B"/>
<path d="M29.9994 0C26.9397 0.001875 22.9553 4.30062 21.1177 6.49749C21.1521 7.22436 22.6335 8.67749 23.3746 8.71124C25.6149 6.90874 29.9969 3.00062 29.9994 0Z" fill="#7A8E9B"/>
</svg>
