<svg width="29" height="30" viewBox="0 0 29 30" fill="none" xmlns="http://www.w3.org/2000/svg">
<path d="M20.1308 2.2876H17.974V4.44461H20.1308V2.2876Z" fill="#FF7979"/>
<path d="M5.09785 15.1636H2.94104V17.3204H5.09785V15.1636Z" fill="#FF7979"/>
<path d="M10.4579 5.10075V3.39893L13.2683 6.07858L10.4579 8.75832V6.71387V5.10075Z" fill="#95A5A5"/>
<path d="M17.5816 20.915V26.2744L14.8363 23.5948L17.5816 20.915Z" fill="#95A5A5"/>
<path d="M23.3333 0V0.588202H16.0784V0.653563V15.6208H15.0326V0H23.3333Z" fill="#CCCCCB"/>
<path d="M24.3135 0.523438V1.17691H16.9279V16.1442H16.0129V15.5559V0.588712L23.2677 0.523438H24.3135Z" fill="#F2F3F3"/>
<path d="M8.30076 12.876V13.4641H1.04577V13.5295V28.4967H0V12.876H8.30076Z" fill="#CCCCCB"/>
<path d="M9.28091 13.3989V14.0524H1.89531V29.0197H0.980347V28.4315V13.4642L8.23522 13.3989H9.28091Z" fill="#F2F3F3"/>
<path d="M13.7909 17.7124V30H1.89551V14.0522H10.1961V17.7124H13.7909ZM5.09818 17.3203V15.1635H2.94139V17.3203H5.09818Z" fill="#D7DEED"/>
<path d="M10.1964 14.0522L13.7911 17.7125H10.1964V14.0522Z" fill="#AFB9D2"/>
<path d="M28.8235 4.77146H25.2286V1.17676L28.8235 4.77146Z" fill="#AFB9D2"/>
<path d="M28.8238 4.77146V17.1245H16.9285V1.17676H25.2289V4.77146H28.8238ZM20.1311 4.44488V2.28787H17.9742V4.44488H20.1311Z" fill="#D7DEED"/>
<path d="M5.74196 11.6292C5.63359 11.6292 5.5459 11.5414 5.5459 11.4331C5.5459 8.72498 7.74917 6.52002 10.4575 6.51807L10.4609 6.71413L10.4576 6.91019C7.96554 6.91214 5.93804 8.94091 5.93804 11.4331C5.93804 11.5414 5.85023 11.6292 5.74196 11.6292Z" fill="#95A5A5"/>
<path d="M4.1288 11.629C4.02044 11.629 3.93274 11.5412 3.93274 11.4329C3.93274 7.8353 6.85971 4.90682 10.4573 4.90479L10.4608 5.10085L10.4575 5.29691C7.07599 5.29886 4.32486 8.0515 4.32486 11.4329C4.32486 11.5412 4.23716 11.629 4.1288 11.629Z" fill="#95A5A5"/>
<path d="M17.6145 23.1301C17.5062 23.1301 17.4185 23.0424 17.4185 22.9341C17.4185 22.8258 17.5062 22.738 17.6145 22.738C20.1084 22.738 22.1374 20.709 22.1374 18.2151C22.1374 18.1068 22.2252 18.019 22.3335 18.019C22.4418 18.019 22.5296 18.1068 22.5296 18.2151C22.5296 20.9252 20.3248 23.1301 17.6145 23.1301Z" fill="#95A5A5"/>
<path d="M17.6145 24.7419C17.5062 24.7419 17.4185 24.6541 17.4185 24.5459C17.4185 24.4376 17.5062 24.3496 17.6145 24.3496C20.9979 24.3496 23.7504 21.5977 23.7504 18.2151C23.7504 18.1068 23.8382 18.019 23.9464 18.019C24.0547 18.019 24.1427 18.1068 24.1427 18.2151C24.1427 21.814 21.2141 24.7419 17.6145 24.7419Z" fill="#95A5A5"/>
<path d="M12.2878 24.3794H3.2682C3.15984 24.3794 3.07214 24.2916 3.07214 24.1834C3.07214 24.0751 3.15984 23.9873 3.2682 23.9873H12.2878C12.3961 23.9873 12.4838 24.0751 12.4838 24.1834C12.4838 24.2916 12.3961 24.3794 12.2878 24.3794Z" fill="#AFB9D2"/>
<path d="M12.2878 25.3594H3.2682C3.15984 25.3594 3.07214 25.2717 3.07214 25.1634C3.07214 25.0551 3.15984 24.9673 3.2682 24.9673H12.2878C12.3961 24.9673 12.4838 25.0549 12.4838 25.1634C12.4838 25.2718 12.3961 25.3594 12.2878 25.3594Z" fill="#AFB9D2"/>
<path d="M12.2878 26.2744H3.2682C3.15984 26.2744 3.07214 26.1867 3.07214 26.0784C3.07214 25.9701 3.15984 25.8823 3.2682 25.8823H12.2878C12.3961 25.8823 12.4838 25.9699 12.4838 26.0784C12.4838 26.1868 12.3961 26.2744 12.2878 26.2744Z" fill="#AFB9D2"/>
<path d="M12.2878 27.1895H3.2682C3.15984 27.1895 3.07214 27.1017 3.07214 26.9934C3.07214 26.8851 3.15984 26.7974 3.2682 26.7974H12.2878C12.3961 26.7974 12.4838 26.8851 12.4838 26.9934C12.4838 27.1017 12.3961 27.1895 12.2878 27.1895Z" fill="#AFB9D2"/>
<path d="M12.2878 28.1046H3.2682C3.15984 28.1046 3.07214 28.0167 3.07214 27.9085C3.07214 27.8002 3.15984 27.7124 3.2682 27.7124H12.2878C12.3961 27.7124 12.4838 27.8002 12.4838 27.9085C12.4838 28.0167 12.3961 28.1046 12.2878 28.1046Z" fill="#AFB9D2"/>
<path d="M9.41195 18.7584H3.2682C3.15984 18.7584 3.07214 18.6705 3.07214 18.5622C3.07214 18.454 3.15984 18.3662 3.2682 18.3662H9.41195C9.52023 18.3662 9.60803 18.4538 9.60803 18.5622C9.60803 18.6707 9.52023 18.7584 9.41195 18.7584Z" fill="#AFB9D2"/>
<path d="M9.41195 19.6729H3.2682C3.15984 19.6729 3.07214 19.5851 3.07214 19.4768C3.07214 19.3685 3.15984 19.2808 3.2682 19.2808H9.41195C9.52023 19.2808 9.60803 19.3684 9.60803 19.4768C9.60803 19.5853 9.52023 19.6729 9.41195 19.6729Z" fill="#AFB9D2"/>
<path d="M9.41195 20.5884H3.2682C3.15984 20.5884 3.07214 20.5006 3.07214 20.3923C3.07214 20.2841 3.15984 20.1963 3.2682 20.1963H9.41195C9.52023 20.1963 9.60803 20.2841 9.60803 20.3923C9.60803 20.5006 9.52023 20.5884 9.41195 20.5884Z" fill="#AFB9D2"/>
<path d="M24.4445 5.81741H18.3008C18.1923 5.81741 18.1047 5.72963 18.1047 5.62135C18.1047 5.51308 18.1923 5.42529 18.3008 5.42529H24.4445C24.5527 5.42529 24.6405 5.51308 24.6405 5.62135C24.6405 5.72963 24.5527 5.81741 24.4445 5.81741Z" fill="#AFB9D2"/>
<path d="M24.4445 6.79742H18.3008C18.1923 6.79742 18.1047 6.70963 18.1047 6.60136C18.1047 6.49308 18.1923 6.40527 18.3008 6.40527H24.4445C24.5527 6.40527 24.6405 6.4929 24.6405 6.60136C24.6405 6.70981 24.5527 6.79742 24.4445 6.79742Z" fill="#AFB9D2"/>
<path d="M24.4445 7.71292H18.3008C18.1923 7.71292 18.1047 7.62514 18.1047 7.51686C18.1047 7.40859 18.1923 7.3208 18.3008 7.3208H24.4445C24.5527 7.3208 24.6405 7.40841 24.6405 7.51686C24.6405 7.62531 24.5527 7.71292 24.4445 7.71292Z" fill="#AFB9D2"/>
</svg>
