<svg width="27" height="27" viewBox="0 0 27 27" fill="none" xmlns="http://www.w3.org/2000/svg">
<path d="M14.1368 0.824059C16.3911 0.824059 18.5887 1.44619 20.4916 2.6235L20.9309 1.92374C18.8954 0.664864 16.5464 0 14.1368 0C7.04343 0 1.27307 5.7268 1.27307 12.7648C1.27307 14.819 1.74978 16.781 2.69073 18.5957L3.42988 18.2193C2.55015 16.5217 2.10462 14.6868 2.10462 12.7648C2.10349 6.1813 7.502 0.824059 14.1368 0.824059Z" fill="#FFBD66"/>
<path d="M8.26196 24.1246C10.0129 25.0184 11.905 25.4909 13.8844 25.5286L13.9002 24.704C12.0484 24.668 10.2788 24.2264 8.64174 23.3911L8.26196 24.1246Z" fill="#FFBD66"/>
<path d="M25.9813 7.77832L25.2167 8.10065C25.8487 9.57721 26.1695 11.1466 26.1695 12.7655C26.1695 16.8402 24.1068 20.5937 20.652 22.806L21.102 23.4985C24.7955 21.1338 26.9999 17.1214 26.9999 12.7655C26.9999 11.0352 26.657 9.35726 25.9813 7.77832Z" fill="#FFBD66"/>
<path d="M14.1367 20.4229C13.3641 20.4229 12.6029 20.3104 11.8728 20.0882L11.6296 20.8763C12.4385 21.1226 13.282 21.2469 14.1367 21.2469C16.5906 21.2469 18.9293 20.1985 20.5522 18.3698L19.9286 17.8247C18.4634 19.4756 16.3525 20.4229 14.1367 20.4229Z" fill="#FFBD66"/>
<path d="M14.1366 4.28369C12.5217 4.28369 10.9493 4.73256 9.58948 5.58306L10.0322 6.28001C11.2594 5.51388 12.6787 5.10832 14.1372 5.10832C17.8658 5.10832 21.0576 7.74531 21.7271 11.3779L22.5444 11.2294C21.8019 7.20531 18.266 4.28369 14.1366 4.28369Z" fill="#FFBD66"/>
<path d="M6.6401 10.939L5.83349 10.7427C5.67081 11.4019 5.58862 12.082 5.58862 12.7649C5.58862 13.612 5.71446 14.4484 5.96216 15.2517L6.7563 15.0098C6.53297 14.2853 6.41959 13.5299 6.41959 12.7649C6.41959 12.1472 6.49385 11.5335 6.6401 10.939Z" fill="#FFBD66"/>
<path d="M0.246572 24.2466C-0.0821908 24.5729 -0.0821908 25.1016 0.246572 25.4279L1.37683 26.5495C1.70559 26.8752 2.23899 26.8752 2.56718 26.5495L4.94675 24.1881L2.62614 21.8853L0.246572 24.2466Z" fill="#2BA0BF"/>
<path d="M13.5998 9.01541C12.1045 9.21735 10.8547 10.3232 10.4573 11.7677C10.281 12.4084 10.2844 13.0232 10.4142 13.5908C10.4794 13.8743 10.4 14.1696 10.1932 14.3755L2.62537 21.8848L4.94599 24.1877L12.5138 16.6778C12.7207 16.473 13.0188 16.3937 13.3039 16.4578C13.8764 16.5872 14.496 16.59 15.1416 16.4157C16.5972 16.0213 17.7116 14.781 17.9151 13.2972C18.2598 10.7901 16.1268 8.67341 13.5998 9.01541Z" fill="#59C5EF"/>
<path d="M26.585 4.64277C24.9814 4.64277 23.6772 3.34845 23.6772 1.75714C23.6772 1.64352 23.5842 1.55127 23.4697 1.55127C23.3546 1.55127 23.2617 1.64352 23.2617 1.75714C23.2617 3.34845 21.9574 4.64277 20.3544 4.64277C20.2393 4.64277 20.1464 4.73501 20.1464 4.84864C20.1464 4.96283 20.2393 5.05508 20.3544 5.05508C21.9574 5.05508 23.2617 6.34939 23.2617 7.94014C23.2617 8.05432 23.3546 8.14658 23.4697 8.14658C23.5848 8.14658 23.6772 8.05432 23.6772 7.94014C23.6772 6.34939 24.9814 5.05508 26.585 5.05508C26.7001 5.05508 26.7925 4.96283 26.7925 4.84864C26.7925 4.73558 26.6995 4.64277 26.585 4.64277Z" fill="#F87670"/>
<path d="M10.24 7.86778C8.97997 7.86778 7.9557 6.85078 7.9557 5.60091C7.9557 5.48729 7.86275 5.39502 7.74768 5.39502C7.63261 5.39502 7.54021 5.48729 7.54021 5.60091C7.54021 6.85135 6.51538 7.86778 5.25531 7.86778C5.14081 7.86778 5.04785 7.96002 5.04785 8.0742C5.04785 8.18783 5.14081 8.28009 5.25531 8.28009C6.51538 8.28009 7.54021 9.29709 7.54021 10.547C7.54021 10.6612 7.63261 10.7528 7.74768 10.7528C7.86275 10.7528 7.9557 10.6612 7.9557 10.547C7.9557 9.29653 8.98053 8.28009 10.24 8.28009C10.3551 8.28009 10.4475 8.18783 10.4475 8.0742C10.4475 7.96002 10.3545 7.86778 10.24 7.86778Z" fill="#F87670"/>
<path d="M24.2359 14.9547C22.9764 14.9547 21.9515 13.9372 21.9515 12.6873C21.9515 12.5737 21.8592 12.4814 21.7441 12.4814C21.629 12.4814 21.5361 12.5737 21.5361 12.6873C21.5361 13.9378 20.5112 14.9547 19.2517 14.9547C19.1367 14.9547 19.0437 15.0464 19.0437 15.1606C19.0437 15.2742 19.1367 15.3665 19.2517 15.3665C20.5112 15.3665 21.5361 16.3835 21.5361 17.6334C21.5361 17.747 21.629 17.8392 21.7441 17.8392C21.8592 17.8392 21.9515 17.747 21.9515 17.6334C21.9515 16.3829 22.9764 15.3665 24.2359 15.3665C24.351 15.3665 24.4439 15.2742 24.4439 15.1606C24.4439 15.047 24.351 14.9547 24.2359 14.9547Z" fill="#F87670"/>
<path d="M20.0409 24.1149C18.7809 24.1149 17.7566 23.0973 17.7566 21.8475C17.7566 21.7338 17.6636 21.6416 17.5486 21.6416C17.4335 21.6416 17.3411 21.7338 17.3411 21.8475C17.3411 23.0979 16.3163 24.1149 15.0562 24.1149C14.9417 24.1149 14.8488 24.2072 14.8488 24.3208C14.8488 24.4344 14.9417 24.5267 15.0562 24.5267C16.3163 24.5267 17.3411 25.5442 17.3411 26.7941C17.3411 26.9077 17.4341 27 17.5486 27C17.6636 27 17.7566 26.9077 17.7566 26.7941C17.7566 25.5437 18.7814 24.5267 20.0409 24.5267C20.156 24.5267 20.2484 24.4344 20.2484 24.3208C20.2484 24.2072 20.1554 24.1149 20.0409 24.1149Z" fill="#F87670"/>
<path d="M12.4746 12.765C12.4746 11.8543 13.2189 11.1157 14.1366 11.1157C15.0543 11.1157 15.7979 11.8543 15.7979 12.765C15.7979 13.6757 15.0537 14.4142 14.1366 14.4142C13.2183 14.4142 12.4746 13.6757 12.4746 12.765Z" fill="#2BA0BF"/>
</svg>
