<svg width="30" height="30" viewBox="0 0 30 30" fill="none" xmlns="http://www.w3.org/2000/svg">
<path d="M23.5325 0H0V16.3637V23.1817V24.5456H5.5371V30H23.5325V0Z" fill="#EFF3F6"/>
<path d="M28.1754 7.59353C29.3874 8.65719 29.6013 10.327 28.6779 11.2366C28.3602 11.5488 27.9518 11.7294 27.5076 11.7825C26.479 11.9054 25.5819 12.358 24.8967 13.0331H24.8961L23.5324 11.6899L22.9387 11.1048L22.9462 11.0967C23.1704 10.8765 23.365 10.6311 23.5324 10.3664C23.8847 9.80882 24.1111 9.16376 24.2171 8.47032C24.2862 8.01287 24.4994 7.59697 24.8627 7.28744C25.7161 6.55987 27.1474 6.6914 28.1752 7.59353H28.1754Z" fill="#FF7979"/>
<path d="M25.3854 13.5148L23.9173 14.9617L23.5324 14.582L23.428 14.4797L22.4493 13.5148L21.4699 12.5507L20.9806 12.0687L22.4493 10.6226L22.9386 11.1046L23.5324 11.6896L24.896 13.0327L25.3854 13.5148Z" fill="#707487"/>
<path d="M22.4495 13.5144L23.4281 14.4793L16.0866 21.7106L13.1506 22.6747L14.1292 19.7825L21.4701 12.5503L22.4495 13.5144Z" fill="#5B6072"/>
<path d="M20.764 2.72705H2.76855V6.81802H20.764V2.72705Z" fill="#AFB9D2"/>
<path d="M15.0554 26.6748C15.0554 27.3811 14.4739 27.9545 13.7562 27.9545C13.0385 27.9545 12.4585 27.3811 12.4585 26.6748C12.4585 26.0337 13.3243 25.3056 13.7514 24.6299C14.1861 25.3172 15.0554 26.0243 15.0554 26.6748Z" fill="#86DCFD"/>
<path d="M14.5349 9.54541H9.68994V12.2727H14.5349V9.54541Z" fill="#D7DEED"/>
<path d="M7.61358 15H2.76855V17.7274H7.61358V15Z" fill="#D7DEED"/>
<path d="M7.61358 9.54541H2.76855V12.2727H7.61358V9.54541Z" fill="#D7DEED"/>
<path d="M5.5371 24.5454V29.9999C3.60394 28.0963 1.93241 26.449 0 24.5454H5.5371Z" fill="#DBDFE0"/>
<path d="M13.1507 18.4088H9.69C9.3077 18.4088 8.9978 18.1035 8.9978 17.727V14.9995C8.9978 14.623 9.3077 14.3179 9.69 14.3179H13.1507C13.5329 14.3179 13.8428 14.623 13.8428 14.9995C13.8428 15.3761 13.5329 15.6814 13.1507 15.6814H10.3822V17.045H13.1507C13.5329 17.045 13.8428 17.3504 13.8428 17.7269C13.8428 18.1034 13.5329 18.4088 13.1507 18.4088Z" fill="#D7DEED"/>
<path d="M18.6881 12.9542H16.6117C16.2295 12.9542 15.9196 12.649 15.9196 12.2725V9.54516C15.9196 9.16866 16.2295 8.86328 16.6117 8.86328H18.6881C19.0703 8.86328 19.3801 9.16866 19.3801 9.54516C19.3801 9.92167 19.0703 10.227 18.6881 10.227H17.3037V11.5906H18.6881C19.0703 11.5906 19.3801 11.8958 19.3801 12.2725C19.3801 12.6492 19.0703 12.9542 18.6881 12.9542Z" fill="#D7DEED"/>
<path d="M6.22879 21.136H2.76813C2.38593 21.136 2.07605 20.8307 2.07605 20.4543C2.07605 20.078 2.38593 19.7725 2.76813 19.7725H6.22879C6.61099 19.7725 6.92087 20.0778 6.92087 20.4543C6.92087 20.8308 6.61099 21.136 6.22879 21.136Z" fill="#D7DEED"/>
<path d="M11.0737 23.1814H2.76813C2.38593 23.1814 2.07605 22.8761 2.07605 22.4998C2.07605 22.1234 2.38593 21.8179 2.76813 21.8179H11.0737C11.4559 21.8179 11.7659 22.1232 11.7659 22.4998C11.7659 22.8763 11.4559 23.1814 11.0737 23.1814Z" fill="#D7DEED"/>
</svg>
