<svg width="28" height="28" viewBox="0 0 28 28" fill="none" xmlns="http://www.w3.org/2000/svg">
<path d="M0 20.7383V22.8544C0 23.5553 0.568251 24.1241 1.26968 24.1241H25.8167C26.5182 24.1241 27.0864 23.5553 27.0864 22.8544V20.7383H0Z" fill="#7A8E9B"/>
<path d="M17.2104 24.1245H9.87502L9.02856 27.0871H18.0574L17.2104 24.1245Z" fill="#525C6B"/>
<path d="M25.8167 0H1.26968C0.568251 0 0 0.568251 0 1.26968V20.738H27.0864V1.26968C27.0864 0.568251 26.5182 0 25.8167 0Z" fill="#E2E2E2"/>
<path d="M22.0076 26.2402H5.07861V27.0867H22.0076V26.2402Z" fill="#7A8E9B"/>
<path d="M13.543 23.0666C13.8937 23.0666 14.1779 22.7823 14.1779 22.4317C14.1779 22.0811 13.8937 21.7969 13.543 21.7969C13.1924 21.7969 12.9082 22.0811 12.9082 22.4317C12.9082 22.7823 13.1924 23.0666 13.543 23.0666Z" fill="#C6C6C6"/>
<path d="M23.9472 0V8.46451H19.5034V0H18.4453V9.52257H25.0053V0H23.9472Z" fill="#C6C6C6"/>
<path d="M18.4453 20.7384H19.5034V12.2739H23.9472V20.7384H25.0053V11.2158H18.4453V20.7384Z" fill="#C6C6C6"/>
<path d="M7.58262 8.46451H3.13875V0H2.08069V9.52257H8.64068V0H7.58262V8.46451Z" fill="#C6C6C6"/>
<path d="M2.08081 20.7384H3.13887V12.2739H7.58274V20.7384H8.6408V11.2158H2.08081V20.7384Z" fill="#C6C6C6"/>
<path d="M15.765 3.28027H11.3211V0H10.2631V4.33834H16.8231V0H15.765V3.28027Z" fill="#C6C6C6"/>
<path d="M10.2631 20.7387H11.3211V17.4589H15.765V20.7387H16.8231V16.4009H10.2631V20.7387Z" fill="#C6C6C6"/>
<path d="M10.2631 14.7083H16.8231V6.03223H10.2631V14.7083ZM11.3211 7.09029H15.765V13.6503H11.3211V7.09029Z" fill="#C6C6C6"/>
</svg>
