<svg width="29" height="21" viewBox="0 0 29 21" fill="none" xmlns="http://www.w3.org/2000/svg">
<path d="M8.94706 0H4.78125V1.79359H8.94706V0Z" fill="#AFB9D2"/>
<path d="M24.333 0H20.1672V1.79359H24.333V0Z" fill="#AFB9D2"/>
<path d="M25.5165 1.4624H24.3328H20.167H8.94719H4.78138H2.98255C1.326 1.4624 0 2.78373 0 4.4355V18.0264C0 19.6782 1.32553 20.9995 2.98255 20.9995C3.78735 20.9995 4.5452 20.6691 5.06592 20.1505C5.58665 19.6319 5.91815 18.8764 5.91815 18.0737V17.4601C5.91815 15.8083 7.24367 14.487 8.9007 14.487C8.9007 13.4961 9.7055 12.6934 10.6995 12.6934C11.694 12.6934 12.4988 13.4957 12.4988 14.487H16.0495C16.0495 13.4961 16.8543 12.6934 17.8484 12.6934C18.8429 12.6934 19.6472 13.4957 19.6472 14.487C20.452 14.487 21.2094 14.8174 21.7301 15.3365C22.2508 15.8556 22.5823 16.6106 22.5823 17.4128V18.0264C22.5823 19.6782 23.9078 20.9995 25.5649 20.9995C26.3697 20.9995 27.127 20.6691 27.6478 20.1505C28.1685 19.6314 28.5 18.8764 28.5 18.0737V4.43597C28.4516 2.7842 27.1261 1.4624 25.5165 1.4624Z" fill="#57606F"/>
<path d="M17.8001 12.6001C18.8195 12.6001 19.6464 13.4243 19.6464 14.4405C19.6464 15.4571 18.8195 16.2809 17.8001 16.2809C16.7803 16.2809 15.9539 15.4571 15.9539 14.4405C15.9534 13.4243 16.7803 12.6001 17.8001 12.6001Z" fill="#E3835A"/>
<path d="M24.9013 6.7959C25.5643 6.7959 26.085 7.31497 26.085 7.9754C26.085 8.6363 25.5643 9.15537 24.9013 9.15537C24.2387 9.15537 23.7175 8.6363 23.7175 7.9754C23.7175 7.31451 24.2387 6.7959 24.9013 6.7959Z" fill="#FFD24D"/>
<path d="M18.983 6.7959C19.646 6.7959 20.1668 7.31497 20.1668 7.9754C20.1668 8.6363 19.646 9.15537 18.983 9.15537C18.32 9.15537 17.7993 8.6363 17.7993 7.9754C17.7998 7.31451 18.3205 6.7959 18.983 6.7959Z" fill="#EA7E23"/>
<path d="M21.9657 9.72119C22.6287 9.72119 23.1494 10.2403 23.1494 10.9012C23.1494 11.5621 22.6287 12.0807 21.9657 12.0807C21.3032 12.0807 20.782 11.5616 20.782 10.9012C20.782 10.2403 21.3032 9.72119 21.9657 9.72119Z" fill="#80AF52"/>
<path d="M21.9657 3.82275C22.6287 3.82275 23.1494 4.34183 23.1494 5.00272C23.1494 5.66315 22.6287 6.18269 21.9657 6.18269C21.3032 6.18269 20.782 5.66362 20.782 5.00272C20.782 4.38863 21.3032 3.82275 21.9657 3.82275Z" fill="#F14742"/>
<path d="M10.6986 6.79584V9.15531H7.76396V12.0807H5.39651V9.15531H2.41443V6.79584H5.39651V3.82275H7.76396V6.79584H10.6986Z" fill="#D7DEED"/>
<path d="M15.4332 7.36182C15.7642 7.36182 16.0488 7.64499 16.0488 7.97543C16.0488 8.30588 15.7647 8.58906 15.4332 8.58906C15.1017 8.58906 14.8176 8.30588 14.8176 7.97543C14.8651 7.64499 15.1017 7.36182 15.4332 7.36182Z" fill="#D8F2F1"/>
<path d="M13.0665 7.36182C13.398 7.36182 13.6821 7.64499 13.6821 7.97543C13.6821 8.30588 13.398 8.58906 13.0665 8.58906C12.735 8.58906 12.4509 8.30588 12.4509 7.97543C12.4984 7.64499 12.735 7.36182 13.0665 7.36182Z" fill="#D8F2F1"/>
<path d="M10.6985 12.647C11.692 12.647 12.4978 13.4497 12.4978 14.4401C12.4978 15.4305 11.6925 16.2337 10.6985 16.2337C9.70493 16.2337 8.89966 15.431 8.89966 14.4401C8.89966 13.4497 9.70493 12.647 10.6985 12.647Z" fill="#C6613E"/>
</svg>
