<svg width="27" height="27" viewBox="0 0 27 27" fill="none" xmlns="http://www.w3.org/2000/svg">
<path d="M9.47121 21.1251C9.20504 22.6708 8.11359 23.9349 6.64338 24.4003C5.16392 24.8686 3.34301 24.5865 1.92505 25.0742C2.41291 23.6564 2.13075 21.8355 2.59911 20.356C3.06448 18.8858 4.32861 17.7943 5.87412 17.528L6.3829 17.1479L9.92228 20.6873L9.47121 21.1251Z" fill="#F4CC21"/>
<path d="M8.11714 18.8822L1.92505 25.0743C2.41277 23.6563 2.13061 21.8354 2.59911 20.3559C3.06448 18.8858 4.32856 17.7942 5.87405 17.5281L6.3829 17.1479L8.11714 18.8822Z" fill="#E2A817"/>
<path d="M10.8995 20.7752L9.89999 21.2506C9.77595 21.3096 9.63748 21.2909 9.54992 21.2034L8.20814 19.8616L7.13348 18.7869L5.79692 17.4504C5.70935 17.3628 5.69072 17.2243 5.74963 17.1003L6.2251 16.1008L6.66915 15.6567L11.3435 20.3311L10.8995 20.7752Z" fill="#2C3235"/>
<path d="M9.0063 17.994L7.67332 19.3269L5.79692 17.4505C5.70927 17.3629 5.69078 17.2243 5.74962 17.1002L6.22509 16.1008L6.6691 15.6567L9.0063 17.994Z" fill="#1B1F21"/>
<path d="M9.13551 12.3783C7.36059 10.6033 4.21487 10.7613 0.151607 14.8246L0.150963 14.8239C-0.0503211 15.0252 -0.0503211 15.3516 0.150963 15.5528C0.258062 15.6599 0.467948 15.717 0.701937 15.6461C4.92559 14.3659 6.43347 15.2172 6.43347 15.2172L9.20396 12.4467L9.13551 12.3783Z" fill="#A51E2B"/>
<path d="M14.6222 17.8643C16.3971 19.6393 16.2391 22.785 12.1759 26.8483L12.1765 26.8489C11.9752 27.0502 11.6489 27.0502 11.4476 26.8489C11.3405 26.7418 11.2835 26.5319 11.3544 26.2979C12.6346 22.0743 11.7833 20.5664 11.7833 20.5664L14.5538 17.7959L14.6222 17.8643Z" fill="#D32932"/>
<path d="M26.7243 5.07985C26.2204 7.90907 24.8741 11.5512 21.5228 14.9025C18.6295 17.7958 13.9982 20.1721 11.2188 20.8839C11.1135 20.9108 11.0095 20.8853 10.9403 20.8161L6.18407 16.0598C6.1148 15.9906 6.08932 15.8867 6.11623 15.7814C6.82799 13.002 9.20434 8.37058 12.0976 5.47731C15.4489 2.12603 19.091 0.779696 21.9203 0.275849C21.9203 0.275849 22.9591 0.196677 24.8812 2.11887C26.8179 4.05555 26.7243 5.07985 26.7243 5.07985Z" fill="#DDE7ED"/>
<path d="M24.8813 2.11838L8.56201 18.4376L6.18398 16.0596C6.11459 15.9902 6.08937 15.8862 6.11626 15.781C6.82801 13.0017 9.20438 8.37003 12.0975 5.4769C15.4488 2.12559 19.0909 0.77916 21.9202 0.275366C21.9202 0.275366 22.959 0.196107 24.8813 2.11838Z" fill="#B6CBD6"/>
<path d="M11.6019 16.8382C8.83766 19.6024 6.03017 21.9857 5.52235 21.4779C4.9952 20.9507 7.39777 18.1625 10.162 15.3983C10.5596 15.0007 11.2043 15.0007 11.6019 15.3983C11.9995 15.7959 11.9995 16.4406 11.6019 16.8382Z" fill="#D32932"/>
<path d="M11.6018 15.3983L5.52233 21.4778C4.99524 20.9507 7.39778 18.1625 10.162 15.3983C10.5596 15.0007 11.2041 15.0007 11.6018 15.3983Z" fill="#A51E2B"/>
<path d="M17.9455 13.4565C20.3768 13.4565 22.3476 11.4856 22.3476 9.05444C22.3476 6.62323 20.3768 4.65234 17.9455 4.65234C15.5143 4.65234 13.5435 6.62323 13.5435 9.05444C13.5435 11.4856 15.5143 13.4565 17.9455 13.4565Z" fill="white"/>
<path d="M21.0585 5.94168L14.8328 12.1674C13.1137 10.4483 13.1137 7.66079 14.8328 5.94168C16.5519 4.22257 19.3394 4.22257 21.0585 5.94168Z" fill="#E4EDF2"/>
<path d="M20.4167 11.5255C19.0519 12.8903 16.8393 12.8903 15.4745 11.5255C15.2003 11.2513 14.981 10.9424 14.817 10.6135C14.7046 10.3881 14.6181 10.1527 14.5579 9.91212C14.4822 9.61285 14.4467 9.30554 14.4519 8.99886C14.4612 8.38673 14.6311 7.77706 14.9606 7.23752C15.102 7.00464 15.2737 6.78475 15.4748 6.58369C16.8396 5.2189 19.0522 5.2189 20.4166 6.58337C20.618 6.78475 20.7897 7.00464 20.9312 7.2375C21.2607 7.77706 21.4303 8.38703 21.4398 8.99884C21.4445 9.30552 21.4096 9.61283 21.3339 9.91211C21.2734 10.1524 21.1866 10.3874 21.0745 10.6132C20.9102 10.9424 20.6912 11.251 20.4167 11.5255Z" fill="#6EB5E5"/>
<path d="M15.4745 11.5255C15.2003 11.2513 14.981 10.9424 14.817 10.6135C14.7046 10.3881 14.6181 10.1527 14.5579 9.91212C14.4822 9.61285 14.4467 9.30554 14.4519 8.99886C14.4612 8.38673 14.6311 7.77706 14.9606 7.23752C15.102 7.00464 15.2737 6.78474 15.4748 6.58369C16.8396 5.2189 19.0522 5.2189 20.4166 6.58337L15.4745 11.5255Z" fill="#57A4CE"/>
<path d="M26.7241 5.07974C26.7241 5.07974 26.3333 4.2518 24.5406 2.45906C22.7481 0.666595 21.9202 0.275739 21.9202 0.275739C23.8631 -0.0704578 25.423 -0.0196111 26.2426 0.0520194C26.6289 0.0861838 26.9137 0.371003 26.9476 0.756977C27.0192 1.57663 27.0703 3.13677 26.7241 5.07974Z" fill="#D32932"/>
<path d="M26.7274 0.27245L24.5407 2.45911L24.5405 2.45887C22.7481 0.666505 21.9202 0.275561 21.9202 0.275561C23.8631 -0.0704793 25.423 -0.019563 26.2428 0.051998C26.4359 0.0692887 26.6037 0.148774 26.7274 0.27245Z" fill="#A51E2B"/>
</svg>
