<svg width="30" height="30" viewBox="0 0 30 30" fill="none" xmlns="http://www.w3.org/2000/svg">
<path d="M12.2728 17.333V29.333H8.18188V19.5149V17.333H12.2728Z" fill="#AFB9D2"/>
<path d="M20.4545 12.6665V29.3331H16.3636V14.6666V12.6665H20.4545Z" fill="#AFB9D2"/>
<path d="M24.5457 10.6665V29.3331H20.4547V12.6665V10.6665H24.5457Z" fill="#D7DEED"/>
<path d="M16.3636 14.667V29.3336H12.2727V17.3336V14.667H16.3636Z" fill="#D7DEED"/>
<path d="M8.18143 19.5156H4.09058V29.3336H8.18143V19.5156Z" fill="#D7DEED"/>
<path d="M22.5001 0C20.2405 0 18.4092 1.79063 18.4092 4.00001C18.4092 6.2094 20.2405 8.00003 22.5001 8.00003C24.7597 8.00003 26.5911 6.2094 26.5911 4.00001C26.5911 1.79063 24.7597 0 22.5001 0Z" fill="#FCD884"/>
<path d="M22.429 3.55158V2.99961C22.215 3.01763 22.1078 3.10432 22.1078 3.25959C22.1078 3.33429 22.1345 3.3936 22.1882 3.4369C22.2415 3.48029 22.322 3.51825 22.429 3.55158ZM22.6444 4.92286C22.8797 4.9142 22.9976 4.83485 22.9976 4.68553C22.9976 4.6075 22.9656 4.5475 22.9007 4.50419C22.8368 4.46081 22.7515 4.42083 22.6444 4.38488V4.92286ZM21.3326 3.37628C21.3326 3.22092 21.3606 3.08288 21.4159 2.96164C21.4704 2.84101 21.5447 2.737 21.6381 2.65032C21.7308 2.56363 21.8412 2.49566 21.9681 2.44632C22.0948 2.39699 22.232 2.36497 22.3786 2.34957V1.89697H22.695V2.34957C22.8934 2.36759 23.0802 2.41089 23.254 2.47956C23.4286 2.54823 23.5799 2.61891 23.7081 2.6902L23.3781 3.30026C23.3686 3.28828 23.342 3.26895 23.2977 3.24157C23.2534 3.21489 23.1968 3.18558 23.1279 3.15418C23.059 3.12286 22.9827 3.09356 22.8989 3.06486C22.8151 3.03617 22.7298 3.01614 22.6446 3.00424V3.61421L22.7911 3.64955C22.9473 3.69154 23.0877 3.73755 23.2132 3.78689C23.338 3.83623 23.4443 3.89694 23.5316 3.97024C23.6189 4.04355 23.6858 4.13286 23.7335 4.23687C23.7811 4.34149 23.8044 4.46754 23.8044 4.61354C23.8044 4.78421 23.7736 4.92889 23.7131 5.04891C23.6518 5.16822 23.5698 5.2662 23.4676 5.34221C23.3653 5.41823 23.2474 5.47623 23.1144 5.51489C22.9814 5.55356 22.8417 5.57621 22.6951 5.58225V6.10221H22.3788V5.57752C22.1675 5.5595 21.9588 5.51822 21.7529 5.45217C21.5462 5.38622 21.3608 5.29953 21.1958 5.19219L21.5257 4.55082C21.538 4.56613 21.5707 4.5908 21.6247 4.62482C21.6778 4.65946 21.746 4.6955 21.8285 4.73277C21.911 4.77012 22.0044 4.80546 22.108 4.8401C22.2117 4.87474 22.3187 4.89941 22.4292 4.91411V4.31743L22.209 4.2548C22.059 4.2101 21.9294 4.16146 21.819 4.1095C21.7092 4.05684 21.6178 3.99683 21.5462 3.92746C21.4747 3.85879 21.4208 3.78007 21.386 3.69014C21.3506 3.60083 21.3326 3.49621 21.3326 3.37628Z" fill="#3C3B3D"/>
<path d="M17.0424 7.9689C17.0434 7.95683 17.0446 7.94484 17.0451 7.93277C17.0454 7.9214 17.0447 7.91029 17.0445 7.89901C17.0442 7.88851 17.0442 7.8781 17.0436 7.8676C17.0426 7.85641 17.0411 7.8453 17.0395 7.83428C17.0383 7.82378 17.0373 7.81319 17.0354 7.8027C17.0335 7.7922 17.0309 7.78188 17.0285 7.77147C17.0261 7.76062 17.0239 7.74977 17.0208 7.73893C17.0181 7.7286 17.0143 7.71872 17.0109 7.70857C17.0073 7.6979 17.0042 7.68732 17.0001 7.677C16.9957 7.66545 16.9902 7.65434 16.985 7.64314C16.981 7.63448 16.9777 7.62582 16.9733 7.61734C16.9531 7.57788 16.929 7.54053 16.9013 7.50572C16.8957 7.49872 16.8896 7.49233 16.8837 7.4856C16.8752 7.47571 16.8669 7.46574 16.8578 7.45629C16.8501 7.44842 16.8421 7.44142 16.8341 7.43399C16.826 7.42637 16.8181 7.41859 16.8097 7.41133C16.8011 7.40416 16.7923 7.39768 16.7834 7.39095C16.7746 7.38421 16.7662 7.3773 16.757 7.37109C16.7481 7.36488 16.7388 7.35946 16.7296 7.35377C16.7201 7.34782 16.7107 7.34152 16.7007 7.33601C16.6912 7.33059 16.6811 7.32604 16.6713 7.32114C16.6614 7.31615 16.6515 7.31099 16.6414 7.30653C16.6292 7.3012 16.6167 7.29682 16.6042 7.29227C16.5959 7.28921 16.5877 7.28563 16.5794 7.28292C16.5578 7.27583 16.5357 7.26979 16.5134 7.26481L14.6337 6.84772C14.2666 6.76628 13.9012 6.99118 13.818 7.35027C13.7345 7.70936 13.9648 8.06653 14.332 8.14797L14.6071 8.20902L5.0392 14.1023C4.72062 14.2985 4.62498 14.7102 4.82574 15.0217C4.95537 15.2229 5.17679 15.3332 5.40323 15.3332C5.52749 15.3332 5.6532 15.3 5.76601 15.2305L15.3343 9.33694L15.2718 9.60619C15.1884 9.96528 15.4186 10.3224 15.7859 10.4039C15.8366 10.4152 15.8873 10.4205 15.9373 10.4205C16.2486 10.4205 16.5297 10.2107 16.6016 9.90125L17.0284 8.06285C17.0333 8.04124 17.0372 8.01955 17.04 7.99768C17.0412 7.98806 17.0417 7.97853 17.0424 7.9689Z" fill="#E64C42"/>
<path d="M29.3182 29.9998H0.681818C0.305262 29.9998 0 29.7013 0 29.3332C0 28.9651 0.305262 28.6665 0.681818 28.6665H29.3182C29.6947 28.6665 30 28.965 30 29.3332C30 29.7013 29.6947 29.9998 29.3182 29.9998Z" fill="#323133"/>
</svg>
