<svg width="36" height="26" viewBox="0 0 36 26" fill="none" xmlns="http://www.w3.org/2000/svg">
<path d="M17.7593 22.1774C17.7593 22.1774 28.1735 17.4501 32.0871 15.5372L23.3304 5.271L17.7593 22.1774Z" fill="#F8AE76"/>
<path d="M25.3747 24.4767L24.0825 26L20.1637 22.7367L21.456 21.2129L25.3747 24.4767Z" fill="#0476AF"/>
<path d="M23.8589 18.3767L22.5669 19.9004L26.4865 23.1639L27.7785 21.6402L23.8589 18.3767Z" fill="#0476AF"/>
<path d="M26.2691 15.5408L24.9774 17.0645L28.8971 20.3271L30.1888 18.8034L26.2691 15.5408Z" fill="#0476AF"/>
<path d="M28.6704 12.7008L27.3779 14.2246L31.2967 17.4884L32.5891 15.9646L28.6704 12.7008Z" fill="#0476AF"/>
<path d="M26.4702 9.83875L21.9163 3.21447L10.0952 2.84863L6.11267 11.8876L15.3074 20.652L17.6633 20.9943C17.6695 21.0084 26.4702 9.83875 26.4702 9.83875Z" fill="#0476AF"/>
<path d="M21.4547 20.3472C21.6928 20.545 21.7232 20.8972 21.5234 21.1327L20.0961 22.8155C19.8962 23.0514 19.541 23.0818 19.3033 22.8839L12.3811 17.1192C12.143 16.921 12.1123 16.5694 12.3122 16.3337L13.7397 14.6506C13.9399 14.4144 14.2947 14.3844 14.5324 14.5826L21.4547 20.3472Z" fill="#0476AF"/>
<path d="M22.2842 21.0168C22.9979 21.6114 23.0904 22.6669 22.4904 23.3744C21.8907 24.0814 20.8251 24.1731 20.1118 23.5782C19.3976 22.9841 19.3052 21.9288 19.9051 21.2213C20.5055 20.5139 21.5701 20.4222 22.2842 21.0168Z" fill="#5BD3EF"/>
<path d="M23.8622 17.5088C24.1003 17.7069 24.1307 18.0587 23.9308 18.2947L22.5035 19.977C22.3036 20.2131 21.9485 20.2438 21.7105 20.0453L14.7886 14.2809C14.5505 14.0829 14.5198 13.731 14.7197 13.4954L16.1469 11.8122C16.3471 11.5764 16.7022 11.5458 16.9399 11.7443L23.8622 17.5088Z" fill="#0476AF"/>
<path d="M24.6914 18.178C25.4053 18.7725 25.4979 19.8279 24.8979 20.5354C24.2976 21.2428 23.2326 21.3343 22.5187 20.7394C21.805 20.1456 21.7122 19.0899 22.3125 18.3824C22.9126 17.675 23.9776 17.5834 24.6914 18.178Z" fill="#5BD3EF"/>
<path d="M26.2694 14.6708C26.5073 14.8687 26.5382 15.2206 26.3382 15.4565L24.9107 17.1389C24.7108 17.375 24.3558 17.4053 24.118 17.2074L17.1957 11.443C16.958 11.2448 16.9268 10.8931 17.1269 10.657L18.5544 8.97435C18.7543 8.73853 19.1093 8.70795 19.3471 8.90618L26.2694 14.6708Z" fill="#0476AF"/>
<path d="M27.0988 15.3395C27.8123 15.9342 27.9049 16.9896 27.3048 17.6973C26.7051 18.4047 25.6398 18.4958 24.9262 17.9016C24.2121 17.3073 24.1198 16.2516 24.7199 15.5442C25.3198 14.8365 26.3848 14.7451 27.0988 15.3395Z" fill="#5BD3EF"/>
<path d="M28.6765 11.832C28.9145 12.0305 28.9453 12.3822 28.7454 12.6183L27.3183 14.3009C27.1186 14.5366 26.7631 14.5671 26.5252 14.369L19.6032 8.60448C19.3649 8.40641 19.3345 8.05463 19.5343 7.81875L20.9617 6.13598C21.1618 5.90015 21.5169 5.86955 21.7547 6.06783L28.6765 11.832Z" fill="#0476AF"/>
<path d="M10.0951 2.84863H0V12.1089H10.0951V2.84863Z" fill="#0476AF"/>
<path d="M8.68958 3.10059C12.817 1.70672 17.351 -1.20721 21.4979 0.544595L26.0124 4.09904L22.886 7.01004L8.68958 3.10059Z" fill="#0476AF"/>
<path d="M36 13.6237L33.7211 14.843L32.0868 15.5367L26.4698 9.99412L24.597 7.36912L21.0618 5.88594C21.0618 5.88594 19.6998 10.858 17.2424 11.0322C16.2081 11.1046 15.6369 10.9306 15.3265 10.698C14.8964 10.3877 14.9515 9.97525 14.9515 9.97525L16.2288 7.13108L17.7575 3.71802L22.6141 1.79053C22.8981 1.68033 23.2115 1.67748 23.4956 1.78472L29.8752 4.19378L32.7663 3.5321L36 13.6237Z" fill="#F8AE76"/>
<path d="M14.0554 24.5038C13.36 24.4915 13.0168 24.1482 12.672 23.6524C12.1935 22.9593 12.3696 22.0134 13.0704 21.5392C13.0704 21.5392 17.2087 18.586 19.1214 17.7053C19.4641 17.5476 20.3034 17.0663 21.011 18.3455C21.3783 19.0081 21.3569 19.878 20.5795 20.406L14.0554 24.5038Z" fill="#FFC278"/>
<path d="M20.7081 18.8002C21.1212 19.5463 20.2608 20.1757 18.8605 20.9576L17.7593 19.2333C19.1578 17.9826 20.1236 17.7379 20.7081 18.8002Z" fill="#FFD19F"/>
<path d="M11.774 22.554C11.0786 22.5415 10.7349 22.198 10.3901 21.7027C9.91214 21.0094 10.0878 20.0635 10.7887 19.5895C10.7887 19.5895 14.9272 16.636 16.8399 15.7559C17.1823 15.5978 18.0216 15.1166 18.7293 16.3958C19.0965 17.0584 19.0754 17.9283 18.2982 18.4561L11.774 22.554Z" fill="#FFC278"/>
<path d="M18.4261 16.852C18.8391 17.5978 17.9785 18.2274 16.5783 19.0089L15.4771 17.2851C16.8761 16.0343 17.8414 15.7897 18.4261 16.852Z" fill="#FFD19F"/>
<path d="M10.0499 20.3833C9.3547 20.3707 9.01132 20.0273 8.66611 19.5316C8.18814 18.8388 8.36421 17.8928 9.0651 17.4187C9.0651 17.4187 13.2033 14.4654 15.1163 13.5846C15.4586 13.4269 16.2979 12.9458 17.0055 14.2247C17.3728 14.8873 17.3514 15.7576 16.5745 16.2854L10.0499 20.3833Z" fill="#FFC278"/>
<path d="M16.7025 14.6806C17.1154 15.4267 16.2549 16.0561 14.8548 16.8377L13.7535 15.1137C15.1522 13.8628 16.1175 13.6183 16.7025 14.6806Z" fill="#FFD19F"/>
<path d="M8.29097 18.0097C7.59567 17.9976 7.25229 17.654 6.90707 17.1581C6.42911 16.4653 6.60517 15.5194 7.30606 15.0452C7.30606 15.0452 11.444 12.0918 13.3572 11.2115C13.6996 11.0532 14.5386 10.5723 15.2463 11.8513C15.6138 12.514 15.5919 13.3839 14.8154 13.912L8.29097 18.0097Z" fill="#FFC278"/>
<path d="M14.9435 12.3064C15.3563 13.0524 14.4959 13.682 13.096 14.4637L11.9948 12.7395C13.3935 11.489 14.3587 11.2442 14.9435 12.3064Z" fill="#FFD19F"/>
<path d="M16.182 9.52018C15.9535 10.0134 15.6487 10.42 15.3265 10.6983C14.8964 10.388 14.9515 9.97552 14.9515 9.97552L16.2288 7.13135C16.6476 7.53747 16.6448 8.5332 16.182 9.52018Z" fill="#FFD19F"/>
<path d="M29.5062 12.5008C30.2199 13.0954 30.3121 14.151 29.7124 14.8581C29.1119 15.5659 28.0473 15.6574 27.3331 15.0628C26.6195 14.4682 26.527 13.4132 27.127 12.7055C27.7269 11.9982 28.7917 11.9068 29.5062 12.5008Z" fill="#5BD3EF"/>
<path d="M3.87559 2.84863H0V12.1089H3.87559V2.84863Z" fill="#495359"/>
</svg>
