<svg width="25" height="29" viewBox="0 0 25 29" fill="none" xmlns="http://www.w3.org/2000/svg">
<g filter="url(#filter0_d_4297_10191)">
<path d="M14.4875 1.71387C14.8798 -0.0447809 16.9999 -0.595897 18.1877 0.751953L23.511 6.79102C24.6331 8.06451 24.0745 10.1019 22.4905 10.5137L17.4543 11.8223H21.7532C23.0647 11.8223 24.1282 12.8934 24.1282 14.2148V15.2988C24.1281 16.6202 23.0647 17.6914 21.7532 17.6914C23.0647 17.6914 24.1282 18.7626 24.1282 20.084V21.168C24.1281 22.4893 23.0647 23.5605 21.7532 23.5605H14.8518C14.1726 23.5605 13.5619 23.2712 13.1292 22.8105V25.6074C13.1292 26.9288 12.0656 27.9999 10.7542 28H3.85278C2.54124 28 1.47778 26.9288 1.47778 25.6074V18.6543C1.47796 17.333 2.54135 16.2617 3.85278 16.2617H6.50024C5.96379 15.8319 5.58346 15.2361 5.41528 14.5732C4.63839 15.32 3.49943 15.6431 2.39282 15.3232C0.733635 14.8435 -0.225662 13.0995 0.250244 11.4277C0.567692 10.3128 1.44336 9.51104 2.48364 9.24316C1.74274 8.46049 1.42222 7.31394 1.7395 6.19922C2.21553 4.52734 3.94631 3.56045 5.60571 4.04004C6.7123 4.35987 7.50779 5.24197 7.77368 6.29004C8.55052 5.54349 9.68871 5.22036 10.7952 5.54004C12.0458 5.9015 12.8978 6.98129 13.0383 8.20703L14.4875 1.71387ZM12.6731 10.082C12.2517 10.8573 11.5304 11.4065 10.7043 11.6191C11.4455 12.4018 11.7668 13.5492 11.4495 14.6641C11.2623 15.3213 10.8794 15.8675 10.385 16.2617H10.7542C11.9976 16.2618 13.0159 17.2251 13.1184 18.4512C13.5517 17.9843 14.1674 17.6915 14.8518 17.6914C13.5404 17.6913 12.4779 16.6201 12.4778 15.2988V14.2148C12.4778 13.2911 12.9973 12.4906 13.7581 12.0918C13.1046 11.6797 12.6611 10.926 12.6731 10.082ZM6.90356 9.34375C6.51471 9.71752 6.0356 9.98606 5.51489 10.1201C5.88577 10.5119 6.15139 10.995 6.28442 11.5195C6.67326 11.1458 7.15339 10.8772 7.67407 10.7432C7.30309 10.3514 7.03663 9.86836 6.90356 9.34375Z" fill="#352F36"/>
</g>
<defs>
<filter id="filter0_d_4297_10191" x="0.000110492" y="0" width="24.2564" height="28.2566" filterUnits="userSpaceOnUse" color-interpolation-filters="sRGB">
<feFlood flood-opacity="0" result="BackgroundImageFix"/>
<feColorMatrix in="SourceAlpha" type="matrix" values="0 0 0 0 0 0 0 0 0 0 0 0 0 0 0 0 0 0 127 0" result="hardAlpha"/>
<feOffset dy="0.128307"/>
<feGaussianBlur stdDeviation="0.0641537"/>
<feComposite in2="hardAlpha" operator="out"/>
<feColorMatrix type="matrix" values="0 0 0 0 0 0 0 0 0 0 0 0 0 0 0 0 0 0 0.25 0"/>
<feBlend mode="normal" in2="BackgroundImageFix" result="effect1_dropShadow_4297_10191"/>
<feBlend mode="normal" in="SourceGraphic" in2="effect1_dropShadow_4297_10191" result="shape"/>
</filter>
</defs>
</svg>
