<svg width="24" height="32" viewBox="0 0 24 32" fill="none" xmlns="http://www.w3.org/2000/svg">
<path d="M13.0226 8.44259C15.075 6.72701 15.3225 3.70261 13.5759 1.68645C11.8298 -0.329099 8.75083 -0.572615 6.69943 1.14297C5.10683 2.47375 4.60703 4.59153 5.2755 6.41575L4.08704 9.69525L7.6338 9.05534C9.33885 9.91466 11.4732 9.73798 13.0226 8.44259Z" fill="#40C5FF"/>
<path d="M11.507 8.44259C9.45496 6.72701 9.20707 3.70261 10.9537 1.68645C12.6998 -0.329099 15.7788 -0.572615 17.8308 1.14297C19.4228 2.47375 19.9226 4.59153 19.2541 6.41575L20.4432 9.69525L16.8964 9.05534C15.1907 9.91466 13.0564 9.73798 11.507 8.44259Z" fill="#40C5FF"/>
<path d="M0.962402 16.4102C1.67014 17.2143 2.71542 17.7236 3.88232 17.7236C5.02381 17.7236 6.04856 17.2363 6.75537 16.4629C7.24482 17.0791 7.53662 17.8542 7.53662 18.6963V22.3574H0.13916V18.6963C0.13916 17.8302 0.447446 17.0345 0.962402 16.4102Z" fill="#23292A"/>
<path d="M6.69466 13.9719C6.69466 15.5361 5.40368 16.8044 3.81108 16.8044C2.21848 16.8044 0.92749 15.5361 0.92749 13.9719C0.92749 12.4074 2.21848 11.1392 3.81108 11.1392C5.40337 11.1392 6.69466 12.4074 6.69466 13.9719Z" fill="#23292A"/>
<path d="M2.79598 30.6106C2.79598 31.3609 2.14552 32.0002 1.38168 32.0002H1.35123C0.588015 32.0002 0 31.3609 0 30.6106V24.7836C0 24.0332 0.588015 23.4556 1.35123 23.4556H1.38168C2.14552 23.4556 2.79598 24.0332 2.79598 24.7836V30.6106Z" fill="#23292A"/>
<path d="M7.4554 30.6106C7.4554 31.3609 6.80495 32.0002 6.04111 32.0002H6.01066C5.24744 32.0002 4.65942 31.3609 4.65942 30.6106V24.7836C4.65942 24.0332 5.24744 23.4556 6.01066 23.4556H6.04111C6.80495 23.4556 7.4554 24.0332 7.4554 24.7836V30.6106Z" fill="#23292A"/>
<path d="M7.45537 22.8452H0.000244141V26.8122H7.45537V22.8452Z" fill="#23292A"/>
<path d="M17.4259 16.4102C18.1337 17.2143 19.1789 17.7236 20.3458 17.7236C21.4873 17.7236 22.5121 17.2363 23.2189 16.4629C23.7083 17.0791 24.0001 17.8542 24.0001 18.6963V22.3574H16.6027V18.6963C16.6027 17.8302 16.9109 17.0345 17.4259 16.4102Z" fill="#23292A"/>
<path d="M23.158 13.9719C23.158 15.5361 21.8671 16.8044 20.2745 16.8044C18.6819 16.8044 17.3909 15.5361 17.3909 13.9719C17.3909 12.4074 18.6819 11.1392 20.2745 11.1392C21.8667 11.1392 23.158 12.4074 23.158 13.9719Z" fill="#23292A"/>
<path d="M19.2594 30.6106C19.2594 31.3609 18.6089 32.0002 17.8451 32.0002H17.8146C17.0514 32.0002 16.4634 31.3609 16.4634 30.6106V24.7836C16.4634 24.0332 17.0514 23.4556 17.8146 23.4556H17.8451C18.6089 23.4556 19.2594 24.0332 19.2594 24.7836V30.6106Z" fill="#23292A"/>
<path d="M23.9188 30.6106C23.9188 31.3609 23.2683 32.0002 22.5045 32.0002H22.474C21.7108 32.0002 21.1228 31.3609 21.1228 30.6106V24.7836C21.1228 24.0332 21.7108 23.4556 22.474 23.4556H22.5045C23.2683 23.4556 23.9188 24.0332 23.9188 24.7836V30.6106Z" fill="#23292A"/>
<path d="M23.919 22.8452H16.4639V26.8122H23.919V22.8452Z" fill="#23292A"/>
<path d="M13.668 20.2768C13.668 20.8526 13.1931 21.3195 12.6069 21.3195H5.41024C4.82408 21.3195 4.34912 20.8526 4.34912 20.2768V20.2258C4.34912 19.65 4.82408 19.1831 5.41024 19.1831H12.6069C13.1931 19.1831 13.668 19.65 13.668 20.2258V20.2768Z" fill="#23292A"/>
<path d="M18.6381 20.2768C18.6381 20.8526 18.1632 21.3195 17.577 21.3195H10.3803C9.79417 21.3195 9.31921 20.8526 9.31921 20.2768V20.2258C9.31921 19.65 9.79417 19.1831 10.3803 19.1831H17.577C18.1632 19.1831 18.6381 19.65 18.6381 20.2258V20.2768Z" fill="#23292A"/>
<path d="M13.5446 17.1621C13.2408 17.1621 12.5441 17.351 12.5441 18.0861C12.5441 17.351 11.683 17.1621 11.3792 17.1621C10.4048 17.1621 9.90186 17.9378 9.90186 18.8948C9.90186 20.3049 12.0356 21.7788 12.5009 22.2353C12.9529 21.7913 15.0999 20.2726 15.0999 18.8948C15.1003 17.9378 14.5191 17.1621 13.5446 17.1621Z" fill="#FF5A58"/>
</svg>
