<svg width="26" height="32" viewBox="0 0 26 32" fill="none" xmlns="http://www.w3.org/2000/svg">
<path d="M4.75269 18.6408V9.7476C4.75269 4.79347 8.82432 0.777344 13.8469 0.777344C18.8695 0.777344 22.9411 4.79347 22.9411 9.7476V18.6409L4.75269 18.6408Z" fill="#666666"/>
<path d="M20.0756 10.2977C20.0756 13.6949 17.2871 16.4452 13.8502 16.4452C10.4063 16.4452 7.6178 13.6948 7.6178 10.2977C7.6178 6.90765 10.4063 4.15723 13.8502 4.15723C17.2871 4.15723 20.0756 6.90765 20.0756 10.2977Z" fill="#FFC776"/>
<path d="M13.9687 7.2721C13.9358 7.2721 13.9028 7.27113 13.8696 7.26911C13.5049 7.24733 13.1706 7.08663 12.9283 6.81685C12.6863 6.54683 12.5651 6.2001 12.5872 5.84037C12.6003 5.62885 12.7833 5.46911 12.9993 5.4804C13.214 5.49315 13.3775 5.67515 13.3642 5.88692C13.3548 6.0419 13.4071 6.19139 13.5112 6.30764C13.6157 6.42389 13.7596 6.49311 13.9167 6.50263C14.3743 6.52538 14.7724 6.18413 14.8003 5.73138C14.8188 5.4316 14.7177 5.14262 14.5159 4.91762C14.3139 4.69286 14.0354 4.55886 13.7315 4.54063C13.5168 4.52788 13.3533 4.34588 13.3665 4.13411C13.3794 3.92258 13.5635 3.7614 13.7787 3.77414C14.2904 3.80464 14.7593 4.03012 15.0989 4.40865C15.4386 4.78717 15.6086 5.27339 15.5775 5.77785C15.5254 6.6209 14.8135 7.2721 13.9687 7.2721Z" fill="#B77748"/>
<path d="M20.0756 10.2961C20.0756 13.6958 17.2882 16.4452 13.8519 16.4452C11.8016 16.4452 9.98481 15.4724 8.84802 13.9671C9.88617 14.7299 11.1735 15.1805 12.5645 15.1805C16.0007 15.1805 18.7934 12.426 18.7934 9.03136C18.7934 7.65917 18.3315 6.38435 17.558 5.36035C19.0842 6.48164 20.0756 8.27366 20.0756 10.2961Z" fill="#F4B25B"/>
<path d="M13.8447 12.2704C13.2872 12.2704 12.7295 12.0611 12.3052 11.6424C12.1532 11.4924 12.1532 11.2494 12.3052 11.0994C12.4572 10.9494 12.7036 10.9494 12.8557 11.0994C13.4017 11.6374 14.2897 11.6363 14.8367 11.0978C14.9888 10.9479 15.2351 10.9479 15.3873 11.0978C15.5393 11.2478 15.5393 11.4908 15.3873 11.6408C14.962 12.0604 14.4033 12.2704 13.8447 12.2704Z" fill="#B77748"/>
<path d="M16.5081 9.49775C16.2931 9.49775 16.1188 9.32576 16.1188 9.11374V8.60178C16.1188 8.38977 16.2931 8.21777 16.5081 8.21777C16.723 8.21777 16.8974 8.38977 16.8974 8.60178V9.11374C16.8974 9.32576 16.723 9.49775 16.5081 9.49775Z" fill="#B77748"/>
<path d="M11.1851 9.49775C10.9702 9.49775 10.7958 9.32576 10.7958 9.11374V8.60178C10.7958 8.38977 10.9702 8.21777 11.1851 8.21777C11.4 8.21777 11.5744 8.38977 11.5744 8.60178V9.11374C11.5743 9.32576 11.4 9.49775 11.1851 9.49775Z" fill="#B77748"/>
<path d="M18.305 11.0736C18.305 11.5088 17.9 11.8621 17.407 11.8621C16.9086 11.8621 16.509 11.5088 16.509 11.0736C16.509 10.6384 16.9086 10.2852 17.407 10.2852C17.9001 10.2851 18.305 10.6384 18.305 11.0736Z" fill="#FF4848"/>
<path d="M11.1842 11.0736C11.1842 11.5088 10.7793 11.8621 10.2863 11.8621C9.78785 11.8621 9.38831 11.5088 9.38831 11.0736C9.38831 10.6384 9.78785 10.2852 10.2863 10.2852C10.7794 10.2851 11.1842 10.6384 11.1842 11.0736Z" fill="#FF4848"/>
<path d="M22.9411 9.74515V18.6386H4.75269V17.2203H21.5033V8.32689C21.5033 6.21234 20.761 4.26672 19.5152 2.73584C19.7851 2.94059 20.0396 3.16591 20.2783 3.4014C21.9238 5.02957 22.9411 7.27216 22.9411 9.74515Z" fill="#595857"/>
<path d="M4.75269 10.3883V23.0295C4.75269 27.9857 8.82219 31.9998 13.8469 31.9998C15.238 31.9998 16.5617 31.6926 17.74 31.1345V22.2666C17.74 18.6723 15.5235 16.7268 12.1443 15.3956L7.49859 13.5626C6.10229 13.0096 5.11076 11.8064 4.8357 10.3882L4.75269 10.3883Z" fill="#66CCFF"/>
<path d="M17.7377 22.2646V31.1325C16.5593 31.6906 15.2357 31.9978 13.8446 31.9978C13.6318 31.9978 13.4241 31.9928 13.2165 31.9774C11.5451 31.8647 9.9983 31.3066 8.69531 30.4209V23.5448C8.69531 20.3345 10.4706 17.4161 13.258 15.8853C16.004 17.1958 17.7377 19.0851 17.7377 22.2646Z" fill="#42C1F4"/>
<path d="M22.9409 10.3882V23.0294C22.9409 27.9856 18.8714 31.9997 13.8467 31.9997C12.4556 31.9997 11.132 31.6925 9.95361 31.1344V23.5466C9.95361 19.9523 12.1701 16.7268 15.5492 15.3956L20.1949 13.5626C21.5912 13.0096 22.5827 11.8064 22.8578 10.3882H22.9409Z" fill="#66CCFF"/>
<path d="M22.9409 10.3883V23.0295C22.9409 27.9857 18.8714 31.9998 13.8467 31.9998C12.4556 31.9998 11.132 31.6926 9.95361 31.1345V30.2487C10.7374 30.4688 11.5576 30.5814 12.4088 30.5814C17.4336 30.5814 21.5031 26.5673 21.5031 21.6112V12.7536C22.2038 12.1341 22.6814 11.3046 22.8579 10.3882L22.9409 10.3883Z" fill="#42C1F4"/>
<path d="M25.9999 2.19777C25.9999 2.76095 25.7817 3.32414 25.351 3.74914L22.7248 6.33951C22.4207 6.63945 21.9278 6.63945 21.6237 6.33951L19.0857 3.83602C18.1704 2.93327 18.1238 1.40676 19.0889 0.556045C19.5116 0.183491 20.0433 0.00124684 20.5704 0.00124684C21.1413 0.00124684 21.7123 0.211165 22.1483 0.64124L22.1743 0.66681L22.2003 0.64124C23.0671 -0.213747 24.4791 -0.213747 25.3511 0.64124C25.7817 1.07139 25.9999 1.63458 25.9999 2.19777Z" fill="#FF4848"/>
<path d="M26.0001 2.19777C26.0001 2.76096 25.782 3.32415 25.3513 3.74914L22.7247 6.33984C22.4184 6.64196 21.9305 6.64196 21.6243 6.33984L20.6796 5.40797C20.9859 5.7101 21.479 5.7101 21.78 5.40797L24.4065 2.81727C24.8374 2.39236 25.0554 1.8291 25.0554 1.26591C25.0554 0.917799 24.9724 0.564443 24.8062 0.24707C25.0034 0.349446 25.1852 0.47748 25.3513 0.641249C25.782 1.0714 26.0001 1.63459 26.0001 2.19777Z" fill="#F91C1C"/>
<path d="M7.6178 20.1085C7.6178 20.6717 7.39967 21.2348 6.96896 21.6598L4.34271 24.2502C4.03862 24.5502 3.54568 24.5502 3.24158 24.2502L0.703583 21.7467C-0.211639 20.844 -0.258258 19.3175 0.706855 18.4668C1.12954 18.0941 1.66117 17.912 2.1883 17.912C2.75919 17.912 3.33024 18.1219 3.76618 18.5519L3.79219 18.5775L3.8182 18.5519C4.685 17.6969 6.09701 17.6969 6.96905 18.5519C7.39967 18.9821 7.6178 19.5453 7.6178 20.1085Z" fill="#FF4848"/>
<path d="M7.61779 20.1085C7.61779 20.6717 7.39966 21.2349 6.96896 21.6599L4.34238 24.2506C4.03608 24.5527 3.54821 24.5527 3.24199 24.2506L2.29724 23.3187C2.60354 23.6208 3.09665 23.6208 3.39763 23.3187L6.02421 20.728C6.45508 20.3031 6.67304 19.7398 6.67304 19.1766C6.67304 18.8284 6.59003 18.4752 6.42391 18.1577C6.62111 18.2601 6.80284 18.3881 6.96896 18.552C7.39966 18.9821 7.61779 19.5453 7.61779 20.1085Z" fill="#F91C1C"/>
<path d="M23.5394 26.5668C23.3023 27.0792 22.8668 27.5022 22.2961 27.7124L18.8165 28.9934C18.4136 29.1416 17.9652 28.9398 17.8149 28.5424L16.5598 25.2255C16.1072 24.0294 16.7073 22.6215 17.9434 22.2429C18.4848 22.0771 19.0451 22.1291 19.5247 22.345C20.044 22.5788 20.4751 23.0036 20.6907 23.5734L20.7036 23.6074L20.738 23.5947C21.8865 23.1719 23.171 23.7502 23.6044 24.8851C23.8151 25.4528 23.7764 26.0545 23.5394 26.5668Z" fill="#FF4848"/>
<path d="M23.5392 26.5667C23.3022 27.0791 22.8667 27.502 22.2959 27.7123L18.816 28.9935C18.4101 29.1429 17.9664 28.943 17.815 28.5428L17.3478 27.3082C17.4993 27.7085 17.9479 27.9104 18.3488 27.7588L21.8288 26.4777C22.3997 26.2676 22.835 25.8445 23.072 25.3321C23.2186 25.0154 23.2918 24.66 23.2743 24.3032C23.4106 24.4772 23.522 24.668 23.6042 24.885C23.8149 25.4527 23.7762 26.0543 23.5392 26.5667Z" fill="#F91C1C"/>
</svg>
