<svg width="30" height="29" viewBox="0 0 30 29" fill="none" xmlns="http://www.w3.org/2000/svg">
<path d="M25.7787 27.4195H4.22156V12.245L15.0001 1.28027L25.7787 12.245V27.4195Z" fill="#DFEBFA"/>
<path d="M29.8279 14.7836L15.4153 0.174341C15.1859 -0.0581136 14.8141 -0.0581136 14.5847 0.174341L0.171995 14.7836C-0.0573317 15.016 -0.0573317 15.393 0.171995 15.6255L0.799154 16.2612C1.02848 16.4936 1.4004 16.4936 1.62973 16.2612L14.5847 3.12956C14.814 2.89711 15.1859 2.89711 15.4153 3.12956L28.3702 16.2612C28.5995 16.4936 28.9714 16.4936 29.2008 16.2612L29.8279 15.6255C30.0573 15.393 30.0573 15.0161 29.8279 14.7836Z" fill="#FF656F"/>
<path d="M13.6625 14.3501H8.00233C7.7879 14.3501 7.61414 14.5263 7.61414 14.7436V27.4197H14.0507V14.7436C14.0507 14.5263 13.8769 14.3501 13.6625 14.3501Z" fill="#AB6B51"/>
<path d="M22.01 14.3501H16.7509C16.5433 14.3501 16.3751 14.5206 16.3751 14.731V23.4491C16.3751 23.6594 16.5433 23.8299 16.7509 23.8299H22.01C22.2175 23.8299 22.3857 23.6594 22.3857 23.4491V14.731C22.3857 14.5206 22.2175 14.3501 22.01 14.3501Z" fill="#60B8FE"/>
<path d="M25.4694 10.3658L21.7185 6.56377V3.03223H25.4694V10.3658Z" fill="#695D67"/>
<path d="M26.9811 29.0001H3.01897C2.58846 29.0001 2.2395 28.6464 2.2395 28.21C2.2395 27.7736 2.58846 27.4199 3.01897 27.4199H26.9811C27.4116 27.4199 27.7606 27.7736 27.7606 28.21C27.7606 28.6464 27.4116 29.0001 26.9811 29.0001Z" fill="#43CB8E"/>
<path d="M25.9043 3.03183H21.2841C21.1232 3.03183 20.9928 2.89962 20.9928 2.73655V1.2777C20.9928 1.11463 21.1232 0.982422 21.2841 0.982422H25.9043C26.0652 0.982422 26.1956 1.11463 26.1956 1.2777V2.73655C26.1956 2.89962 26.0652 3.03183 25.9043 3.03183Z" fill="#7B6C79"/>
<path d="M12.6623 21.3767C12.93 21.3767 13.147 21.1567 13.147 20.8854C13.147 20.614 12.93 20.394 12.6623 20.394C12.3946 20.394 12.1776 20.614 12.1776 20.8854C12.1776 21.1567 12.3946 21.3767 12.6623 21.3767Z" fill="#DFEBFA"/>
</svg>
