<svg width="30" height="30" viewBox="0 0 30 30" fill="none" xmlns="http://www.w3.org/2000/svg">
<path d="M29.3722 14.0618L28.1825 14.9315L11.7082 26.9694C10.6128 25.5804 8.55444 25.3084 7.11226 26.3597L5.68312 24.5464L6.05987 24.2701C6.29104 24.1011 6.43227 23.8537 6.46613 23.5943C6.50482 23.3348 6.44049 23.0628 6.26493 22.8402C5.90995 22.3949 5.24205 22.3087 4.78019 22.6464L4.40344 22.9184L2.70881 20.7711L3.08555 20.4949C3.31672 20.3258 3.45359 20.0785 3.4918 19.819C3.53049 19.5596 3.46617 19.2876 3.29061 19.0649C2.93563 18.6159 2.67544 18.3522 2.21358 18.6904L2.65319 16.2026L0.941622 16.8724L0.179907 17.5567L0 17.3298C0.997243 16.6004 1.43783 15.4299 1.25356 14.3213C1.17667 13.8187 0.966776 13.3319 0.628719 12.9034L18.2967 0C19.3877 1.38899 21.4461 1.66103 22.8882 0.606008L24.3174 2.41933L23.6069 2.9387C23.3757 3.10778 23.2389 3.35511 23.2007 3.61456C23.162 3.87028 23.2263 4.14604 23.4018 4.36868C23.7568 4.81771 24.4204 4.90434 24.8866 4.56664L25.597 4.04729L27.2917 6.19831L26.5812 6.71348C26.3501 6.88257 26.2132 7.1299 26.1745 7.38934C26.1358 7.64879 26.2001 7.92081 26.3757 8.14346C26.7307 8.59248 27.3942 8.68332 27.8648 8.34143L28.5709 7.82207L30 9.63959C28.5593 10.6909 28.2812 12.6728 29.3722 14.0618Z" fill="#5BB0D6"/>
<path d="M11.4573 24.0816C11.4128 24.0816 11.3678 24.0783 11.3233 24.0723C11.0656 24.0388 10.8373 23.9102 10.6811 23.7113L3.50982 14.6069C3.35361 14.4085 3.28638 14.1625 3.32169 13.9147C3.35651 13.6665 3.48999 13.4466 3.6965 13.2962L17.8654 2.94345C18.0714 2.793 18.3258 2.72827 18.5841 2.76227C18.8418 2.79581 19.0701 2.92436 19.2263 3.12325L26.3976 12.2276C26.5538 12.4261 26.621 12.672 26.5857 12.9198C26.5509 13.1681 26.4174 13.3879 26.2114 13.5384L12.042 23.8916C11.8718 24.0159 11.6682 24.0816 11.4573 24.0816ZM18.4525 3.68919L4.28315 14.0414L11.4539 23.1463L25.6223 12.7945L18.4525 3.68919ZM25.6238 12.794L25.9173 13.1667L25.6242 12.7936L25.6238 12.794Z" fill="#3B8EB2"/>
<path d="M10.7739 18.7167L10.2971 19.0656L8.39207 16.6472L7.53315 17.2746L7.22266 16.8801L9.41785 15.2764L9.72881 15.6709L8.86989 16.2988L10.7739 18.7167Z" fill="#3B8EB2"/>
<path d="M12.0807 17.7634L9.86523 14.9504L10.3426 14.6016L12.5581 17.4145L12.0807 17.7634Z" fill="#3B8EB2"/>
<path d="M12.635 13.4852C12.3608 13.6855 12.2186 13.9366 12.209 14.2384C12.1993 14.5403 12.3241 14.8565 12.5838 15.1858C12.8551 15.531 13.1366 15.7364 13.4272 15.8035C13.7179 15.8701 14.0056 15.7984 14.2924 15.5892C14.4162 15.4989 14.5265 15.3996 14.6237 15.2907C14.7214 15.1826 14.8177 15.0638 14.9139 14.9348L15.2244 15.3293C15.0609 15.5799 14.8341 15.8114 14.5444 16.0238C14.1164 16.3359 13.6898 16.4514 13.2647 16.369C12.8396 16.2865 12.444 16.0136 12.0779 15.5492C11.8477 15.2571 11.7021 14.9599 11.6402 14.6595C11.5788 14.3591 11.6078 14.074 11.7258 13.8034C11.8443 13.5332 12.0455 13.2938 12.3289 13.0865C12.6273 12.8685 12.9504 12.7279 13.2986 12.6636L13.4282 13.1722C13.2942 13.1992 13.1588 13.236 13.022 13.2817C12.8851 13.3287 12.7559 13.3963 12.635 13.4852Z" fill="#3B8EB2"/>
<path d="M18.1509 13.3282L17.5981 13.7325L15.6776 13.1288L15.5702 13.5555L16.3992 14.6082L15.9218 14.957L13.7063 12.1441L14.1837 11.7952L15.2418 13.1381C15.251 12.8889 15.2641 12.6462 15.281 12.4092L15.3623 10.9344L15.9058 10.5376C15.8502 11.4878 15.8086 12.166 15.7806 12.5726L18.1509 13.3282Z" fill="#3B8EB2"/>
<path d="M20.1881 11.8393L18.5361 13.0462L16.3206 10.2332L17.9726 9.02637L18.2788 9.41531L17.104 10.2733L17.7071 11.0391L18.8079 10.2346L19.1111 10.6194L18.0104 11.4233L18.7058 12.3065L19.8806 11.4485L20.1881 11.8393Z" fill="#3B8EB2"/>
<path d="M21.8281 10.6415L21.3508 10.9899L19.4458 8.57153L18.5873 9.19941L18.2764 8.80489L20.4716 7.20117L20.7825 7.59569L19.9236 8.22359L21.8281 10.6415Z" fill="#3B8EB2"/>
<g opacity="0.31">
<path d="M0.672852 16.6646C2.23981 17.2901 3.78791 17.9921 5.31037 18.6898C7.19846 19.5548 9.00483 20.5856 10.6646 21.8125C11.9588 22.7693 13.1524 23.9924 13.8929 25.374L28.1831 14.9318C27.199 14.6803 26.386 14.0128 25.9623 13.1348C25.7998 12.805 25.6973 12.4464 25.6629 12.0672C25.6629 12.0672 25.646 11.8571 25.646 11.75H2.54788C2.54788 12.7929 2.04297 13.724 1.25563 14.3216C1.39007 15.1358 1.18501 15.9822 0.672852 16.6646Z" fill="#1D1D1D"/>
</g>
<path d="M27.0905 18.0863C26.898 18.2675 26.7781 18.5232 26.7781 18.8032C26.7781 19.3677 27.253 19.8251 27.8392 19.8251H28.729V22.5244H27.8392C27.548 22.5244 27.283 22.6399 27.0905 22.8253C26.898 23.0065 26.7781 23.2622 26.7781 23.5422C26.7781 24.1067 27.253 24.5641 27.8392 24.5641H28.729V26.8432C26.9188 26.8432 25.4515 28.2569 25.4515 29.9999H3.27755C3.27755 28.2564 1.80974 26.8432 0 26.8432V24.5641H0.470567C0.761712 24.5641 1.02674 24.4486 1.21923 24.2632C1.41171 24.0778 1.53165 23.8221 1.53165 23.5422C1.53165 22.9818 1.05237 22.5244 0.470567 22.5244H0V19.8251H0.470567C0.761712 19.8251 1.02674 19.7096 1.21923 19.5242C1.41171 19.3388 1.53165 19.0831 1.53165 18.8032C1.53165 18.2428 1.05237 17.7854 0.470567 17.7854H0V15.5063C1.81022 15.5063 3.27755 14.0926 3.27755 12.3496H25.4515C25.4515 14.0931 26.9193 15.5063 28.729 15.5063V17.7854H27.8392C27.5485 17.7854 27.283 17.9005 27.0905 18.0863Z" fill="#68C1F2"/>
<path d="M23.2602 27.7442H5.47528C4.9399 27.7442 4.50415 27.3245 4.50415 26.8084V15.3806C4.50415 14.865 4.93941 14.4453 5.47528 14.4453H23.2602C23.7956 14.4453 24.2314 14.8645 24.2314 15.3806V26.8084C24.2314 27.3245 23.7956 27.7442 23.2602 27.7442ZM23.2602 15.3806H5.47528V26.8084L23.2593 26.8089L23.2602 15.3806Z" fill="#3B8EB2"/>
<path d="M7.73729 22.9482H7.13807V19.9126H6.06006V19.4175H8.8153V19.9126H7.73729V22.9482Z" fill="#3B8EB2"/>
<path d="M9.37695 22.9482V19.418H9.97618V22.9482H9.37695Z" fill="#3B8EB2"/>
<path d="M12.504 19.8628C12.1597 19.8628 11.8888 19.9802 11.6915 20.2154C11.4942 20.4507 11.3955 20.7749 11.3955 21.1885C11.3955 21.6217 11.4903 21.9491 11.6804 22.1713C11.87 22.3935 12.1447 22.5043 12.504 22.5043C12.6593 22.5043 12.8097 22.4899 12.9552 22.4596C13.1008 22.4303 13.2522 22.3916 13.4089 22.345V22.8402C13.1211 22.945 12.7952 22.9971 12.4315 22.9971C11.8951 22.9971 11.4826 22.8406 11.1953 22.5276C10.9076 22.2146 10.7639 21.7665 10.7639 21.1838C10.7639 20.8168 10.8336 20.4954 10.9733 20.2201C11.1126 19.9448 11.3148 19.7343 11.5788 19.588C11.8429 19.4418 12.1534 19.3682 12.5089 19.3682C12.8832 19.3682 13.2295 19.4436 13.5467 19.595L13.3315 20.0752C13.2077 20.0189 13.0771 19.9695 12.9393 19.9267C12.801 19.8843 12.6559 19.8628 12.504 19.8628Z" fill="#3B8EB2"/>
<path d="M16.9968 22.9482H16.3023L15.1517 21.3496L14.7982 21.6272V22.9482H14.199V19.418H14.7982V21.1032C14.9621 20.9104 15.1251 20.724 15.2871 20.5456L16.2776 19.418H16.9595C16.3197 20.1427 15.8602 20.6584 15.5831 20.9658L16.9968 22.9482Z" fill="#3B8EB2"/>
<path d="M19.554 22.9482H17.4802V19.418H19.554V19.9057H18.0794V20.867H19.4607V21.3501H18.0794V22.4587H19.554V22.9482Z" fill="#3B8EB2"/>
<path d="M21.6125 22.9482H21.0133V19.9126H19.9358V19.4175H22.691V19.9126H21.613V22.9482H21.6125Z" fill="#3B8EB2"/>
</svg>
