<svg width="27" height="30" viewBox="0 0 27 30" fill="none" xmlns="http://www.w3.org/2000/svg">
<path d="M18.03 7.35066C15.239 5.91271 11.8178 5.82574 8.83867 7.42234L4.30054 20.2204C4.74617 21.301 5.37546 22.2993 6.16227 23.166L15.0231 26.3088C16.0212 26.1523 16.984 25.8429 17.8807 25.3984L19.403 18.1273L18.03 7.35066Z" fill="#7FFFFF"/>
<path d="M9.9849 3.05258C9.18332 4.85124 7.39708 6.10453 5.32106 6.10453C3.24442 6.10453 1.45825 4.85124 0.657227 3.05258C1.45825 1.2533 3.24442 0 5.32106 0C7.39708 7.04773e-05 9.18332 1.25337 9.9849 3.05258Z" fill="#05CB6B"/>
<path d="M18.0301 7.35107C22.2104 9.50218 24.4276 14.4198 23.0734 19.1467C22.2588 21.9902 20.3162 24.1927 17.8807 25.3988C16.0029 24.2891 15.7258 21.6148 17.3848 20.1527C17.958 19.6485 18.2508 18.8934 18.1398 18.1329C18.0801 17.6791 18.0753 16.471 17.2444 15.2542C15.5303 12.7441 15.9194 9.39717 18.0301 7.35107Z" fill="#05CB6B"/>
<path d="M15.023 26.3092C11.8439 26.8095 8.47113 25.713 6.16223 23.167V23.1664C7.51154 21.1519 10.3988 21.0379 11.891 22.925C12.2103 23.3289 12.6501 23.6102 13.1453 23.7374C14.3054 24.031 15.0821 25.1291 15.023 26.3092Z" fill="#05CB6B"/>
<path d="M8.83877 7.42285C11.0144 9.14849 11.024 12.4272 8.97568 14.1892C8.3246 14.7502 7.93795 15.5644 7.94742 16.43C7.97451 18.4902 6.33842 20.1917 4.30063 20.2209C2.3235 15.4316 4.26567 9.87081 8.83877 7.42285Z" fill="#05CB6B"/>
<path d="M14.1241 2.69104C14.0596 2.68815 11.148 2.60477 11.142 2.60477H7.25714L6.68016 1.82262C6.53391 1.62437 6.25639 1.58356 6.06063 1.73163C5.86466 1.87963 5.8244 2.16035 5.97072 2.3586L6.15234 2.60477H4.64258C4.39807 2.60477 4.19987 2.80536 4.19987 3.05281C4.19987 3.30025 4.39807 3.50083 4.64258 3.50083H6.64172L6.46009 3.747C6.31377 3.94525 6.3541 4.22603 6.55 4.37403C6.74611 4.52225 7.02356 4.48095 7.16953 4.28305L7.74651 3.5009H11.1356L14.0869 3.58638C21.0332 3.9136 26.4223 9.89785 26.101 16.928C25.7796 23.9595 19.8674 29.4144 12.9174 29.0902C5.96933 28.765 0.578152 22.7799 0.899479 15.7485C0.910761 15.5013 0.721964 15.2916 0.477661 15.2802C0.232453 15.2703 0.0263122 15.4599 0.0149606 15.7071C-0.329766 23.2505 5.42361 29.6366 12.8765 29.9854C20.3324 30.3339 26.6409 24.5103 26.9855 16.9695C27.3303 9.42592 21.5769 3.03991 14.1241 2.69104Z" fill="#0CAB58"/>
</svg>
