<svg width="26" height="30" viewBox="0 0 26 30" fill="none" xmlns="http://www.w3.org/2000/svg">
<path d="M21.3565 2.64994C21.1849 2.3762 20.8268 2.29681 20.5577 2.46993C20.2879 2.64368 20.2083 3.00618 20.3799 3.2793C20.8595 4.04179 21.1132 4.9224 21.1132 5.82489V12.2217C21.1132 15.906 18.1528 18.9028 14.514 18.9028C10.8751 18.9028 7.91531 15.9054 7.91531 12.2217V5.82489C7.91531 4.9224 8.1684 4.04179 8.64863 3.2793C8.82024 3.00618 8.74061 2.64368 8.47086 2.46993C8.20173 2.29681 7.84309 2.37682 7.67211 2.64994C7.07397 3.60118 6.75854 4.69866 6.75854 5.82489V12.2217C6.75854 16.5523 10.2381 20.0747 14.5146 20.0747C18.7917 20.0747 22.2712 16.5516 22.2712 12.2217V5.82489C22.2706 4.69928 21.9546 3.60181 21.3565 2.64994Z" fill="#C6C6C6"/>
<path d="M20.0914 8.02148L8.15207 8.02148C4.8941 8.02148 2.24353 10.7058 2.24353 14.0039H3.16944C3.16944 11.2221 5.40458 8.95897 8.15207 8.95897L20.0914 8.95897C22.8389 8.95897 25.074 11.2221 25.074 14.0039V25.03C25.074 25.745 24.4999 26.3262 23.7938 26.3262C23.0876 26.3262 22.5129 25.7444 22.5129 25.03V23.1044C22.5129 21.8863 21.534 20.8944 20.3303 20.8944C19.1272 20.8944 18.1476 21.8863 18.1476 23.1044V27.4568C18.1476 28.3424 17.4365 29.0624 16.5624 29.0624C15.6877 29.0624 14.9766 28.3424 14.9766 27.4568V19.4895H14.0507V27.4568C14.0507 28.8593 15.1773 29.9999 16.5624 29.9999C17.947 29.9999 19.0735 28.8593 19.0735 27.4568V23.1044C19.0735 22.4032 19.6371 21.8319 20.3303 21.8319C21.0235 21.8319 21.587 22.4032 21.587 23.1044V25.03C21.587 26.2612 22.5771 27.2637 23.7938 27.2637C25.0104 27.2637 25.9999 26.2612 25.9999 25.03V14.0039C25.9993 10.7058 23.3493 8.02148 20.0914 8.02148Z" fill="#525C6B"/>
<path d="M2.70607 13.5508C1.4672 13.5508 0.462891 14.567 0.462891 15.8226C0.462891 17.077 1.4672 18.0932 2.70607 18.0932C3.94493 18.0932 4.94924 17.077 4.94924 15.8226C4.94924 14.567 3.94493 13.5508 2.70607 13.5508Z" fill="#2BA0BF"/>
<path d="M8.90609 0.469238C8.16289 0.469238 7.55981 1.07923 7.55981 1.83171C7.55981 2.5842 8.16289 3.19421 8.90609 3.19421C9.64929 3.19421 10.2517 2.5842 10.2517 1.83171C10.2517 1.07923 9.64929 0.469238 8.90609 0.469238Z" fill="#2BA0BF"/>
<path d="M20.1218 3.19421C20.865 3.19421 21.4674 2.58419 21.4674 1.83171C21.4674 1.07924 20.865 0.469238 20.1218 0.469238C19.3786 0.469238 18.7761 1.07924 18.7761 1.83171C18.7761 2.58419 19.3786 3.19421 20.1218 3.19421Z" fill="#2BA0BF"/>
<path d="M15.467 18.2026H13.5603C12.8615 18.2026 12.2893 18.7826 12.2893 19.4901C12.2893 20.1982 12.8615 20.7776 13.5603 20.7776H15.467C16.1664 20.7776 16.738 20.1982 16.738 19.4901C16.7386 18.7826 16.1664 18.2026 15.467 18.2026Z" fill="#2BA0BF"/>
<path d="M2.70613 13.0811C1.21418 13.0811 0 14.3098 0 15.8216C0 17.3323 1.21356 18.561 2.70613 18.561C4.19808 18.561 5.41226 17.3323 5.41226 15.8216C5.41226 14.3098 4.1987 13.0811 2.70613 13.0811ZM2.70613 17.6229C1.72466 17.6229 0.925911 16.8141 0.925911 15.821C0.925911 14.8267 1.72466 14.0179 2.70613 14.0179C3.6876 14.0179 4.48635 14.8267 4.48635 15.821C4.48635 16.8148 3.6876 17.6229 2.70613 17.6229Z" fill="#59C5EF"/>
<path d="M2.70608 15.3872C2.47029 15.3872 2.27893 15.581 2.27893 15.8203C2.27893 16.0591 2.47029 16.2522 2.70608 16.2522C2.9425 16.2522 3.13385 16.0584 3.13385 15.8203C3.13385 15.581 2.9425 15.3872 2.70608 15.3872Z" fill="#59C5EF"/>
<path d="M8.90591 0C7.90839 0 7.09729 0.821234 7.09729 1.83122C7.09729 2.84121 7.90839 3.6637 8.90591 3.6637C9.90342 3.6637 10.7145 2.84183 10.7145 1.83122C10.7145 0.821859 9.9028 0 8.90591 0ZM8.90591 2.72621C8.41888 2.72621 8.0232 2.32496 8.0232 1.83122C8.0232 1.33873 8.4195 0.937487 8.90591 0.937487C9.39294 0.937487 9.7886 1.33873 9.7886 1.83122C9.7886 2.32496 9.39232 2.72621 8.90591 2.72621Z" fill="#59C5EF"/>
<path d="M20.1222 0C19.1247 0 18.313 0.821234 18.313 1.83122C18.313 2.84121 19.1247 3.6637 20.1222 3.6637C21.1197 3.6637 21.9308 2.84183 21.9308 1.83122C21.9308 0.821859 21.1197 0 20.1222 0ZM20.1222 2.72621C19.6352 2.72621 19.2389 2.32496 19.2389 1.83122C19.2389 1.33873 19.6352 0.937487 20.1222 0.937487C20.6086 0.937487 21.0049 1.33873 21.0049 1.83122C21.0049 2.32496 20.6086 2.72621 20.1222 2.72621Z" fill="#59C5EF"/>
</svg>
