<svg width="255" height="375" viewBox="0 0 255 375" fill="none" xmlns="http://www.w3.org/2000/svg">
<g clip-path="url(#clip0_3456_23769)">
<rect width="255" height="375" rx="24" fill="url(#paint0_linear_3456_23769)"/>
<rect width="255" height="375" rx="24" fill="black" fill-opacity="0.1"/>
<path fill-rule="evenodd" clip-rule="evenodd" d="M100.341 148.838C124.682 153.349 140.756 176.738 136.244 201.079C131.733 225.419 108.344 241.493 84.0038 236.982C59.6632 232.471 43.5888 209.082 48.1002 184.742C52.6116 160.401 76.0003 144.327 100.341 148.838ZM-15.2368 361.527C-32.277 343.571 -31.5339 315.2 -13.5772 298.16C4.37948 281.12 32.7497 281.863 49.7898 299.82C66.8301 317.776 66.0868 346.147 48.1307 363.187C30.1736 380.227 1.80311 379.484 -15.2368 361.527ZM153.321 329.094C163.978 351.437 154.505 378.19 132.161 388.847C109.818 399.504 83.0652 390.031 72.4086 367.687C61.7512 345.343 71.2246 318.591 93.5681 307.934C115.912 297.277 142.664 306.75 153.321 329.094ZM-34.8656 213.131C-23.0535 191.377 4.15795 183.317 25.913 195.129C47.668 206.941 55.7282 234.153 43.9161 255.907C32.104 277.662 4.89237 285.722 -16.8626 273.91C-38.6176 262.098 -46.6779 234.887 -34.8656 213.131ZM153.206 218.722C177.749 215.491 200.264 232.768 203.495 257.31C206.726 281.854 189.449 304.369 164.907 307.6C140.363 310.831 117.848 293.554 114.617 269.011C111.386 244.469 128.663 221.953 153.206 218.722Z" fill="url(#paint1_linear_3456_23769)"/>
</g>
<defs>
<linearGradient id="paint0_linear_3456_23769" x1="23.9873" y1="1.32564e-06" x2="231.013" y2="375" gradientUnits="userSpaceOnUse">
<stop stop-color="#8AB000"/>
<stop offset="1" stop-color="#DBF275"/>
</linearGradient>
<linearGradient id="paint1_linear_3456_23769" x1="133.953" y1="155.068" x2="20.9142" y2="376.196" gradientUnits="userSpaceOnUse">
<stop stop-color="#282422"/>
<stop offset="1" stop-color="#2D2726" stop-opacity="0.25"/>
</linearGradient>
<clipPath id="clip0_3456_23769">
<rect width="255" height="375" rx="24" fill="white"/>
</clipPath>
</defs>
</svg>
