<svg width="255" height="375" viewBox="0 0 255 375" fill="none" xmlns="http://www.w3.org/2000/svg">
<g clip-path="url(#clip0_3456_24003)">
<rect width="255" height="375" rx="24" fill="url(#paint0_linear_3456_24003)"/>
<rect width="255" height="375" rx="24" fill="black" fill-opacity="0.1"/>
<path d="M136.116 220.69C114.872 239.444 123.44 273.048 151.07 279.34L274.879 307.537C300.985 313.482 324.799 290.319 318.396 265.209L289.778 152.975C283.376 127.865 251.378 118.933 231.306 136.652L136.116 220.69Z" fill="url(#paint1_linear_3456_24003)" fill-opacity="0.5"/>
<path d="M188.815 207.23C216.446 213.522 225.014 247.126 203.77 265.88L108.579 349.918C88.5075 367.638 56.51 358.705 50.1073 333.595L21.4897 221.361C15.087 196.251 38.9008 173.088 65.0068 179.033L188.815 207.23Z" fill="url(#paint2_linear_3456_24003)" fill-opacity="0.5"/>
</g>
<defs>
<linearGradient id="paint0_linear_3456_24003" x1="23.9873" y1="1.32564e-06" x2="231.013" y2="375" gradientUnits="userSpaceOnUse">
<stop stop-color="#BF1486"/>
<stop offset="1" stop-color="#A71575"/>
</linearGradient>
<linearGradient id="paint1_linear_3456_24003" x1="125.265" y1="254.688" x2="304.087" y2="209.092" gradientUnits="userSpaceOnUse">
<stop stop-color="#2C021E"/>
<stop offset="1" stop-color="#2C021E" stop-opacity="0.1"/>
</linearGradient>
<linearGradient id="paint2_linear_3456_24003" x1="214.621" y1="231.882" x2="35.7985" y2="277.478" gradientUnits="userSpaceOnUse">
<stop stop-color="#2C021E"/>
<stop offset="1" stop-color="#2C021E" stop-opacity="0.1"/>
</linearGradient>
<clipPath id="clip0_3456_24003">
<rect width="255" height="375" rx="24" fill="white"/>
</clipPath>
</defs>
</svg>
