<svg width="255" height="375" viewBox="0 0 255 375" fill="none" xmlns="http://www.w3.org/2000/svg">
<g clip-path="url(#clip0_3456_23991)">
<rect width="255" height="375" rx="24" fill="url(#paint0_linear_3456_23991)"/>
<rect width="255" height="375" rx="24" fill="black" fill-opacity="0.1"/>
<path d="M147.703 125.948C152.522 104.505 178.564 97.7849 193.157 114.219L258.545 187.86C272.333 203.388 265.476 228.224 246.016 233.245L159.034 255.69C139.574 260.711 121.556 242.293 126.109 222.033L147.703 125.948Z" fill="url(#paint1_linear_3456_23991)"/>
<path d="M110.966 170.487C115.785 149.044 141.828 142.324 156.421 158.758L221.809 232.399C235.597 247.927 228.74 272.763 209.279 277.785L122.298 300.229C102.837 305.25 84.8197 286.832 89.3729 266.572L110.966 170.487Z" fill="url(#paint2_linear_3456_23991)"/>
<path d="M74.2319 215.028C79.0509 193.585 105.094 186.865 119.686 203.3L185.075 276.94C198.862 292.468 192.006 317.304 172.545 322.326L85.5635 344.77C66.1029 349.791 48.0854 331.373 52.6385 311.113L74.2319 215.028Z" fill="url(#paint3_linear_3456_23991)"/>
</g>
<defs>
<linearGradient id="paint0_linear_3456_23991" x1="23.9873" y1="1.32564e-06" x2="231.013" y2="375" gradientUnits="userSpaceOnUse">
<stop stop-color="#4D0836"/>
<stop offset="1" stop-color="#330524"/>
</linearGradient>
<linearGradient id="paint1_linear_3456_23991" x1="166.765" y1="105.88" x2="202.525" y2="244.468" gradientUnits="userSpaceOnUse">
<stop stop-color="#FAFAFA" stop-opacity="0.5"/>
<stop offset="1" stop-color="#FAFAFA" stop-opacity="0.05"/>
</linearGradient>
<linearGradient id="paint2_linear_3456_23991" x1="130.028" y1="150.419" x2="165.789" y2="289.007" gradientUnits="userSpaceOnUse">
<stop stop-color="#FAFAFA" stop-opacity="0.6"/>
<stop offset="1" stop-color="#FAFAFA" stop-opacity="0.1"/>
</linearGradient>
<linearGradient id="paint3_linear_3456_23991" x1="93.294" y1="194.96" x2="129.054" y2="333.548" gradientUnits="userSpaceOnUse">
<stop stop-color="#FAFAFA" stop-opacity="0.75"/>
<stop offset="1" stop-color="#FAFAFA" stop-opacity="0.25"/>
</linearGradient>
<clipPath id="clip0_3456_23991">
<rect width="255" height="375" rx="24" fill="white"/>
</clipPath>
</defs>
</svg>
