<svg width="255" height="375" viewBox="0 0 255 375" fill="none" xmlns="http://www.w3.org/2000/svg">
<g clip-path="url(#clip0_3537_538)">
<rect width="255" height="375" rx="24" fill="url(#paint0_linear_3537_538)"/>
<path d="M139.872 244C155.407 244 168 253.673 168 265.606V275.394C168 287.327 155.407 297 139.872 297H58.1287C42.5938 297 30 287.327 30 275.394V265.606C30 253.673 42.5938 244 58.1287 244C42.5938 244 30.0001 234.327 30 222.394V212.606C30 200.673 42.5938 191 58.1287 191H139.872C155.407 191 168 200.673 168 212.606V222.394C168 234.327 155.407 244 139.872 244Z" fill="url(#paint1_linear_3537_538)"/>
<path d="M277.872 298C293.407 298 306 307.673 306 319.606V329.394C306 341.327 293.407 351 277.872 351H196.129C180.594 351 168 341.327 168 329.394V319.606C168 307.673 180.594 298 196.129 298C180.594 298 168 288.327 168 276.394V266.606C168 254.673 180.594 245 196.129 245H277.872C293.407 245 306 254.673 306 266.606V276.394C306 288.327 293.407 298 277.872 298Z" fill="url(#paint2_linear_3537_538)"/>
<path d="M220.5 135.128C220.5 119.593 230.082 107 241.902 107L251.598 107C263.418 107 273 119.593 273 135.128L273 216.871C273 232.406 263.418 245 251.598 245L241.902 245C230.082 245 220.5 232.406 220.5 216.871C220.5 232.406 210.918 245 199.098 245L189.402 245C177.582 245 168 232.406 168 216.871L168 135.128C168 119.593 177.582 107 189.402 107L199.098 107C210.918 107 220.5 119.593 220.5 135.128Z" fill="url(#paint3_linear_3537_538)"/>
<path d="M115 325.128C115 309.593 124.673 297 136.606 297L146.394 297C158.327 297 168 309.593 168 325.128L168 406.871C168 422.406 158.327 435 146.394 435L136.606 435C124.673 435 115 422.406 115 406.871C115 422.406 105.327 435 93.3941 435L83.6061 435C71.6734 435 62 422.406 62 406.871L62 325.128C62 309.593 71.6735 297 83.6061 297L93.3941 297C105.327 297 115 309.593 115 325.128Z" fill="url(#paint4_linear_3537_538)"/>
</g>
<defs>
<linearGradient id="paint0_linear_3537_538" x1="36" y1="1.48389e-06" x2="244.5" y2="386.5" gradientUnits="userSpaceOnUse">
<stop stop-color="#FF6017"/>
<stop offset="1" stop-color="#EE9065"/>
</linearGradient>
<linearGradient id="paint1_linear_3537_538" x1="99" y1="191" x2="99" y2="297" gradientUnits="userSpaceOnUse">
<stop stop-color="white" stop-opacity="0.8"/>
<stop offset="1" stop-color="#FAFAFA" stop-opacity="0"/>
</linearGradient>
<linearGradient id="paint2_linear_3537_538" x1="237" y1="245" x2="237" y2="351" gradientUnits="userSpaceOnUse">
<stop stop-color="white" stop-opacity="0.8"/>
<stop offset="1" stop-color="#FAFAFA" stop-opacity="0"/>
</linearGradient>
<linearGradient id="paint3_linear_3537_538" x1="168" y1="176" x2="273" y2="176" gradientUnits="userSpaceOnUse">
<stop stop-color="white" stop-opacity="0.8"/>
<stop offset="1" stop-color="#FAFAFA" stop-opacity="0"/>
</linearGradient>
<linearGradient id="paint4_linear_3537_538" x1="62" y1="366" x2="168" y2="366" gradientUnits="userSpaceOnUse">
<stop stop-color="white" stop-opacity="0.8"/>
<stop offset="1" stop-color="#FAFAFA" stop-opacity="0"/>
</linearGradient>
<clipPath id="clip0_3537_538">
<rect width="255" height="375" rx="24" fill="white"/>
</clipPath>
</defs>
</svg>
