<svg width="255" height="375" viewBox="0 0 255 375" fill="none" xmlns="http://www.w3.org/2000/svg">
<g clip-path="url(#clip0_3537_509)">
<rect width="255" height="375" rx="24" fill="url(#paint0_linear_3537_509)"/>
<path d="M195.024 285C204.952 285 213 293.048 213 302.976C213 309.596 209.42 315.381 204.091 318.5C209.42 321.619 213 327.404 213 334.024C213 343.952 204.952 352 195.024 352C188.404 352 182.619 348.42 179.5 343.091C176.381 348.42 170.596 352 163.976 352C154.048 352 146 343.952 146 334.024C146 327.404 149.579 321.619 154.909 318.5C149.579 315.381 146 309.596 146 302.976C146 293.048 154.048 285 163.976 285C170.596 285 176.381 288.579 179.5 293.908C182.619 288.579 188.404 285 195.024 285ZM179.5 312.043C177.939 314.71 175.71 316.939 173.042 318.5C175.71 320.061 177.939 322.29 179.5 324.957C181.061 322.29 183.29 320.061 185.957 318.5C183.29 316.939 181.061 314.71 179.5 312.043Z" fill="url(#paint1_linear_3537_509)"/>
<path d="M61.0242 285C70.9519 285 78.9998 293.048 78.9998 302.976C78.9998 309.596 75.4204 315.381 70.0913 318.5C75.4205 321.619 79 327.404 79 334.024C79 343.952 70.952 352 61.0244 352C54.4037 352 48.619 348.42 45.4998 343.091C42.3806 348.42 36.5963 352 29.9756 352C20.0479 352 12 343.952 12 334.024C12 327.404 15.5794 321.619 20.9085 318.5C15.5795 315.381 12 309.596 12 302.976C12 293.048 20.048 285 29.9756 285C36.5962 285 42.3806 288.579 45.4998 293.908C48.619 288.579 54.4036 285 61.0242 285ZM45.4998 312.043C43.9386 314.71 41.7098 316.939 39.0425 318.5C41.7098 320.061 43.9388 322.29 45.5 324.957C47.0612 322.29 49.29 320.061 51.9572 318.5C49.2899 316.939 47.061 314.71 45.4998 312.043Z" fill="url(#paint2_linear_3537_509)"/>
<path d="M128.024 319C137.952 319 146 327.048 146 336.976C146 343.596 142.42 349.381 137.091 352.5C142.42 355.619 146 361.404 146 368.024C146 377.952 137.952 386 128.024 386C121.404 386 115.619 382.42 112.5 377.091C109.381 382.42 103.596 386 96.9756 386C87.0479 386 79 377.952 79 368.024C79 361.404 82.5794 355.619 87.9085 352.5C82.5795 349.381 79 343.596 79 336.976C79 327.048 87.048 319 96.9756 319C103.596 319 109.381 322.579 112.5 327.908C115.619 322.579 121.404 319 128.024 319ZM112.5 346.043C110.939 348.71 108.71 350.939 106.042 352.5C108.71 354.061 110.939 356.29 112.5 358.957C114.061 356.29 116.29 354.061 118.957 352.5C116.29 350.939 114.061 348.71 112.5 346.043Z" fill="url(#paint3_linear_3537_509)"/>
<path d="M228.024 218C237.952 218 246 226.048 246 235.976C246 242.596 242.42 248.381 237.091 251.5C242.42 254.619 246 260.404 246 267.024C246 276.952 237.952 285 228.024 285C221.404 285 215.619 281.42 212.5 276.091C209.381 281.42 203.596 285 196.976 285C187.048 285 179 276.952 179 267.024C179 260.404 182.579 254.619 187.909 251.5C182.579 248.381 179 242.596 179 235.976C179 226.048 187.048 218 196.976 218C203.596 218 209.381 221.579 212.5 226.908C215.619 221.579 221.404 218 228.024 218ZM212.5 245.043C210.939 247.71 208.71 249.939 206.042 251.5C208.71 253.061 210.939 255.29 212.5 257.957C214.061 255.29 216.29 253.061 218.957 251.5C216.29 249.939 214.061 247.71 212.5 245.043Z" fill="url(#paint4_linear_3537_509)"/>
<path d="M28.0242 352C37.9519 352 45.9998 360.048 45.9998 369.976C45.9998 376.596 42.4204 382.381 37.0913 385.5C42.4205 388.619 46 394.404 46 401.024C46 410.952 37.952 419 28.0244 419C21.4037 419 15.619 415.42 12.4998 410.091C9.38061 415.42 3.59627 419 -3.02441 419C-12.9521 419 -21 410.952 -21 401.024C-21 394.404 -17.4206 388.619 -12.0915 385.5C-17.4205 382.381 -21 376.596 -21 369.976C-21 360.048 -12.952 352 -3.02441 352C3.59617 352 9.38057 355.579 12.4998 360.908C15.619 355.579 21.4036 352 28.0242 352ZM12.4998 379.043C10.9386 381.71 8.70981 383.939 6.04247 385.5C8.70978 387.061 10.9388 389.29 12.5 391.957C14.0612 389.29 16.29 387.061 18.9572 385.5C16.2899 383.939 14.061 381.71 12.4998 379.043Z" fill="url(#paint5_linear_3537_509)"/>
<path d="M161.024 185C170.952 185 179 193.048 179 202.976C179 209.596 175.42 215.381 170.091 218.5C175.42 221.619 179 227.404 179 234.024C179 243.952 170.952 252 161.024 252C154.404 252 148.619 248.42 145.5 243.091C142.381 248.42 136.596 252 129.976 252C120.048 252 112 243.952 112 234.024C112 227.404 115.579 221.619 120.909 218.5C115.579 215.381 112 209.596 112 202.976C112 193.048 120.048 185 129.976 185C136.596 185 142.381 188.579 145.5 193.908C148.619 188.579 154.404 185 161.024 185ZM145.5 212.043C143.939 214.71 141.71 216.939 139.042 218.5C141.71 220.061 143.939 222.29 145.5 224.957C147.061 222.29 149.29 220.061 151.957 218.5C149.29 216.939 147.061 214.71 145.5 212.043Z" fill="url(#paint6_linear_3537_509)"/>
<path d="M195.024 118C204.952 118 213 126.048 213 135.976C213 142.596 209.42 148.381 204.091 151.5C209.42 154.619 213 160.404 213 167.024C213 176.952 204.952 185 195.024 185C188.404 185 182.619 181.42 179.5 176.091C176.381 181.42 170.596 185 163.976 185C154.048 185 146 176.952 146 167.024C146 160.404 149.579 154.619 154.909 151.5C149.579 148.381 146 142.596 146 135.976C146 126.048 154.048 118 163.976 118C170.596 118 176.381 121.579 179.5 126.908C182.619 121.579 188.404 118 195.024 118ZM179.5 145.043C177.939 147.71 175.71 149.939 173.042 151.5C175.71 153.061 177.939 155.29 179.5 157.957C181.061 155.29 183.29 153.061 185.957 151.5C183.29 149.939 181.061 147.71 179.5 145.043Z" fill="url(#paint7_linear_3537_509)"/>
</g>
<defs>
<linearGradient id="paint0_linear_3537_509" x1="127.5" y1="0" x2="127.5" y2="375" gradientUnits="userSpaceOnUse">
<stop stop-color="#FF6017"/>
<stop offset="1" stop-color="#FF9361"/>
</linearGradient>
<linearGradient id="paint1_linear_3537_509" x1="179.5" y1="285" x2="179.5" y2="352" gradientUnits="userSpaceOnUse">
<stop offset="0.254808" stop-color="white" stop-opacity="0.8"/>
<stop offset="1" stop-color="#FFA881"/>
</linearGradient>
<linearGradient id="paint2_linear_3537_509" x1="45.5" y1="285" x2="45.5" y2="352" gradientUnits="userSpaceOnUse">
<stop offset="0.254808" stop-color="white" stop-opacity="0.8"/>
<stop offset="1" stop-color="#FFA881"/>
</linearGradient>
<linearGradient id="paint3_linear_3537_509" x1="112.5" y1="319" x2="112.5" y2="386" gradientUnits="userSpaceOnUse">
<stop offset="0.254808" stop-color="white" stop-opacity="0.8"/>
<stop offset="1" stop-color="#FFA881"/>
</linearGradient>
<linearGradient id="paint4_linear_3537_509" x1="212.5" y1="218" x2="212.5" y2="285" gradientUnits="userSpaceOnUse">
<stop offset="0.254808" stop-color="white" stop-opacity="0.8"/>
<stop offset="1" stop-color="#FFA881"/>
</linearGradient>
<linearGradient id="paint5_linear_3537_509" x1="12.5" y1="352" x2="12.5" y2="419" gradientUnits="userSpaceOnUse">
<stop offset="0.254808" stop-color="white" stop-opacity="0.8"/>
<stop offset="1" stop-color="#FFA881"/>
</linearGradient>
<linearGradient id="paint6_linear_3537_509" x1="145.5" y1="185" x2="145.5" y2="252" gradientUnits="userSpaceOnUse">
<stop offset="0.254808" stop-color="white" stop-opacity="0.8"/>
<stop offset="1" stop-color="#FFA881"/>
</linearGradient>
<linearGradient id="paint7_linear_3537_509" x1="179.5" y1="118" x2="179.5" y2="185" gradientUnits="userSpaceOnUse">
<stop offset="0.254808" stop-color="white" stop-opacity="0.8"/>
<stop offset="1" stop-color="#FFA881"/>
</linearGradient>
<clipPath id="clip0_3537_509">
<rect width="255" height="375" rx="24" fill="white"/>
</clipPath>
</defs>
</svg>
