<svg width="255" height="375" viewBox="0 0 255 375" fill="none" xmlns="http://www.w3.org/2000/svg">
<g clip-path="url(#clip0_3537_483)">
<rect width="255" height="375" rx="24" fill="url(#paint0_linear_3537_483)"/>
<path d="M44.4899 213.548C57.9267 221.306 62.5303 238.487 54.7725 251.924L48.4091 262.946C40.6513 276.383 23.4698 280.987 10.033 273.229L-60.6699 232.409C-74.1067 224.651 -78.7106 207.469 -70.9529 194.032L-64.5894 183.01C-56.8317 169.574 -39.6498 164.97 -26.213 172.728C-39.6498 164.97 -44.2538 147.788 -36.4961 134.351L-30.1327 123.33C-22.3749 109.893 -5.19307 105.289 8.24377 113.047L78.9466 153.867C92.3834 161.625 96.987 178.807 89.2293 192.243L82.8658 203.265C75.1081 216.702 57.9267 221.306 44.4899 213.548Z" fill="url(#paint1_linear_3537_483)"/>
<path d="M163.847 282.464C177.284 290.222 181.888 307.403 174.13 320.84L167.767 331.862C160.009 345.299 142.827 349.903 129.39 342.145L58.6875 301.325C45.2507 293.567 40.6468 276.385 48.4046 262.948L54.768 251.926C62.5258 238.49 79.7076 233.886 93.1445 241.644C79.7077 233.886 75.1036 216.704 82.8613 203.268L89.2248 192.246C96.9825 178.809 114.164 174.205 127.601 181.963L198.304 222.783C211.741 230.541 216.344 247.723 208.587 261.159L202.223 272.181C194.465 285.618 177.284 290.222 163.847 282.464Z" fill="url(#paint2_linear_3537_483)"/>
<path d="M283.211 351.376C296.647 359.134 301.251 376.315 293.493 389.752L287.13 400.774C279.372 414.211 262.19 418.815 248.754 411.057L178.051 370.237C164.614 362.479 160.01 345.297 167.768 331.86L174.131 320.839C181.889 307.402 199.071 302.798 212.508 310.556C199.071 302.798 194.467 285.616 202.225 272.18L208.588 261.158C216.346 247.721 233.528 243.117 246.964 250.875L317.667 291.695C331.104 299.453 335.708 316.635 327.95 330.071L321.587 341.093C313.829 354.53 296.647 359.134 283.211 351.376Z" fill="url(#paint3_linear_3537_483)"/>
</g>
<defs>
<linearGradient id="paint0_linear_3537_483" x1="18.5" y1="-3.83133e-06" x2="242.5" y2="375" gradientUnits="userSpaceOnUse">
<stop stop-color="#FF6017"/>
<stop offset="1" stop-color="#C33F03"/>
</linearGradient>
<linearGradient id="paint1_linear_3537_483" x1="43.595" y1="133.457" x2="-25.3186" y2="252.819" gradientUnits="userSpaceOnUse">
<stop stop-color="#EDB49B" stop-opacity="0.2"/>
<stop offset="1" stop-color="#FAFAFA" stop-opacity="0.6"/>
</linearGradient>
<linearGradient id="paint2_linear_3537_483" x1="162.952" y1="202.373" x2="94.0388" y2="321.735" gradientUnits="userSpaceOnUse">
<stop stop-color="#EDB49B" stop-opacity="0.2"/>
<stop offset="1" stop-color="#FAFAFA" stop-opacity="0.6"/>
</linearGradient>
<linearGradient id="paint3_linear_3537_483" x1="282.316" y1="271.285" x2="213.402" y2="390.647" gradientUnits="userSpaceOnUse">
<stop stop-color="#EDB49B" stop-opacity="0.2"/>
<stop offset="1" stop-color="#FAFAFA" stop-opacity="0.6"/>
</linearGradient>
<clipPath id="clip0_3537_483">
<rect width="255" height="375" rx="24" fill="white"/>
</clipPath>
</defs>
</svg>
