<svg width="255" height="375" viewBox="0 0 255 375" fill="none" xmlns="http://www.w3.org/2000/svg">
<g clip-path="url(#clip0_3537_525)">
<rect width="255" height="375" rx="24" fill="url(#paint0_linear_3537_525)"/>
<path d="M293.526 355.271C294.621 383.779 264.308 400.7 240.618 384.805L134.465 313.583C112.082 298.566 112.407 265.133 135.059 252.488L236.304 195.973C258.956 183.329 287.584 200.6 288.619 227.534L293.526 355.271Z" fill="url(#paint1_linear_3537_525)"/>
<path d="M152.519 331.763C144.119 351.043 118.572 352.573 107.931 334.433L60.2493 253.151C50.1952 236.012 61.116 213.916 80.2059 212.773L165.53 207.665C184.62 206.522 198.099 227.156 190.162 245.373L152.519 331.763Z" fill="url(#paint2_linear_3537_525)"/>
<path d="M68.7811 279.593C58.2279 291.716 39.2545 286.962 35.6653 271.294L19.5826 201.09C16.1914 186.286 29.2286 172.689 43.4066 176.242L106.777 192.121C120.955 195.674 126.04 213.812 116.069 225.267L68.7811 279.593Z" fill="url(#paint3_linear_3537_525)"/>
<path d="M12.0099 219.419C2.79685 226.66 -10.1415 220.664 -10.5725 208.954L-12.5035 156.482C-12.9107 145.417 -1.71754 137.46 7.95076 141.94L51.1643 161.965C60.8326 166.445 61.9972 180.129 53.2924 186.971L12.0099 219.419Z" fill="url(#paint4_linear_3537_525)"/>
</g>
<defs>
<linearGradient id="paint0_linear_3537_525" x1="193" y1="-1.73652e-06" x2="62.5" y2="375" gradientUnits="userSpaceOnUse">
<stop stop-color="#FD590D"/>
<stop offset="1" stop-color="#962F00"/>
</linearGradient>
<linearGradient id="paint1_linear_3537_525" x1="276.366" y1="386.689" x2="185.682" y2="224.231" gradientUnits="userSpaceOnUse">
<stop stop-color="#FFD5C2"/>
<stop offset="1" stop-color="#FF8D58" stop-opacity="0.7"/>
</linearGradient>
<linearGradient id="paint2_linear_3537_525" x1="131.065" y1="347.13" x2="122.868" y2="210.219" gradientUnits="userSpaceOnUse">
<stop stop-color="#FFD5C2"/>
<stop offset="1" stop-color="#FF8D58" stop-opacity="0.7"/>
</linearGradient>
<linearGradient id="paint3_linear_3537_525" x1="49.6117" y1="285.865" x2="75.0918" y2="184.181" gradientUnits="userSpaceOnUse">
<stop stop-color="#FFD5C2"/>
<stop offset="1" stop-color="#FF8D58" stop-opacity="0.7"/>
</linearGradient>
<linearGradient id="paint4_linear_3537_525" x1="-2.57456" y1="221.293" x2="29.5575" y2="151.953" gradientUnits="userSpaceOnUse">
<stop stop-color="#FFD5C2"/>
<stop offset="1" stop-color="#FF8D58" stop-opacity="0.7"/>
</linearGradient>
<clipPath id="clip0_3537_525">
<rect width="255" height="375" rx="24" fill="white"/>
</clipPath>
</defs>
</svg>
