<svg width="255" height="375" viewBox="0 0 255 375" fill="none" xmlns="http://www.w3.org/2000/svg">
<g clip-path="url(#clip0_3523_14289)">
<rect width="255" height="375" rx="24" fill="#444444"/>
<path d="M154.076 130.562C158.493 110.908 182.363 104.749 195.738 119.812L255.672 187.31C268.309 201.542 262.024 224.306 244.188 228.908L187.538 243.525H235.878C250.646 243.525 262.618 255.498 262.618 270.266V282.379C262.618 297.147 250.646 309.118 235.878 309.118C250.646 309.118 262.618 321.09 262.618 335.858V347.972C262.618 362.74 250.646 374.712 235.878 374.712H158.172C150.535 374.712 143.647 371.51 138.774 366.376V397.597C138.774 412.365 126.802 424.337 112.034 424.337H34.3271C19.5594 424.337 7.58789 412.364 7.58789 397.597V319.89C7.58815 305.122 19.5596 293.151 34.3271 293.15H64.1309C58.0871 288.346 53.8068 281.678 51.9131 274.268C43.1653 282.613 30.3455 286.227 17.8848 282.652C-0.799709 277.292 -11.601 257.801 -6.24121 239.116C-2.66673 226.656 7.19253 217.702 18.9062 214.708C10.5605 205.96 6.94709 193.14 10.5215 180.68C15.8815 161.995 35.3739 151.193 54.0586 156.553C66.5189 160.127 75.4731 169.987 78.4668 181.7C87.2146 173.355 100.035 169.741 112.495 173.315C126.585 177.357 136.19 189.436 137.765 203.144L154.076 130.562ZM133.637 224.107C128.89 232.759 120.766 238.886 111.474 241.261C119.82 250.009 123.433 262.829 119.858 275.29C117.754 282.626 113.471 288.746 107.914 293.15H112.034C126.018 293.15 137.492 303.885 138.672 317.562C143.55 312.365 150.482 309.118 158.172 309.118C143.404 309.118 131.432 297.147 131.432 282.379V270.266C131.432 259.952 137.272 251.003 145.825 246.542C138.488 241.935 133.508 233.521 133.637 224.107ZM68.6758 215.831C64.2973 220.008 58.8991 223 53.0361 224.498C57.2134 228.876 60.2058 234.275 61.7041 240.138C66.0823 235.961 71.4801 232.969 77.3428 231.471C73.1657 227.092 70.174 221.694 68.6758 215.831Z" fill="url(#paint0_radial_3523_14289)"/>
</g>
<defs>
<radialGradient id="paint0_radial_3523_14289" cx="0" cy="0" r="1" gradientTransform="matrix(98.9069 126.999 -109.672 114.533 127.625 275.808)" gradientUnits="userSpaceOnUse">
<stop stop-color="white"/>
<stop offset="1" stop-color="white" stop-opacity="0.25"/>
</radialGradient>
<clipPath id="clip0_3523_14289">
<rect width="255" height="375" rx="24" fill="white"/>
</clipPath>
</defs>
</svg>
