<svg width="255" height="375" viewBox="0 0 255 375" fill="none" xmlns="http://www.w3.org/2000/svg">
<g clip-path="url(#clip0_3502_736)">
<rect width="255" height="375" rx="24" fill="url(#paint0_linear_3502_736)"/>
<path d="M176.074 112C151.18 112 131 132.3 131 157.341C131 174.041 139.976 188.632 153.338 196.5C139.976 204.367 131 218.958 131 235.659C131 260.7 151.18 281 176.073 281C192.674 281 207.179 271.971 215 258.529C222.822 271.971 237.326 281 253.927 281C278.82 281 299 260.7 299 235.658C299 218.958 290.025 204.368 276.662 196.5C290.025 188.632 299 174.041 299 157.341C299 132.3 278.82 112 253.927 112C237.326 112 222.822 121.029 215 134.47C207.179 121.028 192.675 112 176.074 112ZM215 180.212C218.915 186.94 224.504 192.562 231.192 196.5C224.504 200.438 218.915 206.06 215 212.787C211.085 206.06 205.497 200.438 198.809 196.5C205.497 192.562 211.086 186.94 215 180.212Z" fill="url(#paint1_linear_3502_736)"/>
<path d="M99.0736 190C74.1804 190 54.0005 210.3 54.0005 235.341C54.0005 252.041 62.9758 266.632 76.3383 274.5C62.9755 282.367 54 296.958 54 313.659C54.0001 338.7 74.18 359 99.0731 359C115.674 359 130.179 349.971 138 336.529C145.822 349.971 160.326 359 176.927 359C201.82 359 222 338.7 222 313.658C222 296.958 213.025 282.368 199.662 274.5C213.025 266.632 222 252.041 222 235.341C222 210.3 201.82 190 176.927 190C160.326 190 145.822 199.029 138 212.47C130.179 199.028 115.675 190 99.0736 190ZM138 258.212C141.915 264.94 147.504 270.562 154.192 274.5C147.504 278.438 141.915 284.06 138 290.787C134.085 284.06 128.497 278.438 121.809 274.5C128.497 270.562 134.086 264.94 138 258.212Z" fill="url(#paint2_linear_3502_736)"/>
<path d="M22.0736 269C-2.81964 269 -22.9995 289.3 -22.9995 314.341C-22.9995 331.041 -14.0242 345.632 -0.661728 353.5C-14.0245 361.367 -23 375.958 -23 392.659C-22.9999 417.7 -2.81996 438 22.0731 438C38.6744 438 53.1792 428.971 61.0005 415.529C68.8218 428.971 83.3258 438 99.9269 438C124.82 438 145 417.7 145 392.658C145 375.958 136.025 361.368 122.662 353.5C136.025 345.632 145 331.041 145 314.341C145 289.3 124.82 269 99.9269 269C83.326 269 68.8219 278.029 61.0005 291.47C53.1791 278.028 38.6746 269 22.0736 269ZM61.0005 337.212C64.9152 343.94 70.5038 349.562 77.192 353.5C70.5038 357.438 64.9147 363.06 61 369.787C57.0854 363.06 51.4968 357.438 44.8089 353.5C51.497 349.562 57.0858 343.94 61.0005 337.212Z" fill="url(#paint3_linear_3502_736)"/>
</g>
<defs>
<linearGradient id="paint0_linear_3502_736" x1="5" y1="5.5" x2="243.5" y2="375" gradientUnits="userSpaceOnUse">
<stop offset="0.3125" stop-color="#DA8804"/>
<stop offset="1" stop-color="#EAC486"/>
</linearGradient>
<linearGradient id="paint1_linear_3502_736" x1="215" y1="112" x2="215" y2="281" gradientUnits="userSpaceOnUse">
<stop stop-color="white" stop-opacity="0.5"/>
<stop offset="1" stop-color="white" stop-opacity="0.8"/>
</linearGradient>
<linearGradient id="paint2_linear_3502_736" x1="138" y1="190" x2="138" y2="359" gradientUnits="userSpaceOnUse">
<stop stop-color="white" stop-opacity="0.5"/>
<stop offset="1" stop-color="white" stop-opacity="0.8"/>
</linearGradient>
<linearGradient id="paint3_linear_3502_736" x1="61" y1="269" x2="61" y2="438" gradientUnits="userSpaceOnUse">
<stop stop-color="white" stop-opacity="0.5"/>
<stop offset="1" stop-color="white" stop-opacity="0.8"/>
</linearGradient>
<clipPath id="clip0_3502_736">
<rect width="255" height="375" rx="24" fill="white"/>
</clipPath>
</defs>
</svg>
