<svg width="255" height="375" viewBox="0 0 255 375" fill="none" xmlns="http://www.w3.org/2000/svg">
<g clip-path="url(#clip0_3523_14276)">
<rect width="255" height="375" rx="24" fill="url(#paint0_linear_3523_14276)"/>
<path d="M192.421 177.697C208.54 177.697 221.607 190.764 221.607 206.883C221.607 217.633 215.795 227.025 207.143 232.089C215.795 237.154 221.607 246.546 221.607 257.296C221.607 273.415 208.54 286.482 192.421 286.482C181.671 286.482 172.279 280.67 167.214 272.018C162.15 280.67 152.758 286.482 142.008 286.482C125.889 286.482 112.822 273.415 112.822 257.296C112.822 246.546 118.634 237.154 127.287 232.09C118.634 227.025 112.822 217.633 112.822 206.883C112.822 190.764 125.889 177.697 142.008 177.697C152.758 177.697 162.15 183.509 167.214 192.161C172.279 183.509 181.671 177.697 192.421 177.697ZM167.214 221.605C164.68 225.936 161.061 229.555 156.73 232.09C161.061 234.625 164.68 238.243 167.215 242.574C169.75 238.243 173.368 234.625 177.699 232.09C173.368 229.555 169.749 225.936 167.214 221.605Z" fill="url(#paint1_linear_3523_14276)" fill-opacity="0.33"/>
<path d="M119.206 223.715C135.325 223.715 148.392 236.782 148.392 252.901C148.392 263.651 142.58 273.042 133.928 278.107C142.58 283.172 148.392 292.564 148.392 303.314C148.392 319.433 135.325 332.5 119.206 332.5C108.456 332.5 99.0641 326.688 93.9996 318.035C88.9351 326.688 79.5433 332.5 68.7936 332.5C52.6745 332.5 39.6074 319.432 39.6074 303.313C39.6075 292.564 45.4192 283.172 54.0718 278.107C45.4192 273.043 39.6074 263.651 39.6074 252.901C39.6075 236.782 52.6746 223.715 68.7936 223.715C79.5432 223.715 88.935 229.527 93.9996 238.179C99.0642 229.526 108.456 223.715 119.206 223.715ZM93.9996 267.623C91.4647 271.954 87.846 275.572 83.5151 278.107C87.8459 280.642 91.465 284.261 93.9999 288.592C96.5347 284.261 100.154 280.642 104.484 278.107C100.153 275.572 96.5345 271.954 93.9996 267.623Z" fill="url(#paint2_linear_3523_14276)" fill-opacity="0.33"/>
<path d="M310.598 205.215C326.718 205.215 339.785 218.282 339.785 234.401C339.785 245.151 333.973 254.542 325.32 259.607C333.973 264.672 339.785 274.064 339.785 284.814C339.785 300.933 326.718 314 310.599 314C299.849 314 290.457 308.188 285.392 299.535C280.328 308.188 270.936 314 260.186 314C244.067 314 231 300.932 231 284.813C231 274.064 236.812 264.672 245.464 259.607C236.812 254.543 231 245.151 231 234.401C231 218.282 244.067 205.215 260.186 205.215C270.936 205.215 280.328 211.027 285.392 219.679C290.457 211.026 299.849 205.215 310.598 205.215ZM285.392 249.123C282.857 253.454 279.239 257.072 274.908 259.607C279.238 262.142 282.858 265.761 285.392 270.092C287.927 265.761 291.546 262.142 295.877 259.607C291.546 257.072 287.927 253.454 285.392 249.123Z" fill="url(#paint3_linear_3523_14276)" fill-opacity="0.33"/>
<path d="M220.296 259.607C236.415 259.607 249.482 272.675 249.482 288.794C249.482 299.543 243.67 308.935 235.018 314C243.67 319.064 249.482 328.456 249.482 339.206C249.482 355.325 236.415 368.392 220.296 368.392C209.546 368.392 200.154 362.58 195.089 353.928C190.025 362.58 180.633 368.392 169.883 368.392C153.764 368.392 140.697 355.325 140.697 339.206C140.697 328.456 146.509 319.064 155.162 314C146.509 308.935 140.697 299.543 140.697 288.794C140.697 272.675 153.764 259.607 169.883 259.607C180.633 259.607 190.025 265.419 195.089 274.072C200.154 265.419 209.546 259.607 220.296 259.607ZM195.089 303.515C192.555 307.846 188.936 311.465 184.605 314C188.936 316.535 192.555 320.153 195.09 324.484C197.625 320.154 201.243 316.535 205.574 314C201.243 311.465 197.624 307.846 195.089 303.515Z" fill="url(#paint4_linear_3523_14276)" fill-opacity="0.33"/>
<path d="M138.598 301.867C154.718 301.867 167.785 314.934 167.785 331.053C167.785 341.803 161.973 351.195 153.32 356.259C161.973 361.324 167.785 370.716 167.785 381.466C167.785 397.585 154.718 410.652 138.599 410.652C127.849 410.652 118.457 404.84 113.392 396.187C108.328 404.84 98.9359 410.652 88.1862 410.652C72.0671 410.652 59 397.585 59 381.466C59 370.716 64.8118 361.324 73.4644 356.26C64.8118 351.195 59 341.803 59 331.053C59.0001 314.934 72.0672 301.867 88.1862 301.867C98.9357 301.867 108.328 307.679 113.392 316.331C118.457 307.679 127.849 301.867 138.598 301.867ZM113.392 345.775C110.857 350.106 107.239 353.725 102.908 356.26C107.238 358.795 110.858 362.413 113.392 366.744C115.927 362.413 119.546 358.794 123.877 356.26C119.546 353.725 115.927 350.106 113.392 345.775Z" fill="url(#paint5_linear_3523_14276)" fill-opacity="0.33"/>
<path d="M10.4208 314C26.5399 314 39.6069 327.067 39.6069 343.186C39.6069 353.936 33.7951 363.328 25.1425 368.392C33.7953 373.457 39.6072 382.849 39.6072 393.599C39.6072 409.718 26.5401 422.785 10.4211 422.785C-0.328773 422.785 -9.72104 416.973 -14.7855 408.32C-19.8501 416.973 -29.2418 422.785 -39.9916 422.785C-56.1107 422.785 -69.1777 409.718 -69.1777 393.598C-69.1777 382.849 -63.366 373.457 -54.7133 368.392C-63.3659 363.328 -69.1777 353.936 -69.1777 343.186C-69.1777 327.067 -56.1106 314 -39.9916 314C-29.242 314 -19.8501 319.812 -14.7855 328.464C-9.72099 319.812 -0.32888 314 10.4208 314ZM-14.7855 357.908C-17.3204 362.239 -20.9392 365.858 -25.2701 368.392C-20.9393 370.927 -17.3201 374.546 -14.7852 378.877C-12.2504 374.546 -8.63165 370.927 -4.30103 368.392C-8.63179 365.858 -12.2507 362.239 -14.7855 357.908Z" fill="url(#paint6_linear_3523_14276)" fill-opacity="0.33"/>
</g>
<defs>
<linearGradient id="paint0_linear_3523_14276" x1="224.535" y1="375" x2="30.4647" y2="-1.28236e-05" gradientUnits="userSpaceOnUse">
<stop stop-color="#981644"/>
<stop offset="1" stop-color="#320716"/>
</linearGradient>
<linearGradient id="paint1_linear_3523_14276" x1="167.215" y1="177.697" x2="167.215" y2="286.482" gradientUnits="userSpaceOnUse">
<stop stop-color="#FAFAFA"/>
<stop offset="1" stop-color="#949494"/>
</linearGradient>
<linearGradient id="paint2_linear_3523_14276" x1="93.9999" y1="223.715" x2="93.9999" y2="332.5" gradientUnits="userSpaceOnUse">
<stop stop-color="#FAFAFA"/>
<stop offset="1" stop-color="#949494"/>
</linearGradient>
<linearGradient id="paint3_linear_3523_14276" x1="285.392" y1="205.215" x2="285.392" y2="314" gradientUnits="userSpaceOnUse">
<stop stop-color="#FAFAFA"/>
<stop offset="1" stop-color="#949494"/>
</linearGradient>
<linearGradient id="paint4_linear_3523_14276" x1="195.09" y1="259.607" x2="195.09" y2="368.392" gradientUnits="userSpaceOnUse">
<stop stop-color="#FAFAFA"/>
<stop offset="1" stop-color="#949494"/>
</linearGradient>
<linearGradient id="paint5_linear_3523_14276" x1="113.392" y1="301.867" x2="113.392" y2="410.652" gradientUnits="userSpaceOnUse">
<stop stop-color="#FAFAFA"/>
<stop offset="1" stop-color="#949494"/>
</linearGradient>
<linearGradient id="paint6_linear_3523_14276" x1="-14.7852" y1="314" x2="-14.7852" y2="422.785" gradientUnits="userSpaceOnUse">
<stop stop-color="#FAFAFA"/>
<stop offset="1" stop-color="#949494"/>
</linearGradient>
<clipPath id="clip0_3523_14276">
<rect width="255" height="375" rx="24" fill="white"/>
</clipPath>
</defs>
</svg>
