<svg width="255" height="375" viewBox="0 0 255 375" fill="none" xmlns="http://www.w3.org/2000/svg">
<g clip-path="url(#clip0_3523_14225)">
<rect width="255" height="375" rx="24" fill="url(#paint0_linear_3523_14225)"/>
<path d="M93.3093 122.191C112.192 103.308 142.808 103.308 161.691 122.191L261.051 221.551C279.934 240.434 279.934 271.049 261.051 289.932L161.691 389.292C142.808 408.175 112.192 408.175 93.3093 389.292L-6.05052 289.932C-24.9335 271.049 -24.9335 240.434 -6.05054 221.551L93.3093 122.191Z" fill="#FAFAFA" fill-opacity="0.06"/>
<path d="M91.1843 160.577C111.241 140.521 143.759 140.521 163.815 160.577C177.191 173.953 181.645 192.87 177.181 209.938C194.249 205.473 213.167 209.928 226.542 223.304C246.598 243.36 246.598 275.878 226.542 295.935C213.167 309.31 194.249 313.765 177.181 309.3C181.645 326.368 177.191 345.285 163.815 358.661C143.759 378.717 111.241 378.717 91.1843 358.661C77.8089 345.285 73.3544 326.368 77.8189 309.3C60.7511 313.765 41.8335 309.31 28.458 295.935C8.4017 275.878 8.40169 243.36 28.458 223.304C41.8333 209.928 60.7506 205.474 77.8182 209.938C73.3538 192.87 77.8089 173.953 91.1843 160.577ZM114.454 246.574C116.689 255.117 116.689 264.122 114.454 272.665C122.997 270.43 132.003 270.43 140.545 272.664C138.311 264.122 138.311 255.116 140.545 246.574C132.003 248.809 122.997 248.809 114.454 246.574Z" fill="url(#paint1_linear_3523_14225)"/>
</g>
<defs>
<linearGradient id="paint0_linear_3523_14225" x1="241.777" y1="521.13" x2="15.9636" y2="-5.27732e-06" gradientUnits="userSpaceOnUse">
<stop stop-color="#6773B7"/>
<stop offset="0.804003" stop-color="#21A87A"/>
</linearGradient>
<linearGradient id="paint1_linear_3523_14225" x1="59.8213" y1="191.94" x2="195.179" y2="327.298" gradientUnits="userSpaceOnUse">
<stop stop-color="#4F9EA2"/>
<stop offset="1" stop-color="#63E1B7"/>
</linearGradient>
<clipPath id="clip0_3523_14225">
<rect width="255" height="375" rx="24" fill="white"/>
</clipPath>
</defs>
</svg>
