<svg width="255" height="375" viewBox="0 0 255 375" fill="none" xmlns="http://www.w3.org/2000/svg">
<rect width="255" height="375" rx="24" fill="url(#paint0_linear_3523_14253)"/>
<path d="M169.478 154.828C196.323 154.828 218.085 176.59 218.085 203.435C218.085 221.338 208.406 236.979 193.996 245.414C208.407 253.848 218.086 269.49 218.086 287.393C218.086 314.238 196.324 336 169.479 336C151.576 336 135.934 326.321 127.5 311.91C119.065 326.321 103.424 335.999 85.5211 336C58.6761 336 36.9141 314.237 36.9141 287.392C36.9141 269.49 46.5931 253.849 61.0033 245.414C46.5931 236.98 36.9141 221.338 36.9141 203.435C36.9142 176.59 58.6763 154.828 85.5211 154.828C103.424 154.828 119.065 164.507 127.5 178.917C135.934 164.507 151.576 154.828 169.478 154.828ZM127.5 227.953C123.278 235.166 117.251 241.192 110.038 245.414C117.251 249.636 123.278 255.662 127.5 262.875C131.722 255.662 137.748 249.636 144.961 245.414C137.748 241.192 131.721 235.166 127.5 227.953Z" fill="url(#paint1_radial_3523_14253)" fill-opacity="0.46"/>
<path d="M151.487 193.65C166.827 193.65 179.263 206.086 179.263 221.426C179.263 231.656 173.732 240.594 165.498 245.414C173.732 250.233 179.263 259.171 179.263 269.402C179.263 284.742 166.828 297.177 151.488 297.177C141.257 297.177 132.319 291.646 127.499 283.412C122.68 291.646 113.742 297.177 103.512 297.177C88.1718 297.177 75.7363 284.741 75.7363 269.401C75.7364 259.171 81.2672 250.234 89.5016 245.414C81.2672 240.594 75.7363 231.656 75.7363 221.426C75.7364 206.086 88.1719 193.65 103.512 193.65C113.742 193.65 122.68 199.181 127.499 207.415C132.319 199.181 141.257 193.65 151.487 193.65ZM127.499 235.436C125.087 239.558 121.643 243.001 117.522 245.414C121.643 247.826 125.087 251.27 127.5 255.391C129.912 251.27 133.356 247.826 137.477 245.414C133.356 243.001 129.912 239.557 127.499 235.436Z" fill="url(#paint2_radial_3523_14253)" fill-opacity="0.46"/>
<defs>
<linearGradient id="paint0_linear_3523_14253" x1="127.5" y1="0" x2="127.5" y2="375" gradientUnits="userSpaceOnUse">
<stop stop-color="#63166E"/>
<stop offset="1" stop-color="#BF2AD4"/>
</linearGradient>
<radialGradient id="paint1_radial_3523_14253" cx="0" cy="0" r="1" gradientUnits="userSpaceOnUse" gradientTransform="translate(127.583 250.008) rotate(47.9546) scale(99.0116)">
<stop stop-color="white"/>
<stop offset="1" stop-color="white" stop-opacity="0.25"/>
</radialGradient>
<radialGradient id="paint2_radial_3523_14253" cx="0" cy="0" r="1" gradientUnits="userSpaceOnUse" gradientTransform="translate(127.547 248.039) rotate(47.9546) scale(56.5781)">
<stop stop-color="white"/>
<stop offset="1" stop-color="white" stop-opacity="0.25"/>
</radialGradient>
</defs>
</svg>
