<svg width="255" height="375" viewBox="0 0 255 375" fill="none" xmlns="http://www.w3.org/2000/svg">
<g clip-path="url(#clip0_3523_14202)">
<rect width="255" height="375" rx="24" fill="url(#paint0_linear_3523_14202)"/>
<path d="M217.954 249.637C238.972 255.616 251.163 277.502 245.184 298.519L240.28 315.759C234.301 336.777 212.416 348.969 191.398 342.99L80.8061 311.53C59.7885 305.551 47.5969 283.666 53.5758 262.648L58.48 245.408C64.4589 224.39 86.3442 212.199 107.362 218.178C86.3442 212.199 74.1526 190.314 80.1313 169.296L85.0356 152.056C91.0145 131.038 112.9 118.847 133.917 124.826L244.51 156.286C265.527 162.264 277.718 184.15 271.739 205.167L266.835 222.407C260.856 243.425 238.972 255.616 217.954 249.637Z" fill="url(#paint1_linear_3523_14202)"/>
<path d="M218.794 439.363C239.811 433.384 252.003 411.498 246.024 390.481L241.119 373.241C235.141 352.223 213.256 340.031 192.238 346.01L81.646 377.47C60.6283 383.449 48.4368 405.334 54.4156 426.352L59.3199 443.592C65.2987 464.61 87.184 476.801 108.202 470.822C87.1841 476.801 74.9924 498.686 80.9712 519.704L85.8755 536.944C91.8543 557.962 113.74 570.153 134.757 564.174L245.349 532.714C266.367 526.736 278.558 504.85 272.579 483.833L267.675 466.593C261.696 445.575 239.811 433.384 218.794 439.363Z" fill="url(#paint2_linear_3523_14202)"/>
<path d="M200.554 244.689C214.959 248.786 223.314 263.785 219.216 278.19L215.855 290.005C211.758 304.41 196.759 312.765 182.355 308.668L106.561 287.107C92.1566 283.009 83.8012 268.01 87.8987 253.606L91.2598 241.79C95.3574 227.386 110.356 219.031 124.761 223.128C110.356 219.031 102.001 204.032 106.098 189.628L109.46 177.812C113.557 163.408 128.556 155.052 142.96 159.15L218.754 180.711C233.159 184.808 241.514 199.807 237.416 214.211L234.055 226.027C229.957 240.431 214.959 248.786 200.554 244.689Z" fill="url(#paint3_linear_3523_14202)"/>
</g>
<defs>
<linearGradient id="paint0_linear_3523_14202" x1="38.0434" y1="9.85751e-07" x2="216.957" y2="375" gradientUnits="userSpaceOnUse">
<stop stop-color="#12294A"/>
<stop offset="0.189011" stop-color="#152F55"/>
<stop offset="1" stop-color="#2E66B4"/>
</linearGradient>
<linearGradient id="paint1_linear_3523_14202" x1="215.082" y1="147.914" x2="105.47" y2="316.81" gradientUnits="userSpaceOnUse">
<stop stop-color="#1A191E"/>
<stop offset="1" stop-color="#382927" stop-opacity="0.25"/>
</linearGradient>
<linearGradient id="paint2_linear_3523_14202" x1="166.29" y1="353.391" x2="159.736" y2="421.506" gradientUnits="userSpaceOnUse">
<stop stop-color="#1A191E" stop-opacity="0.4"/>
<stop offset="1" stop-color="#382927" stop-opacity="0"/>
</linearGradient>
<linearGradient id="paint3_linear_3523_14202" x1="198.586" y1="174.973" x2="123.464" y2="290.725" gradientUnits="userSpaceOnUse">
<stop stop-color="#21477D"/>
<stop offset="1" stop-color="#275596"/>
</linearGradient>
<clipPath id="clip0_3523_14202">
<rect width="255" height="375" rx="24" fill="white"/>
</clipPath>
</defs>
</svg>
