<svg width="255" height="375" viewBox="0 0 255 375" fill="none" xmlns="http://www.w3.org/2000/svg">
<g clip-path="url(#clip0_3523_14234)">
<rect width="255" height="375" rx="24" fill="url(#paint0_linear_3523_14234)"/>
<path d="M210.859 207.993C222.018 186.218 251.96 186.218 263.119 207.993L313.122 305.562C323.665 326.135 309.366 351 286.992 351H186.987C164.612 351 150.313 326.135 160.857 305.562L210.859 207.993Z" fill="url(#paint1_linear_3523_14234)" fill-opacity="0.58"/>
<path d="M-7.02169 207.993C4.13744 186.218 34.0794 186.218 45.2385 207.993L95.2409 305.562C105.784 326.135 91.4852 351 69.1108 351H-30.894C-53.2684 351 -67.5675 326.135 -57.0241 305.562L-7.02169 207.993Z" fill="url(#paint2_linear_3523_14234)" fill-opacity="0.58"/>
<path d="M93.5544 150.214C108.052 121.926 146.95 121.926 161.448 150.214L226.408 276.969C240.105 303.697 221.528 336 192.461 336H62.5409C33.4735 336 14.897 303.697 28.5944 276.969L93.5544 150.214Z" fill="url(#paint3_linear_3523_14234)" fill-opacity="0.58"/>
</g>
<defs>
<linearGradient id="paint0_linear_3523_14234" x1="237.091" y1="375" x2="-56.1735" y2="-45.5581" gradientUnits="userSpaceOnUse">
<stop stop-color="#413128"/>
<stop offset="1" stop-color="#A77E67"/>
</linearGradient>
<linearGradient id="paint1_linear_3523_14234" x1="236.989" y1="191.662" x2="234.306" y2="340.343" gradientUnits="userSpaceOnUse">
<stop stop-color="#B4836A"/>
<stop offset="0.555555" stop-color="#D0AD99" stop-opacity="0.237685"/>
<stop offset="0.790193" stop-color="#D6B6A3" stop-opacity="0.0805478"/>
<stop offset="1" stop-color="#D9BAA8" stop-opacity="0"/>
</linearGradient>
<linearGradient id="paint2_linear_3523_14234" x1="19.1084" y1="191.662" x2="16.4252" y2="340.343" gradientUnits="userSpaceOnUse">
<stop stop-color="#B4836A"/>
<stop offset="0.555555" stop-color="#D0AD99" stop-opacity="0.237685"/>
<stop offset="0.790193" stop-color="#D6B6A3" stop-opacity="0.0805478"/>
<stop offset="1" stop-color="#D9BAA8" stop-opacity="0"/>
</linearGradient>
<linearGradient id="paint3_linear_3523_14234" x1="127.501" y1="128.998" x2="127.501" y2="336" gradientUnits="userSpaceOnUse">
<stop stop-color="#B4836A"/>
<stop offset="1" stop-color="#D9BAA8" stop-opacity="0"/>
</linearGradient>
<clipPath id="clip0_3523_14234">
<rect width="255" height="375" rx="24" fill="white"/>
</clipPath>
</defs>
</svg>
