<svg width="255" height="375" viewBox="0 0 255 375" fill="none" xmlns="http://www.w3.org/2000/svg">
<g clip-path="url(#clip0_3523_14263)">
<rect width="255" height="375" rx="24" fill="url(#paint0_linear_3523_14263)"/>
<path d="M179.486 137.193C190.51 115.683 220.088 115.683 231.112 137.193L280.507 233.577C290.922 253.9 276.797 278.463 254.694 278.463H155.904C133.801 278.463 119.676 253.9 130.091 233.577L179.486 137.193Z" fill="url(#paint1_linear_3523_14263)"/>
<path d="M173.975 199.762C195.7 199.762 213.311 217.373 213.311 239.097C213.311 253.585 205.478 266.242 193.816 273.068C205.478 279.894 213.311 292.552 213.311 307.04C213.311 328.764 195.7 346.375 173.976 346.375C159.488 346.375 146.829 338.542 140.004 326.881C133.178 338.542 120.52 346.375 106.033 346.375C84.3083 346.375 66.6973 328.764 66.6973 307.04C66.6973 292.552 74.53 279.894 86.1915 273.069C74.5301 266.243 66.6973 253.585 66.6973 239.097C66.6974 217.373 84.3084 199.762 106.033 199.762C120.52 199.762 133.178 207.594 140.004 219.256C146.829 207.594 159.487 199.762 173.975 199.762ZM140.004 258.938C136.587 264.775 131.71 269.652 125.873 273.069C131.71 276.485 136.588 281.362 140.004 287.199C143.42 281.362 148.298 276.485 154.134 273.069C148.297 269.652 143.42 264.775 140.004 258.938Z" fill="url(#paint2_linear_3523_14263)"/>
<path d="M173.976 199.764C195.7 199.764 213.31 217.375 213.311 239.099C213.311 253.586 205.478 266.245 193.816 273.07C196.418 274.593 198.829 276.407 201.005 278.466H155.904C153.178 278.466 150.573 278.091 148.121 277.397C149.98 275.775 151.992 274.324 154.134 273.07C148.297 269.654 143.42 264.777 140.004 258.94C138.177 262.061 135.933 264.906 133.348 267.401C126.235 258.387 124.094 245.281 130.091 233.579L138.582 217.009C139.08 217.741 139.555 218.491 140.004 219.258C146.83 207.596 159.488 199.764 173.976 199.764Z" fill="url(#paint3_linear_3523_14263)"/>
</g>
<defs>
<linearGradient id="paint0_linear_3523_14263" x1="-5.79971e-06" y1="369.171" x2="255" y2="5.82909" gradientUnits="userSpaceOnUse">
<stop stop-color="#D74E05"/>
<stop offset="1" stop-color="#712903"/>
</linearGradient>
<linearGradient id="paint1_linear_3523_14263" x1="164.665" y1="121.061" x2="245.934" y2="278.463" gradientUnits="userSpaceOnUse">
<stop stop-color="#B37005"/>
<stop offset="1" stop-color="#8C0F04"/>
</linearGradient>
<linearGradient id="paint2_linear_3523_14263" x1="73.4717" y1="346.375" x2="206.537" y2="199.762" gradientUnits="userSpaceOnUse">
<stop stop-color="#A63D04"/>
<stop offset="1" stop-color="white" stop-opacity="0"/>
</linearGradient>
<linearGradient id="paint3_linear_3523_14263" x1="73.7628" y1="305.116" x2="206.829" y2="158.503" gradientUnits="userSpaceOnUse">
<stop stop-color="#A63D04"/>
<stop offset="1" stop-color="#C67143"/>
</linearGradient>
<clipPath id="clip0_3523_14263">
<rect width="255" height="375" rx="24" fill="white"/>
</clipPath>
</defs>
</svg>
