<svg width="20" height="20" viewBox="0 0 20 20" fill="none" xmlns="http://www.w3.org/2000/svg">
<path d="M13 13L19 19M8 15C7.08075 15 6.1705 14.8189 5.32122 14.4672C4.47194 14.1154 3.70026 13.5998 3.05025 12.9497C2.40024 12.2997 1.88463 11.5281 1.53284 10.6788C1.18106 9.82951 1 8.91925 1 8C1 7.08075 1.18106 6.1705 1.53284 5.32122C1.88463 4.47194 2.40024 3.70026 3.05025 3.05025C3.70026 2.40024 4.47194 1.88463 5.32122 1.53284C6.1705 1.18106 7.08075 1 8 1C9.85652 1 11.637 1.7375 12.9497 3.05025C14.2625 4.36301 15 6.14348 15 8C15 9.85652 14.2625 11.637 12.9497 12.9497C11.637 14.2625 9.85652 15 8 15Z" stroke="#352F36" stroke-width="2" stroke-linecap="round" stroke-linejoin="round"/>
</svg>
