<svg width="24" height="24" viewBox="0 0 24 24" fill="none" xmlns="http://www.w3.org/2000/svg">
<path d="M6 6V17.8C6 18.92 6 19.48 6.218 19.908C6.40974 20.2843 6.71569 20.5903 7.092 20.782C7.519 21 8.079 21 9.197 21H14.803C15.921 21 16.48 21 16.907 20.782C17.284 20.59 17.59 20.284 17.782 19.908C18 19.48 18 18.921 18 17.803V6M6 6H8M6 6H4M18 6H16M18 6H20M8 6H16M8 6C8 5.068 8 4.602 8.152 4.235C8.2524 3.99227 8.39963 3.7717 8.58528 3.58588C8.77093 3.40005 8.99137 3.25262 9.234 3.152C9.602 3 10.068 3 11 3H13C13.932 3 14.398 3 14.765 3.152C15.0078 3.25251 15.2284 3.3999 15.4143 3.58572C15.6001 3.77155 15.7475 3.99218 15.848 4.235C16 4.602 16 5.068 16 6" stroke="#352F36" stroke-width="2" stroke-linecap="round" stroke-linejoin="round"/>
</svg>
