<svg width="199" height="229" viewBox="0 0 199 229" fill="none" xmlns="http://www.w3.org/2000/svg">
<g filter="url(#filter0_d_2088_8082)">
<path d="M117.686 19.0264C120.743 5.42222 137.266 1.15952 146.524 11.5859L188.007 58.3047C196.755 68.1558 192.404 83.9129 180.058 87.0986L140.838 97.2188H174.309C184.531 97.219 192.817 105.505 192.817 115.727V124.111C192.817 134.333 184.531 142.62 174.309 142.62C184.531 142.62 192.817 150.907 192.817 161.129V169.514C192.817 179.735 184.531 188.021 174.309 188.021H120.522C115.234 188.021 110.465 185.804 107.092 182.248V203.86C107.092 214.082 98.8061 222.368 88.5845 222.368H34.7974C24.5756 222.368 16.2896 214.082 16.2896 203.86V150.074C16.2896 139.852 24.5756 131.566 34.7974 131.565H55.4282C51.2464 128.24 48.2836 123.626 46.9731 118.498C40.9182 124.275 32.0453 126.777 23.4204 124.303C10.4875 120.593 3.01056 107.101 6.72021 94.168C9.1944 85.543 16.0194 79.3445 24.1274 77.2725C18.3508 71.2175 15.8496 62.3446 18.3237 53.7197C22.0338 40.7868 35.5255 33.3096 48.4585 37.0195C57.0832 39.4937 63.2809 46.3189 65.353 54.4268C71.408 48.6501 80.2818 46.1489 88.9067 48.623C98.6566 51.4201 105.304 59.7765 106.396 69.2617L117.686 19.0264ZM103.539 83.7764C100.253 89.7656 94.6321 94.0084 88.1997 95.6523C93.9764 101.707 96.4776 110.581 94.0034 119.206C92.5472 124.282 89.5835 128.517 85.7388 131.565H88.5845C98.2651 131.566 106.208 138.998 107.022 148.468C110.399 144.869 115.198 142.62 120.522 142.62C110.3 142.62 102.014 134.333 102.014 124.111V115.727C102.014 108.587 106.056 102.392 111.977 99.3047C106.897 96.1166 103.45 90.2924 103.539 83.7764ZM58.5767 78.0508C55.546 80.9421 51.8087 83.0128 47.7505 84.0498C50.6418 87.0804 52.7134 90.8168 53.7505 94.875C56.781 91.9838 60.5176 89.913 64.5757 88.876C61.6845 85.8455 59.6137 82.1088 58.5767 78.0508Z" fill="#352F36"/>
</g>
<defs>
<filter id="filter0_d_2088_8082" x="-7.96318e-05" y="-7.96318e-05" width="198.587" height="228.138" filterUnits="userSpaceOnUse" color-interpolation-filters="sRGB">
<feFlood flood-opacity="0" result="BackgroundImageFix"/>
<feColorMatrix in="SourceAlpha" type="matrix" values="0 0 0 0 0 0 0 0 0 0 0 0 0 0 0 0 0 0 127 0" result="hardAlpha"/>
<feOffset/>
<feGaussianBlur stdDeviation="2.88481"/>
<feComposite in2="hardAlpha" operator="out"/>
<feColorMatrix type="matrix" values="0 0 0 0 0 0 0 0 0 0 0 0 0 0 0 0 0 0 0.25 0"/>
<feBlend mode="normal" in2="BackgroundImageFix" result="effect1_dropShadow_2088_8082"/>
<feBlend mode="normal" in="SourceGraphic" in2="effect1_dropShadow_2088_8082" result="shape"/>
</filter>
</defs>
</svg>
