<svg width="96" height="96" viewBox="0 0 96 96" fill="none" xmlns="http://www.w3.org/2000/svg">
<path d="M47.9997 36.0009V52.0009M47.9997 68.0009H48.0397M86.9197 72.0009L54.9197 16.0009C54.222 14.7697 53.2101 13.7456 51.9874 13.0332C50.7647 12.3207 49.3749 11.9453 47.9597 11.9453C46.5446 11.9453 45.1547 12.3207 43.932 13.0332C42.7093 13.7456 41.6975 14.7697 40.9997 16.0009L8.99972 72.0009C8.29445 73.2223 7.92463 74.6085 7.92775 76.0189C7.93088 77.4294 8.30683 78.8139 9.0175 80.0322C9.72818 81.2505 10.7483 82.2592 11.9745 82.9562C13.2007 83.6532 14.5893 84.0136 15.9997 84.0009H79.9997C81.4033 83.9995 82.7818 83.6288 83.9968 82.926C85.2119 82.2233 86.2206 81.2133 86.9218 79.9974C87.6229 78.7814 87.9919 77.4024 87.9915 75.9988C87.9912 74.5952 87.6215 73.2165 86.9197 72.0009Z" stroke="#352F36" stroke-width="8" stroke-linecap="round" stroke-linejoin="round"/>
</svg>
