<svg width="12" height="12" viewBox="0 0 12 12" fill="none" xmlns="http://www.w3.org/2000/svg">
<path d="M7.5 8.5V9C7.5 9.39782 7.34196 9.77936 7.06066 10.0607C6.77936 10.342 6.39782 10.5 6 10.5C5.60218 10.5 5.22064 10.342 4.93934 10.0607C4.65804 9.77936 4.5 9.39782 4.5 9V8.5M7.5 8.5H4.5H7.5ZM7.5 8.5H9.295C9.4865 8.5 9.5825 8.5 9.66 8.474C9.7329 8.44932 9.79911 8.40814 9.85349 8.35368C9.90787 8.29922 9.94894 8.23294 9.9735 8.16C10 8.082 10 7.986 10 7.793C10 7.7085 10 7.6665 9.993 7.626C9.98066 7.55029 9.95106 7.47844 9.9065 7.416C9.8825 7.3825 9.8525 7.3525 9.793 7.293L9.598 7.098C9.5669 7.06687 9.54224 7.02991 9.52542 6.98925C9.50861 6.94858 9.49997 6.905 9.5 6.861V5C9.5 4.54037 9.40947 4.08525 9.23358 3.66061C9.05769 3.23597 8.79988 2.85013 8.47487 2.52513C8.14987 2.20012 7.76403 1.94231 7.33939 1.76642C6.91475 1.59053 6.45963 1.5 6 1.5C5.54037 1.5 5.08525 1.59053 4.66061 1.76642C4.23597 1.94231 3.85013 2.20012 3.52513 2.52513C3.20012 2.85013 2.94231 3.23597 2.76642 3.66061C2.59053 4.08525 2.5 4.54037 2.5 5V6.861C2.50003 6.905 2.49139 6.94858 2.47458 6.98925C2.45776 7.02991 2.4331 7.06687 2.402 7.098L2.207 7.293C2.147 7.353 2.1175 7.3825 2.094 7.4155C2.04901 7.47799 2.01907 7.55003 2.0065 7.626C2 7.666 2 7.7085 2 7.793C2 7.986 2 8.082 2.026 8.16C2.05067 8.23304 2.09189 8.29939 2.14645 8.35386C2.201 8.40833 2.26742 8.44945 2.3405 8.474C2.418 8.5 2.5135 8.5 2.705 8.5H4.5" fill="#49444A"/>
</svg>
