<svg width="100" height="100" viewBox="0 0 100 100" fill="none" xmlns="http://www.w3.org/2000/svg">
<mask id="path-1-inside-1_4404_14896" fill="white">
<path d="M80.1377 50.0068C91.1549 50.2859 100 59.3043 100 70.3887V79.6113C100 90.8716 90.8716 100 79.6113 100H20.3887C9.12841 100 0 90.8716 0 79.6113V70.3887C0 59.3044 8.84531 50.2861 19.8623 50.0068L20.3887 50C9.12841 50 0 40.8716 0 29.6113V20.3887C0 9.1284 9.1284 3.79179e-05 20.3887 0H79.6113C90.8716 0 100 9.12837 100 20.3887V29.6113C100 40.8716 90.8716 50 79.6113 50L80.1377 50.0068Z"/>
</mask>
<path d="M80.1377 50.0068L80.3909 40.01C80.3498 40.009 80.3087 40.0082 80.2676 40.0077L80.1377 50.0068ZM20.3887 100L20.3886 110H20.3887V100ZM19.8623 50.0068L19.7324 40.0077C19.6913 40.0082 19.6501 40.009 19.6089 40.01L19.8623 50.0068ZM20.3887 50L20.5185 59.9992C26.0156 59.9278 30.4241 55.4325 30.3885 49.9351C30.3528 44.4377 25.8862 40 20.3887 40L20.3887 50ZM20.3887 0V-10H20.3886L20.3887 0ZM79.6113 50V40C74.1138 40 69.6472 44.4377 69.6115 49.9351C69.5758 55.4325 73.9844 59.9278 79.4815 59.9992L79.6113 50ZM80.1377 50.0068L79.8845 60.0036C85.493 60.1457 90 64.7422 90 70.3887H100H110C110 53.8663 96.8168 40.4261 80.3909 40.01L80.1377 50.0068ZM100 70.3887H90V79.6113H100H110V70.3887H100ZM100 79.6113H90C90 85.3488 85.3488 90 79.6113 90V100V110C96.3945 110 110 96.3945 110 79.6113H100ZM79.6113 100V90H20.3887V100V110H79.6113V100ZM20.3887 100L20.3887 90C14.6512 90 10 85.3487 10 79.6113H0H-10C-10 96.3945 3.60559 110 20.3886 110L20.3887 100ZM0 79.6113H10V70.3887H0H-10V79.6113H0ZM0 70.3887H10C10 64.7425 14.5071 60.1458 20.1157 60.0036L19.8623 50.0068L19.6089 40.01C3.18354 40.4263 -10 53.8662 -10 70.3887H0ZM19.8623 50.0068L19.9922 60.006L20.5185 59.9992L20.3887 50L20.2588 40.0008L19.7324 40.0077L19.8623 50.0068ZM20.3887 50L20.3887 40C14.6512 40 10 35.3487 10 29.6113H0H-10C-10 46.3945 3.60559 59.9999 20.3886 60L20.3887 50ZM0 29.6113H10V20.3887H0H-10V29.6113H0ZM0 20.3887H10C10 14.6513 14.6512 10 20.3887 10L20.3887 0L20.3886 -10C3.60558 -9.99994 -10 3.60551 -10 20.3887H0ZM20.3887 0V10H79.6113V0V-10H20.3887V0ZM79.6113 0V10C85.3488 10 90 14.6512 90 20.3887H100H110C110 3.60552 96.3945 -10 79.6113 -10V0ZM100 20.3887H90V29.6113H100H110V20.3887H100ZM100 29.6113H90C90 35.3488 85.3488 40 79.6113 40V50V60C96.3945 60 110 46.3945 110 29.6113H100ZM79.6113 50L79.4815 59.9992L80.0078 60.006L80.1377 50.0068L80.2676 40.0077L79.7412 40.0008L79.6113 50Z" fill="#B34310" mask="url(#path-1-inside-1_4404_14896)"/>
</svg>
