<svg width="120" height="139" viewBox="0 0 120 139" fill="none" xmlns="http://www.w3.org/2000/svg">
<path d="M103.924 62.4785C111.583 62.4785 117.793 68.6876 117.793 76.3467C117.793 83.9931 111.604 90.194 103.963 90.2148C111.605 90.2357 117.793 96.4366 117.793 104.083C117.793 111.742 111.583 117.951 103.924 117.951H76.1876C68.5285 117.951 62.3196 111.742 62.3195 104.083C62.3195 96.4372 68.5068 90.2365 76.1476 90.2148C68.5068 90.1932 62.3195 83.9925 62.3195 76.3467C62.3197 68.6876 68.5286 62.4786 76.1876 62.4785H103.924Z" fill="#F0EFF1"/>
<rect x="9.94763" y="83.459" width="55.4732" height="55.4732" rx="15.649" fill="#F0EFF1"/>
<path d="M54.3107 32.7913C62.2117 35.0578 66.7801 43.3002 64.5137 51.2012C63.0019 56.4711 58.8309 60.2565 53.8766 61.5218C57.4074 65.2209 58.9377 70.6425 57.4259 75.9128C55.1593 83.8138 46.9163 88.3811 39.0153 86.1146C33.7462 84.603 29.9597 80.4338 28.6939 75.4804C24.9949 79.0089 19.5755 80.538 14.3068 79.0267C6.40572 76.7602 1.83847 68.5172 4.10497 60.6161C5.61663 55.347 9.78574 51.5604 14.7392 50.2948C11.21 46.5957 9.68069 41.1756 11.1922 35.9064C13.4587 28.0055 21.7009 23.4381 29.6018 25.7043C34.8703 27.2156 38.6565 31.384 39.9228 36.3364C43.6218 32.8079 49.042 31.2801 54.3107 32.7913ZM35.7824 50.7699C33.9308 52.5364 31.6484 53.8007 29.169 54.4341C30.9357 56.2855 32.2015 58.5678 32.8353 61.0471C34.6868 59.2811 36.9696 58.0163 39.4487 57.383C37.682 55.5315 36.4161 53.2493 35.7824 50.7699Z" fill="#F0EFF1"/>
<path d="M71.895 14.7086C73.7628 6.39752 83.8564 3.79303 89.5123 10.1627L114.855 38.7043C120.199 44.7225 117.542 54.3485 109.999 56.2948L76.2869 64.9937C68.7444 66.9399 61.7611 59.8015 63.5259 51.949L71.895 14.7086Z" fill="#F0EFF1"/>
</svg>
