<svg width="18" height="18" viewBox="0 0 18 18" fill="none" xmlns="http://www.w3.org/2000/svg">
<path d="M9 15.75C8.11358 15.75 7.23583 15.5754 6.41689 15.2362C5.59794 14.897 4.85382 14.3998 4.22703 13.773C3.60023 13.1462 3.10303 12.4021 2.76381 11.5831C2.42459 10.7642 2.25 9.88642 2.25 9C2.25 8.11358 2.42459 7.23583 2.76381 6.41689C3.10303 5.59794 3.60023 4.85382 4.22703 4.22703C4.85382 3.60023 5.59794 3.10303 6.41689 2.76381C7.23583 2.42459 8.11358 2.25 9 2.25C10.7902 2.25 12.5071 2.96116 13.773 4.22703C15.0388 5.4929 15.75 7.20979 15.75 9C15.75 10.7902 15.0388 12.5071 13.773 13.773C12.5071 15.0388 10.7902 15.75 9 15.75Z" fill="#C2C1C3" stroke="#C2C1C3" stroke-width="1.5" stroke-linecap="round" stroke-linejoin="round"/>
<path d="M6.87868 6.87913L9 9.00045M9 9.00045L11.1213 11.1218M9 9.00045L6.87868 11.1218M9 9.00045L11.1213 6.87913" stroke="#FAFAFA" stroke-width="1.5" stroke-linecap="round" stroke-linejoin="round"/>
</svg>
