<svg width="48" height="48" viewBox="0 0 48 48" fill="none" xmlns="http://www.w3.org/2000/svg">
<rect x="3" y="3" width="42" height="42" rx="21" fill="#F0EFF1"/>
<rect x="3" y="3" width="42" height="42" rx="21" stroke="#FAFAFA" stroke-width="6"/>
<path d="M18.5 28.5H30.5M18.5 28.5V25.5L26.6518 17.3483L26.6525 17.3475C26.9487 17.0513 27.0972 16.9028 27.2682 16.8473C27.4189 16.7983 27.5811 16.7983 27.7318 16.8473C27.9028 16.9028 28.0505 17.0513 28.3467 17.3468L29.6517 18.6518C29.9487 18.9488 30.0973 19.0973 30.1528 19.2683C30.2017 19.4189 30.2017 19.5811 30.1528 19.7318C30.0973 19.9028 29.9487 20.0513 29.6517 20.3483L21.5 28.5008L18.5 28.5Z" stroke="#352F36" stroke-width="1.5" stroke-linecap="round" stroke-linejoin="round"/>
</svg>
