<svg width="18" height="18" viewBox="0 0 18 18" fill="none" xmlns="http://www.w3.org/2000/svg">
<path d="M2.25 4.5V12.6C2.25 13.44 2.25 13.86 2.4135 14.181C2.55731 14.4632 2.78677 14.6927 3.069 14.8365C3.38925 15 3.80925 15 4.64775 15H13.3522C14.1907 15 14.61 15 14.9302 14.8365C15.213 14.6925 15.4425 14.463 15.5865 14.181C15.75 13.86 15.75 13.44 15.75 12.6V6.9C15.75 6.06 15.75 5.64 15.5865 5.319C15.4427 5.03677 15.2132 4.80731 14.931 4.6635C14.61 4.5 14.19 4.5 13.35 4.5H9M2.25 4.5H9M2.25 4.5C2.25 4.10218 2.40804 3.72064 2.68934 3.43934C2.97064 3.15804 3.35218 3 3.75 3H6.50625C6.873 3 7.05675 3 7.22925 3.04125C7.38325 3.07875 7.52775 3.13875 7.66275 3.22125C7.81425 3.31425 7.944 3.444 8.20275 3.7035L9 4.5" stroke="#868286" stroke-width="1.5" stroke-linecap="round" stroke-linejoin="round"/>
</svg>
