<svg width="18" height="18" viewBox="0 0 18 18" fill="none" xmlns="http://www.w3.org/2000/svg">
<path d="M6.87897 11.1221L11.1217 6.87934M5.28747 8.47009L4.22697 9.53059C3.94839 9.80917 3.7274 10.1399 3.57663 10.5039C3.42587 10.8679 3.34827 11.258 3.34827 11.652C3.34827 12.0459 3.42587 12.4361 3.57663 12.8C3.7274 13.164 3.94839 13.4948 4.22697 13.7733C4.50555 14.0519 4.83628 14.2729 5.20026 14.4237C5.56425 14.5744 5.95437 14.652 6.34834 14.652C6.74232 14.652 7.13244 14.5744 7.49642 14.4237C7.86041 14.2729 8.19114 14.0519 8.46972 13.7733L9.52872 12.7128M8.46897 5.28784L9.52947 4.22734C9.80805 3.94875 10.1388 3.72777 10.5028 3.577C10.8667 3.42623 11.2569 3.34863 11.6508 3.34863C12.0448 3.34863 12.4349 3.42623 12.7989 3.577C13.1629 3.72777 13.4936 3.94875 13.7722 4.22734C14.0508 4.50592 14.2718 4.83664 14.4226 5.20063C14.5733 5.56462 14.6509 5.95473 14.6509 6.34871C14.6509 6.74269 14.5733 7.1328 14.4226 7.49679C14.2718 7.86078 14.0508 8.1915 13.7722 8.47009L12.7117 9.53059" stroke="#868286" stroke-width="1.5" stroke-linecap="round" stroke-linejoin="round"/>
</svg>
