<svg width="59" height="68" viewBox="0 0 59 68" fill="none" xmlns="http://www.w3.org/2000/svg">
<path d="M51.0999 44.0645C54.6783 44.2458 57.5237 47.2046 57.5237 50.8281C57.5235 54.5683 54.4915 57.6006 50.7512 57.6006H37.2063C33.4662 57.6004 30.434 54.5682 30.4338 50.8281C30.4338 47.2048 33.2795 44.2461 36.8577 44.0645L37.2063 44.0557C33.4661 44.0555 30.4338 41.0234 30.4338 37.2832C30.4339 33.543 33.4661 30.5109 37.2063 30.5107H50.7512C54.4915 30.5107 57.5236 33.5429 57.5237 37.2832C57.5237 41.0235 54.4915 44.0557 50.7512 44.0557L51.0999 44.0645Z" fill="#C2C1C3"/>
<rect x="4.8584" y="40.7568" width="27.0899" height="27.0899" rx="13.5449" fill="#C2C1C3"/>
<path d="M26.5218 16.0131C30.3801 17.1199 32.6112 21.1449 31.5046 25.0032C30.7661 27.5776 28.7276 29.4255 26.307 30.0427C28.0325 31.8492 28.7813 34.4965 28.0428 37.0711C26.9359 40.9294 22.9113 43.1597 19.053 42.053C16.4786 41.3145 14.6305 39.2768 14.0131 36.8564C12.2067 38.5811 9.55997 39.3298 6.98593 38.5914C3.12791 37.4845 0.897506 33.4598 2.00406 29.6017C2.74241 27.0278 4.77986 25.1792 7.19973 24.5616C5.47532 22.7551 4.72734 20.1084 5.46562 17.5346C6.57241 13.6763 10.5974 11.4452 14.4557 12.5518C17.0291 13.29 18.876 15.3276 19.4939 17.7469C21.3003 16.0223 23.9478 15.2749 26.5218 16.0131ZM17.4747 24.7894C16.5696 25.6536 15.4545 26.2723 14.2419 26.5817C15.1059 27.4866 15.7238 28.602 16.0333 29.8142C16.9383 28.9503 18.0544 28.3324 19.2668 28.0231C18.4024 27.1179 17.7841 26.0021 17.4747 24.7894Z" fill="#C2C1C3"/>
<path d="M35.1099 7.18277C36.022 3.12414 40.9511 1.85227 43.7131 4.96284L56.0892 18.9009C58.6988 21.8398 57.401 26.5406 53.7177 27.491L37.2546 31.7391C33.5713 32.6895 30.1611 29.2035 31.0229 25.3688L35.1099 7.18277Z" fill="#C2C1C3"/>
</svg>
