<svg width="30" height="30" viewBox="0 0 30 30" fill="none" xmlns="http://www.w3.org/2000/svg">
<path d="M23.5325 0H0V16.3637V23.1817V24.5456H5.5371V30H23.5325V0Z" fill="#EFF3F6"/>
<path d="M28.1754 7.59353C29.3874 8.65719 29.6013 10.327 28.6779 11.2366C28.3602 11.5488 27.9518 11.7294 27.5076 11.7825C26.479 11.9054 25.5819 12.358 24.8967 13.0331H24.8961L23.5324 11.6899L22.9387 11.1048L22.9462 11.0967C23.1704 10.8765 23.365 10.6311 23.5324 10.3664C23.8847 9.80882 24.1111 9.16376 24.2171 8.47032C24.2862 8.01287 24.4994 7.59697 24.8627 7.28744C25.7161 6.55987 27.1474 6.6914 28.1752 7.59353H28.1754Z" fill="#FF7979"/>
<path d="M25.3853 13.5143L23.9172 14.9612L23.5323 14.5815L23.4279 14.4792L22.4492 13.5143L21.4698 12.5502L20.9805 12.0682L22.4492 10.6221L22.9385 11.1041L23.5323 11.6891L24.8959 13.0323L25.3853 13.5143Z" fill="#707487"/>
<path d="M22.4495 13.5144L23.4281 14.4793L16.0866 21.7106L13.1506 22.6747L14.1292 19.7825L21.4701 12.5503L22.4495 13.5144Z" fill="#5B6072"/>
<path d="M20.764 2.72656H2.76855V6.81753H20.764V2.72656Z" fill="#AFB9D2"/>
<path d="M15.0554 26.6748C15.0554 27.3811 14.4739 27.9545 13.7562 27.9545C13.0385 27.9545 12.4585 27.3811 12.4585 26.6748C12.4585 26.0337 13.3243 25.3056 13.7514 24.6299C14.1861 25.3172 15.0554 26.0243 15.0554 26.6748Z" fill="#86DCFD"/>
<path d="M14.5349 9.54541H9.68994V12.2727H14.5349V9.54541Z" fill="#D7DEED"/>
<path d="M7.61358 15H2.76855V17.7274H7.61358V15Z" fill="#D7DEED"/>
<path d="M7.61358 9.54541H2.76855V12.2727H7.61358V9.54541Z" fill="#D7DEED"/>
<path d="M5.5371 24.5459V30.0004C3.60394 28.0968 1.93241 26.4495 0 24.5459H5.5371Z" fill="#DBDFE0"/>
<path d="M13.1507 18.4093H9.69C9.3077 18.4093 8.9978 18.104 8.9978 17.7274V15C8.9978 14.6235 9.3077 14.3184 9.69 14.3184H13.1507C13.5329 14.3184 13.8428 14.6235 13.8428 15C13.8428 15.3765 13.5329 15.6819 13.1507 15.6819H10.3822V17.0455H13.1507C13.5329 17.0455 13.8428 17.3509 13.8428 17.7274C13.8428 18.1039 13.5329 18.4093 13.1507 18.4093Z" fill="#D7DEED"/>
<path d="M18.688 12.9542H16.6116C16.2294 12.9542 15.9194 12.649 15.9194 12.2725V9.54516C15.9194 9.16866 16.2294 8.86328 16.6116 8.86328H18.688C19.0702 8.86328 19.38 9.16866 19.38 9.54516C19.38 9.92167 19.0702 10.227 18.688 10.227H17.3036V11.5906H18.688C19.0702 11.5906 19.38 11.8958 19.38 12.2725C19.38 12.6492 19.0702 12.9542 18.688 12.9542Z" fill="#D7DEED"/>
<path d="M6.22891 21.136H2.76825C2.38605 21.136 2.07617 20.8307 2.07617 20.4543C2.07617 20.078 2.38605 19.7725 2.76825 19.7725H6.22891C6.61111 19.7725 6.92099 20.0778 6.92099 20.4543C6.92099 20.8308 6.61111 21.136 6.22891 21.136Z" fill="#D7DEED"/>
<path d="M11.0738 23.1819H2.76825C2.38605 23.1819 2.07617 22.8766 2.07617 22.5002C2.07617 22.1239 2.38605 21.8184 2.76825 21.8184H11.0738C11.456 21.8184 11.766 22.1237 11.766 22.5002C11.766 22.8767 11.456 23.1819 11.0738 23.1819Z" fill="#D7DEED"/>
</svg>
